<svg width="100" height="100" viewBox="0 0 100 100" fill="none" xmlns="http://www.w3.org/2000/svg">
<g clip-path="url(#clip0_33_2778)">
<mask id="path-1-outside-1_33_2778" maskUnits="userSpaceOnUse" x="0" y="-1.00001" width="101" height="102" fill="black">
<rect fill="white" y="-1.00001" width="101" height="102"></rect>
<path d="M55.8561 1.88515C56.4808 2.0101 56.9806 2.3433 56.9806 2.59321C57.0223 3.75943 57.6887 4.2176 58.605 3.75944C59.1048 3.46788 59.3964 3.09303 59.2714 2.84313C58.9382 2.34331 59.3964 2.38496 61.9371 2.96807C64.3112 3.50953 64.5611 4.051 63.3949 6.34181L62.6868 7.67464L63.6031 6.88327C64.1029 6.42511 64.4778 5.59208 64.4778 4.88402C64.4778 3.59284 64.6444 3.50954 66.5187 4.17596C68.0181 4.71742 68.1431 5.21722 66.9352 6.46675C65.6857 7.79958 66.4354 9.00746 68.6013 9.21572C69.6842 9.29902 70.1423 9.21571 70.0174 8.88251C69.9341 8.59095 70.0174 8.25774 70.2673 8.09114C70.5172 7.96619 70.7254 7.59133 70.7254 7.34142C70.7254 7.04987 70.5588 7.09153 70.3089 7.46638C70.0174 7.9662 69.8508 7.88289 69.4759 7.04987C69.0594 6.09189 69.0594 6.09189 69.226 6.92491C69.351 7.54967 69.1844 7.88289 68.8095 7.88289C68.4763 7.88289 68.2264 7.71629 68.2264 7.46638C68.2264 7.25813 67.9348 7.17482 67.56 7.34142C66.8936 7.59133 67.0602 7.17481 68.4763 5.05062C68.6013 4.88401 71.6834 6.42511 73.9326 7.71629C74.7239 8.17445 75.3071 8.84086 75.3487 9.34068C75.3487 10.0904 75.3904 10.0904 75.6403 9.46562C75.9318 8.75755 76.0151 8.79921 77.3063 9.54893C78.0144 10.0071 78.6391 10.5902 78.6391 10.7985C78.6391 11.0484 78.8474 11.1317 79.0973 11.0067C79.3472 10.8401 81.9296 13.1309 84.9284 16.0881C90.9678 22.1275 91.2177 22.669 89.2185 25.8345C88.6354 26.7924 88.2605 27.6254 88.3855 27.7504C88.4688 27.8754 88.9269 27.2506 89.3851 26.3759L90.1764 24.8348L90.468 26.0011C90.7179 26.959 90.8429 27.084 91.1344 26.5842C91.3427 26.2926 91.426 25.7095 91.301 25.293C91.2177 24.9181 91.301 24.5016 91.5093 24.3767C92.1341 23.9602 92.4673 25.6679 91.9674 26.7091C91.5093 27.6254 91.5509 27.6254 92.134 26.8757C92.9254 25.8761 92.8838 25.8345 94.0083 28.8333C95.0913 31.7489 95.0913 31.7489 94.05 31.1241C93.3419 30.666 93.092 30.7493 92.3007 31.5406C91.0928 32.7069 91.6759 33.9147 93.4669 33.9147C94.3832 33.9147 94.7164 33.6648 94.883 32.8735C95.1329 31.9988 95.2995 32.2904 96.0492 34.7478C96.549 36.3305 97.2155 38.7879 97.507 40.204C98.0901 42.5781 98.0485 42.7447 97.2571 43.4112C96.7573 43.8277 96.549 44.3275 96.7157 44.7856C96.9656 45.4521 97.0489 45.4104 97.7986 44.744C98.6316 43.9943 98.6316 44.0359 98.6316 46.535V49.034L97.5903 48.5759C97.0489 48.2843 96.5074 47.8678 96.4241 47.6596C96.3408 47.4096 96.2991 47.5762 96.3408 47.9511C96.4241 48.326 96.2158 48.7425 95.8826 48.8674C95.1329 49.159 95.1329 50.95 95.9243 51.6164C96.7157 52.2828 98.0068 51.8247 98.5483 50.6584C98.9648 49.8254 99.0065 49.8671 99.0065 51.2832C99.0481 52.1579 98.8399 52.8659 98.59 52.8659C98.3817 52.8659 98.2984 53.0742 98.4233 53.2824C98.5899 53.5323 98.5066 53.9905 98.2151 54.3237C97.9235 54.6986 97.8819 54.9485 98.2151 55.1567C98.8399 55.5316 98.7149 56.198 98.0485 55.9481C97.3821 55.6982 97.3821 56.7395 98.0068 57.3226C98.1734 57.4892 98.2151 57.4059 98.0485 57.1143C97.8819 56.8644 97.9652 56.6145 98.2151 56.6145C98.5483 56.6145 98.5899 56.9061 98.4233 57.3226C98.2567 57.7391 98.0901 58.2805 98.0901 58.5721C98.0901 58.947 97.8402 58.947 97.2155 58.6138C96.3824 58.1556 96.3824 58.1972 97.0905 58.9886C97.9652 59.9882 98.0485 60.6547 97.1738 59.9466C96.674 59.5301 96.3824 59.5301 96.0492 59.8633C95.6744 60.2381 95.7993 60.613 96.5491 61.4044C97.632 62.5706 97.3821 63.362 96.2575 62.3623C94.7581 61.1128 94.2999 61.1128 95.5494 62.404C96.7157 63.5702 96.8406 63.8618 96.5491 65.1946C96.0492 67.4021 94.4249 71.1924 93.9667 71.1924C93.217 71.1924 92.5089 72.2336 92.6755 73.0667C92.8421 73.8164 92.8005 73.8164 92.384 73.15C92.134 72.7751 91.7175 72.4419 91.5093 72.4419C91.2594 72.4419 91.3843 72.8584 91.7175 73.3582C92.4673 74.3995 92.5922 75.1075 92.0091 74.7327C91.8008 74.6077 91.5509 74.8576 91.4676 75.2325C91.3427 75.8573 91.2594 75.8156 91.0511 75.0242C90.9262 74.5244 90.9678 74.1912 91.1761 74.3578C91.3843 74.4828 91.5509 74.3995 91.5509 74.1496C91.5509 73.9413 91.3843 73.6081 91.1344 73.4832C90.9262 73.3582 90.7179 73.4415 90.7179 73.6914C90.7179 73.9413 90.5097 74.0246 90.2598 73.858C89.9265 73.6498 89.9265 73.8164 90.2598 74.4411C90.9262 75.649 90.8429 75.9822 90.0099 75.3158C89.4267 74.816 89.4267 74.8993 90.0932 75.8989C90.8012 77.0235 90.8012 77.0651 89.7183 78.6479C88.1772 80.8554 82.596 86.2284 82.1795 85.8535C81.9712 85.6869 81.9712 85.8951 82.1378 86.3533C82.3044 86.8948 82.2211 87.0614 81.8046 86.8948C81.3881 86.7282 81.2631 86.8531 81.4298 87.2696C81.6797 87.936 80.9299 88.1026 80.5134 87.4362C80.3885 87.1863 79.9303 87.0614 79.5555 87.0614C78.9307 87.103 78.9307 87.1447 79.5971 87.3113C80.68 87.6028 80.3052 88.894 79.1389 88.8524C78.5558 88.8524 78.2643 89.019 78.3892 89.3522C78.7224 90.1852 78.1393 90.3935 77.5146 89.6021C76.9731 88.9357 76.9314 88.9773 77.1814 89.8103C77.5562 91.1432 75.8902 91.9762 75.0572 90.8933C74.5157 90.2269 74.5157 90.2268 74.8489 91.2265C75.2654 92.3927 74.8072 93.2674 73.766 93.2674C73.4744 93.2674 73.2245 93.434 73.2245 93.6839C73.2245 94.4336 72.3915 94.142 72.3498 93.3507C72.3498 92.8092 72.2249 92.8509 71.8917 93.5589C71.6418 94.1004 71.1003 94.5169 70.6421 94.5169C69.7675 94.5169 69.6842 94.0587 70.3922 93.3507C70.6421 93.1008 70.7254 92.7259 70.6005 92.5593C70.4339 92.3927 70.0174 92.5593 69.6425 92.9342C69.2677 93.309 68.5596 93.4756 67.9765 93.3507C66.8103 93.1424 66.6853 92.6426 67.6433 92.2677C68.0181 92.1011 68.2264 91.8929 68.1014 91.7679C67.9765 91.643 67.4767 91.7263 67.0185 92.0178C66.1022 92.476 65.8523 93.8505 66.5604 94.3086C67.2684 94.7668 67.0185 95.3499 66.2688 95.0584C65.644 94.8085 65.6024 94.8918 66.0605 95.4332C66.4771 95.9747 66.4354 96.0996 65.644 96.3079C65.1026 96.4745 64.5611 96.3495 64.3945 96.058C64.1446 95.6831 64.0613 95.6831 64.0613 96.0996C64.0613 96.3912 63.8947 96.5161 63.6448 96.3912C63.4365 96.2662 63.2283 96.3495 63.2283 96.6411C63.2283 97.0993 62.5619 97.016 61.0624 96.3912C60.5626 96.1829 60.1878 96.4328 59.6879 97.3075C59.3131 97.9739 59.1048 98.1405 59.2298 97.6407C59.4797 96.8077 59.4797 96.8077 58.8549 97.5991C58.3968 98.1822 58.2302 98.2655 58.2302 97.8073C58.2302 97.3075 58.1469 97.3075 57.8137 97.849C57.4388 98.3904 57.3971 98.3904 57.3971 97.849C57.3971 97.3075 57.3555 97.3075 56.9806 97.849C56.6058 98.3904 56.5641 98.3904 56.5641 97.849C56.5641 97.4741 56.4392 97.3908 56.2309 97.6824C55.7728 98.3488 54.4816 98.7236 54.4816 98.1822C54.4816 97.8906 54.2733 97.9323 53.8568 98.2655C53.3153 98.7236 53.2737 98.5987 53.4403 97.3908L53.6486 95.9747L53.1071 97.3908C52.8155 98.1822 52.2741 98.9319 51.9409 99.0152C51.4827 99.1818 51.441 99.0985 51.8992 98.6403C52.8572 97.6407 52.4823 96.2246 51.0662 95.3499L49.6917 94.5169L49.1919 96.058C48.7754 97.1826 48.7754 97.6824 49.1086 98.1405C49.4002 98.4321 49.5251 98.7653 49.4418 98.8069C48.9836 99.0985 44.0688 98.557 44.0688 98.2238C44.0688 97.9739 44.402 97.849 44.7769 97.9323C45.1934 98.0156 45.5683 97.7657 45.6516 97.3075C45.8598 96.2662 44.1938 96.3912 43.8606 97.4325C43.4857 98.6403 42.6943 98.4737 42.9859 97.2242C43.3191 95.8914 42.9026 95.8914 42.4028 97.2242C42.0696 98.0572 41.8613 98.1822 41.07 97.8906C40.4035 97.6407 40.1536 97.2659 40.1953 96.5578L40.3202 95.5582L39.8204 96.5161C39.5289 97.0576 39.1124 97.3908 38.7375 97.2242C38.446 97.0993 37.9878 97.016 37.7795 97.016C37.5296 97.016 37.488 96.5994 37.6546 96.058C37.9045 95.1833 37.9045 95.1833 37.0298 96.1829C36.3218 97.0576 36.1968 97.0576 36.4467 96.3912C36.6966 95.6831 36.655 95.6415 36.0718 96.0996C35.6553 96.4328 35.3221 96.4745 35.1555 96.2246C34.9889 95.9747 34.6141 95.8914 34.2809 96.0163C33.906 96.1829 33.7394 95.9747 33.8227 95.4749C33.906 95.0584 34.1976 94.7251 34.4891 94.7251C34.7807 94.7251 35.1139 94.4752 35.2388 94.142C35.3638 93.8088 35.2388 93.6839 34.9473 93.8505C34.6974 94.0171 34.4891 93.9754 34.4891 93.7672C34.4891 93.5589 33.9476 93.4756 33.2812 93.6006C31.8651 93.8088 31.282 93.1008 32.0734 92.1428C32.5315 91.5597 32.5315 91.4764 31.9901 91.6846C31.6568 91.7679 31.282 92.5177 31.157 93.309C30.9488 94.6002 30.9071 94.6835 30.449 93.8921C30.0741 93.309 29.9492 93.2257 29.9075 93.6839C29.9075 94.1004 29.5743 93.9338 28.9079 93.1424C28.3664 92.5177 27.7417 92.0178 27.4917 92.0178C27.2418 92.0178 26.9919 91.7679 26.867 91.4764C26.7837 91.2265 26.5754 91.1015 26.4088 91.2265C26.2422 91.3931 26.4088 91.8096 26.7837 92.1844C27.1585 92.5593 27.2835 92.8509 26.9919 92.8509C26.742 92.8509 26.3255 92.3927 26.0756 91.8096C25.8257 91.2265 25.4508 90.7683 25.2426 90.7683C25.076 90.7683 24.9094 90.4768 24.9094 90.1435C24.9094 89.7687 24.6595 89.6437 24.243 89.8103C23.8265 89.9769 23.41 89.8103 23.2017 89.3938C22.9934 89.019 22.452 88.8107 21.9938 88.894C21.3691 89.019 21.1608 88.8107 21.1608 88.1443C21.1608 87.3946 21.0775 87.3529 20.7443 87.8527C20.4111 88.3526 20.3278 88.2693 20.3278 87.4362C20.3278 86.6032 20.2445 86.5199 19.9113 87.0197C19.5781 87.5195 19.4948 87.5195 19.4948 86.8115C19.4948 86.1034 19.4115 86.1034 19.0783 86.6032C18.87 86.9364 18.6617 87.0614 18.6617 86.8531C18.6617 86.6449 18.995 86.1034 19.4115 85.6452C19.9113 85.0205 19.9946 84.7706 19.6197 84.6456C19.3282 84.5207 19.0783 84.1458 19.0783 83.7709C19.0783 83.1462 18.995 83.1462 18.6617 83.6876C18.3702 84.1875 18.2452 84.1875 18.2452 83.7293C18.2452 83.4377 17.9953 83.2711 17.6621 83.3961C16.8708 83.7293 16.4959 83.2711 17.0374 82.6047C17.2873 82.3132 17.7871 82.1882 18.1203 82.3132C18.5784 82.4798 18.7034 82.3965 18.4951 82.1049C17.9953 81.2719 16.7458 81.5218 16.2876 82.5214C15.8295 83.4794 15.8295 83.4794 15.5379 82.2299C15.2464 81.1469 15.1631 81.1053 14.8715 81.8134C14.5799 82.5631 14.5383 82.5631 14.5383 81.6884C14.4966 81.1469 14.33 80.8137 14.1218 80.9387C13.9135 81.0636 13.6636 80.7721 13.497 80.2306C13.3721 79.7308 12.789 78.8145 12.2058 78.1897C11.6227 77.565 11.1646 76.8152 11.1229 76.5237C11.0813 76.2321 10.9147 76.4404 10.7064 77.0235C10.4149 77.8982 10.3732 77.7732 10.5398 76.482C10.6231 75.4408 10.5398 75.0242 10.2482 75.1908C9.95669 75.3991 9.87339 75.1908 9.99834 74.6077C10.1649 73.983 10.0816 73.6914 9.66513 73.6914C9.33192 73.6914 9.08202 74.0246 9.04037 74.3995C9.04037 74.816 8.74881 74.3578 8.37395 73.3582C8.04074 72.3586 7.49928 71.4423 7.16607 71.3173C6.83287 71.1924 6.58296 70.8175 6.58296 70.4843C6.58296 70.0678 6.83287 69.9428 7.24938 70.1094C7.91579 70.3593 9.08202 69.7346 9.08202 69.1098C9.08202 68.9432 8.62386 68.7766 8.04075 68.7766C6.58296 68.7766 6.2914 68.4017 7.12442 67.5687C7.66589 67.0272 7.91579 66.9856 8.4156 67.4438C8.83211 67.7353 9.08202 67.777 9.08202 67.5271C9.08202 67.2772 8.66551 66.9439 8.1657 66.7773C7.49928 66.5691 7.08277 66.7357 6.54131 67.3605C5.87489 68.2351 5.83324 68.2351 5.54169 66.3192C5.16683 63.8201 4.91692 63.237 4.37546 63.5702C4.12555 63.6952 4.0839 63.6119 4.25051 63.3203C4.41711 63.0704 4.41711 62.4456 4.29216 61.9875C4.04225 61.2794 3.9173 61.1961 3.58409 61.6543C3.29253 62.0708 3.25088 61.9042 3.41749 61.1128C3.54244 60.5297 3.45914 59.9466 3.25088 59.8633C2.83437 59.7383 2.04301 54.7819 2.00135 52.2828C2.00135 51.1166 2.00135 51.0749 2.83437 51.8246C3.62574 52.5327 3.70904 52.5327 4.50041 51.8246C5.45838 50.95 5.54169 50.2419 4.75032 49.5755C4.29216 49.2006 4.25051 49.3256 4.41711 50.2003C4.58371 51.0749 4.45876 51.2415 3.834 51.1166C3.29253 50.9916 3.08428 50.6584 3.12593 49.9504C3.25088 48.9507 3.20923 48.9507 2.62612 49.7005C2.00135 50.5335 2.00135 50.5335 2.00135 49.7005C2.04301 48.6175 2.75107 42.953 3.08428 41.4952C3.29253 40.5372 3.50079 40.3706 4.20886 40.6205C5.04187 40.8288 5.04187 40.8288 4.41711 40.329C3.79235 39.7875 3.79235 39.5376 4.54206 36.5388C6.74956 27.7504 14.5799 16.0048 21.2858 11.3399C22.7019 10.3403 22.9934 10.2986 23.7848 10.7985C24.6178 11.2983 24.6595 11.2566 24.1597 10.7152C23.7432 10.1737 23.8265 9.96544 24.7844 9.29902C25.4509 8.84086 26.1589 8.466 26.3672 8.466C26.6171 8.42435 26.9086 8.34104 27.1169 8.29939C27.2835 8.25774 27.6584 8.17444 27.9499 8.13279C28.1998 8.09114 28.4081 7.75794 28.3248 7.42473C28.2415 6.71666 32.3649 4.88402 37.1964 3.50953C41.4448 2.30166 41.4865 2.30166 42.1945 3.80109C42.736 4.96732 42.861 4.42586 42.3611 3.09303C42.0279 2.17671 43.0692 2.42661 43.569 3.34294C44.1105 4.34256 44.1105 4.34255 43.8606 3.13467C43.6107 2.01009 43.6523 1.96845 44.3187 2.50992C44.7769 2.84312 44.9435 2.88476 44.7769 2.59321C44.0688 1.46863 51.3161 1.01048 55.8561 1.88515ZM58.6467 2.3433C58.6467 2.75981 57.8137 4.00935 57.8137 3.63449C57.8137 3.50954 57.6887 3.09303 57.5637 2.71817C57.3971 2.26001 57.5221 2.05175 57.9803 2.05175C58.3551 2.05175 58.6467 2.1767 58.6467 2.3433ZM91.3427 23.2937C91.4676 23.502 91.3843 23.7103 91.1761 23.7103C90.9262 23.7103 90.7179 23.502 90.7179 23.2937C90.7179 23.0438 90.8012 22.8772 90.8845 22.8772C91.0095 22.8772 91.2177 23.0438 91.3427 23.2937ZM94.3832 32.332C94.4665 32.6652 94.1333 32.8735 93.4669 32.8735C92.4256 32.8735 92.0924 32.457 92.6755 31.8738C93.092 31.4573 94.1749 31.7489 94.3832 32.332ZM97.0905 50.4085C96.9239 50.5751 96.5074 50.6168 96.2158 50.4085C95.7577 50.1586 95.7993 49.9087 96.4241 49.3256C97.1322 48.5759 97.1738 48.5759 97.2988 49.2839C97.3821 49.7005 97.2988 50.2003 97.0905 50.4085ZM97.1738 60.7796C97.5903 61.2378 97.8402 61.6126 97.7153 61.6126C97.5903 61.6126 97.1738 61.2378 96.7573 60.7796C96.3408 60.3214 96.0909 59.9466 96.2158 59.9466C96.3408 59.9466 96.7573 60.3214 97.1738 60.7796ZM68.518 95.1833C68.393 95.3083 68.0181 95.3499 67.7266 95.225C67.3934 95.1 67.5183 94.9751 67.9765 94.9751C68.4346 94.9334 68.6846 95.0584 68.518 95.1833ZM51.3161 96.0163C52.2324 96.3495 52.1491 96.891 51.1495 97.1409C50.3165 97.3492 49.2752 96.5161 49.775 96.058C50.1082 95.6831 50.4831 95.6831 51.3161 96.0163ZM51.0245 98.9319C50.8996 99.0569 50.5247 99.0985 50.2332 98.9736C49.9 98.8486 50.0249 98.7236 50.4831 98.7236C50.9412 98.682 51.1911 98.8069 51.0245 98.9319Z"></path>
</mask>
<path d="M55.8561 1.88515C56.4808 2.0101 56.9806 2.3433 56.9806 2.59321C57.0223 3.75943 57.6887 4.2176 58.605 3.75944C59.1048 3.46788 59.3964 3.09303 59.2714 2.84313C58.9382 2.34331 59.3964 2.38496 61.9371 2.96807C64.3112 3.50953 64.5611 4.051 63.3949 6.34181L62.6868 7.67464L63.6031 6.88327C64.1029 6.42511 64.4778 5.59208 64.4778 4.88402C64.4778 3.59284 64.6444 3.50954 66.5187 4.17596C68.0181 4.71742 68.1431 5.21722 66.9352 6.46675C65.6857 7.79958 66.4354 9.00746 68.6013 9.21572C69.6842 9.29902 70.1423 9.21571 70.0174 8.88251C69.9341 8.59095 70.0174 8.25774 70.2673 8.09114C70.5172 7.96619 70.7254 7.59133 70.7254 7.34142C70.7254 7.04987 70.5588 7.09153 70.3089 7.46638C70.0174 7.9662 69.8508 7.88289 69.4759 7.04987C69.0594 6.09189 69.0594 6.09189 69.226 6.92491C69.351 7.54967 69.1844 7.88289 68.8095 7.88289C68.4763 7.88289 68.2264 7.71629 68.2264 7.46638C68.2264 7.25813 67.9348 7.17482 67.56 7.34142C66.8936 7.59133 67.0602 7.17481 68.4763 5.05062C68.6013 4.88401 71.6834 6.42511 73.9326 7.71629C74.7239 8.17445 75.3071 8.84086 75.3487 9.34068C75.3487 10.0904 75.3904 10.0904 75.6403 9.46562C75.9318 8.75755 76.0151 8.79921 77.3063 9.54893C78.0144 10.0071 78.6391 10.5902 78.6391 10.7985C78.6391 11.0484 78.8474 11.1317 79.0973 11.0067C79.3472 10.8401 81.9296 13.1309 84.9284 16.0881C90.9678 22.1275 91.2177 22.669 89.2185 25.8345C88.6354 26.7924 88.2605 27.6254 88.3855 27.7504C88.4688 27.8754 88.9269 27.2506 89.3851 26.3759L90.1764 24.8348L90.468 26.0011C90.7179 26.959 90.8429 27.084 91.1344 26.5842C91.3427 26.2926 91.426 25.7095 91.301 25.293C91.2177 24.9181 91.301 24.5016 91.5093 24.3767C92.1341 23.9602 92.4673 25.6679 91.9674 26.7091C91.5093 27.6254 91.5509 27.6254 92.134 26.8757C92.9254 25.8761 92.8838 25.8345 94.0083 28.8333C95.0913 31.7489 95.0913 31.7489 94.05 31.1241C93.3419 30.666 93.092 30.7493 92.3007 31.5406C91.0928 32.7069 91.6759 33.9147 93.4669 33.9147C94.3832 33.9147 94.7164 33.6648 94.883 32.8735C95.1329 31.9988 95.2995 32.2904 96.0492 34.7478C96.549 36.3305 97.2155 38.7879 97.507 40.204C98.0901 42.5781 98.0485 42.7447 97.2571 43.4112C96.7573 43.8277 96.549 44.3275 96.7157 44.7856C96.9656 45.4521 97.0489 45.4104 97.7986 44.744C98.6316 43.9943 98.6316 44.0359 98.6316 46.535V49.034L97.5903 48.5759C97.0489 48.2843 96.5074 47.8678 96.4241 47.6596C96.3408 47.4096 96.2991 47.5762 96.3408 47.9511C96.4241 48.326 96.2158 48.7425 95.8826 48.8674C95.1329 49.159 95.1329 50.95 95.9243 51.6164C96.7157 52.2828 98.0068 51.8247 98.5483 50.6584C98.9648 49.8254 99.0065 49.8671 99.0065 51.2832C99.0481 52.1579 98.8399 52.8659 98.59 52.8659C98.3817 52.8659 98.2984 53.0742 98.4233 53.2824C98.5899 53.5323 98.5066 53.9905 98.2151 54.3237C97.9235 54.6986 97.8819 54.9485 98.2151 55.1567C98.8399 55.5316 98.7149 56.198 98.0485 55.9481C97.3821 55.6982 97.3821 56.7395 98.0068 57.3226C98.1734 57.4892 98.2151 57.4059 98.0485 57.1143C97.8819 56.8644 97.9652 56.6145 98.2151 56.6145C98.5483 56.6145 98.5899 56.9061 98.4233 57.3226C98.2567 57.7391 98.0901 58.2805 98.0901 58.5721C98.0901 58.947 97.8402 58.947 97.2155 58.6138C96.3824 58.1556 96.3824 58.1972 97.0905 58.9886C97.9652 59.9882 98.0485 60.6547 97.1738 59.9466C96.674 59.5301 96.3824 59.5301 96.0492 59.8633C95.6744 60.2381 95.7993 60.613 96.5491 61.4044C97.632 62.5706 97.3821 63.362 96.2575 62.3623C94.7581 61.1128 94.2999 61.1128 95.5494 62.404C96.7157 63.5702 96.8406 63.8618 96.5491 65.1946C96.0492 67.4021 94.4249 71.1924 93.9667 71.1924C93.217 71.1924 92.5089 72.2336 92.6755 73.0667C92.8421 73.8164 92.8005 73.8164 92.384 73.15C92.134 72.7751 91.7175 72.4419 91.5093 72.4419C91.2594 72.4419 91.3843 72.8584 91.7175 73.3582C92.4673 74.3995 92.5922 75.1075 92.0091 74.7327C91.8008 74.6077 91.5509 74.8576 91.4676 75.2325C91.3427 75.8573 91.2594 75.8156 91.0511 75.0242C90.9262 74.5244 90.9678 74.1912 91.1761 74.3578C91.3843 74.4828 91.5509 74.3995 91.5509 74.1496C91.5509 73.9413 91.3843 73.6081 91.1344 73.4832C90.9262 73.3582 90.7179 73.4415 90.7179 73.6914C90.7179 73.9413 90.5097 74.0246 90.2598 73.858C89.9265 73.6498 89.9265 73.8164 90.2598 74.4411C90.9262 75.649 90.8429 75.9822 90.0099 75.3158C89.4267 74.816 89.4267 74.8993 90.0932 75.8989C90.8012 77.0235 90.8012 77.0651 89.7183 78.6479C88.1772 80.8554 82.596 86.2284 82.1795 85.8535C81.9712 85.6869 81.9712 85.8951 82.1378 86.3533C82.3044 86.8948 82.2211 87.0614 81.8046 86.8948C81.3881 86.7282 81.2631 86.8531 81.4298 87.2696C81.6797 87.936 80.9299 88.1026 80.5134 87.4362C80.3885 87.1863 79.9303 87.0614 79.5555 87.0614C78.9307 87.103 78.9307 87.1447 79.5971 87.3113C80.68 87.6028 80.3052 88.894 79.1389 88.8524C78.5558 88.8524 78.2643 89.019 78.3892 89.3522C78.7224 90.1852 78.1393 90.3935 77.5146 89.6021C76.9731 88.9357 76.9314 88.9773 77.1814 89.8103C77.5562 91.1432 75.8902 91.9762 75.0572 90.8933C74.5157 90.2269 74.5157 90.2268 74.8489 91.2265C75.2654 92.3927 74.8072 93.2674 73.766 93.2674C73.4744 93.2674 73.2245 93.434 73.2245 93.6839C73.2245 94.4336 72.3915 94.142 72.3498 93.3507C72.3498 92.8092 72.2249 92.8509 71.8917 93.5589C71.6418 94.1004 71.1003 94.5169 70.6421 94.5169C69.7675 94.5169 69.6842 94.0587 70.3922 93.3507C70.6421 93.1008 70.7254 92.7259 70.6005 92.5593C70.4339 92.3927 70.0174 92.5593 69.6425 92.9342C69.2677 93.309 68.5596 93.4756 67.9765 93.3507C66.8103 93.1424 66.6853 92.6426 67.6433 92.2677C68.0181 92.1011 68.2264 91.8929 68.1014 91.7679C67.9765 91.643 67.4767 91.7263 67.0185 92.0178C66.1022 92.476 65.8523 93.8505 66.5604 94.3086C67.2684 94.7668 67.0185 95.3499 66.2688 95.0584C65.644 94.8085 65.6024 94.8918 66.0605 95.4332C66.4771 95.9747 66.4354 96.0996 65.644 96.3079C65.1026 96.4745 64.5611 96.3495 64.3945 96.058C64.1446 95.6831 64.0613 95.6831 64.0613 96.0996C64.0613 96.3912 63.8947 96.5161 63.6448 96.3912C63.4365 96.2662 63.2283 96.3495 63.2283 96.6411C63.2283 97.0993 62.5619 97.016 61.0624 96.3912C60.5626 96.1829 60.1878 96.4328 59.6879 97.3075C59.3131 97.9739 59.1048 98.1405 59.2298 97.6407C59.4797 96.8077 59.4797 96.8077 58.8549 97.5991C58.3968 98.1822 58.2302 98.2655 58.2302 97.8073C58.2302 97.3075 58.1469 97.3075 57.8137 97.849C57.4388 98.3904 57.3971 98.3904 57.3971 97.849C57.3971 97.3075 57.3555 97.3075 56.9806 97.849C56.6058 98.3904 56.5641 98.3904 56.5641 97.849C56.5641 97.4741 56.4392 97.3908 56.2309 97.6824C55.7728 98.3488 54.4816 98.7236 54.4816 98.1822C54.4816 97.8906 54.2733 97.9323 53.8568 98.2655C53.3153 98.7236 53.2737 98.5987 53.4403 97.3908L53.6486 95.9747L53.1071 97.3908C52.8155 98.1822 52.2741 98.9319 51.9409 99.0152C51.4827 99.1818 51.441 99.0985 51.8992 98.6403C52.8572 97.6407 52.4823 96.2246 51.0662 95.3499L49.6917 94.5169L49.1919 96.058C48.7754 97.1826 48.7754 97.6824 49.1086 98.1405C49.4002 98.4321 49.5251 98.7653 49.4418 98.8069C48.9836 99.0985 44.0688 98.557 44.0688 98.2238C44.0688 97.9739 44.402 97.849 44.7769 97.9323C45.1934 98.0156 45.5683 97.7657 45.6516 97.3075C45.8598 96.2662 44.1938 96.3912 43.8606 97.4325C43.4857 98.6403 42.6943 98.4737 42.9859 97.2242C43.3191 95.8914 42.9026 95.8914 42.4028 97.2242C42.0696 98.0572 41.8613 98.1822 41.07 97.8906C40.4035 97.6407 40.1536 97.2659 40.1953 96.5578L40.3202 95.5582L39.8204 96.5161C39.5289 97.0576 39.1124 97.3908 38.7375 97.2242C38.446 97.0993 37.9878 97.016 37.7795 97.016C37.5296 97.016 37.488 96.5994 37.6546 96.058C37.9045 95.1833 37.9045 95.1833 37.0298 96.1829C36.3218 97.0576 36.1968 97.0576 36.4467 96.3912C36.6966 95.6831 36.655 95.6415 36.0718 96.0996C35.6553 96.4328 35.3221 96.4745 35.1555 96.2246C34.9889 95.9747 34.6141 95.8914 34.2809 96.0163C33.906 96.1829 33.7394 95.9747 33.8227 95.4749C33.906 95.0584 34.1976 94.7251 34.4891 94.7251C34.7807 94.7251 35.1139 94.4752 35.2388 94.142C35.3638 93.8088 35.2388 93.6839 34.9473 93.8505C34.6974 94.0171 34.4891 93.9754 34.4891 93.7672C34.4891 93.5589 33.9476 93.4756 33.2812 93.6006C31.8651 93.8088 31.282 93.1008 32.0734 92.1428C32.5315 91.5597 32.5315 91.4764 31.9901 91.6846C31.6568 91.7679 31.282 92.5177 31.157 93.309C30.9488 94.6002 30.9071 94.6835 30.449 93.8921C30.0741 93.309 29.9492 93.2257 29.9075 93.6839C29.9075 94.1004 29.5743 93.9338 28.9079 93.1424C28.3664 92.5177 27.7417 92.0178 27.4917 92.0178C27.2418 92.0178 26.9919 91.7679 26.867 91.4764C26.7837 91.2265 26.5754 91.1015 26.4088 91.2265C26.2422 91.3931 26.4088 91.8096 26.7837 92.1844C27.1585 92.5593 27.2835 92.8509 26.9919 92.8509C26.742 92.8509 26.3255 92.3927 26.0756 91.8096C25.8257 91.2265 25.4508 90.7683 25.2426 90.7683C25.076 90.7683 24.9094 90.4768 24.9094 90.1435C24.9094 89.7687 24.6595 89.6437 24.243 89.8103C23.8265 89.9769 23.41 89.8103 23.2017 89.3938C22.9934 89.019 22.452 88.8107 21.9938 88.894C21.3691 89.019 21.1608 88.8107 21.1608 88.1443C21.1608 87.3946 21.0775 87.3529 20.7443 87.8527C20.4111 88.3526 20.3278 88.2693 20.3278 87.4362C20.3278 86.6032 20.2445 86.5199 19.9113 87.0197C19.5781 87.5195 19.4948 87.5195 19.4948 86.8115C19.4948 86.1034 19.4115 86.1034 19.0783 86.6032C18.87 86.9364 18.6617 87.0614 18.6617 86.8531C18.6617 86.6449 18.995 86.1034 19.4115 85.6452C19.9113 85.0205 19.9946 84.7706 19.6197 84.6456C19.3282 84.5207 19.0783 84.1458 19.0783 83.7709C19.0783 83.1462 18.995 83.1462 18.6617 83.6876C18.3702 84.1875 18.2452 84.1875 18.2452 83.7293C18.2452 83.4377 17.9953 83.2711 17.6621 83.3961C16.8708 83.7293 16.4959 83.2711 17.0374 82.6047C17.2873 82.3132 17.7871 82.1882 18.1203 82.3132C18.5784 82.4798 18.7034 82.3965 18.4951 82.1049C17.9953 81.2719 16.7458 81.5218 16.2876 82.5214C15.8295 83.4794 15.8295 83.4794 15.5379 82.2299C15.2464 81.1469 15.1631 81.1053 14.8715 81.8134C14.5799 82.5631 14.5383 82.5631 14.5383 81.6884C14.4966 81.1469 14.33 80.8137 14.1218 80.9387C13.9135 81.0636 13.6636 80.7721 13.497 80.2306C13.3721 79.7308 12.789 78.8145 12.2058 78.1897C11.6227 77.565 11.1646 76.8152 11.1229 76.5237C11.0813 76.2321 10.9147 76.4404 10.7064 77.0235C10.4149 77.8982 10.3732 77.7732 10.5398 76.482C10.6231 75.4408 10.5398 75.0242 10.2482 75.1908C9.95669 75.3991 9.87339 75.1908 9.99834 74.6077C10.1649 73.983 10.0816 73.6914 9.66513 73.6914C9.33192 73.6914 9.08202 74.0246 9.04037 74.3995C9.04037 74.816 8.74881 74.3578 8.37395 73.3582C8.04074 72.3586 7.49928 71.4423 7.16607 71.3173C6.83287 71.1924 6.58296 70.8175 6.58296 70.4843C6.58296 70.0678 6.83287 69.9428 7.24938 70.1094C7.91579 70.3593 9.08202 69.7346 9.08202 69.1098C9.08202 68.9432 8.62386 68.7766 8.04075 68.7766C6.58296 68.7766 6.2914 68.4017 7.12442 67.5687C7.66589 67.0272 7.91579 66.9856 8.4156 67.4438C8.83211 67.7353 9.08202 67.777 9.08202 67.5271C9.08202 67.2772 8.66551 66.9439 8.1657 66.7773C7.49928 66.5691 7.08277 66.7357 6.54131 67.3605C5.87489 68.2351 5.83324 68.2351 5.54169 66.3192C5.16683 63.8201 4.91692 63.237 4.37546 63.5702C4.12555 63.6952 4.0839 63.6119 4.25051 63.3203C4.41711 63.0704 4.41711 62.4456 4.29216 61.9875C4.04225 61.2794 3.9173 61.1961 3.58409 61.6543C3.29253 62.0708 3.25088 61.9042 3.41749 61.1128C3.54244 60.5297 3.45914 59.9466 3.25088 59.8633C2.83437 59.7383 2.04301 54.7819 2.00135 52.2828C2.00135 51.1166 2.00135 51.0749 2.83437 51.8246C3.62574 52.5327 3.70904 52.5327 4.50041 51.8246C5.45838 50.95 5.54169 50.2419 4.75032 49.5755C4.29216 49.2006 4.25051 49.3256 4.41711 50.2003C4.58371 51.0749 4.45876 51.2415 3.834 51.1166C3.29253 50.9916 3.08428 50.6584 3.12593 49.9504C3.25088 48.9507 3.20923 48.9507 2.62612 49.7005C2.00135 50.5335 2.00135 50.5335 2.00135 49.7005C2.04301 48.6175 2.75107 42.953 3.08428 41.4952C3.29253 40.5372 3.50079 40.3706 4.20886 40.6205C5.04187 40.8288 5.04187 40.8288 4.41711 40.329C3.79235 39.7875 3.79235 39.5376 4.54206 36.5388C6.74956 27.7504 14.5799 16.0048 21.2858 11.3399C22.7019 10.3403 22.9934 10.2986 23.7848 10.7985C24.6178 11.2983 24.6595 11.2566 24.1597 10.7152C23.7432 10.1737 23.8265 9.96544 24.7844 9.29902C25.4509 8.84086 26.1589 8.466 26.3672 8.466C26.6171 8.42435 26.9086 8.34104 27.1169 8.29939C27.2835 8.25774 27.6584 8.17444 27.9499 8.13279C28.1998 8.09114 28.4081 7.75794 28.3248 7.42473C28.2415 6.71666 32.3649 4.88402 37.1964 3.50953C41.4448 2.30166 41.4865 2.30166 42.1945 3.80109C42.736 4.96732 42.861 4.42586 42.3611 3.09303C42.0279 2.17671 43.0692 2.42661 43.569 3.34294C44.1105 4.34256 44.1105 4.34255 43.8606 3.13467C43.6107 2.01009 43.6523 1.96845 44.3187 2.50992C44.7769 2.84312 44.9435 2.88476 44.7769 2.59321C44.0688 1.46863 51.3161 1.01048 55.8561 1.88515ZM58.6467 2.3433C58.6467 2.75981 57.8137 4.00935 57.8137 3.63449C57.8137 3.50954 57.6887 3.09303 57.5637 2.71817C57.3971 2.26001 57.5221 2.05175 57.9803 2.05175C58.3551 2.05175 58.6467 2.1767 58.6467 2.3433ZM91.3427 23.2937C91.4676 23.502 91.3843 23.7103 91.1761 23.7103C90.9262 23.7103 90.7179 23.502 90.7179 23.2937C90.7179 23.0438 90.8012 22.8772 90.8845 22.8772C91.0095 22.8772 91.2177 23.0438 91.3427 23.2937ZM94.3832 32.332C94.4665 32.6652 94.1333 32.8735 93.4669 32.8735C92.4256 32.8735 92.0924 32.457 92.6755 31.8738C93.092 31.4573 94.1749 31.7489 94.3832 32.332ZM97.0905 50.4085C96.9239 50.5751 96.5074 50.6168 96.2158 50.4085C95.7577 50.1586 95.7993 49.9087 96.4241 49.3256C97.1322 48.5759 97.1738 48.5759 97.2988 49.2839C97.3821 49.7005 97.2988 50.2003 97.0905 50.4085ZM97.1738 60.7796C97.5903 61.2378 97.8402 61.6126 97.7153 61.6126C97.5903 61.6126 97.1738 61.2378 96.7573 60.7796C96.3408 60.3214 96.0909 59.9466 96.2158 59.9466C96.3408 59.9466 96.7573 60.3214 97.1738 60.7796ZM68.518 95.1833C68.393 95.3083 68.0181 95.3499 67.7266 95.225C67.3934 95.1 67.5183 94.9751 67.9765 94.9751C68.4346 94.9334 68.6846 95.0584 68.518 95.1833ZM51.3161 96.0163C52.2324 96.3495 52.1491 96.891 51.1495 97.1409C50.3165 97.3492 49.2752 96.5161 49.775 96.058C50.1082 95.6831 50.4831 95.6831 51.3161 96.0163ZM51.0245 98.9319C50.8996 99.0569 50.5247 99.0985 50.2332 98.9736C49.9 98.8486 50.0249 98.7236 50.4831 98.7236C50.9412 98.682 51.1911 98.8069 51.0245 98.9319Z" stroke="#0C0C0C" stroke-width="2" mask="url(#path-1-outside-1_33_2778)"></path>
<path d="M46.0074 7.01677C46.0074 7.34998 45.8408 7.55823 45.6326 7.43328C45.4243 7.26667 45.1744 7.39163 45.0911 7.64153C44.9661 7.97474 44.383 8.01639 42.9669 7.72483C41.884 7.47493 41.1343 7.43328 41.2592 7.64153C41.3842 7.84979 41.3009 8.01639 41.051 8.01639C40.8427 8.01639 40.5511 7.76649 40.4678 7.47493C40.3429 7.18337 40.2179 7.26667 40.2179 7.68318C40.1763 8.4329 39.3433 8.76611 39.3433 8.05804C39.3433 7.80814 38.6769 7.93309 37.8855 8.2663C37.0525 8.59951 36.2194 8.76611 36.0112 8.64116C35.7613 8.47455 35.5947 8.55785 35.5947 8.80776C35.5947 9.22427 28.0142 13.0978 27.3894 12.9729C26.3898 12.8063 25.8484 13.0145 26.3065 13.4727C26.6397 13.8059 26.3898 14.264 25.3902 15.1387C24.6405 15.8051 23.9324 16.3466 23.7658 16.3466C23.6409 16.3466 23.3493 15.7218 23.141 14.9721C22.8078 13.7642 22.7662 13.7226 22.7245 14.6806C22.6829 15.3053 22.8911 15.9717 23.1827 16.2633C23.5159 16.5965 23.3909 16.9297 22.6412 17.5545C22.0998 18.0126 21.3084 18.3875 20.9335 18.4291C20.517 18.4291 20.1838 18.6374 20.1838 18.8456C20.1838 19.5537 18.1429 21.428 17.6848 21.1365C17.4349 21.0115 17.3932 21.1781 17.5182 21.5113C17.6431 21.8862 17.5598 22.1777 17.2683 22.1777C17.0183 22.1777 16.935 22.386 17.1017 22.6775C17.3099 23.0107 17.185 23.0524 16.6851 22.8858C16.102 22.6775 15.9771 22.7608 16.1437 23.219C16.3103 23.5522 15.8105 24.4269 14.9775 25.3432C14.1861 26.1762 13.5197 27.0092 13.5197 27.2175C13.5197 27.3841 13.3114 27.6757 13.0199 27.8423C12.7283 28.0505 12.645 27.9256 12.8533 27.5507C13.0199 27.2175 12.8533 27.3424 12.52 27.8006C12.1452 28.2588 11.9369 28.8835 12.0619 29.1751C12.2285 29.5916 12.0619 29.6749 11.5621 29.5083C10.9373 29.2584 10.9373 29.3417 11.6454 30.0914C12.5617 31.091 12.0619 31.216 10.854 30.2164C10.021 29.5499 10.0626 29.5499 10.8957 30.4663C11.7703 31.4242 11.7703 31.4659 11.0623 33.1736C10.6458 34.0899 10.1876 35.3811 10.021 36.0058C9.85438 36.7139 9.56283 37.0471 9.22962 36.9222C8.52155 36.6723 7.52193 37.7968 7.85514 38.38C8.02174 38.6299 8.43825 38.6715 8.77146 38.5466C9.27127 38.38 9.39622 38.5466 9.27127 39.2963C9.18797 39.8377 8.89641 40.2542 8.60485 40.2126C7.93844 40.046 7.93844 40.7957 8.6465 41.0456C8.89641 41.1706 8.60485 41.2955 7.89679 41.3372L6.64726 41.3788L7.68853 41.9619L8.72981 42.5451L7.68853 42.5867C6.73056 42.6284 6.68891 42.67 7.48028 43.0449C8.18834 43.3781 8.14669 43.4197 7.18872 43.2948C5.77259 43.0865 5.68929 43.2948 6.98047 43.8362C7.64688 44.1278 7.35532 44.1694 5.81424 44.0445L3.73169 43.8362L4.77296 44.6693C5.48103 45.2107 6.14745 45.419 6.85551 45.2524C7.85514 45.0441 7.85514 45.0441 7.10542 45.8771C6.60561 46.4186 6.5223 46.7518 6.81386 46.7518C7.43863 46.7518 7.27202 49.2925 6.64726 49.7507C6.39735 49.9589 6.48065 50.0839 6.81386 50.0839C7.27202 50.0839 7.18872 50.2505 6.60561 50.7086C5.81424 51.2918 5.81424 51.2918 6.64726 51.3334L7.48028 51.3751L6.64726 51.7499C5.93919 52.0415 5.93919 52.1248 6.56396 52.1248C6.93881 52.1664 7.27202 52.3747 7.27202 52.6246C7.27202 52.8328 7.02212 52.9161 6.77221 52.7495C6.39735 52.5413 6.39735 52.6662 6.81386 53.1244C7.27202 53.7075 7.27202 53.8325 6.81386 53.8325C6.439 53.8325 6.48065 53.9991 6.93881 54.3323C7.68853 54.957 9.97933 63.5371 9.60448 64.4535C9.47952 64.7867 9.56283 65.0782 9.77108 65.0782C9.97933 65.0782 10.3125 65.578 10.4791 66.2028C10.6458 66.8692 10.8124 67.4523 10.854 67.5773C11.1872 68.8685 12.0202 70.4929 12.2701 70.4929C12.4784 70.4929 13.4364 71.9923 14.3943 73.8666C16.3519 77.6568 22.0165 83.8212 23.4742 83.8212C23.6825 83.8212 24.224 84.2793 24.6405 84.8208C25.057 85.3622 25.89 85.9454 26.4315 86.112C27.9726 86.5701 28.514 87.1532 28.5557 88.3611L28.5973 89.444L28.9305 88.4028L29.2637 87.3615L29.347 88.4028C29.3887 88.9859 29.5136 89.1941 29.6386 88.9026C29.9301 88.1529 30.5133 88.2778 32.7624 89.6939C36.0945 91.6932 38.7185 92.5679 43.2168 93.026C45.5493 93.2759 47.9234 93.4842 48.5065 93.4842C49.0896 93.4842 50.0059 93.7757 50.5474 94.109C51.0888 94.4422 51.3804 94.5255 51.2554 94.2756C51.0472 93.984 51.3804 93.8174 52.1301 93.8174C52.7549 93.8174 54.5042 93.5675 56.0037 93.2343C57.5031 92.9011 60.1271 92.4013 61.8348 92.1514C64.1256 91.8181 65.9582 91.1934 68.6239 89.8606C70.6231 88.8193 72.4974 87.9863 72.8306 87.9863C73.1639 87.9863 73.5387 87.7364 73.622 87.4448C73.7886 87.1116 74.1218 87.2782 74.7049 87.9863C75.1631 88.5694 75.5796 88.8193 75.5796 88.5277C75.5796 88.2778 75.413 87.903 75.1631 87.778C74.9548 87.653 74.7466 87.3198 74.7466 87.0699C74.7466 86.82 75.1631 86.945 75.6213 87.4031C76.5376 88.1945 76.5376 88.1945 76.0378 87.2782C75.4963 86.1953 75.4547 85.9037 75.9128 85.9037C76.1211 85.9037 76.4959 86.4035 76.7875 87.0283C77.1623 87.8613 77.4123 87.9863 77.6205 87.6114C77.8288 87.3198 77.8704 86.6534 77.7455 86.1953C77.5372 85.3622 77.4956 85.3622 77.2457 86.112C76.9957 86.7784 76.9541 86.7784 76.7042 86.1953C76.5376 85.6955 77.2873 85.029 79.7031 83.4463C82.0355 81.9885 83.1601 80.9472 83.6599 79.906C84.0348 79.0729 84.4513 78.4065 84.5346 78.4065C84.6595 78.4065 85.1177 78.7814 85.5758 79.2396C86.034 79.6977 86.5755 80.0726 86.7837 80.0726C86.992 80.0726 86.6171 79.5311 85.9507 78.823L84.7012 77.6152L86.6588 74.7829C87.7417 73.2418 89.4494 70.2429 90.449 68.1604C91.9068 65.0366 92.365 63.5371 92.8648 59.8302C93.6145 54.4989 93.7394 54.0824 94.4059 54.4989C94.8224 54.7488 94.8224 54.6655 94.4059 54.1657C93.9893 53.6242 93.9893 53.4576 94.4059 53.291C94.8224 53.1244 94.8224 53.0411 94.4475 53.0411C94.0726 52.9994 93.906 51.9582 93.906 49.3342C93.8644 47.3349 93.6145 44.5859 93.2813 43.2115C92.5316 40.046 92.5316 39.6711 93.2813 39.6711C94.2392 39.6711 94.031 38.9214 93.0314 38.7548C92.365 38.6715 91.9484 38.0467 91.407 36.3391C90.6573 33.8816 89.3661 31.3409 88.1166 29.7166C87.4085 28.8002 87.4085 28.592 87.9083 27.759C88.2415 27.2591 88.6164 26.4261 88.6997 25.8847L88.8663 24.885L88.0749 25.8847C87.6167 26.3845 87.3252 27.0092 87.4501 27.1758C87.5751 27.3841 87.4501 27.6757 87.2002 27.8423C86.867 28.0089 86.8254 27.9672 86.992 27.6757C87.1586 27.3841 87.0336 27.1758 86.7004 27.1758C85.7008 27.1758 85.5758 26.0513 86.4505 25.2599C86.867 24.885 87.2419 24.3436 87.2419 24.1353C87.2419 23.8854 86.7837 24.1353 86.2423 24.6351C84.6179 26.1762 84.4096 24.8434 86.034 23.1773C86.7837 22.386 87.2835 21.7612 87.1169 21.7612C86.992 21.7612 86.4089 22.2194 85.8258 22.8025C84.6179 24.0104 83.41 24.2603 84.4513 23.094C85.4092 22.0528 85.3676 21.4697 84.4096 22.3027C83.7016 22.9691 83.5766 22.9274 82.7019 22.0111C81.7856 21.0532 81.7856 20.9698 82.5353 20.5533C83.2434 20.0952 83.2017 20.0952 82.3687 20.1785C81.2858 20.3451 78.4535 17.7627 78.7867 16.9714C78.9117 16.5965 78.7034 16.4715 78.2036 16.5965C77.7455 16.7214 77.1207 16.4299 76.6209 15.8884C76.1627 15.3886 75.9961 15.0971 76.2877 15.222C76.5376 15.3886 76.9124 15.3053 77.079 15.0554C77.2457 14.7222 77.204 14.6806 76.9124 14.8472C76.6209 15.0138 76.4126 14.9305 76.4126 14.6389C76.4126 14.3057 76.2044 14.3473 75.7046 14.7222C75.0798 15.222 75.0381 15.222 75.2881 14.5973C75.4547 14.0974 75.3714 13.9725 74.9132 14.1391C74.4967 14.3057 74.4134 14.1391 74.6216 13.5976C74.8715 12.8896 74.8299 12.8479 74.1218 13.431C73.6637 13.8059 73.4554 13.8475 73.6637 13.5143C73.8303 13.2228 73.7053 13.0145 73.2888 13.0145C72.9139 13.0145 72.7473 12.8063 72.8723 12.598C73.1222 12.1815 72.5807 12.0149 71.4562 12.1398C71.1646 12.2231 71.0397 12.0565 71.2063 11.8066C71.3312 11.5567 71.2063 11.3485 70.8731 11.3485C70.5398 11.3485 68.9988 10.7654 67.4577 10.0573C65.1252 9.01602 64.7087 8.68281 64.8753 7.97474C65.0836 7.18337 65.0419 7.14172 64.3755 7.76649C63.7507 8.30795 63.2926 8.3496 61.1267 7.97474C59.0025 7.59988 58.586 7.39163 58.7943 6.85016C58.9609 6.3087 58.8359 6.35035 58.3361 6.97512C57.9196 7.43328 57.7113 7.59988 57.8363 7.34998C57.9613 7.05842 57.628 6.76686 57.0449 6.68356C56.4202 6.55861 56.0037 6.64191 56.0037 6.93347C56.0037 7.18337 55.7954 7.10007 55.5871 6.76686C55.2956 6.3087 55.1706 6.3087 55.1706 6.68356C55.1706 6.97512 55.004 7.10007 54.7541 6.97512C54.5459 6.85016 54.3376 6.97512 54.3376 7.26667C54.3376 7.68318 54.2543 7.68318 53.9628 7.22502C53.7129 6.85016 53.5462 6.80851 53.2963 7.14172C52.9215 7.80814 48.4648 7.59988 47.7568 6.89182C47.007 6.1421 46.0074 6.2254 46.0074 7.01677ZM58.4611 10.5571C59.7522 10.4738 60.4603 10.7237 61.6265 11.5984C63.126 12.723 64.0423 12.723 63.0843 11.5567C62.7928 11.1819 62.6678 10.807 62.7928 10.6404C62.9594 10.5155 63.3759 11.0569 63.7091 11.8899C64.4172 13.5976 64.9586 13.9725 64.5421 12.4731C64.2922 11.5984 64.3339 11.5984 64.792 12.3897C65.4584 13.4727 66.0832 13.8892 66.7496 13.6393C67.2494 13.4727 67.4993 15.7635 67.2911 18.5124C67.2494 19.1789 67.3744 19.6787 67.6243 19.6787C67.8325 19.6787 68.1657 18.3458 68.3323 16.7631C68.4573 15.1387 68.7905 13.8475 68.9571 13.8475C69.1654 13.8475 69.332 14.0974 69.332 14.3473C69.332 14.7222 69.4986 14.6806 69.7485 14.264C70.0817 13.7226 70.165 13.7226 70.165 14.3473C70.165 15.3053 71.5395 16.055 72.1642 15.4303C72.4974 15.0971 72.7057 15.0971 72.8306 15.5552C72.9139 15.8884 73.2055 16.6798 73.4554 17.3879C73.9136 18.6374 73.9136 18.5957 73.747 17.0547C73.5804 15.9301 73.7053 15.5136 74.0385 15.6385C74.3301 15.7218 74.5383 16.18 74.5383 16.6381C74.5383 17.4712 75.4547 18.5541 76.3293 18.7623C76.6625 18.804 77.3706 19.1789 77.9954 19.5954C79.0783 20.3034 79.0783 20.3034 78.162 20.4284C77.6622 20.5117 77.2457 20.8449 77.2457 21.1781C77.2457 21.8445 77.9121 21.9695 78.2869 21.3447C78.6201 20.7616 79.7447 20.8032 79.7447 21.3864C79.7447 21.6363 79.4948 21.7612 79.2032 21.6363C78.87 21.5113 78.6618 21.7612 78.6618 22.2194C78.6618 23.1773 78.8284 23.219 79.9113 22.261C80.4944 21.7612 80.6194 21.7612 80.2862 22.2194C79.7447 22.9274 79.9946 24.4269 80.8693 25.7181C81.4107 26.5094 81.4107 26.5094 81.4107 25.7181C81.4524 24.885 81.4524 24.885 81.9106 25.7181C82.577 26.9676 82.6603 27.0092 83.0768 26.3428C83.41 25.8014 83.4933 25.8014 83.4933 26.3845C83.4933 26.7593 83.8682 27.1758 84.2847 27.3008C85.076 27.5091 85.1593 27.759 85.201 30.258C85.2426 31.0494 85.3676 31.2993 85.5758 30.9244C85.9924 30.258 87.1169 32.2989 87.9083 35.0895C88.3248 36.7139 88.4081 36.7972 88.4498 35.7143C88.4914 34.8813 88.6164 34.6314 88.9496 34.9646C89.616 35.631 89.8659 42.2535 89.1995 42.67C88.9079 42.8783 89.1995 42.9199 89.8659 42.7533C90.4907 42.6284 90.9905 42.67 91.0321 42.8366C91.3237 47.21 91.8235 50.2921 92.1983 50.4171C92.7398 50.5837 92.8231 51.7499 92.3233 51.7499C91.6152 51.7499 90.6156 50.667 90.449 49.6674C90.2824 48.6677 90.2824 48.6677 90.1991 49.7507C90.1575 50.9169 88.9496 51.4584 88.8663 50.3754C88.8663 49.9589 88.783 49.9589 88.6164 50.3754C88.4498 50.8752 86.4089 51.1668 86.4089 50.7086C86.4089 50.6253 86.7004 49.6674 87.0753 48.5844C87.5334 47.21 87.6167 46.5435 87.2835 46.2103C86.9503 45.8771 86.8254 45.8771 86.8254 46.252C86.8254 46.5435 86.6171 46.7518 86.3256 46.7518C86.034 46.7518 86.0757 46.5019 86.4922 46.0021C87.5334 44.7526 87.9083 43.2948 87.6584 41.1289L87.4085 39.0464L87.0753 42.0869C86.7004 45.6272 85.9924 46.4602 85.9924 43.4197C85.9924 42.2535 85.8258 41.3788 85.6175 41.5038C85.4092 41.6287 85.3259 43.7946 85.4509 46.2936L85.6175 50.8336L84.6595 50.6253C84.1181 50.5004 83.5349 50.2505 83.285 50.1255C83.0768 49.9589 80.8276 50.0839 78.2869 50.3338C73.9969 50.7919 73.9136 50.8336 76.7458 50.7919C78.9533 50.7919 79.9113 50.9585 80.2029 51.3751C80.4944 51.8749 80.5777 51.8749 80.5777 51.3751C80.5777 50.9169 81.0775 50.8336 82.9102 51.0418C84.2014 51.1668 85.3259 51.3751 85.4092 51.4584C85.5342 51.5417 85.5342 55.1653 85.4925 59.497C85.4092 64.9533 85.2426 66.9525 84.9927 65.9945C84.4513 63.9536 84.1181 64.0786 84.1181 66.3278C84.1181 67.4107 84.243 68.2437 84.368 68.1604C84.7845 67.9105 85.1593 69.1184 85.1177 70.4095L85.076 71.5341L84.7428 70.4929C84.5346 69.8264 84.4096 69.7015 84.368 70.1596C84.3263 70.8677 82.7852 71.9923 82.1605 71.8257C81.9522 71.784 81.8273 72.2838 81.8273 72.9503C81.8273 73.9499 81.9522 74.1165 82.6603 73.9499C83.3683 73.7416 83.4933 73.9499 83.4933 75.0328C83.4933 76.4073 82.8269 76.8238 82.5353 75.5743C82.452 75.1578 82.2021 75.5326 81.8689 76.6155C81.4107 78.3232 80.8276 78.9063 80.4944 77.99C80.1612 77.0321 79.4115 78.3649 79.2865 80.0726C79.1199 82.7382 78.7451 83.1131 78.4535 80.9056L78.2036 79.0313L78.162 80.9472C78.1203 82.1968 77.8288 83.1131 77.3706 83.4463C76.8291 83.9461 76.6625 83.9461 76.4959 83.488C76.2044 82.6133 74.4134 80.6557 74.1635 80.9472C73.9969 81.0722 74.4967 81.7803 75.1631 82.53C75.8712 83.238 76.3293 84.0294 76.2044 84.2377C75.8295 84.8624 75.1631 84.7375 75.1631 84.0294C75.1631 83.488 74.9965 83.4463 73.747 83.9878C72.4558 84.5292 72.2892 84.4876 71.4562 83.6962C70.998 83.1964 70.5815 83.0298 70.5815 83.2797C70.5815 83.5713 70.9564 83.9878 71.4145 84.2377C71.956 84.5292 72.2475 85.0707 72.2059 85.8204C72.2059 86.9033 72.1642 86.9033 71.831 85.987C71.6228 85.4872 71.1646 85.0707 70.8314 85.0707C70.4982 85.0707 70.1233 84.8208 70.04 84.5292C69.8734 84.2377 69.7901 84.196 69.7901 84.4876C69.7485 84.7375 69.9984 85.1956 70.3316 85.4872C70.6648 85.7371 70.8314 86.2369 70.7064 86.5701C70.5398 87.0699 70.3316 87.0283 69.8318 86.2786C69.3736 85.5705 69.1654 85.5289 68.8738 85.9454C68.6239 86.2786 68.5406 81.7386 68.5822 74.8662C68.7489 58.4557 68.5406 41.9619 68.2074 42.2951C68.0824 42.4617 67.9991 44.3777 67.9991 46.5435C68.0824 49.834 67.9991 50.5004 67.4577 50.5004C67.1245 50.5004 66.8329 50.2921 66.8329 50.0422C66.8329 49.7507 66.4997 49.2925 66.1248 48.9593C65.4584 48.4178 65.4584 48.4178 66.4164 48.6677L67.4577 48.9176L66.5414 48.043C65.3751 46.9184 65.3335 46.5852 66.4164 46.8768C66.8746 47.0017 67.1661 46.9184 66.9995 46.7101C66.8746 46.5019 66.5414 46.3353 66.2081 46.3353C65.8749 46.3353 65.2502 45.4606 64.7504 44.3777C63.5008 41.5454 62.043 39.8377 59.5023 38.13C58.2945 37.3387 57.3781 36.5057 57.4614 36.3391C57.5864 36.1725 57.3781 35.7976 57.0866 35.5477C56.6284 35.1728 56.2952 35.1728 55.6704 35.5477C55.004 35.9642 54.5875 35.9642 53.7129 35.5893C53.1297 35.2978 52.1718 35.0895 51.6303 35.0895C50.6723 35.0895 50.589 34.9229 50.5057 33.0903L50.4224 31.1327L50.2975 33.0903C50.1309 35.0062 49.7977 35.3811 48.3815 35.1312C47.5485 35.0062 44.7579 36.0058 43.3418 36.9638C42.4671 37.5469 41.5924 37.8801 41.3425 37.7552C41.051 37.5469 41.0093 37.6719 41.2176 38.0051C41.4675 38.4216 41.3842 38.5049 40.8844 38.2967C40.4678 38.13 40.1763 38.2133 40.1763 38.5049C40.1763 38.7965 39.968 38.7548 39.5515 38.4216C38.8435 37.8385 38.2603 38.13 38.7185 38.8381C38.8851 39.1297 39.4682 39.213 40.0097 39.088C40.5511 38.9214 41.0093 38.9214 41.0093 39.0047C41.0093 39.1297 40.093 40.2126 39.0101 41.5038C37.0108 43.7529 35.5947 47.0434 35.5947 49.3758C35.5947 50.0839 35.3864 50.5004 34.9699 50.5004C34.6367 50.5004 34.3452 50.2088 34.3452 49.8756C34.3452 49.1259 33.6787 49.0426 33.2206 49.7507C33.0123 50.0839 32.8041 48.876 32.6375 46.9601C32.5125 45.1274 32.5542 43.5447 32.7624 43.503C32.929 43.4197 33.0956 43.0449 33.0956 42.67C33.054 42.0452 32.9707 42.0869 32.4709 42.7533C32.0543 43.3364 31.8461 44.6276 31.8461 46.8351C31.8461 49.1676 31.6795 50.0839 31.3463 50.0839C31.0547 50.0839 31.138 50.2921 31.5545 50.542C32.2626 50.9585 32.3043 51.625 32.221 59.0388C32.1377 66.0778 32.0127 67.0358 31.4712 66.8692C30.9298 66.7026 30.9714 66.7859 31.5545 67.2857C32.1793 67.7855 32.2626 68.6602 32.2626 73.575C32.2626 78.6981 32.1793 79.2396 31.5545 79.2396C30.9298 79.2396 30.8881 79.3229 31.4296 79.6561C31.971 79.9893 31.971 80.0726 31.3463 80.0726C30.9714 80.0726 30.3467 80.4891 30.0135 80.9889C29.6386 81.4887 29.347 81.7386 29.347 81.4471C29.347 80.7806 27.2228 77.0737 26.9729 77.3236C26.848 77.4486 27.2228 78.3649 27.8476 79.4062C29.0555 81.4471 29.1388 81.7386 28.514 81.7386C28.2641 81.7386 27.8893 81.2805 27.681 80.6973C27.4311 80.1142 27.0562 79.1563 26.848 78.5731C26.5981 77.9484 26.3065 77.5735 26.1816 77.6568C26.0566 77.7818 26.4731 78.9896 27.0562 80.3225C27.7643 81.9052 27.9726 82.8632 27.7226 83.1131C27.2228 83.6129 27.2228 83.5296 25.7234 79.0729L24.7654 76.1157L24.9737 79.0313C25.1819 82.4883 24.4322 81.8219 24.0574 78.2399C23.8908 76.5739 24.0157 75.7825 24.5572 74.9079C24.9737 74.2831 25.1819 73.7 25.057 73.575C24.932 73.4501 24.7238 73.7416 24.5572 74.1998C24.1407 75.491 23.4742 75.2411 23.7658 73.9082C23.9324 73.2835 23.8908 72.9086 23.7242 73.1169C23.5159 73.2835 22.8911 72.9919 22.3497 72.4921C21.5167 71.7424 21.35 71.7007 21.5583 72.2422C21.9748 73.3668 21.3084 73.1169 20.4754 71.8257C19.7257 70.7011 19.7257 70.7011 19.9756 71.7424L20.2255 72.7837L19.6007 71.7424C19.1425 71.0343 18.9759 70.9094 18.9343 71.3675C18.9343 72.1589 19.9339 73.1169 20.3088 72.7004C20.4754 72.5754 20.6003 72.6587 20.6003 72.9086C20.6003 73.2002 20.4337 73.4084 20.1838 73.4084C19.9756 73.4084 19.7673 73.6167 19.7673 73.8666C19.7673 74.0748 19.9339 74.1581 20.1838 74.0332C20.4337 73.9082 20.4754 74.0748 20.3088 74.4497C20.1838 74.8246 19.9339 74.9912 19.809 74.7829C19.684 74.5746 19.1425 74.3664 18.6427 74.3664C17.893 74.3247 17.6848 74.533 17.6848 75.3244C17.6848 75.8658 17.893 76.324 18.1013 76.324C18.3512 76.324 18.5178 76.1574 18.5178 75.9075C18.5178 75.6992 18.8093 75.6159 19.1425 75.7409C19.4758 75.9075 19.6424 76.1574 19.5174 76.3656C19.3925 76.5739 19.1009 76.6572 18.8926 76.5322C18.6844 76.3656 18.5178 76.4906 18.5178 76.6988C18.5178 77.5319 17.893 77.157 17.0183 75.7825C16.2686 74.6579 16.1853 73.9082 16.2686 71.1176C16.3936 67.1608 16.7684 65.0782 17.3932 64.2869C17.8097 63.787 17.7681 63.787 16.9767 64.2869C16.4769 64.5784 15.9354 64.7034 15.8105 64.5784C15.4356 64.2036 15.9771 62.5792 16.4352 62.5792C16.6435 62.5792 16.7268 62.9124 16.6018 63.2872C16.3936 63.912 16.4352 63.912 16.8101 63.4122C17.1017 62.9957 17.06 62.6208 16.6018 62.121C16.1437 61.6212 16.0187 60.2051 16.0187 56.1649V50.8336L17.2683 51.0002C17.9763 51.1252 18.5178 51.0418 18.5178 50.8336C18.5178 50.667 17.9763 50.5004 17.3099 50.5004C15.7272 50.5004 15.6855 50.2921 15.6439 39.4212L15.5606 30.5496L17.4765 28.0505C19.4758 25.4265 21.1001 24.052 22.433 23.8021C23.5992 23.5522 23.8075 22.5526 22.6829 22.6775C22.1831 22.7608 20.642 23.9271 19.2259 25.3015C17.8514 26.676 16.9767 27.3424 17.2266 26.8426C17.5182 26.3012 17.6431 25.7597 17.5182 25.6348C17.3932 25.5098 17.06 25.8847 16.8101 26.5094C16.5185 27.0925 16.1437 27.5924 15.9354 27.5924C15.7272 27.5924 15.9354 27.0092 16.4352 26.3012C16.935 25.6348 17.4765 25.1349 17.6015 25.3015C17.9347 25.5931 21.4334 22.1361 21.2251 21.7196C21.1001 21.5946 21.35 21.1781 21.7666 20.8865C22.433 20.3451 22.433 20.3451 21.8499 21.1365C21.5167 21.5946 22.0581 21.2614 23.0994 20.47C24.1407 19.637 25.6818 18.5541 26.5564 18.0543C27.3894 17.5128 28.0142 16.9714 27.8893 16.7631C27.681 16.3882 30.8881 13.6393 31.5962 13.6393C31.8461 13.6393 32.2626 14.1807 32.5542 14.8888L33.0123 16.1383L33.054 14.7222C33.0956 13.7226 33.2622 13.3894 33.6787 13.556C34.0119 13.6809 34.5118 13.4727 34.845 13.1395C35.3031 12.5147 35.3031 12.4731 34.6784 12.723C33.7204 13.0562 33.7204 12.7646 34.72 11.7233C35.2198 11.1819 35.5114 11.0569 35.4697 11.4318C35.4697 11.7233 35.5114 12.3481 35.553 12.8063C35.5947 13.556 35.6363 13.556 36.1361 12.6397C36.386 12.0565 36.8859 11.5567 37.2191 11.4318C37.6356 11.3068 37.6772 11.5567 37.469 12.6397C37.3024 13.431 36.9692 14.1807 36.7193 14.3473C36.4694 14.5139 36.5527 14.8472 36.9692 15.3053C37.6356 15.9301 37.6772 15.9301 37.7189 14.8055C37.7605 14.0974 37.8438 13.9308 37.9688 14.3473C38.0521 14.7639 38.3436 15.0971 38.5519 15.0971C39.0934 15.0971 39.0101 14.389 38.3436 13.7226C38.0104 13.3894 37.8438 12.723 37.9688 12.0565C38.3436 10.1822 38.9268 10.3489 38.9268 12.3481C38.9268 13.3894 39.0517 14.3057 39.26 14.389C39.4266 14.5139 39.4682 13.7226 39.4266 12.598C39.26 10.7237 39.3433 10.5988 40.4678 10.3905C41.0926 10.2655 41.8007 10.2655 42.0089 10.3905C42.2172 10.5155 42.2588 12.1398 42.1339 14.0141C42.0089 15.9301 42.0922 17.013 42.2588 16.5548C42.4671 16.0967 42.6337 14.9305 42.6337 13.9308C42.6753 12.9729 42.8836 12.1398 43.0919 12.0982C43.3418 12.0982 43.7583 12.0565 44.0498 12.0149C44.2997 11.9732 44.6746 11.5151 44.7995 10.932C45.0495 9.97399 45.0911 10.0156 45.1328 11.2235C45.1328 11.9732 45.341 12.598 45.5493 12.598C46.0907 12.598 46.4239 11.4734 46.174 10.7237C46.0074 10.3905 46.0074 10.0989 46.174 10.0989C46.299 10.0989 46.5905 10.7237 46.7988 11.4318C47.1737 12.7646 47.1737 12.7646 47.2153 11.64C47.257 10.3072 48.09 10.0989 48.09 11.4318C48.1316 12.3064 48.1733 12.3064 48.5481 11.64C48.8813 11.0569 49.1312 11.0153 49.5478 11.3485C49.9643 11.6817 50.1725 11.5984 50.3808 10.9736C50.7556 9.72409 52.5883 9.80739 53.0881 11.0986C53.5462 12.3897 55.1706 12.1398 55.1706 10.7654C55.1706 10.0573 55.2539 10.0156 55.5871 10.5155C55.9204 11.0153 56.0037 11.0153 56.0037 10.3072C56.0037 9.64078 56.087 9.59913 56.4202 10.0989C56.6701 10.5155 57.3365 10.6404 58.4611 10.5571ZM54.7541 10.2655C54.7541 10.3905 54.5875 10.5988 54.3376 10.7237C54.1294 10.8487 53.9211 10.7654 53.9211 10.5571C53.9211 10.3072 54.1294 10.0989 54.3376 10.0989C54.5875 10.0989 54.7541 10.1822 54.7541 10.2655ZM25.5568 17.3046C25.4735 17.3879 24.5572 18.0543 23.5159 18.804L21.6416 20.1785L23.266 18.679C24.1823 17.846 25.0986 17.1796 25.3069 17.1796C25.5568 17.1796 25.6401 17.2213 25.5568 17.3046ZM81.4107 22.7608C81.4107 22.8858 81.2441 23.094 80.9942 23.219C80.786 23.344 80.5777 23.2607 80.5777 23.0524C80.5777 22.8025 80.786 22.5942 80.9942 22.5942C81.2441 22.5942 81.4107 22.6775 81.4107 22.7608ZM18.1013 23.5939C18.1013 23.6772 17.7681 24.0104 17.3932 24.3019C16.7268 24.8434 16.6851 24.8017 17.2266 24.1353C17.7681 23.4689 18.1013 23.2607 18.1013 23.5939ZM16.3519 28.8419C15.7688 29.7582 15.3523 29.6333 15.7272 28.6336C15.8938 28.3004 16.1853 28.0089 16.4352 28.0089C16.6851 28.0089 16.6851 28.3004 16.3519 28.8419ZM14.1861 30.0081C13.478 30.6745 13.4364 30.6745 13.9778 29.7999C14.2694 29.3 14.6026 28.9668 14.7275 29.0918C14.8525 29.1751 14.6026 29.5916 14.1861 30.0081ZM86.7421 30.3413C86.5755 30.4663 86.2423 30.1331 85.9924 29.5916C85.4925 28.6753 85.4925 28.6753 86.2423 29.3417C86.6588 29.7582 86.867 30.1747 86.7421 30.3413ZM14.6859 31.8408C14.6859 32.3822 14.2277 33.84 13.7279 35.0895C12.52 38.0467 12.1452 39.6711 12.6866 39.6711C12.8949 39.6711 13.1032 39.2546 13.1032 38.7132C13.1032 38.2133 13.478 37.0471 13.9362 36.1308L14.7275 34.4648L14.6859 40.0876C14.6442 43.5447 14.436 45.8355 14.1861 46.0021C13.8945 46.2103 14.0195 46.3353 14.4776 46.3353C14.8525 46.3353 15.1857 46.5019 15.1857 46.7518C15.1857 46.9601 14.8941 47.1683 14.5193 47.1683C14.1861 47.1683 14.0195 47.3766 14.1444 47.5848C14.311 47.8347 14.6026 47.918 14.8108 47.7931C15.0191 47.6265 15.1857 47.8347 15.1857 48.1679C15.1857 48.5428 14.9358 48.8343 14.6859 48.876C14.2694 48.876 14.2694 48.9593 14.6859 49.1259C15.8105 49.5841 15.0608 50.0839 13.2281 50.0839C11.3122 50.0422 11.1872 50.0006 10.4375 48.3762C9.72943 46.8351 9.64613 46.7518 9.10466 47.4599C8.60485 48.1679 8.5632 48.1263 8.52155 47.1683C8.52155 45.3773 8.97971 44.2944 9.60448 44.5443C9.97933 44.6693 10.1043 45.0858 9.97933 45.6689C9.81273 46.2936 9.81273 46.3769 10.1043 45.9188C10.3125 45.5856 10.6041 44.2527 10.7291 43.0032C11.1039 39.7544 11.9369 36.9638 13.3531 34.1732C13.7279 33.5068 13.8945 32.8404 13.7696 32.7154C13.5613 32.4655 14.2277 30.9244 14.5609 30.9244C14.6442 30.9244 14.7275 31.3409 14.6859 31.8408ZM88.783 33.9233C88.658 34.2565 88.5331 34.1316 88.5331 33.6734C88.4914 33.2152 88.6164 32.9653 88.7413 33.1319C88.8663 33.2569 88.9079 33.6317 88.783 33.9233ZM55.4622 37.4636C59.0442 38.8798 61.1267 40.5042 62.9177 43.1698C64.1256 45.0025 64.4588 45.9604 64.6254 48.0846C64.792 50.3338 64.7504 50.5837 64.2505 50.0006C63.126 48.5428 61.0018 49.001 61.0018 50.7086C61.0018 52.1664 62.5429 52.6246 63.6674 51.5C64.2922 50.9169 64.3339 50.9169 64.3339 51.5417C64.3339 52.333 63.5425 53.2077 62.7928 53.2493C61.5432 53.3327 61.3766 53.4576 61.6682 53.9158C61.8764 54.249 61.7515 54.2906 61.1684 54.0824C60.5853 53.8325 60.6686 54.0824 61.5432 54.957C62.8344 56.3315 63.0843 57.2478 61.8348 56.1233C61.3766 55.7068 61.0018 55.5402 61.0018 55.7901C61.0018 55.9983 60.5853 56.1649 60.0855 56.0816C59.544 56.04 59.0025 55.9567 58.8359 55.9567C58.6693 55.915 58.6693 55.4985 58.8776 54.957C59.2108 54.0407 59.5023 49.7923 59.3774 47.4182C59.3357 46.6268 58.7943 45.7522 57.7946 44.7942C55.3789 42.5867 53.4629 41.7537 50.4641 41.6704C48.2982 41.6287 47.4652 41.7953 45.7575 42.7533C42.9253 44.2944 42.1755 45.7105 41.9256 49.8756C41.8007 51.8332 41.4675 53.5826 41.0926 54.1657C40.7594 54.6655 40.5928 55.2069 40.7178 55.3319C40.8427 55.4569 41.051 55.1653 41.2176 54.7071C41.5924 53.4993 42.0089 53.6242 42.5504 55.0403C43.0919 56.5398 42.717 57.1645 42.0506 55.8734C41.5924 55.082 41.5091 55.082 41.3009 55.6651C41.1343 56.0816 41.1759 56.2899 41.3842 56.1649C41.5924 56.04 41.8423 56.2066 42.0089 56.5398C42.1339 56.873 42.0506 57.2478 41.8423 57.3728C41.3009 57.706 41.3009 59.9552 41.8423 60.2884C42.0922 60.4133 42.2588 60.7882 42.2588 61.0381C42.2588 61.3296 42.0922 61.288 41.8423 60.9131C41.4675 60.3717 41.4258 60.3717 41.4258 60.9131C41.3842 62.0377 40.5928 60.455 40.5928 59.2471C40.5928 58.4141 40.5095 58.3308 40.1763 58.8306C39.6765 59.6219 39.6348 58.9972 40.1346 57.2478C40.6344 55.5402 40.3429 55.5402 39.5932 57.2478C39.135 58.3308 38.9684 58.4557 38.9268 57.7893C38.8851 57.3311 38.8435 56.8313 38.8851 56.6231C38.8851 56.4565 38.7602 56.3315 38.5102 56.3315C38.302 56.3315 38.2187 56.04 38.3853 55.7068C38.5102 55.2902 38.4269 55.082 38.0521 55.1653C36.9275 55.4152 37.2191 53.9158 38.3853 53.4576L39.5515 52.9994L38.2187 53.2493C36.9275 53.4576 36.8859 53.416 36.5943 51.5417C36.0945 48.1679 37.3024 44.9608 40.3012 41.4205C43.3834 37.7968 45.0911 36.6306 47.8817 36.2974C50.6307 35.9225 52.2967 36.1725 55.4622 37.4636ZM11.2705 37.8385C11.1039 38.4216 10.8957 38.8381 10.7707 38.7132C10.6458 38.6299 10.6874 38.0051 10.854 37.422C10.979 36.7972 11.2289 36.3807 11.3122 36.5057C11.4371 36.6306 11.3955 37.2137 11.2705 37.8385ZM90.6156 40.1709C90.2408 41.5038 90.2408 41.4621 90.1991 39.4629C90.1991 37.8801 90.2824 37.5469 90.6156 38.0884C90.8655 38.5466 90.8655 39.2963 90.6156 40.1709ZM91.282 41.837C91.1571 42.1285 91.0738 41.9203 91.0738 41.3372C91.0738 40.7541 91.1571 40.5458 91.282 40.7957C91.3653 41.0873 91.3653 41.5871 91.282 41.837ZM51.0055 43.0865C51.0055 43.4614 51.1721 43.4197 51.422 43.0032C51.7553 42.5034 51.8386 42.5034 51.8386 43.2115C51.8386 43.8362 51.9219 43.9195 52.2134 43.4614C52.4633 43.0865 52.9215 43.0032 53.5462 43.2115C54.8791 43.628 57.3365 45.4606 57.0449 45.8771C56.9616 46.0854 57.0449 46.8351 57.2532 47.5848C57.5447 48.6677 57.5447 48.876 57.1699 48.5011C56.8783 48.2096 56.4618 48.0013 56.2119 48.0013C55.5871 48.0013 55.7121 50.3754 56.3785 51.0418C56.795 51.4167 56.8367 51.3751 56.5868 50.7919C56.4202 50.2921 56.5035 50.1255 56.92 50.2921C57.2532 50.4171 57.5031 51.2085 57.5031 52.2497C57.5447 53.416 57.4614 53.7492 57.2115 53.291C56.3785 51.8749 53.9628 54.0824 54.5875 55.7068C54.7541 56.1649 54.5459 56.3315 53.8795 56.3732C52.0468 56.4565 50.7973 56.2482 50.3808 55.8317C50.0892 55.5402 50.3808 55.4569 51.2971 55.6235C52.6716 55.915 53.9211 55.6651 53.9211 55.1236C53.9211 54.957 52.9215 54.957 51.7553 55.1236C50.1309 55.3319 49.3812 55.2486 48.923 54.8321C48.5065 54.4156 48.4648 54.249 48.8397 54.249C49.1729 54.249 49.2562 54.0407 49.0896 53.7492C48.8813 53.4576 48.9646 53.416 49.3812 53.6659C49.7144 53.8325 50.1725 54.0407 50.3808 54.124C50.6307 54.1657 51.1721 54.3323 51.672 54.4572C52.8798 54.8321 53.5879 53.8741 52.8382 52.8328C52.505 52.3747 52.2551 52.2081 52.2551 52.458C52.2551 53.0411 49.0063 52.8328 48.4232 52.2497C47.7568 51.5833 48.4232 49.6257 49.3395 49.3758C49.7977 49.2509 50.1725 49.001 50.1725 48.7927C50.1725 48.2512 49.6311 48.3345 48.5481 49.0843C47.7568 49.6674 47.6318 50.0839 47.7568 51.5417C47.8401 53.0411 47.7568 53.3327 47.1737 53.291C46.7571 53.2493 46.4239 52.9578 46.4239 52.6662C46.4239 52.333 46.174 52.1664 45.7992 52.333C45.3827 52.4996 45.1744 52.2914 45.1744 51.7499C45.1744 51.2085 44.8828 50.9169 44.3414 50.9169C43.7583 50.9169 43.55 50.6253 43.5917 49.7507C43.5917 49.1259 43.4667 48.1679 43.3418 47.5848C43.0919 46.6685 43.0919 46.6268 43.4667 47.4182C44.0915 48.876 44.7579 49.001 44.2164 47.5848C43.9665 46.9184 43.5917 46.3353 43.3834 46.3353C42.592 46.3353 44.4663 44.4193 46.1324 43.5447C48.0483 42.5451 51.0055 42.2535 51.0055 43.0865ZM91.6985 43.9195C91.5736 44.2111 91.4903 44.0028 91.4903 43.4197C91.4903 42.8366 91.5736 42.6284 91.6985 42.8783C91.7818 43.1698 91.7818 43.6696 91.6985 43.9195ZM92.2817 47.7098C91.9484 48.043 91.8235 47.6265 91.8651 46.2936L91.9068 44.461L92.3233 45.8771C92.5732 46.8351 92.5732 47.4182 92.2817 47.7098ZM42.9669 51.0002C42.8419 51.2918 42.7586 51.0835 42.7586 50.5004C42.7586 49.9173 42.8419 49.709 42.9669 49.9589C43.0502 50.2505 43.0502 50.7503 42.9669 51.0002ZM63.126 50.2921C63.126 50.5004 62.7511 50.7503 62.2513 50.8336C61.4183 50.9585 61.1267 50.5004 61.7098 49.9173C62.1263 49.5424 63.126 49.7923 63.126 50.2921ZM14.9775 51.0002C15.0608 51.2918 15.1857 56.4565 15.269 62.4959C15.394 73.2002 15.394 73.4084 14.6859 71.7424C14.2694 70.7844 13.7279 68.8268 13.478 67.369C12.9782 64.3702 12.52 63.7454 12.7699 66.3278C12.8533 67.2441 12.7699 67.8272 12.645 67.6606C12.0619 67.1191 10.5208 61.9544 10.4791 60.5799C10.4375 59.8719 10.3125 59.2471 10.1459 59.2471C9.72943 59.2471 8.81311 55.6651 9.06301 54.9987C9.18797 54.7071 9.39622 55.082 9.56283 55.7901C10.021 57.831 10.6041 57.4561 10.6041 55.1653C10.6041 53.7492 10.4791 53.3743 10.1876 53.8325C9.81273 54.3739 9.77108 54.3739 9.77108 53.8325C9.77108 52.6662 10.2709 51.3334 10.6458 51.5833C10.854 51.7083 11.0206 51.5 11.0206 51.1668C11.0206 50.3338 14.6859 50.2088 14.9775 51.0002ZM35.0532 50.9169C35.3031 50.9169 35.6363 51.6666 35.8029 52.5413C36.2194 55.1653 38.6352 59.7053 40.6344 61.7461C42.0506 63.2039 43.1335 63.8287 45.4243 64.5368C47.0487 65.0782 48.8397 65.4947 49.4645 65.4947C50.6723 65.4947 51.0472 66.3278 49.881 66.3278C49.1729 66.3694 49.1729 66.3694 49.881 66.9109C50.6307 67.494 50.9222 68.6602 50.1725 68.202C49.5894 67.8272 49.6727 68.5353 50.2975 69.2017C50.714 69.6598 50.714 69.7431 50.2975 69.4932C50.0059 69.3266 49.756 69.4099 49.756 69.6182C49.756 69.8681 50.0059 70.0763 50.2975 70.0763C50.6307 70.0763 50.589 70.2429 50.1725 70.4929C49.756 70.7428 49.7144 70.9094 50.0892 70.9094C50.8806 70.9094 50.6723 71.7424 49.881 71.7424C49.1729 71.784 49.1729 71.8257 49.7977 72.2838C50.3808 72.742 50.5057 73.9915 50.5474 81.2388C50.589 86.4452 50.4641 89.6523 50.2142 89.6523C50.0059 89.6523 49.7144 89.0692 49.5478 88.4028C49.3812 87.6947 49.0896 87.1532 48.8813 87.1532C48.6314 87.1532 48.5481 87.3198 48.7147 87.5281C48.8397 87.7364 48.4648 88.4028 47.8817 88.9859C47.2986 89.569 46.8404 89.9022 46.7988 89.7356C46.7988 89.569 46.6322 89.8606 46.3823 90.402C46.174 90.9435 45.8408 91.235 45.5909 91.1101C45.3827 90.9851 45.1744 91.1101 45.1744 91.4016C45.1744 91.6932 44.7995 91.4849 44.3414 90.9018L43.5084 89.8606L43.2585 90.8602L42.9669 91.8181L42.3838 90.8602L41.8007 89.8606L42.0089 90.9018C42.2172 91.9014 42.1755 91.9014 41.6341 91.1517C41.3009 90.6936 41.0093 90.2354 41.0093 90.1105C41.0093 89.9855 40.5511 89.8606 39.968 89.8606C39.135 89.8606 38.9684 90.0272 39.1767 90.6936C39.3849 91.4849 39.3433 91.4849 38.7602 90.7352C38.4269 90.3187 37.9688 90.1105 37.7189 90.2771C37.4273 90.4437 37.2607 90.1521 37.2607 89.569C37.2607 88.9442 36.636 88.1112 35.4281 87.1532C33.9703 85.987 33.5538 85.3622 33.3455 84.0294C33.2206 83.1131 33.0123 75.1578 32.8457 66.3694L32.5958 50.3754L33.5538 50.6253C34.0952 50.7919 34.7617 50.9169 35.0532 50.9169ZM67.9991 54.957C67.9991 57.2062 67.8742 65.2032 67.7909 72.7004L67.5826 86.3619L66.2498 86.0703C65.5417 85.9454 64.8337 85.5705 64.6671 85.3206C64.4172 84.9874 64.2089 85.029 63.9173 85.4872C63.6674 85.9037 63.5008 85.9454 63.5008 85.5705C63.5008 85.3206 63.3342 85.0707 63.126 85.0707C62.9177 85.0707 62.8344 85.4455 62.9594 85.9037C63.0843 86.3619 63.0427 87.3615 62.9177 88.1529L62.6262 89.6106L61.7098 88.6943L60.8352 87.8197L60.5436 88.8193C60.2521 89.8189 60.2521 89.8189 60.1688 88.611L60.0438 87.3615L59.7522 88.8193L59.4607 90.2771L59.3774 88.7776C59.3774 87.9446 59.0442 87.0283 58.711 86.7367C58.1695 86.2786 58.0862 86.4868 58.0029 88.0279L57.9613 89.8606L57.7946 88.1945C57.6697 87.2782 57.4198 86.3202 57.2115 86.112C56.92 85.8204 56.8783 85.9454 57.0449 86.4035C57.2115 86.8617 57.1282 87.1532 56.8367 87.1532C56.5868 87.1532 56.4202 87.4864 56.4618 87.8613C56.5868 89.444 56.4202 90.527 56.0037 90.2771C55.7954 90.1521 55.5455 90.4437 55.5455 90.9851C55.4622 91.9014 55.4622 91.9014 55.2956 91.0684C55.2123 90.5686 54.7541 90.0688 54.2543 89.9439C53.5046 89.7356 53.4213 89.8606 53.5879 91.1101C53.6712 91.8598 53.5879 92.4013 53.4213 92.318C53.2547 92.193 53.0464 91.3183 53.0048 90.3604L52.9631 88.611L52.7549 90.0688L52.505 91.5266L52.2551 89.8606L51.9635 88.1945L51.8802 89.7356C51.8802 90.6103 51.6303 91.3183 51.3804 91.3183C51.1305 91.3183 51.0472 90.8602 51.1721 90.1521C51.2971 89.5273 51.4637 88.2362 51.5054 87.2365C51.547 86.2786 51.7136 85.4872 51.8802 85.4872C52.0468 85.4872 52.1718 85.1123 52.1301 84.6542C52.0885 84.196 51.9219 83.8212 51.7553 83.8212C51.5887 83.8212 51.422 83.5296 51.422 83.1964C51.422 82.8632 51.672 82.5716 51.9635 82.5716C52.2967 82.5716 52.2551 82.405 51.8386 82.1551C51.2971 81.7803 51.2971 81.7386 51.8386 81.7386C52.2551 81.7386 52.2967 81.6137 52.0052 81.4054C51.672 81.2388 51.422 78.4482 51.2138 73.4917L50.8806 65.9112H52.9215C54.2127 65.9112 55.5871 65.578 56.5868 65.0366C57.4614 64.5784 58.0446 64.3702 57.9196 64.5784C57.7946 64.7867 57.9613 64.9533 58.3361 64.9533C58.711 64.9533 58.8359 64.6617 58.711 64.2036C58.5444 63.7037 58.711 63.5371 59.2108 63.5788C59.6273 63.5788 59.9188 63.3705 59.8772 63.079C59.7939 62.8291 60.0438 62.5792 60.4187 62.5792C60.7935 62.5792 60.9185 62.3709 60.7519 62.0377C60.5436 61.6628 60.5853 61.6628 61.0018 62.0377C61.4599 62.4542 61.335 62.8291 60.4187 64.037C58.8359 66.0778 59.419 65.8696 61.6682 63.4955C63.959 61.1214 65.1252 59.2471 63.1676 61.0797C62.0847 62.121 61.8348 62.2043 61.5849 61.6212C61.4599 61.2463 61.7931 60.3717 62.4179 59.5386C63.001 58.7473 63.5008 57.9976 63.5008 57.8726C63.5008 57.706 63.959 56.6231 64.5005 55.4152C65.0419 54.2073 65.625 52.7079 65.75 52.0415C65.9582 51.2085 66.2498 50.9169 67.0412 50.9169C68.0824 50.9169 68.0824 50.9169 67.9991 54.957ZM91.3237 51.9165C91.5736 52.0415 91.7402 52.4996 91.7402 52.9161C91.6985 53.291 91.8235 54.2906 91.9901 55.082C92.2817 56.4981 92.24 56.4981 91.5736 55.7068C90.9488 54.957 90.9072 54.957 91.1571 55.6235C91.282 56.0816 91.4903 56.9146 91.6152 57.4977L91.8235 58.6223L91.3653 57.4561C90.6989 55.7484 90.1575 56.1233 90.8239 57.8726C91.1154 58.7473 91.3653 59.8302 91.3653 60.2884C91.3653 60.8715 91.282 60.9548 91.1154 60.4966C90.7406 59.497 89.2411 57.1229 89.0745 57.2478C88.9912 57.3311 89.4077 58.3308 89.9492 59.4553C90.4907 60.6216 90.9488 61.9961 90.9488 62.5792C90.9072 63.4955 90.8655 63.4538 90.5323 62.246C89.9908 60.3717 89.6993 60.5799 89.9492 62.6625C90.1575 64.3702 90.1158 64.4118 89.7409 63.079C89.491 62.3709 89.1995 61.7461 89.0745 61.7461C88.9079 61.7461 88.9496 62.0377 89.0745 62.4126C89.4494 63.3705 88.9496 64.745 88.4081 64.4118C88.1166 64.2036 88.0333 64.4951 88.2415 65.2032C88.4081 65.8696 88.2832 66.4111 87.9916 66.5777C87.6584 66.7859 87.6167 66.661 87.7833 66.2028C88.3248 64.7034 87.5751 65.578 86.8254 67.2441L86.034 69.0351L86.2006 62.9957C86.2839 59.6636 86.3672 55.6651 86.3672 54.124L86.4089 51.2918L88.6164 51.4584C89.8659 51.5417 91.0738 51.7499 91.3237 51.9165ZM44.7162 54.4572V55.2902L44.3414 54.4572C44.1331 53.9991 43.9665 53.3327 43.9665 52.9994C43.9249 52.458 43.9665 52.458 44.3414 52.9994C44.5496 53.3327 44.7162 53.9991 44.7162 54.4572ZM63.4175 53.9158C63.7091 54.2906 63.6674 54.6238 63.2926 54.957C62.8761 55.3735 62.6262 55.3319 62.168 54.7904C61.7098 54.1657 61.7098 54.124 62.4179 54.3739C63.0843 54.6238 63.126 54.5822 62.6678 54.0407C62.3763 53.7075 62.3346 53.416 62.5845 53.416C62.7928 53.416 63.1676 53.6659 63.4175 53.9158ZM48.5065 55.5818C48.5065 55.8317 48.2566 55.7901 47.8817 55.4985C47.5485 55.2069 47.257 54.9154 47.257 54.8321C47.257 54.7488 47.5485 54.7904 47.8817 54.9154C48.2149 55.082 48.5065 55.3735 48.5065 55.5818ZM56.5451 55.7068C56.9616 55.3319 57.2532 55.2069 57.2532 55.4569C57.2532 55.7068 56.8783 56.0816 56.4202 56.3315C55.7954 56.6647 55.5455 56.5814 55.1706 55.9567C54.9624 55.4985 54.7541 54.9987 54.7541 54.7904C54.7958 54.6238 55.0457 54.9154 55.3372 55.4152C55.8371 56.3315 55.9204 56.3732 56.5451 55.7068ZM48.1316 56.6231C48.6731 57.2895 48.6314 57.3311 48.0067 56.7897C47.2986 56.2482 47.0903 55.915 47.4236 55.915C47.5069 55.915 47.8401 56.2482 48.1316 56.6231ZM58.711 56.748C58.586 56.9563 58.2528 57.1645 58.0446 57.1645C57.7946 57.1645 57.753 56.9563 57.8779 56.748C58.0029 56.4981 58.3361 56.3315 58.5444 56.3315C58.7943 56.3315 58.8359 56.4981 58.711 56.748ZM61.1684 57.1229C61.7098 57.706 61.7515 58.1225 61.4599 58.9972C60.8768 60.455 60.5436 60.3717 60.8352 58.8306C61.0434 57.9143 60.9185 57.5394 60.4187 57.3311C60.0438 57.2062 59.7522 56.9146 59.7522 56.7064C59.7522 56.0816 60.4187 56.2899 61.1684 57.1229ZM44.3414 57.4561C44.7995 57.8726 45.1744 58.3308 45.1744 58.539C45.1744 58.7473 44.8828 58.5807 44.508 58.2475C44.1748 57.8726 43.55 57.5811 43.1752 57.5811C42.6337 57.5811 42.6337 57.6644 43.3418 58.2058C44.1331 58.7889 44.1331 58.8306 43.2168 59.0805C42.6753 59.2054 42.3838 59.5386 42.5087 59.7469C42.6337 59.9552 43.0502 60.0385 43.4667 59.8719C43.9665 59.6636 44.0082 59.7053 43.6333 60.1218C43.2168 60.5383 43.0086 60.4966 42.4671 60.0801C41.6341 59.4137 41.6757 58.4557 42.5504 57.4977C43.3834 56.5814 43.3001 56.5814 44.3414 57.4561ZM60.1688 58.2058C60.1688 58.4141 59.7522 58.6223 59.3357 58.5807C58.6693 58.5807 58.586 58.664 59.0025 59.2054C59.3357 59.6636 59.2108 59.6219 58.6693 59.1221C58.0029 58.4974 57.9613 58.3308 58.5027 57.9976C59.2524 57.4977 60.2104 57.6227 60.1688 58.2058ZM56.4618 59.9552C56.7534 60.8298 57.2532 61.7878 57.628 62.0794C58.2112 62.5375 58.1279 62.5375 57.3365 62.1627C56.3369 61.6628 56.2536 61.4962 55.8371 59.5386C55.4622 57.9143 55.8371 58.1642 56.4618 59.9552ZM58.8776 60.1634C59.6689 60.0801 60.1688 60.1634 60.1688 60.455C60.1688 60.9548 58.1695 60.8715 57.3365 60.33C57.0449 60.1634 56.8367 59.7053 56.8783 59.3304C56.8783 58.7889 56.9616 58.8306 57.2532 59.497C57.5031 60.1634 57.8779 60.33 58.8776 60.1634ZM45.9658 60.5799C45.9658 61.3296 45.7575 62.3293 45.5493 62.7874C45.2994 63.3705 45.2161 62.9957 45.3827 61.5379C45.5909 59.5803 45.5493 59.5386 45.0078 60.455C44.7162 61.0381 44.508 61.7461 44.6329 62.0377C44.7579 62.3293 44.6329 62.5792 44.383 62.5792C44.1331 62.5792 43.9249 62.2876 43.9249 61.9544C43.9249 61.5795 43.675 61.4546 43.3001 61.5795C42.9669 61.7461 42.6753 61.6212 42.6753 61.3713C42.6753 61.1214 42.9253 60.9131 43.2168 60.9131C43.5084 60.9131 44.0498 60.5383 44.4663 60.0801C45.466 58.8722 46.0074 59.0388 45.9658 60.5799ZM47.007 60.6632C46.8821 61.2463 46.9654 61.7878 47.2986 61.9961C47.6735 62.2043 47.7568 62.0794 47.5485 61.6212C47.4236 61.2463 47.4652 60.8298 47.6318 60.7049C47.8401 60.5799 48.1316 60.8298 48.2982 61.2047C48.4232 61.6212 48.3399 61.9961 48.1316 62.0794C47.8817 62.1627 47.6735 62.6208 47.6735 63.1206C47.6735 63.912 47.5902 63.912 47.0487 62.8291C46.3823 61.5795 46.2573 60.4133 46.7155 59.9552C47.1737 59.4553 47.2986 59.6219 47.007 60.6632ZM48.798 60.5799C48.6731 60.9131 48.5481 60.7882 48.5481 60.33C48.5065 59.8719 48.6314 59.6219 48.7564 59.7886C48.8813 59.9135 48.923 60.2884 48.798 60.5799ZM54.9624 60.9131C55.129 61.6212 55.3789 62.0794 55.5871 61.9544C55.7954 61.8294 56.0453 61.9128 56.2119 62.1627C56.4618 62.5375 56.2119 62.6625 55.2956 62.5375C55.129 62.5375 54.8374 62.8707 54.6708 63.2872C54.4209 63.9536 54.3793 63.9536 54.0877 63.079C53.7962 62.0794 53.0881 61.8294 53.0464 62.6625C53.0464 62.954 52.8798 62.8291 52.6716 62.3709C52.0885 60.9964 52.2134 60.8715 53.2547 61.5379C54.4626 62.3293 55.004 61.7878 54.3376 60.4966C54.0877 59.9968 54.0461 59.6636 54.296 59.6636C54.5042 59.6636 54.7958 60.2467 54.9624 60.9131ZM50.3808 60.9131C50.5057 61.1214 50.4224 61.3296 50.2142 61.3296C49.9643 61.3296 49.756 61.1214 49.756 60.9131C49.756 60.6632 49.8393 60.4966 49.9226 60.4966C50.0476 60.4966 50.2558 60.6632 50.3808 60.9131ZM51.672 62.6625C50.9222 63.079 50.0476 62.7458 50.3808 62.1627C50.5057 61.9961 51.0055 61.9128 51.4637 62.0377C52.2551 62.246 52.2551 62.3293 51.672 62.6625ZM52.5466 64.1619C52.1718 64.4951 51.5887 64.6201 50.8806 64.4118C49.2562 64.037 49.5061 63.6204 51.422 63.6204C52.8382 63.5788 53.0048 63.6621 52.5466 64.1619ZM16.4352 65.4947C16.4352 65.703 16.3519 65.9112 16.2686 65.9112C16.1437 65.9112 15.9354 65.703 15.8105 65.4947C15.6855 65.2448 15.7688 65.0782 15.9771 65.0782C16.227 65.0782 16.4352 65.2448 16.4352 65.4947ZM23.0577 74.4913C22.5579 75.1161 21.6 74.8246 21.2667 73.9915C21.1418 73.6167 21.2251 73.4917 21.4334 73.6167C21.6833 73.7416 21.8499 73.6583 21.8499 73.4501C21.8499 73.1169 22.1414 73.1585 22.6412 73.4917C23.2243 73.8666 23.3493 74.1581 23.0577 74.4913ZM23.0994 75.2827C23.3493 75.1161 23.5159 75.8658 23.5159 77.1154C23.5159 78.2399 23.7242 79.6977 23.9324 80.3225C24.2656 81.1138 24.2656 81.572 23.9324 81.9052C23.6409 82.1968 23.5159 82.1135 23.5159 81.6137C23.5159 81.2388 23.3493 80.9056 23.0994 80.9056C22.8911 80.9056 22.6829 80.5724 22.6829 80.1559C22.6829 79.5728 22.5996 79.5311 22.2664 80.0726C21.8082 80.8223 21.3917 80.4474 21.2667 79.0313C21.1418 78.2399 21.2667 78.0733 21.5583 78.3649C21.8082 78.6148 22.2664 78.823 22.5579 78.823C22.9744 78.823 23.0161 78.6148 22.6829 78.0317C22.433 77.4902 21.9748 77.3236 21.4334 77.4486C20.9335 77.5735 20.6003 77.4486 20.6003 77.157C20.6003 76.5739 19.6007 77.4902 19.2259 78.4065C19.0592 78.9063 18.9759 78.9063 18.9759 78.3649C18.9343 77.99 19.2259 77.4069 19.6007 77.1154C19.9756 76.8238 20.4337 76.1157 20.642 75.6159C20.9335 74.7829 21.1418 74.6996 21.8499 75.0745C22.308 75.3244 22.8911 75.4077 23.0994 75.2827ZM32.5125 80.9472C32.6375 81.1971 32.5542 81.6137 32.3043 81.8636C31.9294 82.2384 31.7211 82.1968 31.4296 81.7386C31.2213 81.4054 31.0131 80.9889 31.0131 80.7806C31.0131 80.3225 32.1793 80.4474 32.5125 80.9472ZM30.7215 84.4459C30.5966 84.8208 30.3883 85.029 30.305 84.9041C30.1801 84.7791 30.2217 84.5292 30.3883 84.2793C30.7632 83.6129 31.0131 83.7379 30.7215 84.4459ZM67.3327 88.5694C67.6243 88.4028 67.6659 88.4861 67.4993 88.736C67.0412 89.4857 66.4164 89.3191 66.458 88.4861C66.458 88.0696 66.583 87.9863 66.708 88.3195C66.7913 88.5694 67.1245 88.6943 67.3327 88.5694Z" fill="#0C0C0C"></path>
<path d="M48.3815 15.2221L46.0907 17.3879L45.8824 22.0945C45.7575 25.7181 45.5076 26.9676 44.9661 27.5507C44.3414 28.3005 44.3414 28.4254 45.5492 29.7582L46.7988 31.1327L48.1316 29.7999C49.1729 28.8003 49.3811 28.3421 49.0063 27.9256C48.5898 27.4258 48.7147 17.263 49.1729 16.8048C49.2562 16.6798 49.7976 17.0547 50.3807 17.5962C51.422 18.5541 51.422 18.6791 51.1721 22.9691C51.0055 25.6348 50.6723 27.634 50.3391 28.0089C49.9226 28.5504 50.0059 28.8419 50.9222 30.0081L52.0468 31.3826L53.2547 30.1748C54.171 29.2168 54.3376 28.7586 54.0044 28.1755C53.6295 27.4258 54.0044 17.3879 54.4209 16.9714C54.5042 16.8464 55.129 17.3046 55.7121 17.9294L56.8366 19.0956L56.3785 23.4273C56.1702 25.8431 55.7537 28.0089 55.5038 28.3005C55.2123 28.6753 55.3789 29.1751 56.0869 30.0498C56.5867 30.7579 57.1699 31.2993 57.2948 31.2993C57.4198 31.341 58.0445 30.7995 58.7109 30.0914C59.7106 29.0502 59.7939 28.7586 59.3357 28.2172C58.9192 27.7173 58.8775 26.5928 59.0858 23.5522C59.2524 21.3031 59.4607 19.0956 59.5856 18.6374C59.7522 17.971 59.2524 17.138 57.8363 15.5553L55.8787 13.3894L54.7957 14.4307C54.171 15.0555 53.5462 15.5136 53.3796 15.5136C53.213 15.5136 52.5049 14.9721 51.8385 14.2641L50.6306 13.0562L48.3815 15.2221ZM53.0881 16.4299C53.0881 17.013 52.2967 16.3883 51.7969 15.3887C51.2971 14.4723 51.2971 14.4723 52.2134 15.2637C52.6715 15.7219 53.0881 16.2217 53.0881 16.4299ZM58.9192 28.6753C58.9192 29.0085 58.7526 29.1751 58.5027 29.0502C58.2944 28.9252 58.0862 28.6337 58.0862 28.3838C58.0862 28.1755 58.2944 28.0089 58.5027 28.0089C58.7526 28.0089 58.9192 28.3005 58.9192 28.6753Z" fill="black"></path>
<path d="M28.6391 19.2622C27.2647 20.0952 26.5149 21.7196 27.0981 22.6359C27.2647 22.9691 27.223 23.0108 26.9315 22.8442C26.6399 22.6776 26.4316 22.8025 26.4316 23.1357C26.4316 23.469 26.8898 23.8855 27.4313 24.0104C28.6808 24.302 33.5123 32.174 33.5123 33.8817C33.5123 34.6731 33.7622 35.0479 34.4703 35.2562C36.2196 35.7143 36.7611 35.5061 37.2192 34.2149C37.844 32.4656 37.8024 32.299 36.9277 32.0907C36.5112 31.9657 35.5532 30.8828 34.8035 29.6749L33.429 27.4674L34.7618 27.759C35.5116 27.884 36.2613 28.0089 36.4695 28.0089C36.9693 28.0089 38.0939 30.2997 38.0939 31.341C38.0939 31.8824 38.5104 32.3406 39.2185 32.6322C40.8845 33.2569 41.5509 32.9237 41.8841 31.3826C42.1341 30.1748 42.0091 29.7999 40.5513 28.3421C39.6766 27.4258 38.8436 26.3429 38.7187 25.9264C38.5937 25.4682 37.8857 25.0933 37.0526 24.9267C35.7198 24.6768 35.5949 24.5519 35.8448 23.5106C36.0114 22.8858 36.1363 22.2611 36.178 22.0945C36.178 21.9279 35.8448 21.2615 35.3866 20.5534C34.8451 19.7204 34.0121 19.1789 32.8042 18.8873C30.4718 18.2626 30.1802 18.3042 28.6391 19.2622ZM33.1791 23.1774C33.0958 23.8438 32.8875 24.8018 32.7209 25.2599C32.4294 26.0097 32.2628 25.9264 31.2632 24.302C29.4722 21.5114 29.5138 21.4697 31.5131 21.7196C33.2207 21.9695 33.304 22.0528 33.1791 23.1774ZM36.3446 33.965C36.4279 34.5898 36.3029 35.0896 36.0947 35.0896C35.8864 35.0896 35.7198 34.8397 35.7198 34.5481C35.7198 34.2982 35.5532 33.7151 35.3866 33.2569C35.1367 32.6738 35.22 32.5072 35.6365 32.6738C35.9697 32.7571 36.2613 33.3819 36.3446 33.965Z" fill="black"></path>
<path d="M69.2069 20.5951C67.7907 20.97 67.2493 21.5114 64.8752 25.0934L62.1678 29.1752L62.4594 31.4243C62.8759 34.7148 62.8759 34.7148 65.9997 34.1733L68.707 33.7151L71.5393 29.2168C73.0804 26.7178 74.2466 24.4686 74.1217 24.1771C74.0384 23.8855 73.7468 22.8442 73.4969 21.8446C72.9971 19.887 72.4556 19.7621 69.2069 20.5951ZM70.9562 24.3437C70.9979 25.0517 70.4147 26.2596 69.4984 27.4675C68.6654 28.5921 67.7907 29.8833 67.5408 30.3831C67.0827 31.466 65.375 31.6743 65.0418 30.7579C64.9168 30.4247 66.0414 28.2589 67.5825 25.9264C70.4147 21.5531 70.8729 21.3448 70.9562 24.3437Z" fill="black"></path>
<path d="M80.536 30.2581C80.2445 30.8412 79.9113 31.341 79.7863 31.341C79.6614 31.341 77.6205 32.5489 75.2464 34.0067C72.5391 35.7143 70.7064 36.589 70.2066 36.4641C69.5402 36.2975 69.2903 36.589 68.9571 37.8385C68.7072 38.7132 68.5822 39.4629 68.6239 39.4629C68.6655 39.5046 69.3736 39.7545 70.1649 40.046C71.5811 40.5042 72.1225 40.296 72.7473 38.8798C72.8723 38.5883 76.7458 35.9226 76.9957 35.9226C77.079 35.9226 76.9957 36.714 76.7458 37.6719C76.3293 39.6712 75.0798 40.8791 73.4554 40.9207C72.5391 40.9207 72.2891 41.1706 71.9559 42.5035L71.5394 44.1278L73.1222 44.5444C74.5383 44.9192 74.7466 44.8776 74.9548 44.2111C75.0798 43.7946 76.121 42.8783 77.2873 42.2119C78.4118 41.5038 79.3282 40.7958 79.2865 40.6292C79.2449 40.4209 79.2449 39.8378 79.2865 39.2963C79.3282 38.4217 79.4531 38.3384 80.7859 38.5883C83.1184 39.0464 84.6178 37.9219 85.1593 35.2562C85.5758 33.3402 85.5342 32.9237 84.7011 31.3826C84.243 30.4663 83.6182 29.675 83.3267 29.675C83.0767 29.675 82.452 29.55 81.9522 29.4251C81.2441 29.2168 80.9109 29.4251 80.536 30.2581ZM82.4936 34.4648C82.1604 36.0892 82.1188 36.1309 80.1612 35.4644L78.8283 34.9646L80.6193 33.8401C81.619 33.2153 82.5353 32.7571 82.6186 32.8404C82.7019 32.9237 82.6186 33.6318 82.4936 34.4648ZM71.706 39.338C71.5811 39.6712 71.4561 39.5462 71.4561 39.0881C71.4145 38.6299 71.5394 38.38 71.6644 38.5466C71.7893 38.6716 71.831 39.0464 71.706 39.338Z" fill="black"></path>
<path d="M19.3507 31.7575C19.0175 31.9657 18.3094 32.174 17.8512 32.174C16.5184 32.174 15.9353 33.0903 16.3935 34.5065C16.6017 35.1729 16.8933 36.3807 17.0182 37.1721C17.2681 38.5049 17.5597 38.7965 21.3499 40.7957C23.9739 42.1702 25.5983 43.3365 26.0148 44.0445C26.7229 45.2941 26.6813 45.2941 28.5555 44.8775C29.7634 44.586 29.8467 44.5027 29.5552 43.0866C29.1803 41.0457 29.0554 40.8791 27.9724 41.129C27.4726 41.2539 26.7229 41.0873 26.3064 40.7541C25.6816 40.2543 25.64 40.0044 26.0148 39.2963C26.2647 38.7965 26.6813 38.4216 26.9728 38.4216C27.8058 38.4633 28.9304 39.5046 28.9304 40.2543C28.9304 40.7957 29.1387 40.9207 29.8884 40.6708C32.5124 39.8378 32.7623 39.6712 32.5124 38.7132C32.3874 38.2134 32.2625 37.547 32.2625 37.2554C32.2625 36.9639 31.8043 36.7556 31.1379 36.7973C30.3882 36.8806 29.0554 36.2974 27.3893 35.1729C25.9732 34.2149 24.1822 33.132 23.3492 32.7155C22.5162 32.3406 21.8497 31.8824 21.8497 31.6742C21.8497 31.216 20.1004 31.2577 19.3507 31.7575ZM20.392 32.5905C20.267 32.7988 19.8921 33.007 19.6422 33.007C19.3507 33.007 19.3923 32.8404 19.7672 32.5905C20.5586 32.0907 20.7252 32.0907 20.392 32.5905ZM23.2659 35.756C24.6404 36.4224 24.682 36.5057 24.0572 37.422C23.724 37.9635 23.3075 38.4216 23.1409 38.4216C23.016 38.4216 21.8497 37.8385 20.6002 37.0888C18.6426 35.9642 18.4344 35.756 19.1424 35.4644C20.4753 34.9646 21.7248 35.0479 23.2659 35.756ZM26.8479 42.0036C26.8479 42.0869 26.473 42.0036 26.0148 41.7537C25.5567 41.5038 25.1818 41.2123 25.1818 41.0873C25.1818 41.004 25.5567 41.0873 26.0148 41.3372C26.473 41.5871 26.8479 41.8787 26.8479 42.0036ZM27.9724 44.0445C27.8058 44.3777 27.5143 44.6693 27.2644 44.6693C27.0145 44.6693 27.0145 44.3777 27.3477 43.8363C27.9308 42.9199 28.3473 43.0449 27.9724 44.0445Z" fill="black"></path>
</g>
<defs>
<clipPath id="clip0_33_2778">
<rect width="100" height="100" fill="white"></rect>
</clipPath>
</defs>
</svg>