<svg width="100" height="100" viewBox="0 0 100 100" fill="none" xmlns="http://www.w3.org/2000/svg">
<path d="M40.9751 0.109578C40.9751 0.303917 41.2472 0.848064 41.5581 1.27561C41.8691 1.66429 42.1411 1.81976 42.1411 1.58655C42.1411 1.39221 41.8691 0.848064 41.5581 0.42052C41.2472 0.0318431 40.9751 -0.123628 40.9751 0.109578Z" fill="#0C0C0C"></path>
<path d="M47.6604 1.2368C47.4272 1.78094 47.3883 2.20849 47.5827 2.20849C47.9325 2.20849 48.5544 0.692649 48.2823 0.420576C48.1657 0.34284 47.8936 0.692649 47.6604 1.2368Z" fill="#0C0C0C"></path>
<path d="M44.0847 2.59715C44.0847 3.0247 44.2791 3.3745 44.4734 3.3745C44.7066 3.3745 44.8621 3.0247 44.8621 2.59715C44.8621 2.16961 44.7066 1.8198 44.4734 1.8198C44.2791 1.8198 44.0847 2.16961 44.0847 2.59715Z" fill="#0C0C0C"></path>
<path d="M34.7563 2.55828C34.7563 2.86922 36.6997 3.87978 36.9329 3.68544C36.9718 3.60771 36.5054 3.2579 35.8835 2.90809C35.2616 2.55828 34.7563 2.36394 34.7563 2.55828Z" fill="#0C0C0C"></path>
<path d="M50.4977 2.63602C50.0702 3.29677 50.5366 3.45224 51.0807 2.79149C51.3917 2.44168 51.3917 2.20847 51.1585 2.20847C50.9252 2.20847 50.6143 2.40281 50.4977 2.63602Z" fill="#0C0C0C"></path>
<path d="M39.0317 3.25793C39.0706 3.72435 40.5476 6.32848 40.5864 5.97867C40.5864 5.51226 39.4982 2.98586 39.2649 2.98586C39.1095 2.98586 39.0317 3.10246 39.0317 3.25793Z" fill="#0C0C0C"></path>
<path d="M41.4026 3.56881C41.4415 4.3073 42.1022 5.55107 42.1022 4.92918C42.1022 4.61824 41.9467 4.07409 41.7524 3.76315C41.5581 3.45221 41.4026 3.33561 41.4026 3.56881Z" fill="#0C0C0C"></path>
<path d="M46.0667 4.38506C46.0667 4.81261 46.1833 4.92921 46.2999 4.61827C46.4165 4.3462 46.3776 3.99639 46.261 3.87978C46.1444 3.72431 46.0278 3.95752 46.0667 4.38506Z" fill="#0C0C0C"></path>
<path d="M54.3845 4.73489C53.7627 5.27904 53.4128 5.70658 53.6072 5.70658C53.8404 5.70658 54.54 5.27904 55.1619 4.73489C55.8226 4.22961 56.1725 3.80207 55.9392 3.80207C55.7449 3.80207 55.0453 4.22961 54.3845 4.73489Z" fill="#0C0C0C"></path>
<path d="M47.816 5.12353C47.4662 6.13409 47.544 6.36729 48.0104 5.58994C48.2436 5.20126 48.3602 4.77372 48.2436 4.69598C48.1658 4.57938 47.9715 4.77372 47.816 5.12353Z" fill="#0C0C0C"></path>
<path d="M33.4738 5.35674C33.7458 5.62881 34.0568 5.74542 34.1734 5.62881C34.29 5.51221 34.0956 5.279 33.707 5.1624C33.1628 4.92919 33.124 4.96806 33.4738 5.35674Z" fill="#0C0C0C"></path>
<path d="M60.2147 6.56161C58.7377 7.1835 57.3385 7.84425 57.1441 8.03859C56.5611 8.6216 62.0803 6.44501 62.7411 5.862C63.4407 5.20125 63.4796 5.16238 60.2147 6.56161Z" fill="#0C0C0C"></path>
<path d="M42.7243 6.17296C40.1201 6.91145 38.8764 8.93257 39.4594 11.5367C40.1979 14.8016 44.4344 15.6567 47.1552 13.1303C50.2257 10.2541 46.8831 5.00693 42.7243 6.17296ZM46.339 7.64994C47.1163 8.38842 47.5827 9.86539 46.922 9.47672C46.7276 9.36011 46.2612 9.43785 45.8337 9.63219C45.1341 9.90426 45.1341 9.94313 45.7559 9.94313C46.6888 9.982 46.1835 10.7593 45.2118 10.7593C44.3956 10.7593 44.2012 11.7699 44.9786 12.042C45.2118 12.1197 45.3284 12.3529 45.1729 12.5084C45.0175 12.6639 44.551 12.3918 44.1235 11.8865C43.696 11.3812 43.3461 11.1869 43.3073 11.4201C43.3073 11.6922 43.6571 12.2752 44.0846 12.7027C44.5122 13.1303 44.7454 13.4801 44.5899 13.4801C44.0458 13.4801 43.5016 12.9359 42.9575 11.8088C42.5299 11.0314 42.2967 10.876 42.0635 11.2258C41.8692 11.5756 41.7526 11.459 41.7526 10.8371C41.7526 10.3707 41.9469 9.982 42.219 9.982C42.5688 9.982 42.5688 9.86539 42.219 9.51558C41.8303 9.12691 41.636 9.12691 41.4028 9.51558C41.1307 9.94313 41.053 9.94313 40.8586 9.47672C40.6254 8.85483 41.0918 7.96088 41.5971 7.99974C41.7914 8.03861 41.9858 7.84427 41.9858 7.64994C42.0246 7.41673 42.0635 7.22239 42.1024 7.14466C42.1024 7.06692 42.8797 6.98918 43.8126 6.95032C45.0175 6.87258 45.6782 7.06692 46.339 7.64994ZM42.9186 13.208C42.9186 13.4024 42.7631 13.4024 42.5299 13.2857C42.3356 13.1691 42.1412 12.7416 42.1412 12.3918C42.1412 11.8088 42.219 11.8088 42.5299 12.3141C42.7243 12.625 42.9186 13.0525 42.9186 13.208Z" fill="black"></path>
<path d="M45.8336 8.42728C45.717 8.62162 45.7947 8.81596 45.9891 8.81596C46.2223 8.81596 46.4166 8.62162 46.4166 8.42728C46.4166 8.19407 46.3389 8.0386 46.2611 8.0386C46.1445 8.0386 45.9502 8.19407 45.8336 8.42728Z" fill="#0C0C0C"></path>
<path d="M49.8758 6.71711C49.3705 7.30013 49.1762 7.6888 49.4871 7.5722C49.9924 7.41673 51.3917 5.70655 51.003 5.70655C50.9253 5.70655 50.42 6.17297 49.8758 6.71711Z" fill="#0C0C0C"></path>
<path d="M37.6714 6.67822C38.3322 6.98916 39.1095 7.22237 39.4205 7.22237C39.7314 7.22237 39.4982 6.95029 38.8375 6.67822C38.2156 6.36728 37.3994 6.13407 37.0884 6.13407C36.7775 6.13407 37.0496 6.40615 37.6714 6.67822Z" fill="#0C0C0C"></path>
<path d="M30.1313 6.63936C30.5588 7.10577 32.8132 7.61105 32.8132 7.22237C32.8132 7.02804 32.58 6.87256 32.3468 6.87256C32.0747 6.87256 31.4139 6.75596 30.8698 6.60049C30.3256 6.48389 30.0147 6.48389 30.1313 6.63936Z" fill="#0C0C0C"></path>
<path d="M24.8062 7.84426C25.2337 8.1552 25.9334 8.42728 26.3609 8.42728C27.3326 8.42728 27.0994 8.27181 25.4281 7.72766C24.1843 7.30011 24.1454 7.33898 24.8062 7.84426Z" fill="#0C0C0C"></path>
<path d="M36.1167 8.81599C37.205 9.2824 37.9435 9.2824 37.6714 8.81599C37.5548 8.58278 36.9718 8.42731 36.3888 8.46618C35.456 8.46618 35.4171 8.50504 36.1167 8.81599Z" fill="#0C0C0C"></path>
<path d="M51.2751 8.81599C50.7698 9.04919 50.6921 9.16579 51.0808 9.16579C51.3917 9.16579 51.9359 9.01032 52.2468 8.81599C52.9464 8.34957 52.3245 8.34957 51.2751 8.81599Z" fill="#0C0C0C"></path>
<path d="M35.728 10.3707L34.9507 10.7205H35.728C36.1556 10.7205 36.7775 10.565 37.0884 10.3707C37.5937 10.0209 37.5937 9.982 37.0884 10.0209C36.7775 10.0209 36.1556 10.1763 35.728 10.3707Z" fill="#0C0C0C"></path>
<path d="M61.3031 10.2541C61.8861 10.3318 62.7412 10.3318 63.2465 10.2541C63.7129 10.1763 63.2465 10.0986 62.1582 10.0986C61.1087 10.0986 60.6812 10.1763 61.3031 10.2541Z" fill="#0C0C0C"></path>
<path d="M29.237 10.6427C29.8978 10.7205 31.0638 10.7205 31.7634 10.6427C32.4242 10.565 31.88 10.4873 30.4808 10.4873C29.0816 10.4873 28.5374 10.565 29.237 10.6427Z" fill="#0C0C0C"></path>
<path d="M49.9148 11.4979C49.9148 11.8088 51.9359 12.3529 52.1691 12.1197C52.2469 12.0809 51.7416 11.8477 51.1197 11.6145C50.4589 11.3813 49.9148 11.3424 49.9148 11.4979Z" fill="#0C0C0C"></path>
<path d="M57.1051 11.9642C58.3489 12.3529 59.476 12.625 59.5538 12.5472C59.7481 12.314 56.0946 11.148 55.3949 11.1869C55.0451 11.1869 55.8225 11.5367 57.1051 11.9642Z" fill="#0C0C0C"></path>
<path d="M35.9223 12.7027C35.3781 13.1303 35.1449 13.4801 35.3781 13.4801C35.6113 13.4801 36.1166 13.1303 36.5053 12.7027C37.3993 11.731 37.166 11.731 35.9223 12.7027Z" fill="#0C0C0C"></path>
<path d="M31.0639 14.0631C30.0145 14.5684 29.3537 14.9959 29.6258 14.9959C30.3643 15.0348 32.6575 14.0242 32.9684 13.5189C33.3182 13.0137 33.4348 12.9748 31.0639 14.0631Z" fill="#0C0C0C"></path>
<path d="M36.6997 14.4518C36.1944 14.9959 35.8835 15.5012 36.0001 15.6178C36.0778 15.7344 36.5442 15.268 37.0495 14.6461C38.0601 13.208 37.9434 13.1303 36.6997 14.4518Z" fill="#0C0C0C"></path>
<path d="M48.7488 13.5967C48.7488 13.6744 49.3318 14.2186 50.0314 14.8793L51.2752 16.0065L50.148 14.7238C49.0597 13.5578 48.7488 13.2857 48.7488 13.5967Z" fill="#0C0C0C"></path>
<path d="M64.1013 13.791C64.5677 14.2963 70.1258 15.4235 70.1258 15.0348C70.1258 14.8793 68.9987 14.5295 67.5994 14.2963C66.2002 14.0631 64.7621 13.7522 64.4123 13.5967C63.9459 13.4412 63.8293 13.4801 64.1013 13.791Z" fill="#0C0C0C"></path>
<path d="M23.6789 14.2574C22.9793 14.5684 22.9793 14.6072 23.8733 14.6072C24.4174 14.6072 25.117 14.4518 25.428 14.2574C25.8944 13.9465 25.8944 13.8688 25.2336 13.9076C24.8061 13.9076 24.1065 14.0631 23.6789 14.2574Z" fill="#0C0C0C"></path>
<path d="M52.4799 14.4518C52.8686 14.7627 53.4128 14.9959 53.6071 14.9959C53.8403 14.9959 53.646 14.7627 53.2573 14.4518C52.8298 14.1409 52.3245 13.8688 52.0913 13.8688C51.8969 13.8688 52.0524 14.1409 52.4799 14.4518Z" fill="#0C0C0C"></path>
<path d="M38.1379 15.3457C37.3994 16.1231 37.244 16.7838 37.8659 16.3951C38.2545 16.1619 39.1485 14.6461 38.9153 14.6461C38.8375 14.6461 38.4877 14.957 38.1379 15.3457Z" fill="#0C0C0C"></path>
<path d="M47.6216 14.8404C47.6216 15.0348 47.9325 15.851 48.3601 16.5895C48.7876 17.328 49.0986 17.7555 49.0986 17.5612C49.0986 17.328 48.7876 16.5506 48.3601 15.8121C47.9325 15.0736 47.6216 14.6072 47.6216 14.8404Z" fill="#0C0C0C"></path>
<path d="M55.3561 15.4235C56.1334 15.9287 56.6387 15.9287 56.3278 15.4235C56.2112 15.1903 55.7836 15.0348 55.4338 15.0348C54.8508 15.0348 54.8508 15.1125 55.3561 15.4235Z" fill="#0C0C0C"></path>
<path d="M43.5403 16.0065C43.4237 16.3563 43.3071 17.0171 43.346 17.4835C43.3849 18.0276 43.5015 17.8333 43.6958 16.9782C44.0456 15.5401 43.9679 14.9571 43.5403 16.0065Z" fill="#0C0C0C"></path>
<path d="M46.4943 16.5895C46.8441 17.6389 47.5826 18.5328 47.5826 17.9498C47.5826 17.6 46.4166 15.4234 46.2222 15.4234C46.1445 15.4234 46.2611 15.9676 46.4943 16.5895Z" fill="#0C0C0C"></path>
<path d="M60.4478 15.5789C60.8365 15.9287 63.1297 16.9782 63.1297 16.8227C63.1297 16.5895 60.992 15.4235 60.5644 15.4235C60.4089 15.4235 60.3701 15.5012 60.4478 15.5789Z" fill="#0C0C0C"></path>
<path d="M39.226 18.6106C37.5936 22.2253 35.8057 27.2004 36.2721 26.8894C36.4664 26.7728 36.9328 25.7623 37.3215 24.6351C37.6713 23.5468 38.643 21.0982 39.4592 19.1936C41.2083 15.1125 41.0528 14.6461 39.226 18.6106Z" fill="#0C0C0C"></path>
<path d="M41.7526 16.4729C41.7526 16.6672 41.325 18.7661 40.8198 21.2147C40.2756 23.6245 40.0035 25.4513 40.1979 25.2958C40.6643 24.7906 42.4522 16.2008 42.0635 16.2008C41.908 16.2008 41.7526 16.3174 41.7526 16.4729Z" fill="#0C0C0C"></path>
<path d="M31.064 18.4163C30.0146 19.3491 29.4704 19.971 29.898 19.7378C30.9863 19.1548 33.3961 17.017 33.1628 16.8227C33.0851 16.745 32.1523 17.4446 31.064 18.4163Z" fill="#0C0C0C"></path>
<path d="M53.8015 18.0276C53.8015 18.2997 55.706 19.971 56.8332 20.6317C57.8438 21.2536 57.2219 20.5151 55.5506 19.1548C54.5789 18.3385 53.8015 17.8333 53.8015 18.0276Z" fill="#0C0C0C"></path>
<path d="M59.0486 19.1159C60.1369 20.0099 64.3346 22.1087 64.5679 21.8755C64.6845 21.7978 63.4796 21.0204 61.9248 20.2042C58.5434 18.4552 57.9992 18.2608 59.0486 19.1159Z" fill="#0C0C0C"></path>
<path d="M25.428 19.3102C25.0782 19.5434 25.0393 19.6989 25.3114 19.6989C25.5446 19.6989 25.8944 19.5046 26.011 19.3102C26.3219 18.8438 26.1664 18.8438 25.428 19.3102Z" fill="#0C0C0C"></path>
<path d="M33.2793 20.9427C32.5797 21.9921 32.0744 22.9638 32.1522 23.0415C32.2299 23.1581 32.8907 22.3419 33.5903 21.2536C34.2899 20.1653 34.7952 19.2325 34.7174 19.1159C34.6397 19.0381 33.979 19.8544 33.2793 20.9427Z" fill="#0C0C0C"></path>
<path d="M36.8164 20.1653C36.039 21.1759 35.8058 21.7589 36.2333 21.4868C36.6998 21.2148 37.6326 19.6989 37.3605 19.6989C37.2439 19.6989 37.0107 19.9321 36.8164 20.1653Z" fill="#0C0C0C"></path>
<path d="M44.5121 21.5257C44.551 24.6351 45.1728 25.3347 45.2117 22.3031C45.2506 20.8261 45.0951 19.6989 44.8619 19.6989C44.6676 19.6989 44.4732 20.5151 44.5121 21.5257Z" fill="#0C0C0C"></path>
<path d="M68.7655 20.4763C69.0765 20.9816 71.2919 22.1476 71.5251 21.9144C71.7195 21.7589 69.1542 20.0876 68.7267 20.0876C68.6101 20.0876 68.6489 20.282 68.7655 20.4763Z" fill="#0C0C0C"></path>
<path d="M52.2468 20.6317C52.2468 20.7095 52.5578 21.0204 52.9464 21.2925C53.5295 21.7978 53.5683 21.7589 53.063 21.137C52.5578 20.5151 52.2468 20.3208 52.2468 20.6317Z" fill="#0C0C0C"></path>
<path d="M42.4133 21.9144C42.1801 22.3419 41.6359 26.9283 41.8691 26.6951C42.1412 26.423 42.9574 21.9532 42.7631 21.7589C42.6854 21.6423 42.5299 21.72 42.4133 21.9144Z" fill="#0C0C0C"></path>
<path d="M23.9511 23.9743C22.8239 25.0626 22.0077 25.9177 22.202 25.9177C22.6684 25.8788 26.8661 22.0698 26.3997 22.0698C26.2054 22.0698 25.0782 22.9249 23.9511 23.9743Z" fill="#0C0C0C"></path>
<path d="M46.844 22.6528C46.844 23.0804 46.9607 23.197 47.0773 22.886C47.1939 22.614 47.155 22.2642 47.0384 22.1476C46.9218 21.9921 46.8052 22.2253 46.844 22.6528Z" fill="#0C0C0C"></path>
<path d="M49.6815 23.0027C49.837 23.4302 50.4589 25.4513 51.0808 27.4725C52.2857 31.5147 52.9464 33.3415 52.9853 32.6807C53.063 31.9034 50.2257 23.0027 49.7981 22.614C49.526 22.3419 49.4872 22.4585 49.6815 23.0027Z" fill="#0C0C0C"></path>
<path d="M56.9111 23.0415C56.95 23.2359 57.9217 24.4408 59.1266 25.7234C61.2254 27.9777 61.2643 28.0166 60.0205 26.2287C58.6602 24.2464 56.9111 22.4585 56.9111 23.0415Z" fill="#0C0C0C"></path>
<path d="M42.9186 42.1644C42.9186 42.4365 42.7243 42.5531 42.5299 42.4365C41.9469 42.0867 42.2578 43.5248 42.9963 44.652C43.385 45.1961 43.7737 46.1289 43.9292 46.6731C44.0458 47.2172 44.3178 47.6836 44.551 47.6836C45.0175 47.6836 44.6288 46.3233 43.6571 44.652C42.8409 43.2139 42.7243 42.864 43.3073 43.2139C43.8126 43.5248 43.8126 43.0195 43.3073 42.2422C43.0352 41.8146 42.9186 41.8146 42.9186 42.1644Z" fill="#0C0C0C"></path>
<path d="M44.3956 42.864C44.279 43.0584 44.3956 43.7191 44.6677 44.3799C45.0564 45.2738 45.173 45.3516 45.173 44.7685C45.2118 43.6803 44.6677 42.3976 44.3956 42.864Z" fill="#0C0C0C"></path>
<path d="M40.9751 49.8602C40.9751 50.0546 41.2472 50.5987 41.5581 51.0262C41.8691 51.4149 42.1411 51.5704 42.1411 51.3372C42.1411 51.1429 41.8691 50.5987 41.5581 50.1712C41.2472 49.7825 40.9751 49.627 40.9751 49.8602Z" fill="#0C0C0C"></path>
<path d="M32.3076 52.1534C32.1521 52.4643 32.2298 52.8142 32.4242 52.9308C32.6574 53.0862 32.8128 52.9308 32.8128 52.5809C32.8128 52.27 33.046 51.9202 33.3181 51.8425C33.5902 51.687 33.5513 51.6093 33.1626 51.6093C32.8128 51.5704 32.4242 51.8425 32.3076 52.1534Z" fill="#0C0C0C"></path>
<path d="M31.8412 53.9025C31.9578 54.0968 32.1521 54.2911 32.2687 54.2911C32.3464 54.2911 32.4242 54.0968 32.4242 53.9025C32.4242 53.6693 32.2298 53.5138 31.9966 53.5138C31.8023 53.5138 31.7246 53.6693 31.8412 53.9025Z" fill="#0C0C0C"></path>
<path d="M31.2584 54.6021C31.2584 54.8742 30.9474 55.0685 30.5976 55.0685C29.9369 55.1074 29.9369 55.1074 30.5976 55.496C31.1029 55.807 31.1806 56.0402 30.8697 56.6232C30.4033 57.4783 30.3644 57.7892 30.792 57.7892C31.2584 57.7892 32.0357 54.913 31.6082 54.4855C31.375 54.2911 31.2584 54.2911 31.2584 54.6021Z" fill="#0C0C0C"></path>
<path d="M36.1556 58.7609C35.8058 59.6938 36.3499 60.3545 36.7774 59.5383C37.0495 59.1107 37.0495 58.7609 36.7774 58.4889C36.5442 58.2557 36.311 58.3723 36.1556 58.7609Z" fill="#0C0C0C"></path>
<path d="M35.3393 61.5594C35.5337 62.4533 35.4559 62.842 35.1061 62.842C34.7175 62.842 34.7175 62.9586 35.0673 63.3084C35.4559 63.6971 35.6503 63.6971 35.9223 63.2307C36.4665 62.4145 36.3888 61.9481 35.728 61.0541C35.145 60.3545 35.1061 60.3933 35.3393 61.5594Z" fill="#0C0C0C"></path>
<path d="M34.6398 64.5522C34.4454 65.0575 35.0285 65.9514 35.5726 65.9514C35.6892 65.9514 35.7281 65.5239 35.6115 64.9797C35.4171 63.9303 34.9507 63.6971 34.6398 64.5522Z" fill="#0C0C0C"></path>
<path d="M33.5903 67.3507C33.5903 67.7394 34.6786 68.6722 35.1839 68.6722C35.4948 68.6722 35.3782 68.4001 34.9507 67.8948C34.29 67.1563 33.5903 66.8843 33.5903 67.3507Z" fill="#0C0C0C"></path>
<path d="M49.4095 71.6261C49.0985 71.9371 50.3811 72.9476 50.7698 72.7144C51.314 72.3646 51.0808 71.7039 50.5366 71.8982C50.2257 72.0148 49.9147 71.9371 49.837 71.7427C49.7593 71.5095 49.5649 71.4707 49.4095 71.6261Z" fill="#0C0C0C"></path>
<path d="M44.875 92.9314C44.5252 93.4755 44.4086 93.9031 44.6029 93.9031C45.0693 93.9031 45.9633 92.3872 45.6912 92.1152C45.6135 91.9986 45.2248 92.3872 44.875 92.9314Z" fill="#0C0C0C"></path>
<path d="M46.3909 92.3484C46.3132 92.465 46.5853 92.6205 47.0128 92.6205C47.4015 92.6593 47.7513 92.5427 47.7513 92.3873C47.7513 92.0375 46.6241 91.9986 46.3909 92.3484Z" fill="#0C0C0C"></path>
<path d="M45.2223 93.8073C44.4061 95.0122 44.4061 95.0122 45.1835 95.0122C45.7276 95.0122 46.0774 94.6624 46.2329 94.0405C46.5827 92.5635 46.194 92.4858 45.2223 93.8073Z" fill="#0C0C0C"></path>
<path d="M39.8169 94.6235C39.9335 94.8178 40.361 95.0122 40.7108 95.0122C41.2939 95.0122 41.2939 94.9344 40.7886 94.6235C40.0112 94.1182 39.5059 94.1182 39.8169 94.6235Z" fill="#0C0C0C"></path>
<path d="M46.466 95.051C46.1939 95.4785 46.0385 95.945 46.1162 96.0227C46.3883 96.2948 47.2434 95.0899 47.0879 94.6235C47.0102 94.3902 46.7381 94.5846 46.466 95.051Z" fill="#0C0C0C"></path>
<path d="M47.2717 24.363C47.2717 24.9072 47.3495 25.1015 47.4661 24.8294C47.5438 24.5962 47.5438 24.1298 47.4661 23.8577C47.3495 23.6245 47.2717 23.8189 47.2717 24.363Z" fill="#0C0C0C"></path>
<path d="M29.2372 25.4125C28.9262 25.8011 28.4987 26.3842 28.3432 26.6951C28.0323 27.2004 28.0711 27.2004 28.693 26.734C29.3149 26.1898 30.2866 24.7517 29.9756 24.7517C29.8979 24.7517 29.5481 25.0626 29.2372 25.4125Z" fill="#0C0C0C"></path>
<path d="M54.3845 27.6667C56.2113 31.709 56.9498 32.4475 55.3562 28.6384C54.6566 27.0449 53.8793 25.4513 53.5683 25.1403C53.2574 24.8294 53.6072 25.9566 54.3845 27.6667Z" fill="#0C0C0C"></path>
<path d="M65.8504 26.8117C67.0165 28.0166 68.1436 29.0272 68.338 29.0272C68.8432 29.0272 67.1719 27.2781 65.2674 25.8011C63.907 24.7517 63.9848 24.9072 65.8504 26.8117Z" fill="#0C0C0C"></path>
<path d="M31.5303 28.8328C30.753 30.4264 30.1699 31.7479 30.2477 31.7479C30.5586 31.7479 33.2405 26.6562 33.1239 26.2675C33.0462 26.0732 32.3465 27.2004 31.5303 28.8328Z" fill="#0C0C0C"></path>
<path d="M46.3 29.2215C46.6887 32.2143 47.2329 33.4969 46.9608 30.7762C46.8442 29.4935 46.5721 28.172 46.3778 27.8611C46.1834 27.5113 46.1446 28.0554 46.3 29.2215Z" fill="#0C0C0C"></path>
<path d="M43.1518 31.0871C42.9963 32.5641 42.9575 33.8467 43.0352 33.9633C43.3073 34.2354 43.8126 30.0766 43.6182 29.1826C43.5405 28.7551 43.3073 29.649 43.1518 31.0871Z" fill="#0C0C0C"></path>
<path d="M22.3964 32.5641C21.6968 33.3803 21.2304 34.0799 21.4247 34.0799C21.7745 34.0799 24.0288 31.3592 23.7956 31.1649C23.7179 31.0871 23.096 31.709 22.3964 32.5641Z" fill="#0C0C0C"></path>
<path d="M35.1839 33.5358C34.7175 34.5464 34.4065 35.4403 34.5231 35.5569C34.6397 35.6735 35.1061 34.935 35.5726 33.9245C36.622 31.5147 36.311 31.2426 35.1839 33.5358Z" fill="#0C0C0C"></path>
<path d="M40.0034 34.4686C39.6147 35.7513 39.3815 36.8784 39.4981 36.995C39.5759 37.0728 40.0034 36.0234 40.431 34.663C40.8974 33.2637 41.1306 32.1366 40.9751 32.1366C40.8196 32.1366 40.3921 33.186 40.0034 34.4686Z" fill="#0C0C0C"></path>
<path d="M61.575 33.186C61.575 33.4192 61.8859 33.8467 62.2746 34.1188C62.8965 34.6241 62.8965 34.6241 62.3523 33.8856C62.0414 33.4581 61.7304 33.0305 61.6916 32.9528C61.6138 32.875 61.575 32.9528 61.575 33.186Z" fill="#0C0C0C"></path>
<path d="M49.9536 36.2176C49.9536 36.412 50.1868 37.0339 50.4978 37.578C50.8087 38.1222 51.0419 38.3554 51.0419 38.161C51.0419 37.9278 50.8087 37.3448 50.4978 36.8007C50.1868 36.2565 49.9536 35.9844 49.9536 36.2176Z" fill="#0C0C0C"></path>
<path d="M25.0005 38.8218C24.3398 39.7547 24.3009 39.949 24.7673 39.5603C25.467 39.0162 26.3998 37.5781 26.05 37.5781C25.9334 37.5781 25.467 38.1611 25.0005 38.8218Z" fill="#0C0C0C"></path>
<path d="M43.3848 38.3554C43.3848 38.8995 43.4625 39.0939 43.5791 38.8218C43.6568 38.5886 43.6568 38.1222 43.5791 37.8501C43.4625 37.6169 43.3848 37.8113 43.3848 38.3554Z" fill="#0C0C0C"></path>
<path d="M35.9612 40.4931C35.6891 41.2705 35.5337 42.009 35.6503 42.0867C35.9223 42.3588 36.8163 40.0267 36.6219 39.5214C36.5442 39.2882 36.2721 39.7158 35.9612 40.4931Z" fill="#0C0C0C"></path>
<path d="M28.7708 41.426C28.2267 42.5143 27.7603 43.6026 27.7603 43.8746C27.7991 44.1467 28.3433 43.3693 28.9652 42.0867C29.6259 40.8429 30.0534 39.7547 29.9368 39.638C29.8591 39.5214 29.315 40.3377 28.7708 41.426Z" fill="#0C0C0C"></path>
<path d="M73.6629 78.9721C73.352 80.8377 73.2354 82.3924 73.3131 82.5091C73.4297 82.5868 73.7018 81.1876 73.9739 79.3219C74.2848 77.4951 74.4014 75.9404 74.3237 75.8238C74.2071 75.7461 73.935 77.1453 73.6629 78.9721Z" fill="#0C0C0C"></path>
<path d="M78.2881 85.6962C78.2881 86.357 78.4436 86.94 78.6379 86.94C79.3764 86.94 79.493 86.1626 78.91 85.3075C78.2881 84.4524 78.2881 84.4524 78.2881 85.6962Z" fill="#0C0C0C"></path>
<path d="M78.2492 88.7279C78.1326 89.4275 78.2492 90.0883 78.5601 90.3992C78.9488 90.749 79.0654 90.7102 79.0265 90.166C78.9877 89.7773 78.8711 89.0389 78.7156 88.4947C78.4435 87.523 78.4047 87.523 78.2492 88.7279Z" fill="#0C0C0C"></path>
<path d="M76.4226 91.0211C76.4226 91.643 76.5003 91.8762 76.6169 91.4875C76.6947 91.1377 76.6947 90.5935 76.6169 90.3215C76.5003 90.0883 76.4226 90.3603 76.4226 91.0211Z" fill="#0C0C0C"></path>
<path d="M77.1221 90.7879C77.1221 91.0211 77.3164 91.2932 77.5107 91.4098C77.744 91.5264 77.8994 91.3709 77.8994 91.06C77.8994 90.7102 77.744 90.4381 77.5107 90.4381C77.3164 90.4381 77.1221 90.5936 77.1221 90.7879Z" fill="#0C0C0C"></path>
<path d="M62.9485 88.3062C62.9485 88.7337 63.0651 88.8503 63.1817 88.5394C63.2984 88.2673 63.2595 87.9175 63.1429 87.8009C63.0263 87.6454 62.9097 87.8786 62.9485 88.3062Z" fill="#0C0C0C"></path>
<path d="M30.1025 89.239C30.1025 89.4333 30.2969 89.6277 30.4912 89.6277C30.7244 89.6277 30.8799 89.4333 30.8799 89.239C30.8799 89.0058 30.7244 88.8503 30.4912 88.8503C30.2969 88.8503 30.1025 89.0058 30.1025 89.239Z" fill="#0C0C0C"></path>
<path d="M61.3547 89.822C61.3547 90.405 61.5102 90.7548 61.7434 90.5993C61.9766 90.4827 62.1321 90.1329 62.1321 89.822C62.1321 89.511 61.9766 89.1612 61.7434 89.0446C61.5102 88.8892 61.3547 89.239 61.3547 89.822Z" fill="#0C0C0C"></path>
<path d="M28.1592 90.6771C28.1592 92.1929 28.509 93.2035 28.9754 92.9314C29.3641 92.6593 29.0143 90.405 28.509 89.822C28.3147 89.6277 28.1592 89.9775 28.1592 90.6771Z" fill="#0C0C0C"></path>
<path d="M30.8801 92.2318C30.6468 93.7088 30.3359 95.1858 30.2193 95.5356C30.025 96.3129 30.8023 96.5073 31.0744 95.7299C31.1521 95.4967 31.3076 94.4473 31.4631 93.3978C31.7351 91.3767 32.3182 90.9881 32.5125 92.6205C32.668 93.5922 32.7068 93.6311 33.0178 92.9703C33.2121 92.5039 33.1732 91.9986 32.8623 91.6099C32.6291 91.2601 32.3182 90.6771 32.2016 90.2884C31.774 89.0447 31.3465 89.6277 30.8801 92.2318Z" fill="#0C0C0C"></path>
<path d="M61.7437 92.5427C61.7437 93.0869 61.938 93.5144 62.1323 93.5144C62.3655 93.5144 62.521 94.0975 62.521 94.7582C62.521 95.4578 62.7153 96.3129 62.9097 96.6239C63.1818 97.0514 63.2984 96.7793 63.2984 95.5744C63.2984 94.6805 63.1429 93.8254 62.9097 93.7088C62.7153 93.5922 62.521 93.048 62.521 92.5039C62.521 91.9986 62.3655 91.5711 62.1323 91.5711C61.938 91.5711 61.7437 91.9986 61.7437 92.5427Z" fill="#0C0C0C"></path>
<path d="M29.403 94.7582C29.3253 96.5072 28.5479 97.5178 28.5479 95.8465C28.5479 95.419 28.3924 95.0691 28.1592 95.0691C27.654 95.0691 27.654 96.1186 28.1592 96.4295C28.3536 96.5461 28.4313 97.168 28.2758 97.7899C28.1592 98.5284 28.237 98.9559 28.509 98.9559C28.7422 98.9559 28.9366 98.645 28.9366 98.2563C28.9366 97.8676 29.1309 97.3623 29.3641 97.1291C29.5585 96.9348 29.6751 95.8854 29.5973 94.8359L29.4807 92.9314L29.403 94.7582Z" fill="#0C0C0C"></path>
<path d="M48.9858 93.1465C48.908 94.8956 48.1307 95.9061 48.1307 94.2348C48.1307 93.8073 47.9752 93.4574 47.742 93.4574C47.2367 93.4574 47.2367 94.5069 47.742 94.8178C47.9363 94.9344 48.0141 95.5563 47.8586 96.1782C47.742 96.9167 47.8197 97.3442 48.0918 97.3442C48.325 97.3442 48.5194 97.0333 48.5194 96.6446C48.5194 96.2559 48.7137 95.7506 48.9469 95.5174C49.1412 95.3231 49.2578 94.2737 49.1801 93.2242L49.0635 91.3197L48.9858 93.1465Z" fill="#0C0C0C"></path>
<path d="M60.9663 95.6133C60.9663 96.8182 61.1606 97.7899 61.355 97.7899C61.5882 97.7899 61.7437 96.9348 61.7437 95.8854C61.7437 94.7971 61.5882 93.8254 61.355 93.7088C61.1218 93.5533 60.9663 94.2918 60.9663 95.6133Z" fill="#0C0C0C"></path>
<path d="M40.3005 94.0016C40.3005 95.2065 40.4949 96.1782 40.6892 96.1782C40.9224 96.1782 41.0779 95.3231 41.0779 94.2737C41.0779 93.1854 40.9224 92.2137 40.6892 92.0971C40.456 91.9416 40.3005 92.6801 40.3005 94.0016Z" fill="#0C0C0C"></path>
<path d="M67.9624 94.0974C67.9624 94.4084 68.1567 94.6804 68.3511 94.6804C68.5843 94.6804 68.7398 94.4084 68.7398 94.0974C68.7398 93.7865 68.5843 93.5144 68.3511 93.5144C68.1567 93.5144 67.9624 93.7865 67.9624 94.0974Z" fill="#0C0C0C"></path>
<path d="M33.9893 96.4295C33.9893 97.5955 34.1836 98.5672 34.3779 98.5672C34.6111 98.5672 34.7666 97.5955 34.7666 96.4295C34.7666 95.2635 34.6111 94.2918 34.3779 94.2918C34.1836 94.2918 33.9893 95.2635 33.9893 96.4295Z" fill="#0C0C0C"></path>
<path d="M32.4346 95.4967C32.4346 96.1574 32.59 96.585 32.8232 96.4295C33.0565 96.3129 33.2119 95.7688 33.2119 95.2246C33.2119 94.7193 33.0565 94.2918 32.8232 94.2918C32.6289 94.2918 32.4346 94.8359 32.4346 95.4967Z" fill="#0C0C0C"></path>
<path d="M55.7124 96.4295C55.7124 97.5955 55.9067 98.5672 56.1011 98.5672C56.3343 98.5672 56.4898 97.5955 56.4898 96.4295C56.4898 95.2635 56.3343 94.2918 56.1011 94.2918C55.9067 94.2918 55.7124 95.2635 55.7124 96.4295Z" fill="#0C0C0C"></path>
<path d="M65.6304 94.9525C65.6304 95.8853 66.2523 96.8182 66.5243 96.3518C66.8353 95.8465 66.4077 94.2918 65.9802 94.2918C65.7858 94.2918 65.6304 94.6027 65.6304 94.9525Z" fill="#0C0C0C"></path>
<path d="M64.0757 95.6133C64.0757 96.1186 64.3866 96.7793 64.7364 97.0514C65.3194 97.5567 65.3583 97.4789 65.1251 96.6238C64.9696 96.0797 64.853 95.4189 64.853 95.1469C64.853 94.9137 64.6976 94.6804 64.4644 94.6804C64.27 94.6804 64.0757 95.108 64.0757 95.6133Z" fill="#0C0C0C"></path>
<path d="M26.2156 95.6521C26.0213 96.1963 25.6715 96.6238 25.4771 96.6238C25.2828 96.6238 24.8552 96.7404 24.5054 96.857C24.039 97.0125 23.8836 96.857 23.8836 96.274C23.8836 95.8076 23.7281 95.4578 23.4949 95.4578C23.3005 95.4578 23.1062 96.0019 23.1062 96.6238C23.1062 98.1008 24.0002 98.5283 25.0496 97.5955C25.5549 97.1291 25.8269 97.0514 25.8269 97.3623C25.8269 98.5283 26.7986 97.4012 26.9152 96.1185C27.0318 94.4472 26.7598 94.2529 26.2156 95.6521Z" fill="#0C0C0C"></path>
<path d="M59.7225 97.2069C59.4116 97.5567 59.8391 98.9559 60.2278 98.9559C60.4221 98.9559 60.5776 98.7227 60.5776 98.4506C60.5776 97.7899 59.9946 96.9348 59.7225 97.2069Z" fill="#0C0C0C"></path>
<path d="M30.4912 97.7899C30.4912 98.4118 30.6855 98.9559 30.8799 98.9559C31.1131 98.9559 31.2686 98.4118 31.2686 97.7899C31.2686 97.1291 31.1131 96.6238 30.8799 96.6238C30.6855 96.6238 30.4912 97.1291 30.4912 97.7899Z" fill="#0C0C0C"></path>
<path d="M57.3904 98.1785C57.1572 98.8393 57.6236 100.433 57.9346 99.8887C58.0512 99.6944 58.0123 99.1114 57.8568 98.5672C57.7014 97.8676 57.5459 97.751 57.3904 98.1785Z" fill="#0C0C0C"></path>
<path d="M43.4097 94.0016C43.4097 94.5069 43.7206 95.1676 44.0704 95.4397C44.6534 95.945 44.6923 95.8672 44.4591 95.0121C44.3036 94.468 44.187 93.8072 44.187 93.5352C44.187 93.302 44.0316 93.0688 43.7983 93.0688C43.604 93.0688 43.4097 93.4963 43.4097 94.0016Z" fill="#0C0C0C"></path>
<path d="M31.6572 99.3834C31.6572 99.5777 31.8516 99.6555 32.0459 99.5389C32.2791 99.4223 32.4346 99.2279 32.4346 99.1113C32.4346 99.0336 32.2791 98.9559 32.0459 98.9559C31.8516 98.9559 31.6572 99.1502 31.6572 99.3834Z" fill="#0C0C0C"></path>
<path d="M52.2144 97.7899C52.2144 98.4118 52.4087 98.9559 52.603 98.9559C52.8362 98.9559 52.9917 98.4118 52.9917 97.7899C52.9917 97.1291 52.8362 96.6238 52.603 96.6238C52.4087 96.6238 52.2144 97.1291 52.2144 97.7899Z" fill="#0C0C0C"></path>
<path d="M39.0565 95.5952C38.7455 95.945 39.1731 97.3442 39.5618 97.3442C39.7561 97.3442 39.9116 97.111 39.9116 96.8389C39.9116 96.1782 39.3286 95.3231 39.0565 95.5952Z" fill="#0C0C0C"></path>
<path d="M36.7246 96.5668C36.4914 97.2276 36.9579 98.8212 37.2688 98.277C37.3854 98.0827 37.3465 97.4997 37.1911 96.9555C37.0356 96.2559 36.8801 96.1393 36.7246 96.5668Z" fill="#0C0C0C"></path>
<path d="M53.3804 99.3834C53.3804 99.5777 53.5747 99.6555 53.769 99.5389C54.0023 99.4223 54.1577 99.2279 54.1577 99.1113C54.1577 99.0336 54.0023 98.9559 53.769 98.9559C53.5747 98.9559 53.3804 99.1502 53.3804 99.3834Z" fill="#0C0C0C"></path>
<path d="M35.948 96.712C35.948 97.0229 36.1423 97.295 36.3367 97.295C36.5699 97.295 36.7254 97.0229 36.7254 96.712C36.7254 96.401 36.5699 96.1289 36.3367 96.1289C36.1423 96.1289 35.948 96.401 35.948 96.712Z" fill="#0C0C0C"></path>
<path fill-rule="evenodd" clip-rule="evenodd" d="M77.5885 26.734C77.5496 25.4125 77.7439 24.7517 78.3658 24.091C79.9205 22.4197 80.8922 23.4302 80.9699 26.8117C81.0088 27.7834 80.8145 28.3664 80.4258 28.483C79.9205 28.6774 79.9205 28.8328 80.4258 29.8045C81.1643 31.2815 81.1643 32.9139 80.3869 34.8573C80.0371 35.7513 79.8039 36.5286 79.8817 36.6064C79.9594 36.6841 81.0088 36.995 82.1748 37.2671C84.0405 37.7335 84.3126 37.9667 84.4292 38.8607C84.5458 39.7546 84.4292 39.9101 83.5741 39.9101C83.0299 39.9101 82.5635 39.7546 82.5635 39.5603C82.5635 39.4048 82.136 39.3271 81.5918 39.4437C81.3639 39.4817 81.1865 39.49 81.0357 39.5577C80.4153 39.8363 80.247 41.1216 78.8711 49.627C75.4119 70.8099 74.6345 75.3963 74.479 74.9688C74.4013 74.7355 74.9066 71.082 75.5673 66.8454C76.2281 62.6088 76.9666 58.0613 77.1998 56.7009C77.6273 53.9802 77.4719 53.5138 76.3447 54.2134C75.7617 54.5632 75.6451 54.5632 75.7617 54.1745C75.8783 53.9413 75.9949 52.8142 76.0726 51.7648C76.1892 49.8991 76.2281 49.8214 77.2387 49.938C77.8217 50.0157 78.2881 49.8991 78.2881 49.627C78.2881 49.3938 77.8994 49.2384 77.433 49.3161C76.6945 49.3938 76.5779 49.2772 76.6556 48.5387C76.7334 48.0335 76.5779 47.6836 76.267 47.6836C75.956 47.6448 76.0726 47.4504 76.539 47.0618C76.9387 46.7621 77.1328 46.6164 77.111 46.5192C77.0904 46.4274 76.8768 46.3788 76.4613 46.2844C75.956 46.1289 75.6839 45.8569 75.8394 45.5071C75.956 45.1961 75.8394 44.9629 75.6062 44.9629C75.373 44.9629 75.1787 45.3516 75.1398 45.818C75.1398 46.3233 74.9066 48.9663 74.6345 51.7648C74.1681 56.2734 74.1681 56.8564 74.7123 57.284C75.2564 57.7504 75.2564 57.7892 74.6734 57.7892C74.3236 57.7892 74.0126 57.9447 74.0126 58.1779C74.0126 58.3723 74.207 58.5666 74.4402 58.5666C74.7511 58.5666 74.7511 58.7609 74.4013 59.1496C74.1292 59.4606 74.0515 59.7326 74.207 59.7326C74.3624 59.7326 74.2847 60.0047 74.0126 60.3156C73.624 60.7821 73.6628 60.8987 74.2458 60.8987C74.5738 60.9169 74.748 60.9266 74.7685 60.9877C74.7917 61.0571 74.6175 61.1926 74.2458 61.4817C73.8183 61.7926 73.7017 62.0647 73.9349 62.0647C74.2847 62.0647 74.2847 62.2979 73.8572 62.9198C73.2353 63.9692 72.6523 71.3929 73.1964 71.3929C73.3908 71.3929 73.7017 70.2658 73.8183 68.8665C73.9738 67.4673 74.2458 66.2624 74.4013 66.1458C74.5568 66.0681 74.6345 66.379 74.5568 66.8454C74.479 67.3118 74.0515 70.6544 73.624 74.308L73.6236 74.3104C73.1573 77.9243 72.6911 81.5376 72.5745 82.2759C72.4579 83.0144 72.4968 83.5196 72.6523 83.3642C72.8466 83.2087 73.1964 83.2476 73.4685 83.4808C73.8183 83.7528 74.207 83.7528 74.8289 83.403C75.6062 83.0144 75.8394 83.0921 76.85 84.2193C77.8605 85.3464 77.9771 85.6962 77.7439 87.2898C77.433 89.5053 76.8888 90.1271 76.3836 88.8445C76.0726 88.0672 75.9949 88.3004 75.9949 90.166C75.956 91.5652 75.8006 92.3426 75.5673 92.1871C75.373 92.0705 75.1787 91.4486 75.1787 90.7879C75.1787 90.166 75.0232 89.6607 74.8677 89.6607C74.6734 89.6607 74.5179 90.4381 74.5179 91.4098C74.5179 92.3815 74.6734 93.1588 74.8677 93.1588C75.2953 93.1588 75.2564 95.9573 74.79 96.6569C74.5179 97.0845 74.4013 96.6958 74.4013 95.2965C74.3624 93.5864 74.2847 93.4698 73.9738 94.3249C73.7406 94.869 73.624 95.9962 73.7017 96.8124C73.7308 97.1757 73.7272 97.4901 73.6972 97.7455C73.4244 97.6771 73.1498 97.6098 72.8733 97.5436C72.8553 97.3088 72.8466 97.0274 72.8466 96.6958C72.8466 95.5298 72.6911 94.7135 72.4191 94.7135C72.1629 94.7135 72.0445 95.6095 72.1289 97.369C71.7375 97.2791 71.3426 97.1915 70.9443 97.106C70.9377 96.2801 70.9621 95.3342 71.0198 94.286C71.1364 92.0705 71.0587 90.4381 70.8644 90.4381C70.4139 90.4381 70.2651 93.5702 70.4537 97.0023C69.8309 96.8725 69.2 96.7481 68.5613 96.6293C68.5099 96.2457 68.2644 95.8622 67.9881 95.7241C67.34 95.4853 67.2607 95.7555 67.7503 96.4822C67.3554 96.4124 66.9577 96.3446 66.5572 96.2791C66.421 95.4824 66.2722 94.9355 66.1614 94.869C65.9622 94.7268 65.888 95.1883 65.9235 96.1775C64.9823 96.0298 64.0265 95.8939 63.057 95.7703C63.0381 95.7002 63.0098 95.643 62.9742 95.6075C62.8994 95.5078 62.8246 95.5679 62.7909 95.7367C57.7573 94.6358 53.391 96.1775 48.5154 96.1775C40.1235 96.1775 32.5187 95.7684 25.6952 97.3133C25.6967 97.2619 25.6983 97.2116 25.7001 97.1622C25.739 96.5792 25.5835 96.3848 25.2337 96.5014C24.8062 96.6958 24.6507 96.1516 24.5341 94.2471C24.4181 91.967 24.4175 91.9924 24.3411 94.9347L24.3397 94.9856C24.3001 96.3348 24.311 97.1472 24.3933 97.6192C23.4801 97.8418 18.5645 96.8598 17.6934 97.106C17.7527 94.7941 21.8721 94.3282 21.9688 94.0139C22.202 93.392 22.1632 93.1588 21.7356 93.1588C21.4247 93.1588 21.1526 93.4309 21.1526 93.7418C21.1526 94.4026 21.0749 94.4415 20.2198 94.0916C19.87 93.9362 19.5979 93.392 19.5979 92.7702C19.5979 92.1483 19.4036 91.5264 19.1703 91.4098C18.9371 91.2543 18.5873 90.749 18.393 90.2826C18.082 89.583 18.0432 89.6219 18.2375 90.5158C18.393 91.2932 18.2764 91.6041 17.8877 91.6041C17.5768 91.6041 17.227 92.1483 17.0715 92.8479C16.6051 95.0633 16.2941 94.9856 16.0221 92.5758C15.8666 91.2932 15.5557 89.1555 15.2836 87.834C14.856 85.7351 14.8949 85.2298 15.5168 83.6362C15.9055 82.6257 17.1104 80.4491 18.2375 78.8167C20.8805 74.9299 22.1632 72.4035 22.4741 70.2269C22.7462 68.439 23.6401 65.213 24.3009 63.8137C24.4952 63.3862 25.3114 61.0153 26.1277 58.5666C26.9827 56.1179 27.9544 53.4749 28.3431 52.7364C29.548 50.3655 35.4559 44.652 38.06 43.3305C39.3427 42.7086 41.0528 41.5426 41.9079 40.8041C43.1128 39.7158 43.6181 39.4826 44.5121 39.6769C45.3283 39.8324 45.6392 39.7546 45.6392 39.3271C45.6392 38.4331 46.2222 38.3165 48.632 38.7052C51.5471 39.1328 53.4905 38.2777 54.1901 36.2566C54.5788 35.0517 54.7731 34.8962 56.4444 34.663C59.7871 34.2354 63.0908 36.0233 64.7233 39.2494L65.5006 40.6875L67.7161 39.0939C70.9032 36.7618 74.2458 33.4581 76.0726 30.7762C77.3941 28.8328 77.6273 28.1721 77.5885 26.734ZM78.9488 27.2781C79.493 28.2498 80.3481 27.0449 79.9983 25.7623C79.8817 25.2181 79.6096 24.7517 79.4152 24.7517C78.91 24.7517 78.5602 26.5785 78.9488 27.2781ZM74.0126 35.9845C74.0126 36.7618 75.0621 35.7901 75.8005 34.3909C76.1115 33.8079 76.3058 33.3026 76.2281 33.3026C75.8783 33.3026 74.0126 35.5569 74.0126 35.9845ZM62.2746 39.2105C63.1686 38.6275 62.2746 37.5003 60.1369 36.5675C57.4939 35.3626 55.5505 35.4015 55.978 36.6064C56.2501 37.306 53.5294 40.0656 53.2573 39.4048C53.1407 39.055 53.063 39.055 53.063 39.4048C53.0241 40.1433 53.7626 40.4154 54.3845 39.9101C55.0841 39.3271 55.0841 39.366 54.6177 40.9984C54.3845 41.7758 54.3845 42.1644 54.6177 42.0478C54.812 41.8924 54.9675 41.5426 54.9675 41.2316C54.9675 40.9207 55.3562 40.6875 55.978 40.6875C56.9109 40.6875 56.9886 40.5709 56.8331 39.3271C56.6388 37.7335 57.1829 37.5003 57.5327 39.0162C57.8825 40.7263 58.0769 40.9984 57.9603 39.5992C57.8048 38.3165 58.2324 37.9279 58.621 38.9773C58.9708 39.9101 58.8931 42.2422 58.5044 42.2422C58.3101 42.2422 58.038 42.009 57.9603 41.7369C57.8437 41.5037 57.7271 41.6592 57.7271 42.1256C57.6882 42.6308 57.455 43.0195 57.1441 43.0195C56.872 43.0195 56.5222 43.4082 56.3667 43.8746C56.0558 45.0406 56.0558 45.5459 56.4056 45.235C56.5222 45.0795 57.2607 45.3516 58.038 45.818L59.4373 46.6342L58.5822 45.7014C57.3773 44.341 57.455 44.069 58.8931 44.7686C59.5539 45.1184 60.1757 45.3127 60.2923 45.1961C60.4089 45.0795 60.0591 44.7686 59.4761 44.5354C58.932 44.2633 58.4656 43.9135 58.4656 43.7191C58.4656 43.2916 58.621 43.3305 59.8259 43.8746C61.1086 44.4576 61.4584 44.069 60.4867 43.0973C60.0591 42.6697 59.5927 42.3976 59.4761 42.5142C59.3595 42.6697 59.2429 41.9701 59.2818 41.0373C59.2818 39.7158 59.3595 39.5214 59.6316 40.1045C59.9425 40.8041 59.9814 40.8041 59.9814 40.1822C60.0203 39.7935 60.2146 39.5992 60.4089 39.7158C60.6422 39.8712 60.7976 40.1822 60.7588 40.4154C60.6033 41.5814 60.8365 42.6309 61.2252 42.6309C61.4584 42.6309 61.575 42.281 61.4584 41.8535C61.3418 41.426 61.3806 40.9984 61.575 40.8818C62.0025 40.6097 62.8576 41.7369 62.5467 42.2422C62.4301 42.4365 62.5078 42.6309 62.7021 42.6309C62.9353 42.6309 63.1297 42.0478 63.1297 41.3093C63.1297 40.1433 63.052 40.0267 62.158 40.2211C61.575 40.2988 61.1863 40.2211 61.1863 39.949C61.1863 39.7158 61.3029 39.5214 61.4972 39.5214C61.6527 39.5214 62.0025 39.366 62.2746 39.2105ZM76.7334 36.6064C76.9277 36.723 77.122 36.5675 77.122 36.2566C77.122 35.5569 76.8888 35.4403 76.539 35.9845C76.4224 36.1788 76.5002 36.4509 76.7334 36.6064ZM72.4968 37.4226C72.4968 37.8501 72.6134 37.9667 72.73 37.6558C72.8466 37.3837 72.8077 37.0339 72.6911 36.9173C72.5745 36.7618 72.4579 36.995 72.4968 37.4226ZM71.3696 38.5497C71.3696 39.1716 71.4474 39.4048 71.564 39.0162C71.6417 38.6663 71.6417 38.1222 71.564 37.8501C71.4474 37.6169 71.3696 37.889 71.3696 38.5497ZM74.2458 49.7048C74.79 44.1078 75.1787 39.2494 75.0232 38.9384C74.9066 38.6275 74.6734 38.3943 74.5179 38.4331C74.3624 38.472 72.4191 40.2988 70.2036 42.5142C68.027 44.6908 65.2285 47.1395 64.0236 47.9169C62.8187 48.6942 61.575 49.627 61.2252 50.0546C60.7588 50.5987 59.9814 50.7931 57.9992 50.8708L55.3562 50.9874L55.2784 55.4572C55.1618 61.4039 55.2784 63.153 55.978 67.5062C56.2934 69.3317 56.4528 70.3423 56.7921 71.2884C57.2476 72.5581 58.0271 73.7115 59.9425 76.5623C63.7904 82.3925 64.3346 82.8589 67.7938 83.3642C69.5429 83.6362 70.7866 83.6362 70.9032 83.4419C71.0198 83.2476 71.6028 77.8838 72.1859 71.5095C72.7689 65.1352 73.7017 55.3406 74.2458 49.7048ZM48.1656 42.6309C48.8652 42.6309 48.9041 41.8535 48.2822 40.4931C48.0102 39.8324 47.5437 39.5214 46.9219 39.5214C46.3777 39.5214 46.1056 39.6769 46.2222 39.9101C46.3388 40.1044 46.6498 40.2988 46.883 40.2988C47.3105 40.2988 48.3211 41.426 48.36 41.9701C48.36 42.1644 47.9713 42.1644 47.5437 42.0478C46.9996 41.8535 46.7664 41.9312 46.883 42.2422C46.9607 42.4754 47.1551 42.6697 47.3105 42.6697C47.466 42.6309 47.8547 42.6309 48.1656 42.6309ZM50.0313 40.7263C50.8864 41.1927 50.8864 41.1927 50.1479 40.3377C49.3317 39.4437 49.1373 39.3271 49.1373 39.9101C49.1373 40.1044 49.526 40.4931 50.0313 40.7263ZM67.1719 42.2422C67.2497 42.2422 67.4051 41.8924 67.5217 41.4648C67.6383 41.0373 67.5606 40.6875 67.3663 40.6875C67.1719 40.6875 67.0165 41.0373 67.0165 41.4648C67.0165 41.8924 67.0942 42.2422 67.1719 42.2422ZM46.3388 45.0018C46.2611 45.2739 45.8724 44.6131 45.4838 43.5637C44.7064 41.5426 44.0845 40.5709 44.0845 41.4259C44.0845 41.698 43.8513 41.8535 43.6181 41.7369C42.9962 41.5426 40.9751 42.5142 40.9751 43.0195C40.9751 43.2527 41.1694 43.4082 41.3638 43.4082C41.597 43.4082 41.7525 43.6803 41.7525 44.069C41.7525 44.652 41.7136 44.652 41.014 44.0301C40.3144 43.4082 40.1978 43.4859 38.2932 45.6237C36.2333 47.9169 35.4948 47.9557 37.3604 45.6625C38.8763 43.8357 37.5159 44.8852 34.0567 48.2278C32.4631 49.7436 30.7529 51.687 30.2088 52.5032C29.4314 53.6693 25.0394 65.1352 25.0394 65.9126C25.0394 66.4567 26.9439 64.1635 27.1382 63.3862C27.2937 62.8032 27.6824 62.4534 28.1876 62.4534C29.0816 62.4534 29.859 60.8598 29.1593 60.4322C28.8873 60.2379 29.0039 59.9658 29.5091 59.5772C29.9367 59.2662 30.3254 59.0719 30.4031 59.1496C30.5974 59.344 28.5763 65.0964 27.7601 66.7677C27.3326 67.5839 27.0994 68.2835 27.216 68.2835C27.3714 68.2835 27.216 68.5945 26.905 68.9443C26.5552 69.3329 25.8945 70.4212 25.428 71.3541L24.573 73.0642L25.6612 74.0748C26.4775 74.8133 26.5552 74.8522 26.0499 74.1914C25.2337 73.2586 25.428 73.1031 26.6329 73.725C27.4103 74.1525 27.7212 73.6084 26.9827 73.142C26.3609 72.7533 26.9827 72.1314 27.7601 72.3646C28.1876 72.5201 28.6541 72.248 29.0816 71.6261C29.859 70.3824 29.859 70.3435 28.9261 70.1103C28.4986 69.9937 28.1488 69.7216 28.1488 69.4495C28.1488 69.1775 28.4597 69.0997 28.8873 69.2552C29.859 69.5661 30.3254 68.8277 29.4703 68.3612C28.6929 67.9337 29.0039 66.7288 29.8978 66.7288C30.5974 66.7288 30.6752 66.3013 30.0533 65.6794C29.7424 65.3684 29.7812 65.1741 30.0922 64.9798C31.8023 63.9303 30.7918 69.9937 28.7318 73.0254C27.9933 74.1525 27.488 75.1242 27.6046 75.2408C27.8378 75.474 29.1593 73.6473 29.0039 73.2197C28.965 73.0642 29.0816 72.9476 29.2371 72.9476C29.859 72.9476 30.8695 70.1103 31.4137 67.0397C31.8801 64.2024 31.8801 64.0081 31.2193 63.8137C30.7918 63.6583 30.4808 63.3862 30.4808 63.1918C30.4808 62.9586 30.8306 62.8809 31.2193 63.0364C32.3076 63.3862 32.7352 61.7926 31.7635 61.093C31.4331 60.8209 31.2679 60.6849 31.2922 60.612C31.3165 60.5391 31.5303 60.5294 31.9578 60.51C33.2016 60.51 33.9012 58.6832 32.9295 57.9447C32.5888 57.6842 32.4238 57.558 32.4451 57.4915C32.4651 57.4291 32.6495 57.4194 33.0072 57.4006C33.5903 57.4006 34.1344 56.7009 35.1061 54.5632C37.5936 49.1606 38.7597 46.9063 39.2649 46.4787C39.5759 46.2455 39.8091 45.7791 39.8091 45.5071C39.8091 45.1961 39.9257 44.9629 40.0423 44.9629C40.4698 44.9629 41.3249 46.2844 41.3249 46.9063C41.3249 47.3338 41.2083 47.295 40.7808 46.7508C40.2366 46.0123 40.1978 46.0512 39.9645 47.2172C39.8091 47.878 39.5759 48.3444 39.3815 48.2278C39.1872 48.1112 39.0317 48.3055 39.0317 48.6165C39.0317 48.9663 39.1872 49.2384 39.3815 49.2384C39.9257 49.2384 41.4415 51.5315 41.2472 52.0757C41.1694 52.3089 40.8196 51.9591 40.431 51.2595C40.0812 50.5987 39.6147 50.0157 39.3815 50.0157C39.1872 50.0157 39.2649 50.521 39.6147 51.1817C40.2755 52.4644 40.3144 52.7364 39.8868 52.7364C39.6925 52.7364 39.2649 52.0757 38.8763 51.2983L38.1766 49.8214L37.6325 50.9097C37.0883 51.8814 37.1272 52.0757 37.8657 53.0085C38.2932 53.5527 38.643 54.2912 38.643 54.6021C38.643 54.9908 38.2544 54.6798 37.6714 53.9025L36.7385 52.6198L35.9223 54.4466C35.4948 55.4572 35.145 56.5066 35.145 56.7787C35.145 57.0508 34.9895 57.4006 34.7951 57.6338C34.3287 58.1002 32.0744 66.2624 31.8801 68.128C31.6857 69.9937 30.9084 72.1314 29.3925 75.0076C28.7318 76.2125 28.3431 77.2231 28.5375 77.2231C28.6929 77.2231 29.1982 76.4457 29.6646 75.474C30.131 74.5023 30.6752 73.725 30.9084 73.725C31.1027 73.725 31.2193 73.5695 31.0639 73.3752C30.9472 73.1808 31.025 72.9088 31.2582 72.7533C31.9189 72.3646 31.6857 73.5307 30.6752 75.8238L30.6465 75.8893C29.5862 78.3127 29.5528 78.3891 30.0922 78.3891C30.3254 78.3891 30.4808 78.117 30.4808 77.7672C30.4808 77.3785 30.6752 77.2231 31.1027 77.3785C31.4137 77.4952 31.608 77.4563 31.4914 77.2619C31.1805 76.7567 32.7352 72.7533 33.1627 72.831C33.4348 72.9088 33.4348 72.5978 33.2016 71.9371C32.6963 70.6933 32.7352 70.499 33.2016 70.8099C33.4348 70.9265 33.9401 71.7039 34.3676 72.4812C34.9506 73.6473 35.1061 73.7639 35.145 73.0642C35.145 72.5978 34.7174 71.7427 34.2121 71.1209C33.4736 70.2658 33.3959 69.9548 33.7846 69.5661C34.1733 69.2163 34.3676 69.3329 34.7174 70.1103C35.3393 71.4707 35.6114 71.0431 36.6997 67.1175C37.2049 65.2907 38.2544 62.1813 39.0317 60.199C40.6642 56.1957 40.703 55.4183 39.1483 58.8387C38.5653 60.0824 38.06 60.8598 37.9434 60.5877C37.7102 59.8104 39.6147 56.1179 41.014 54.7576C41.7525 54.0579 42.8019 53.3583 43.4238 53.2417C44.0068 53.1251 44.4732 52.9696 44.4732 52.853C44.4732 52.3866 43.1906 49.7436 42.6464 49.1606C42.0634 48.4999 42.0634 48.461 42.6464 48.461C43.346 48.461 43.9679 49.4327 44.7453 51.7648L45.2506 53.3195L45.0562 51.5704C44.9785 50.5987 44.7841 49.3938 44.6675 48.8497C44.5121 48.1112 44.5898 48.1501 45.0562 49.1217C45.8336 50.7931 46.1834 50.7542 45.8724 49.044C45.5615 47.3727 45.9113 47.2561 46.4943 48.8885C47.0385 50.4821 47.3494 50.0546 46.883 48.3055C46.6109 47.4116 46.6109 46.8286 46.8441 46.6731C47.3494 46.3621 46.883 43.4471 46.1834 42.3199C45.3283 40.9984 45.1728 41.3093 45.8724 43.0195C46.2222 43.8357 46.4166 44.7686 46.3388 45.0018ZM56.3278 42.1256C56.6388 41.7758 56.9109 41.4259 56.9109 41.3093C56.9109 40.8818 56.2112 41.0761 55.7448 41.6592C55.0841 42.4754 55.5505 42.8641 56.3278 42.1256ZM75.8783 43.0195C76.0726 43.0195 76.2281 42.7475 76.2281 42.4365C76.2281 42.1256 76.0726 41.8535 75.8783 41.8535C75.7228 41.8535 75.5673 42.1256 75.5673 42.4365C75.5673 42.7475 75.7228 43.0195 75.8783 43.0195ZM61.9637 44.5354C62.0025 45.0406 62.0803 45.0406 62.3912 44.4576C62.6244 44.069 62.741 43.6803 62.6633 43.5637C62.3523 43.2916 61.9637 43.8746 61.9637 44.5354ZM76.3447 44.5742C76.7722 44.5742 77.122 44.3799 77.122 44.1856C77.122 43.9524 76.7722 43.7969 76.3447 43.7969C75.9172 43.7969 75.5673 43.9524 75.5673 44.1856C75.5673 44.3799 75.9172 44.5742 76.3447 44.5742ZM78.7156 44.9629C78.91 44.9629 79.0654 44.7686 79.0654 44.5742C79.0654 44.341 78.7934 44.1856 78.4435 44.1856C78.1326 44.1856 77.9771 44.341 78.0937 44.5742C78.2103 44.7686 78.4824 44.9629 78.7156 44.9629ZM78.0937 45.8957C78.4047 46.0123 78.6768 45.9346 78.6768 45.7403C78.6768 45.5071 78.4047 45.3516 78.0937 45.3516C77.7828 45.3516 77.5107 45.4293 77.5107 45.5071C77.5107 45.5848 77.7828 45.7403 78.0937 45.8957ZM77.7051 46.9063C77.9383 47.2561 78.6768 47.1006 78.6768 46.6731C78.6768 46.5954 78.4047 46.5176 78.0549 46.5176C77.7439 46.5176 77.5885 46.712 77.7051 46.9063ZM77.122 48.3055C77.122 49.0051 78.3269 48.8885 78.599 48.1501C78.6768 47.878 78.4047 47.6836 77.9383 47.6836C77.4719 47.6836 77.122 47.9169 77.122 48.3055ZM77.0832 53.1251C77.5885 53.1251 77.8605 52.7753 77.9771 51.9591C78.1326 51.0263 78.016 50.7931 77.433 50.7931C76.6556 50.7931 76.4224 51.5704 77.2387 51.5704C77.4719 51.5704 77.3941 51.7648 77.0443 51.998C76.1115 52.5032 76.1504 53.1251 77.0832 53.1251ZM44.7841 55.6904C45.2506 55.2628 45.6392 54.8742 45.6392 54.7964C45.6392 54.4855 45.3283 54.7187 44.6287 55.5349L43.8902 56.4289L44.7841 55.6904ZM45.1728 56.4677C45.6392 56.0402 46.0279 55.6515 46.0279 55.5738C46.0279 55.2628 45.717 55.496 45.0173 56.3123L44.2789 57.2062L45.1728 56.4677ZM45.9502 56.973C46.4166 56.6621 46.8053 56.3123 46.8053 56.1568C46.8053 55.6904 46.5721 55.807 45.7947 56.6621C45.4183 57.0979 45.2338 57.3116 45.2616 57.3443C45.2884 57.3758 45.5119 57.2398 45.9502 56.973ZM43.8513 62.0647C43.3849 62.0647 43.8513 61.1319 45.0951 59.5383C45.8336 58.5277 46.3777 57.6338 46.3 57.5172C45.717 56.973 42.18 63.5028 41.5193 66.3401L41.2083 67.7005L40.9751 66.1458C40.7419 64.4745 41.4415 61.2873 42.4132 59.8104C42.7242 59.3051 42.9185 58.7998 42.8019 58.7221C42.4909 58.4111 40.9751 61.093 40.7419 62.4145C40.5864 63.0752 40.2366 63.6194 39.9645 63.6194C39.6147 63.6194 39.4204 64.0081 39.4593 64.6688C39.4981 65.2907 39.3427 66.4956 39.0706 67.3507C38.643 68.9443 38.6819 72.1703 39.2649 78.7001L39.537 81.9261L41.4027 82.8978C43.8125 84.1027 44.4732 84.1027 43.3072 82.8589C42.763 82.3147 42.1411 81.3819 41.8691 80.7989L41.3638 79.7495L41.4804 80.9932C41.5581 81.6929 41.4804 82.2759 41.3249 82.2759C40.7808 82.2759 40.1978 80.8378 40.1978 79.5163C40.1978 78.4668 40.2755 78.3502 40.7808 78.7778C41.5193 79.3997 41.5193 79.3608 40.5864 74.308C39.6925 69.5273 39.6536 68.6722 40.1978 68.6722C40.431 68.6722 40.5864 69.2552 40.5864 69.916C40.6253 72.1703 42.3743 80.3714 42.9962 80.9544C43.5015 81.4597 43.5404 81.3431 43.4626 79.8661C43.3849 78.9333 43.074 77.2231 42.7242 76.0571C42.4132 74.891 42.18 73.2197 42.18 72.3646C42.2189 71.3929 42.2966 71.1986 42.4132 71.7816C42.4776 72.2326 42.6222 72.8973 42.7362 73.4214C42.7597 73.5296 42.7819 73.6319 42.8019 73.725C43.0351 74.5801 43.074 74.5412 43.2683 73.1808C43.6181 70.8099 44.3955 70.9654 44.1623 73.3363C44.0457 74.6189 44.1234 75.2797 44.4343 75.2797C44.6675 75.2797 44.8619 74.8133 44.8619 74.1914C44.8619 73.5307 45.1728 72.9476 45.6781 72.5978C46.4555 72.1314 46.4943 72.1703 46.2222 73.0254C46.0668 73.4918 45.8336 74.7355 45.7558 75.7461C45.6004 77.2619 45.6781 77.534 46.1834 77.4563C47.5049 77.2619 47.6603 76.6401 47.2328 73.8027C46.9996 72.2869 46.8053 69.916 46.8053 68.5167C46.8053 66.3401 46.7275 66.0292 46.1834 66.2235C45.6004 66.4179 45.6004 66.3401 46.2222 65.3296C46.6109 64.7077 46.6498 64.5133 46.3 64.8632C45.3283 66.0681 45.134 65.6016 45.989 64.1635C46.4555 63.3862 46.7664 62.6477 46.6498 62.57C46.5721 62.4534 46.2611 62.8032 45.989 63.3084C45.717 63.7749 45.2894 64.3579 45.0562 64.5911C44.4343 65.0964 44.0068 66.8454 44.5509 66.4956C44.823 66.3401 44.8619 66.6511 44.7064 67.4284C44.5121 68.2446 44.6287 68.7499 45.0562 69.2163C45.6392 69.7993 45.6392 69.8382 44.9007 69.8382C44.3177 69.8382 44.0845 69.5661 44.0457 68.9443C44.0271 68.5541 44.0174 68.3504 43.9826 68.346C43.9446 68.3412 43.8767 68.574 43.7347 69.0609C43.2294 70.9654 42.9962 69.2163 43.5015 67.1175C44.1234 64.5133 44.4732 63.6194 44.8619 63.6194C45.2894 63.6194 46.883 60.8987 46.7275 60.4322C46.5332 59.8881 43.4626 64.7466 43.1517 66.1069C42.763 67.6616 42.3743 67.0397 42.6853 65.3684C42.8408 64.63 43.8125 62.8809 44.9007 61.4817C45.9502 60.0824 46.6498 58.9553 46.4166 58.9553C46.2222 58.9553 45.5615 59.6549 45.0173 60.51C44.4343 61.3651 43.9291 62.0647 43.8513 62.0647ZM42.18 61.8703C42.2577 61.9092 42.8019 61.2096 43.3849 60.2768C43.9679 59.344 44.3177 58.5666 44.1234 58.5666C43.8125 58.5666 41.9857 61.6371 42.18 61.8703ZM40.431 59.927C40.0812 60.9375 40.1589 61.1707 40.6253 60.3934C40.8585 60.0047 40.9751 59.5772 40.8585 59.4994C40.7808 59.3828 40.5864 59.5772 40.431 59.927ZM36.4276 72.559C36.5053 72.0148 37.1272 69.7216 37.8268 67.4284C38.5264 65.1352 39.0317 63.0364 38.954 62.8032C38.7985 62.3368 37.3993 66.7288 36.0389 71.9759C35.6114 73.4918 35.417 75.1242 35.5336 75.6684C35.7668 76.5235 35.8057 76.4457 36.0389 75.0854C36.1944 74.2303 36.3887 73.1031 36.4276 72.559ZM26.5163 66.1069C26.8661 66.3401 27.2937 65.9515 27.9156 64.8632C28.3431 64.1247 27.5658 64.319 26.8273 65.1352C26.4386 65.5628 26.322 65.9903 26.5163 66.1069ZM48.1268 67.7782C48.2045 67.856 48.5543 67.1952 48.9041 66.3013C49.2539 65.4073 49.4871 64.63 49.4094 64.5522C49.3317 64.4745 48.9818 65.1352 48.632 66.0292C48.2822 66.9231 48.049 67.7005 48.1268 67.7782ZM25.0394 67.7005C25.2726 67.5839 25.428 67.3118 25.428 67.0786C25.428 66.8843 25.2726 66.7288 25.0782 66.7288C24.7284 66.7288 24.3009 67.7005 23.1348 71.1986C22.3964 73.4529 22.3964 74.3469 23.1348 73.8805C23.3292 73.7639 23.4069 73.4918 23.2903 73.2974C23.1348 73.1031 23.2515 72.9476 23.4458 72.9476C23.679 72.9476 23.8733 72.7144 23.8733 72.4035C23.8733 72.1314 24.262 71.3929 24.7284 70.8099C25.3114 70.0326 25.428 69.6439 25.1171 69.5273C24.573 69.3718 24.4952 68.0503 25.0394 67.7005ZM26.2054 67.8948C26.4386 67.8948 26.5941 67.7005 26.5941 67.5062C26.5941 67.273 26.4386 67.1175 26.2054 67.1175C26.0111 67.1175 25.8167 67.273 25.8167 67.5062C25.8167 67.7005 26.0111 67.8948 26.2054 67.8948ZM51.5082 69.5273C51.7026 69.7993 51.8192 69.8382 51.8192 69.6439C51.8192 69.4107 51.6637 68.9054 51.5082 68.5167C51.275 67.8948 51.1584 67.9726 50.692 69.0997C50.3811 69.8382 49.7981 70.6933 49.3705 71.0431C48.5932 71.7039 48.5932 71.7427 50.3422 73.5307C52.7131 75.9404 54.6954 79.2831 54.7731 80.9932C54.8897 82.5479 55.3173 82.9366 57.2995 83.0921C58.349 83.2087 58.621 83.0921 58.5044 82.6646C58.4267 82.3536 58.2712 81.654 58.1546 81.1098C58.038 80.5657 57.3773 79.2831 56.6388 78.2336C55.9392 77.2231 55.3562 76.2125 55.3562 76.0182C55.3562 75.5906 52.9464 71.6261 52.5577 71.4707C52.4022 71.3929 52.4022 71.082 52.5188 70.771C52.6743 70.3824 52.5188 70.188 52.2079 70.2269C51.0807 70.3824 50.7309 70.2269 50.9641 69.605C51.1584 69.0997 51.2362 69.0997 51.5082 69.5273ZM49.1373 70.2658C49.5649 69.7605 49.9147 69.1386 49.9147 68.8277C49.9147 68.0503 49.6037 68.1669 49.3317 69.0609C49.1762 69.4884 48.943 69.7605 48.7486 69.6439C48.5543 69.5273 48.2822 69.6439 48.1268 69.8771C47.9324 70.188 48.0102 70.2269 48.36 70.0326C48.7486 69.7993 48.8264 69.916 48.632 70.4601C48.3988 71.0431 48.5154 71.0043 49.1373 70.2658ZM72.4579 74.0748C72.4579 75.0465 72.5745 75.3186 72.8855 75.0076C73.1187 74.7744 73.2353 74.0359 73.1575 73.3363C73.0021 71.7427 72.4579 72.2869 72.4579 74.0748ZM25.2726 75.4352C25.8556 75.6684 25.8556 75.5906 25.3892 75.0076C25.2642 74.8291 25.1393 74.6589 25.0369 74.5194C24.9164 74.3551 24.8272 74.2334 24.8062 74.1914C24.6118 73.8805 18.5485 82.1593 18.5485 82.7423C18.5485 83.0921 18.7039 83.3253 18.8983 83.2087C19.0926 83.0921 19.1315 82.82 18.976 82.6257C18.8594 82.3925 19.5202 81.4985 20.453 80.6046C21.4247 79.7106 22.5907 78.3891 23.0571 77.6895C23.5235 77.0287 24.1843 76.4457 24.5341 76.4457C24.9228 76.4457 25.0394 76.2125 24.8839 75.8238C24.6896 75.3574 24.8062 75.2408 25.2726 75.4352ZM21.036 77.6506C21.9299 76.4457 22.6684 75.2408 22.6684 74.9688C22.7462 73.9971 22.0854 74.5801 20.9583 76.5235C20.3364 77.6118 19.2481 79.1276 18.5873 79.9049C17.227 81.4985 16.2941 83.0532 16.7605 83.0532C16.916 83.0144 17.6156 82.3147 18.2375 81.4208C18.685 80.8417 19.3999 79.8704 20.0924 78.9295C20.4225 78.481 20.7475 78.0395 21.036 77.6506ZM36.5831 77.3397C36.8551 76.9899 37.0883 76.4846 37.0495 76.2903C37.0495 76.057 36.894 75.5129 36.7385 75.0854C36.5053 74.5023 36.3887 74.7744 36.2721 76.1737C36.1167 77.7284 36.1944 77.9227 36.5831 77.3397ZM33.668 76.0571C33.668 76.6012 33.7457 76.7955 33.8623 76.5235C33.9401 76.2903 33.9401 75.8238 33.8623 75.5518C33.7457 75.3186 33.668 75.5129 33.668 76.0571ZM27.3714 76.4457C27.6046 76.4457 27.7601 76.2514 27.7601 76.0571C27.7601 75.8238 27.6046 75.6684 27.3714 75.6684C27.1771 75.6684 26.9827 75.8238 26.9827 76.0571C26.9827 76.2514 27.1771 76.4457 27.3714 76.4457ZM34.4065 83.0532C34.6008 83.0532 34.8729 82.82 34.9895 82.5479C35.1061 82.237 35.1061 80.7212 35.0284 79.1276L34.9118 76.2514L34.834 78.6612C34.7951 79.9827 34.6008 81.4985 34.3676 82.0427C34.1344 82.7034 34.1344 83.0532 34.4065 83.0532ZM36.8163 79.3997C36.894 79.5163 37.1661 79.0499 37.3993 78.428C37.6714 77.7284 37.6714 77.2231 37.477 77.2231C37.0495 77.2231 36.5053 79.0887 36.8163 79.3997ZM48.0879 79.2442C48.2045 79.5163 48.3211 79.1665 48.3211 78.4668C48.36 77.0287 47.9713 76.8733 47.2717 78.0004C46.883 78.6223 46.883 78.7778 47.3494 78.7778C47.6603 78.7778 48.0102 79.011 48.0879 79.2442ZM72.0692 78.4668C72.0692 79.8661 72.2247 79.8272 72.6134 78.2725C72.7689 77.6506 72.6911 77.2231 72.4579 77.2231C72.2636 77.2231 72.0692 77.7672 72.0692 78.4668ZM22.202 80.1382L23.3292 79.0887C23.9122 78.5057 24.3397 77.9227 24.2231 77.8061C24.1065 77.7284 23.6013 78.1948 23.096 78.8944L22.202 80.1382ZM27.1771 79.1665C27.2937 78.9721 27.2548 78.7778 27.0216 78.7778C26.8273 78.7778 26.3997 78.7 26.1277 78.5834C25.8167 78.4668 25.2337 78.7389 24.8062 79.2053C24.4175 79.6717 22.6684 81.1098 20.9583 82.3925C19.2481 83.6751 17.7711 84.8023 17.6934 84.88C17.5768 84.9577 17.4602 85.7351 17.4213 86.5902C17.3824 87.4453 17.2658 88.2615 17.1104 88.3781C16.9938 88.5336 16.8772 88.8834 16.8772 89.2332C16.8772 89.6996 16.9938 89.6996 17.3436 89.3498C18.1209 88.5724 18.7428 88.8445 19.4424 90.2437C19.7922 91.0211 20.142 91.5652 20.2586 91.4875C20.5696 91.1377 18.5873 87.4841 18.1209 87.6396C17.499 87.834 17.5379 87.523 18.2375 86.1626C18.7428 85.2298 19.0537 85.0355 19.9866 85.1521C21.3081 85.3076 21.4247 85.1132 20.4918 84.3747C19.9088 83.9472 19.9088 83.8695 20.3752 83.8306C20.6862 83.8306 21.5413 83.2087 22.2798 82.4702C23.096 81.654 23.7956 81.2653 24.1843 81.3819C24.573 81.5374 24.6896 81.4597 24.4952 81.1876C24.3009 80.8766 24.5341 80.7212 25.1171 80.7212C25.739 80.7212 25.8556 80.6046 25.5058 80.3714C25.1171 80.1382 25.1171 79.9827 25.5835 79.594C25.8945 79.3219 26.3609 79.2053 26.5552 79.3219C26.7495 79.4774 27.0216 79.3997 27.1771 79.1665ZM28.9261 79.1276C29.4314 80.0993 30.2088 80.2159 30.0144 79.2831C29.9367 78.8944 29.5869 78.5446 29.1982 78.4668C28.5763 78.3502 28.5375 78.428 28.9261 79.1276ZM28.3431 80.7212C28.6152 81.1876 29.3148 81.2264 29.3148 80.7989C29.3148 80.6046 29.0816 80.177 28.8095 79.8272C28.382 79.2053 28.2265 79.2831 26.8661 80.6434C26.0888 81.4597 25.428 82.1981 25.428 82.3147C25.428 82.4702 25.9333 82.5479 26.5941 82.5091C27.5658 82.4702 27.6824 82.3536 27.5269 81.654C27.2937 80.76 27.9156 80.0604 28.3431 80.7212ZM29.859 83.4808C30.442 83.0144 32.4242 79.8272 32.4242 79.3997C32.4242 78.7389 31.6469 79.3219 31.1805 80.3325C30.9084 80.9544 30.5586 81.4985 30.4031 81.4985C30.2088 81.4985 30.0922 81.7317 30.0922 82.0427C30.0922 82.3147 29.7035 82.6646 29.2371 82.82C28.5375 82.9755 28.4597 83.131 28.8095 83.4808C29.1593 83.8306 29.4314 83.8306 29.859 83.4808ZM37.3604 79.7106C37.0495 80.4491 37.2827 81.0321 37.7102 80.6046C37.8268 80.488 37.8657 80.0604 37.788 79.6717C37.6714 79.011 37.6325 79.011 37.3604 79.7106ZM38.6819 79.7883C38.6819 80.2159 38.7985 80.3325 38.9151 80.0216C39.0317 79.7495 38.9929 79.3997 38.8763 79.2831C38.7597 79.1276 38.643 79.3608 38.6819 79.7883ZM46.5332 83.0532C47.1939 83.0532 47.1939 82.9755 46.4166 81.9649C46.2154 81.6906 45.9453 81.3474 45.6753 81.0042C45.3715 80.618 45.0677 80.2319 44.8619 79.9438C44.24 79.1665 44.1234 79.0887 44.0845 79.6717C44.0845 80.7212 45.7558 83.0532 46.5332 83.0532ZM48.9818 82.2759C49.526 82.2759 49.2928 81.8872 48.1656 80.7212C47.3494 79.8661 46.6109 79.1665 46.5721 79.1665C46.5332 79.1665 46.6109 79.594 46.7275 80.1382C46.8441 80.76 47.2328 81.1876 47.8158 81.343C48.3211 81.4597 48.632 81.7317 48.5154 81.9261C48.3988 82.1204 48.632 82.2759 48.9818 82.2759ZM49.3705 80.2936C49.0207 80.7989 49.3705 81.3819 49.7592 80.9932C49.8758 80.8766 49.9147 80.5657 49.8369 80.2936C49.6815 79.8661 49.6037 79.8661 49.3705 80.2936ZM31.3359 85.6185C32.5408 85.1132 32.774 84.6857 33.7457 81.5763C33.9401 81.071 33.8623 80.7212 33.6291 80.7212C33.3959 80.7212 33.2016 81.071 33.2016 81.4985C33.2016 81.9261 33.0461 82.2759 32.8129 82.2759C32.6186 82.2759 32.4242 82.5479 32.4242 82.8589C32.4242 83.1698 31.9189 83.9083 31.2582 84.4913C29.7424 85.8128 29.7812 86.2404 31.3359 85.6185ZM50.7309 81.8872C50.9252 81.8872 51.003 81.6929 50.8864 81.4985C50.7698 81.2653 50.5754 81.1098 50.4588 81.1098C50.3811 81.1098 50.3034 81.2653 50.3034 81.4985C50.3034 81.6929 50.4977 81.8872 50.7309 81.8872ZM36.7385 83.4419C36.5442 83.4419 36.4665 83.131 36.5831 82.7034C36.6997 82.3147 36.5831 81.8483 36.3499 81.7317C36.1167 81.5763 35.9223 81.6929 35.9223 81.9649C35.9223 82.237 35.8057 82.8978 35.6502 83.403C35.4948 84.0638 35.5336 84.2581 35.8446 84.0638C36.1167 83.9083 36.311 83.9861 36.311 84.1804C36.311 84.4136 36.5053 84.6079 36.6997 84.6079C36.9329 84.6079 37.0883 84.3359 37.0883 84.0249C37.0883 83.714 36.9329 83.4419 36.7385 83.4419ZM50.3422 83.0532C50.5366 83.0532 50.6143 82.8589 50.4977 82.6646C50.3811 82.4313 50.1867 82.2759 50.0701 82.2759C49.9924 82.2759 49.9147 82.4313 49.9147 82.6646C49.9147 82.8589 50.109 83.0532 50.3422 83.0532ZM71.7194 82.8978C71.7194 83.3253 71.836 83.4419 71.9526 83.131C72.0693 82.8589 72.0304 82.5091 71.9138 82.3925C71.7972 82.237 71.6806 82.4702 71.7194 82.8978ZM25.2337 83.4419C25.5835 83.714 25.8167 83.7529 25.8167 83.5196C25.8167 83.3253 25.5446 83.0532 25.2337 82.8978C24.9228 82.7812 24.6507 82.7423 24.6507 82.82C24.6507 82.8978 24.9228 83.1698 25.2337 83.4419ZM24.262 84.2193C24.6896 84.4525 25.0394 84.4913 25.0394 84.297C25.0394 84.1027 24.8062 83.714 24.4952 83.4808C24.0677 83.0921 23.7179 83.2476 22.9405 84.1027C21.6579 85.463 21.1526 87.2121 21.4247 89.2721C21.619 90.6324 21.7745 90.8268 22.6296 90.8268C23.0989 90.8268 23.3416 90.8268 23.3838 90.7348C23.429 90.6363 23.2446 90.4325 22.8628 90.0105C22.4826 89.5704 22.2982 89.3568 22.3412 89.2903C22.3817 89.2275 22.6245 89.2955 23.096 89.4275C24.0677 89.6607 24.0677 89.6607 23.2126 89.2332C22.7073 88.9611 22.3186 88.6113 22.3186 88.417C22.3186 88.2226 22.6684 88.2615 23.096 88.4947C23.7956 88.8834 23.8733 88.8056 23.8733 87.7174C23.8733 86.7068 23.7179 86.5513 22.8628 86.5513C22.2798 86.5513 21.9688 86.3959 22.1243 86.1626C22.2798 85.9294 22.7462 85.8517 23.2126 85.9683C23.6275 86.0815 23.841 86.1397 23.8622 86.0987C23.8847 86.0551 23.6905 85.8998 23.2903 85.5796C22.9378 85.2828 22.7536 85.1276 22.7799 85.0719C22.8087 85.0109 23.0899 85.0691 23.679 85.191C24.7284 85.4242 24.7673 85.3853 24.1843 84.88C23.2515 84.1415 23.2903 83.714 24.262 84.2193ZM16.5273 84.9966C16.7217 84.9966 16.8772 84.6468 16.8772 84.2193C16.8772 83.7917 16.7217 83.4419 16.5662 83.4419C16.4107 83.4419 16.2553 83.7917 16.2164 84.2193C16.1775 84.6468 16.2941 84.9966 16.5273 84.9966ZM46.9219 83.714C47.2717 83.7917 47.8936 83.7917 48.2822 83.714C48.632 83.5974 48.3211 83.5196 47.5826 83.5196C46.8441 83.5196 46.5332 83.5974 46.9219 83.714ZM27.5658 86.0072C28.3042 85.191 28.8484 84.3747 28.7318 84.1804C28.382 83.6362 27.7601 83.7528 27.7601 84.4136C27.7601 84.8023 27.3714 84.9966 26.7107 85.0355C26.0888 85.0355 25.8556 85.1521 26.1277 85.2687C26.7884 85.5408 26.7107 86.1626 26.0111 86.1626C25.7001 86.1626 25.428 86.3958 25.428 86.6291C25.428 87.2509 26.2054 88.4558 26.2054 87.8728C26.2054 87.6396 26.8273 86.7845 27.5658 86.0072ZM51.3916 84.1027C51.6249 84.1804 52.0913 84.1804 52.3633 84.1027C52.5965 83.9861 52.4022 83.9083 51.8581 83.9083C51.3139 83.9083 51.1196 83.9861 51.3916 84.1027ZM39.6147 84.9966C39.8479 85.3464 40.5864 85.191 40.5864 84.7634C40.5864 84.6857 40.3144 84.6079 39.9645 84.6079C39.6536 84.6079 39.4981 84.8023 39.6147 84.9966ZM16.4107 86.7457C16.2553 86.5902 16.2941 86.2015 16.5273 85.8906C16.8772 85.5019 16.8383 85.3853 16.333 85.3853C15.5945 85.3853 15.4779 86.3958 16.2164 86.7845C16.4496 86.94 16.5662 86.94 16.4107 86.7457ZM20.2975 87.0177C20.6473 87.3675 20.7639 87.3675 20.7639 87.0177C20.7639 86.357 19.4424 85.774 18.7817 86.1626C18.3541 86.4736 18.393 86.6291 19.1315 87.1343C19.6368 87.523 19.9866 88.1838 20.0254 88.8056C20.0254 89.3402 20.0254 89.6025 20.0768 89.613C20.1263 89.6231 20.2234 89.3997 20.4141 88.9611C20.6862 88.2226 20.6084 87.9117 19.9088 87.2898C19.4036 86.9011 19.2092 86.5902 19.4424 86.5513C19.6368 86.5513 20.0254 86.7457 20.2975 87.0177ZM76.8888 87.0955C77.2387 86.9789 77.5107 86.7068 77.5107 86.5124C77.5107 86.0072 77.2775 86.0849 76.7334 86.7457C76.3058 87.2509 76.3447 87.2898 76.8888 87.0955ZM73.2353 87.7174C73.4685 87.7174 73.624 87.523 73.624 87.3287C73.624 87.0955 73.4685 86.94 73.2353 86.94C73.0409 86.94 72.8466 87.0955 72.8466 87.3287C72.8466 87.523 73.0409 87.7174 73.2353 87.7174ZM16.916 90.6713C16.916 91.0988 17.0326 91.2154 17.1492 90.9045C17.2658 90.6324 17.227 90.2826 17.1104 90.166C16.9938 90.0105 16.8772 90.2438 16.916 90.6713ZM21.4635 92.2649C21.7356 92.3815 22.0854 92.3426 22.202 92.226C22.3575 92.1094 22.1243 91.9928 21.6967 92.0317C21.2692 92.0317 21.1526 92.1483 21.4635 92.2649ZM66.6278 93.1588C66.6278 93.975 67.2885 94.9467 67.5995 94.6358C67.7549 94.4803 67.5995 93.975 67.2497 93.4698C66.861 92.9256 66.6278 92.809 66.6278 93.1588ZM44.9007 93.7807C44.9007 94.2083 45.0173 94.3249 45.134 94.0139C45.2506 93.7418 45.2117 93.392 45.0951 93.2754C44.9785 93.12 44.8619 93.3532 44.9007 93.7807ZM31.4914 94.0528C31.608 94.4415 31.8412 94.6358 31.9578 94.5192C32.0744 94.4026 31.9578 94.0916 31.6857 93.8196C31.2971 93.4698 31.2582 93.5086 31.4914 94.0528ZM37.0883 94.9079C37.3215 95.0245 37.477 94.7913 37.477 94.3637C37.477 93.8973 37.3215 93.5475 37.0883 93.5475C36.894 93.5475 36.6997 93.7807 36.6997 94.0916C36.6997 94.4026 36.894 94.7913 37.0883 94.9079ZM52.6354 94.3249C53.4128 94.8301 53.918 94.8301 53.6071 94.3249C53.4905 94.0916 53.063 93.9362 52.7131 93.9362C52.1301 93.9362 52.1301 94.0139 52.6354 94.3249ZM64.3735 94.7135C64.3735 95.2577 64.4512 95.452 64.5678 95.1799C64.6455 94.9467 64.6455 94.4803 64.5678 94.2083C64.4512 93.975 64.3735 94.1694 64.3735 94.7135ZM27.4492 95.8796C27.4492 96.4237 27.5269 96.618 27.6435 96.346C27.7212 96.1128 27.7212 95.6464 27.6435 95.3743C27.5269 95.1411 27.4492 95.3354 27.4492 95.8796ZM23.1348 97.8229C23.3292 97.8229 23.4847 97.3954 23.4847 96.8513C23.4847 96.3071 23.4069 95.8796 23.3292 95.8796C23.2515 95.8796 23.096 96.3071 23.0182 96.8513C22.9016 97.3954 22.9794 97.8229 23.1348 97.8229Z" fill="black"></path>
</svg>