<svg width="100" height="100" viewBox="0 0 100 100" fill="none" xmlns="http://www.w3.org/2000/svg">
<path d="M67.2598 53.468C67.2235 53.5768 67.151 55.6085 67.1147 58.0029C67.0421 61.8122 67.3686 62.4653 67.5863 58.9099L67.6589 57.6401L67.9854 58.801C68.1668 59.4541 68.4207 59.9983 68.5296 59.9983C68.6384 59.9983 68.6021 59.6355 68.457 59.2001C68.3482 58.7648 68.0217 57.241 67.7677 55.8624C67.5138 54.4475 67.2598 53.3592 67.2598 53.468Z" fill="#0C0C0C"></path>
<path d="M31.053 56.9508C30.7991 57.6401 31.1981 61.1229 31.5609 61.4857C31.7423 61.6671 31.8512 60.5787 31.8512 59.0913C31.8512 56.5154 31.5609 55.681 31.053 56.9508Z" fill="#0C0C0C"></path>
<path d="M32.2866 57.3498C31.8875 57.7126 32.0326 60.0708 32.5768 61.6308L33.0847 63.082L32.867 61.6308C32.7219 60.8326 32.6493 59.4903 32.6493 58.6196C32.6856 57.0233 32.6493 56.9508 32.2866 57.3498Z" fill="#0C0C0C"></path>
<path d="M33.3025 61.0866C33.6653 62.2838 35.0076 64.7145 35.2978 64.7145C35.5518 64.7145 33.6653 60.7601 33.2299 60.3973C33.1211 60.2885 33.1574 60.5787 33.3025 61.0866Z" fill="#0C0C0C"></path>
<path d="M35.3342 61.7034C35.2979 62.4652 37.5472 64.8234 37.8374 64.3517C38.0188 64.0252 38.164 64.0252 38.3454 64.3155C38.4905 64.5331 38.7807 64.7145 38.9984 64.7145C39.2161 64.7145 39.1072 64.388 38.7444 63.989C38.2365 63.4085 38.0188 63.3359 37.7649 63.6987C37.4384 64.1703 36.8579 63.6624 35.7695 61.9573C35.5518 61.5582 35.3342 61.4494 35.3342 61.7034Z" fill="#0C0C0C"></path>
<path d="M65.1193 64.4606C64.4663 65.6941 64.1761 66.3834 64.5026 65.9843C65.2282 65.1136 66.6068 62.5015 66.4254 62.3564C66.3528 62.2838 65.7724 63.2271 65.1193 64.4606Z" fill="#0C0C0C"></path>
<path d="M67.3687 63.735C66.9333 64.3518 66.4617 65.295 66.3166 65.8029C65.845 67.4355 63.124 72.4057 61.6728 74.2923L60.2217 76.1425L61.4915 74.9453C62.8701 73.6392 65.7724 68.669 66.498 66.3471C66.7519 65.549 67.3687 64.3518 67.8766 63.6987C68.3482 63.082 68.6022 62.5378 68.4571 62.5378C68.2757 62.5378 67.7678 63.082 67.3687 63.735Z" fill="#0C0C0C"></path>
<path d="M51.1881 75.1267C51.4057 75.1992 51.8411 75.1992 52.095 75.1267C52.3127 75.0178 52.1313 74.9453 51.6234 74.9453C51.1155 74.9453 50.9341 75.0178 51.1881 75.1267Z" fill="#0C0C0C"></path>
<path d="M45.4562 76.5416C45.4562 76.723 45.7101 77.2309 46.0004 77.6299C46.2906 77.9927 46.5446 78.1378 46.5446 77.9202C46.5446 77.7388 46.2906 77.2309 46.0004 76.8318C45.7101 76.469 45.4562 76.3239 45.4562 76.5416Z" fill="#0C0C0C"></path>
<path d="M60.5482 76.5779C59.2058 76.723 59.1696 76.7593 59.8951 77.2672C60.5844 77.7388 60.7658 77.7388 61.6003 77.1946C62.5072 76.6141 62.7612 76.2514 62.2533 76.3965C62.0719 76.4328 61.3463 76.5053 60.5482 76.5779Z" fill="#0C0C0C"></path>
<path d="M58.5165 78.8635C58.5165 79.0449 58.6979 79.2263 58.9156 79.2263C59.0969 79.2263 59.1695 79.0449 59.0607 78.8635C58.9518 78.6458 58.7704 78.5007 58.6616 78.5007C58.589 78.5007 58.5165 78.6458 58.5165 78.8635Z" fill="#0C0C0C"></path>
<path fill-rule="evenodd" clip-rule="evenodd" d="M31.5247 7.59589C30.0735 5.38285 30.3638 3.96796 32.7219 1.68237C34.7173 -0.24043 35.7331 -0.458105 37.2568 0.73911C38.4178 1.68237 40.4857 4.80239 41.9006 7.84984L42.9527 10.1354H45.3108C47.4513 10.1354 47.7778 10.2443 48.7573 11.1875C49.3378 11.768 49.8094 12.6387 49.8094 13.1103C49.8094 14.5978 48.1406 17.5001 46.2178 19.4229C45.202 20.475 44.3676 21.4908 44.3676 21.7085C44.3676 21.9625 45.2745 21.1643 46.3992 19.9671C47.5238 18.7336 48.6485 17.7541 48.8662 17.7541C49.1201 17.7541 49.6643 17.355 50.1359 16.8834C50.5713 16.448 51.5871 15.8676 52.349 15.6136C53.5099 15.2871 54.0541 14.7792 55.1062 13.1103C57.3555 9.62753 59.0969 7.77729 61.31 6.61636C64.2849 5.09263 65.9174 4.83867 66.8607 5.78193C68.0216 6.94286 67.7677 8.35775 66.2439 8.82938C65.5183 9.04706 62.87 12.4936 62.87 13.1829C62.87 13.2917 63.1602 13.4006 63.5593 13.4006C63.9221 13.4006 64.9016 13.6182 65.6997 13.9085L67.1872 14.4527L68.4933 12.7113C69.2914 11.5866 69.763 10.5345 69.763 9.84521C69.763 8.64799 70.5612 7.95869 71.8309 7.95869C72.3751 7.95869 72.6291 7.52334 72.9556 5.85449C73.2096 4.69355 73.3909 3.31494 73.3909 2.77075C73.3909 2.26285 73.5723 1.71866 73.79 1.57354C74.2979 1.24703 77.0552 2.15401 77.2728 2.73447C77.3454 2.95215 77.2728 4.00424 77.0914 5.02006C76.7649 6.79775 76.8012 6.90658 77.7445 7.59589C79.0868 8.53915 79.3045 9.55497 78.3975 10.6796L77.6719 11.6229L78.5789 12.3122C79.2319 12.8201 79.4496 13.2555 79.3045 13.8359C78.8328 15.7224 77.7445 16.0852 76.1482 14.8155C75.0598 13.9448 74.8058 14.0536 73.3909 16.0127C72.5565 17.1373 72.4114 17.609 72.6654 18.1169C73.6449 19.9308 72.883 23.2322 71.2142 24.5383C70.8151 24.8648 70.7788 24.9737 71.1416 25.0099C71.4319 25.0099 72.1937 25.2639 72.8468 25.5904C74.0802 26.1709 78.1798 26.1346 80.9007 25.5541C81.9528 25.3364 82.1342 25.409 82.4608 26.2797C82.6422 26.7876 82.8235 27.8034 82.8235 28.4927C82.8235 29.5086 82.6422 29.7988 81.9166 30.089C80.8645 30.4881 80.3928 31.3588 80.937 32.0118C81.1184 32.2295 81.3724 32.9188 81.5175 33.5356C81.6989 34.4425 81.4449 35.0956 80.03 37.236C79.0505 38.6509 78.1073 40.1021 77.8896 40.4649C77.5268 41.0454 77.3454 41.0816 76.1119 40.6826C75.3138 40.4649 74.6244 40.3198 74.5519 40.3924C74.4793 40.4649 74.697 41.0816 75.0598 41.771C75.9668 43.4398 76.2207 49.3534 75.4951 50.478C75.0961 51.0948 74.8784 52.9087 74.7333 56.9357C74.5882 60.7451 74.2979 63.5386 73.79 65.5339C72.9193 69.0167 70.3435 74.64 68.457 77.107C67.7314 78.0503 66.8244 79.5014 66.4616 80.2996C66.1351 81.0977 65.4458 82.041 64.9742 82.3675C64.1397 83.0205 64.1397 83.093 64.176 90.0224C64.0596 96.5437 64.3013 96.7245 64.7202 97.9142C65.1391 99.1039 62.4241 100.19 62.3898 98.7073C62.3844 98.473 62.4709 98.1127 62.4709 98.1127C62.4901 97.9925 62.5094 97.8812 62.5277 97.7753C62.6475 97.0821 62.7275 96.6192 62.5072 95.3918C62.1807 93.3601 62.1807 92.3443 62.5435 90.5303C62.9062 88.6438 62.9063 87.8819 62.4709 86.1405C62.1807 84.9796 61.7816 83.9638 61.5639 83.8912C60.9834 83.7098 59.7862 85.1973 58.2988 88.0996C57.029 90.5303 56.8839 91.1108 56.7388 94.0131C56.65 96.3431 56.602 96.9901 56.8603 97.4732C57.0243 97.78 57.3118 98.0208 57.7909 98.5843C58.2699 99.1479 57.5998 99.4306 57.1743 99.5004C56.7179 99.5752 56.8929 100.254 56.3812 99.897C56.1234 99.7172 55.9846 99.5004 55.9846 99.5004C55.9846 99.5004 55.4043 99.3771 55.1915 99.1039C55.0861 98.9684 55.1293 98.8223 55.0018 98.7073C54.7775 98.5048 54.1407 99.5359 54.2279 98.7073C54.3151 97.8787 54.3989 96.6961 54.4895 95.2104C54.5429 94.4446 54.5919 93.8711 54.6302 93.424C54.7478 92.0494 54.7632 91.869 54.4895 90.9656C54.1629 90.0224 53.7276 89.3694 53.3648 89.2968C52.5667 89.1517 52.5304 90.2764 53.0746 95.2104C53.2499 96.7568 53.399 97.9109 53.5288 98.7073C53.6585 99.5037 52.371 99.0884 51.8261 98.7073C51.0989 98.1986 51.6234 96.4439 51.6234 96.4439C51.5319 95.6203 51.4837 94.7823 51.4241 93.748C51.3893 93.142 51.3505 92.4686 51.2969 91.6912C50.9704 87.628 50.535 86.3219 49.5192 86.3219C48.3583 86.3219 48.1769 86.9386 48.3583 90.1312C48.5397 93.5415 48.1769 94.4847 47.0522 93.5415C46.6531 93.215 46.5443 92.7433 46.7257 91.9815C47.0159 90.6029 47.0159 89.1517 46.7257 87.1564C46.5443 85.814 46.2178 85.4149 44.295 83.8912C43.0978 82.948 41.1024 81.2066 39.8689 80.0819C38.6717 78.9572 37.0754 77.5423 36.3861 76.9982C35.8272 76.5569 34.5529 75.4003 33.2785 74.2436C32.9811 73.9736 32.6837 73.7037 32.3954 73.4428C30.9079 72.0279 28.7675 70.1414 27.6791 69.1981C24.7405 66.7674 23.9061 65.026 21.8019 56.7543C21.6205 55.9562 21.2939 55.0492 21.1126 54.759C20.9963 54.573 20.7162 54.1039 20.3867 53.5522C20.2021 53.2431 20.0019 52.908 19.8065 52.5822C19.1898 51.6027 18.6818 50.1152 18.5004 48.7729C18.3553 47.5757 18.1377 46.0157 18.0288 45.2901C17.8111 43.9115 18.8632 39.4128 19.9516 36.9821C20.7135 35.3495 23.8698 31.1048 27.28 27.1867C30.4363 23.5588 31.8512 20.7653 32.4317 17.0648C33.0847 12.7476 32.7582 9.48241 31.5247 7.59589ZM37.4382 4.69356C37.2205 4.69356 37.148 4.36704 37.2931 3.93169C37.4382 3.46006 37.2931 2.95215 36.894 2.48052C35.9145 1.39214 34.6447 1.60982 33.0847 3.2061C32.2866 3.96797 31.6698 4.87495 31.6698 5.16519C31.6698 6.07217 33.1935 7.30565 34.1368 7.12426C34.9712 6.97914 35.2615 7.4145 34.4996 7.70473C34.2094 7.81357 34.2819 7.9224 34.681 7.9224C35.4066 7.95868 35.5154 8.53915 34.8624 8.7931C34.4996 8.93822 34.4996 9.01078 34.8624 9.01078C35.0801 9.04706 35.2977 9.22846 35.2977 9.44614C35.2977 9.66381 34.9712 9.73637 34.5359 9.59125C33.9917 9.40985 33.8466 9.44613 33.9917 9.73636C34.1368 9.95404 34.4996 10.1354 34.7898 10.1354C35.0801 10.1354 35.2977 10.2806 35.2977 10.4982C35.2977 10.6796 35.0438 10.861 34.7173 10.861C34.427 10.861 34.2819 11.0061 34.3908 11.2238C34.4996 11.4052 34.8987 11.5866 35.2615 11.5866C35.8419 11.5866 35.9145 11.3327 35.8419 9.66381C35.7694 8.64799 35.8056 8.14008 35.9145 8.61171C36.0233 9.26474 36.2047 9.37357 36.5675 9.04706C36.9303 8.72054 37.1117 8.90194 37.2931 9.73636C37.5471 10.9336 37.2205 12.421 36.7852 12.1308C36.6038 12.0582 36.5675 12.3848 36.6763 12.9289L36.6837 12.9643C36.8578 13.8005 36.8632 13.8265 37.2568 13.1466C37.4745 12.7475 37.9098 12.4936 38.2001 12.6024C38.4903 12.7113 38.6354 12.6387 38.4903 12.4936C38.3815 12.3848 38.4903 11.4415 38.7805 10.4257C39.1071 9.44613 39.2522 8.35775 39.1433 8.06752C38.9982 7.741 39.1071 7.59589 39.361 7.70473C39.6875 7.77729 39.7964 8.46659 39.7238 9.80892C39.6512 11.3689 39.7238 11.6229 40.0503 11.115C40.268 10.7522 40.3406 10.0266 40.2317 9.48241L40.014 8.50288L40.5582 9.40986C41.6103 11.1875 41.0661 9.33729 39.8326 6.8703C38.6354 4.51215 37.8373 3.46005 37.8373 4.29448C37.8373 4.51215 37.6559 4.69356 37.4382 4.69356ZM75.7491 6.50751C75.8942 5.60053 76.0393 4.54844 76.0756 4.14936C76.0756 3.75029 75.8579 3.38749 75.4951 3.31494C75.0235 3.2061 74.8421 3.64146 74.6244 5.6731C74.2254 9.5187 73.8989 10.861 73.3909 10.861C73.2458 10.861 73.2095 11.2601 73.3184 11.768C73.6086 13.3643 72.7742 12.7475 72.3388 11.0424C72.1212 10.1354 71.7584 9.40986 71.577 9.40986C71.0691 9.40986 71.1054 9.88148 71.6495 10.4257C71.9761 10.7522 71.9761 10.861 71.6495 10.861C71.4319 10.861 71.323 11.0787 71.4319 11.3689C71.5407 11.6592 71.2142 12.2759 70.7063 12.7838C70.1984 13.2917 69.9081 13.7634 70.017 13.8722C70.1258 14.0173 69.9807 14.3438 69.6542 14.6341C69.364 14.9243 69.0012 15.0694 68.8923 14.9243C68.7472 14.8155 68.7472 14.9606 68.856 15.2871C69.2188 16.2304 68.7109 16.7745 68.0216 16.2304C67.5137 15.8313 67.5137 15.9038 68.0579 16.5206C68.8923 17.5364 68.4207 17.8992 67.2598 17.0648C65.5909 15.9038 65.1918 15.8313 66.2439 16.8108C67.4411 18.008 67.4774 18.4797 66.4253 18.4797C65.8086 18.4797 65.736 18.3708 66.0625 18.1532C66.4253 17.9355 66.3165 17.7904 65.6272 17.609C65.083 17.4638 64.7565 17.2099 64.8653 17.0285C64.9742 16.8471 63.8858 16.7383 62.3258 16.7745C60.2579 16.8471 59.7137 16.9559 60.1127 17.2462C60.5481 17.5727 60.4393 17.6452 59.6048 17.6452C58.7704 17.6452 58.4802 17.4276 58.1899 16.5932C57.9723 15.9764 57.9723 15.5773 58.1899 15.5773C58.3713 15.5773 58.5165 15.7587 58.5165 15.9764C58.5165 16.1578 58.6979 16.2304 58.8792 16.1215C59.0969 16.0127 59.242 15.6136 59.242 15.2871C59.242 14.9243 59.6411 14.0536 60.149 13.328C60.6932 12.5299 60.9109 11.9131 60.6932 11.768C60.4755 11.6592 60.3304 11.3689 60.3304 11.1513C60.3304 10.8973 60.5118 10.9336 60.8746 11.2238C61.4914 11.7317 62.1807 11.4052 61.8904 10.6796C61.7453 10.2806 61.8542 10.208 62.3258 10.3894C62.87 10.5708 62.9425 10.462 62.7611 9.80892C62.616 9.19218 62.6886 9.04707 63.0876 9.19218C63.3779 9.30102 63.5956 9.1559 63.5956 8.86566C63.5956 8.24892 64.9016 7.45078 65.4095 7.77729C65.6272 7.88613 65.7723 7.70472 65.8086 7.34193C65.8086 6.76146 65.8449 6.76147 66.1351 7.41449C66.4253 8.1038 66.4616 8.1038 66.4616 7.34193C66.4979 6.90658 66.3165 6.43496 66.0988 6.32612C65.6272 5.99961 62.5072 7.16054 62.5072 7.63217C62.5072 7.84984 62.3621 7.88613 62.1444 7.77729C61.963 7.66845 61.7816 7.81356 61.7816 8.1038C61.7816 8.46659 61.5639 8.57543 61.2374 8.4666C60.8383 8.2852 60.7658 8.39403 60.9109 8.82938C61.056 9.19218 60.9834 9.40985 60.7658 9.33729C60.2579 9.19218 58.1899 11.5503 57.936 12.5299C57.8271 13.0015 57.5006 13.4368 57.1741 13.5457C56.8839 13.6545 56.7751 13.9085 56.8839 14.1262C56.9927 14.3076 56.9202 14.4889 56.7388 14.4889C56.5211 14.4889 56.3397 14.7066 56.3397 14.9969C56.3397 15.2871 56.0495 15.6136 55.723 15.7224C55.1788 15.9401 55.1788 16.0127 55.6141 16.3392C56.0132 16.6294 55.9769 16.6657 55.3602 16.4843C54.8523 16.3392 54.5257 16.4117 54.5257 16.6294C54.5257 16.8471 54.7071 17.0285 54.8885 17.0285C55.1062 17.0285 55.2513 17.2099 55.2513 17.4276C55.2513 17.7178 55.1062 17.7178 54.7071 17.3913C53.8364 16.6657 51.696 17.6452 50.0271 19.4592C49.1927 20.3662 48.5397 21.2006 48.5397 21.3457C48.5397 21.7085 46.4717 24.3206 46.2904 24.1392C46.0727 23.9216 46.7983 22.5792 48.068 20.8378L49.1564 19.3867L47.6327 20.9829C46.2178 22.5067 43.642 26.6788 43.642 27.4044C43.642 27.5858 44.1499 27.1504 44.7666 26.4611L45.855 25.1913L44.8029 27.0053C43.6057 29.1458 42.8438 31.1411 43.0978 31.5765C43.2066 31.7216 42.9527 32.8462 42.5536 34.0435C42.082 35.4946 41.9368 36.4742 42.1182 37.0184C42.3722 37.7077 42.481 37.49 42.8075 35.8574C43.2792 33.6081 44.5127 30.1616 45.202 29.2183C45.6373 28.6379 45.6736 28.6379 45.6736 29.3272C45.6736 29.7262 45.4922 29.9439 45.3108 29.8351C45.1294 29.7262 45.0931 29.7988 45.2383 30.0165C45.3471 30.2341 45.1294 30.9234 44.7666 31.6128C44.0048 32.8825 42.5899 37.6351 42.5173 39.1588C42.481 39.8844 42.4085 39.8119 42.2271 38.796L41.9731 37.5263L41.6829 39.3403C41.5378 40.3198 41.2838 41.4807 41.1024 41.8798C40.5945 43.0407 40.7033 41.7709 41.2838 39.1951C41.6103 37.9253 41.7554 36.8007 41.6829 36.6919C41.5378 36.5467 41.175 37.6714 40.0503 41.6984C39.8689 42.4603 39.6875 42.6779 39.6875 42.2063C39.6512 41.8072 39.9052 40.61 40.2317 39.5579C40.5219 38.5058 40.7033 37.5625 40.6308 37.49C40.3768 37.236 39.3247 40.0658 39.0708 41.6984C38.9257 42.4965 38.6717 43.1496 38.4903 43.1496C38.3089 43.1496 38.2726 42.7868 38.3815 42.3152C38.9257 40.4286 38.9619 40.2472 38.7805 40.2472C38.6717 40.2472 38.0912 41.3356 37.4745 42.678C36.8577 43.984 36.2773 44.9999 36.1684 44.8548C36.0596 44.7459 36.1322 44.3105 36.3861 43.9115C36.6038 43.4761 36.6763 43.1496 36.6038 43.1496C36.495 43.1496 36.0959 43.7664 35.6968 44.5645C34.7898 46.2696 35.0075 48.265 36.241 49.9338C37.1843 51.2036 37.2931 51.4939 36.7489 51.4939C36.5675 51.4939 36.1684 51.0585 35.8782 50.478C35.1526 49.172 35.1526 49.7525 35.8419 51.1311C36.3861 52.2194 37.1117 52.5822 37.1117 51.8204C37.1117 51.6027 37.4382 51.5301 37.8736 51.6752C38.454 51.8566 38.5629 51.8204 38.3815 51.4939C38.2001 51.1673 38.3452 51.1311 38.9619 51.3125L39.8326 51.5301L38.9257 50.8046C37.7284 49.825 38.1638 49.8613 39.9052 50.8408C40.8847 51.4213 41.1387 51.4939 40.8122 51.0585C40.3768 50.5506 40.4494 50.478 41.175 50.6594C41.5732 50.7633 41.7813 50.8176 41.8153 50.7632C41.8524 50.7036 41.6805 50.5136 41.3201 50.1152C40.4494 49.0994 41.2113 49.0631 42.2271 50.079C42.6987 50.5506 43.2066 50.732 43.5694 50.5869C44.1136 50.3692 44.0773 50.2604 43.388 49.7887C42.9164 49.4622 42.5536 49.0631 42.5536 48.8455C42.5536 48.5915 42.6987 48.5915 42.9889 48.8817C43.2429 49.1357 43.7871 49.3171 44.2587 49.3171C45.601 49.3171 46.4355 46.9952 45.202 46.6687C44.7303 46.5599 44.8029 46.4873 45.4196 46.451C46.2904 46.4148 46.2904 46.3785 45.6373 45.9069C44.9843 45.4352 45.0206 45.3989 45.8913 45.3989C46.4355 45.3989 46.7983 45.5803 46.7257 45.8343C46.6894 45.9431 46.6169 46.2334 46.5216 46.6144C46.4264 46.9953 46.3085 47.4669 46.1815 47.9385C45.855 49.2445 45.4196 49.8613 44.4038 50.5506C43.2066 51.385 38.708 52.5822 36.9303 52.5822C35.7331 52.546 34.8624 51.639 34.1731 49.6073C33.7377 48.3376 33.3024 47.6483 32.867 47.5757C32.2503 47.4669 32.2503 47.5031 32.867 47.8659C33.1935 48.0836 33.4838 48.519 33.4838 48.8092C33.4838 49.0994 33.3387 49.2808 33.1573 49.172C32.9759 49.0269 32.9033 49.2808 33.0121 49.6799C33.121 50.079 33.3749 50.4055 33.6289 50.4055C33.8466 50.4055 33.8466 50.5506 33.5201 50.732C33.1935 50.9497 33.1573 51.1311 33.4475 51.2762C33.6652 51.4213 33.8466 51.7115 33.8466 51.8929C33.8466 52.1106 33.3024 51.8204 32.6131 51.3125C31.3796 50.3692 31.3433 50.3692 30.654 51.0585C30.2549 51.4576 29.747 51.8204 29.4568 51.9292C29.1665 52.038 29.094 52.2557 29.3117 52.6185C29.4931 52.9088 29.6745 53.9971 29.7107 55.0492C29.747 56.1013 30.0372 57.3348 30.3638 57.8427C30.6903 58.3506 30.7991 58.7497 30.5814 58.7497C30.3638 58.7497 30.001 58.3144 29.7833 57.7339C29.4568 56.9357 29.3479 56.8632 29.2391 57.4074C29.1303 57.7702 29.2391 58.2781 29.4568 58.4958C29.6745 58.786 29.6745 59.1488 29.4931 59.4753C28.9489 60.3097 29.0577 64.3367 29.6382 65.679C30.1461 66.84 30.1461 66.8037 30.0372 64.373C29.9647 62.9581 29.9647 62.3051 30.0735 62.9218C30.5089 65.8242 31.7786 70.7219 32.0689 70.7219C32.2866 70.7219 32.3228 70.3953 32.1777 69.8874C31.3433 67.3116 31.0893 65.28 31.6335 65.28C31.8149 65.28 32.0326 66.0781 32.1052 67.0939C32.214 68.0735 32.5042 69.1618 32.7945 69.4884C33.2298 70.0325 33.3024 69.9963 33.5201 69.3795C33.7377 68.8353 33.8103 68.9079 33.8103 69.6698C33.8466 70.2139 34.1005 70.8307 34.3908 71.0846C34.681 71.3386 34.9349 71.9191 34.9349 72.3907C34.9349 72.826 35.1163 73.334 35.334 73.4428C35.588 73.6242 35.6243 73.2251 35.5154 72.2819L35.2977 70.9033L35.7331 72.0642C35.9508 72.7172 36.2773 73.2614 36.4224 73.2614C36.6038 73.2614 36.7489 73.5154 36.7489 73.8056C36.7489 74.0958 36.894 74.3498 37.1117 74.3498C37.2931 74.3498 37.6922 74.7851 37.9824 75.3293C38.6354 76.5265 38.6717 76.4177 38.2364 74.8214C38.0187 74.0958 38.0187 73.5516 38.2364 73.4428C38.4178 73.2977 38.5629 73.5879 38.5629 74.0595C38.5991 74.5312 38.8531 75.3656 39.1433 75.9823C39.4336 76.5628 39.5787 76.7805 39.4698 76.4177C38.8531 74.2409 39.0345 74.1321 39.8326 76.1637C40.3406 77.4698 41.0299 78.7758 41.3564 79.0661C41.8643 79.574 41.8643 79.5014 41.3564 78.5219C41.0661 77.9051 40.7396 76.7079 40.5945 75.8009L40.3768 74.1684L40.9573 75.9823C41.2838 76.9619 41.6829 77.9414 41.9006 78.1591C42.1908 78.4131 42.2271 78.3042 42.0094 77.7963C41.8643 77.3972 41.6829 76.6716 41.6103 76.1637C41.5378 75.6558 41.7192 75.9823 42.0457 76.8893C42.4085 77.7963 42.7713 78.5945 42.8801 78.7033C42.9889 78.8121 43.2792 79.1749 43.4606 79.574C43.6782 79.9368 44.0048 80.227 44.1499 80.1545C44.3313 80.1182 44.6215 80.2996 44.7666 80.5898C45.3108 81.4242 45.0931 80.3721 44.5127 79.4289L43.9685 78.5219L44.1862 79.4289C44.3313 80.1545 44.2587 80.0819 43.6782 79.0661C43.2792 78.3768 42.9527 77.2884 42.9527 76.7079L42.9889 75.6196L43.2792 76.8168C43.6057 78.2317 44.0048 78.7396 44.0048 77.76C44.0048 77.3972 44.4038 77.8689 44.8755 78.8847C45.7099 80.6624 47.2336 82.5126 46.6894 81.0614C46.4717 80.5898 46.5443 80.481 46.8708 80.6986C47.2336 80.9163 47.2699 80.7712 47.0885 80.1182C46.9071 79.4289 46.9434 79.3563 47.2699 79.7917C47.4876 80.0819 47.8504 80.6624 48.068 81.0614C48.4308 81.7507 48.4308 81.7507 47.8141 81.2428C47.2336 80.7712 47.1611 80.7712 47.3424 81.2428C47.415 81.5331 47.7778 81.787 48.1043 81.787C48.4308 81.787 49.1927 82.2587 49.7732 82.8391C50.3899 83.4196 50.9704 83.8187 51.0792 83.7461C51.1518 83.6373 50.6076 82.9117 49.8094 82.1498C49.0113 81.3517 48.3583 80.5898 48.3583 80.4084C48.3583 80.1907 48.6848 80.481 49.0839 80.9889C49.4829 81.4968 50.4262 82.2949 51.188 82.7303C51.9136 83.2019 52.6029 83.6735 52.7118 83.7824C52.9295 84.0726 55.2513 84.8708 55.2513 84.6894C55.2513 84.5805 54.3806 84.0363 53.3285 83.4196C51.0067 82.1135 49.628 80.7349 49.9183 80.0093C50.0997 79.574 50.4262 79.6103 51.8774 80.3721C53.9453 81.4242 54.2718 81.4605 54.0178 80.5898C53.8364 80.0456 53.9815 79.9731 55.3602 80.1182C56.8113 80.2633 56.8476 80.2996 55.7955 80.5173L54.7071 80.7712L55.7592 81.2066C57.3918 81.8596 56.4485 82.5489 54.7071 81.9684C53.6188 81.6056 53.2922 81.6056 53.0383 82.0047C52.6029 82.694 53.002 83.0568 54.1629 83.0568C54.8523 83.0568 55.3602 83.3108 55.6141 83.7824C55.8318 84.1815 56.2671 84.508 56.6299 84.508C57.1741 84.508 57.1741 84.4354 56.7025 84.1452C56.2309 83.8549 56.2671 83.7824 56.8476 83.7824C57.2104 83.7824 58.3713 82.948 59.4597 81.8959C60.5118 80.88 61.8179 79.7554 62.3621 79.3926C62.9063 79.0298 63.5593 78.3768 63.8132 77.9051C64.0672 77.4335 64.4663 77.0707 64.7202 77.0707C64.9742 77.0707 65.4458 76.3451 65.7723 75.4382C66.0988 74.5312 66.5705 73.4065 66.8244 72.8986C67.2235 71.9916 67.2235 72.0279 67.0421 73.08C66.897 73.6605 66.5704 74.64 66.2802 75.2205L65.7723 76.3089L66.6067 75.5107C67.1146 75.0028 67.4774 74.2409 67.5137 73.6242C67.55 71.9553 68.6384 68.4725 69.0374 68.7265C69.2551 68.8716 69.4002 68.4363 69.4002 67.747C69.4002 67.0939 69.5816 66.2958 69.763 66.0056C69.9807 65.6428 69.8719 65.0986 69.3639 64.2279C68.9649 63.5749 68.7109 62.9218 68.8198 62.8493C68.8923 62.7404 69.2551 63.1758 69.5816 63.7925C69.9081 64.4455 70.3072 64.8446 70.4523 64.7358C71.1054 64.373 71.2142 62.1237 70.67 61.0716C70.3798 60.4911 70.1258 59.8381 70.1258 59.6204C70.1258 59.4027 69.8719 59.0037 69.5816 58.7497C69.2914 58.4958 69.0374 58.0967 69.0374 57.879C69.0374 57.6613 69.3639 57.879 69.763 58.3869C70.7426 59.6567 70.67 59.0037 69.6179 57.1897C69.1463 56.3553 68.5295 54.9404 68.3118 54.0334C67.9128 52.6548 67.8039 52.5097 67.55 53.1264C67.4049 53.5255 67.2598 54.2148 67.2598 54.6501C67.2235 55.0855 67.0421 55.5571 66.7881 55.7023C66.4979 55.8836 66.4616 55.5934 66.6067 54.6501C66.7881 53.4167 66.7519 53.3441 66.1714 53.6706C65.8086 53.852 65.3732 54.5776 65.2644 55.2669C65.1193 55.9562 64.8291 56.6818 64.5388 56.8995C64.2123 57.1897 64.2486 56.7181 64.7202 55.3757C65.5546 52.945 65.5909 51.5301 64.7565 53.4892C63.9221 55.4483 63.5956 55.8836 63.1965 55.666C62.7249 55.3395 62.7974 54.7227 63.269 54.8678C63.4867 54.9041 63.777 54.6864 63.8495 54.3962C63.9946 53.9246 63.9584 53.9246 63.6318 54.3962C63.3416 54.8315 63.2328 54.8315 63.2328 54.4325C63.2328 54.0697 63.1239 54.0334 62.7249 54.3599C62.3621 54.6864 62.1807 54.6501 62.0718 54.3236C61.8179 53.5618 61.709 46.9227 61.963 47.2129C62.0718 47.3217 62.1807 48.6278 62.2169 50.1152C62.2169 52.2194 62.2895 52.5822 62.5797 51.8566C63.0514 50.6594 63.269 44.5282 62.8337 44.8185C62.6523 44.9273 62.5072 45.2901 62.5072 45.6166C62.5072 46.1608 62.4346 46.1608 62.1444 45.6892C61.8541 45.2538 61.7816 45.2538 61.7816 45.8706C61.7816 46.4148 61.709 46.4873 61.4551 46.0883C61.2374 45.7617 61.056 45.7255 60.9109 46.0157C60.7658 46.2334 60.0402 46.4148 59.3146 46.451C58.1174 46.4873 58.0811 46.5236 58.8792 46.7776C59.6774 47.0315 59.6774 47.0678 59.0244 47.1041C58.6253 47.1403 57.9723 46.8864 57.5732 46.5962C57.2156 46.3138 57.0435 46.178 57.062 46.143C57.0792 46.1106 57.2603 46.1649 57.6095 46.2696L58.3351 46.4873L57.6095 45.8343L56.8839 45.2175L57.6095 45.5078C58.0085 45.6529 58.7341 45.8343 59.242 45.9069C60.0402 46.052 60.0765 46.0157 59.4234 45.7255C59.0244 45.5441 58.9155 45.3627 59.1695 45.3627C59.4234 45.3264 59.5686 45.1813 59.4597 45.0361C59.1332 44.5282 59.7862 43.9115 60.7658 43.8026C62.1081 43.6212 62.5072 43.1496 61.31 43.1496C60.7658 43.1496 60.3304 43.0045 60.3304 42.7868C60.3304 42.6054 60.5481 42.5328 60.8383 42.6417C61.2374 42.7868 61.31 42.6417 61.1648 42.0975C61.0197 41.5533 61.1286 41.3356 61.6002 41.3356C61.9993 41.3356 62.1444 41.1542 61.9993 40.7914C61.8541 40.3924 62.0718 40.2472 62.7974 40.211C63.3779 40.1747 63.523 40.1021 63.1602 39.9933C62.5797 39.8482 62.5797 39.7756 63.2328 39.05C63.6318 38.6509 63.9583 37.9253 63.9583 37.4537C63.9583 36.6193 65.1193 35.1681 65.7723 35.1681C65.99 35.1681 66.1351 34.6602 66.1351 34.0797C66.1351 33.3179 66.3165 32.9914 66.7881 32.9188C66.9616 32.9188 67.1761 32.8983 67.3771 32.8791C67.5544 32.8622 67.7212 32.8462 67.8402 32.8462C68.6746 32.7737 68.7472 32.3383 67.9853 31.903C67.55 31.6853 67.2235 31.2862 67.2235 30.996C67.2235 30.7058 67.0784 30.4518 66.8607 30.4518C66.6793 30.4518 66.4979 29.8713 66.4979 29.182C66.4979 27.8034 66.9695 27.5132 67.55 28.529C67.911 29.1426 67.9128 29.1098 67.9485 28.4663L67.9491 28.4565C67.9491 27.9123 68.0216 27.8397 68.2756 28.2025C68.4207 28.4927 68.6746 28.6741 68.8198 28.6741C69.5816 28.5653 69.763 28.7104 69.763 29.436C69.763 30.1253 69.8356 30.1616 70.1258 29.7262C70.3435 29.3997 70.4886 29.3634 70.4886 29.6174C70.4886 30.4881 69.6905 32.1207 68.7472 33.0639C68.2393 33.6444 67.9853 34.0797 68.203 34.0797C68.4207 34.0797 68.7835 33.8258 69.0374 33.5356C69.2914 33.209 69.7267 33.0276 69.9807 33.1365C70.2346 33.2453 70.4523 33.0639 70.4523 32.7011C70.4523 32.3746 70.5974 31.5039 70.8151 30.8146C71.1054 29.7988 71.1416 30.089 70.9602 32.2658C70.7788 34.8416 70.4886 36.1839 70.4886 34.5151C70.4886 34.0797 70.3072 33.7895 70.0533 33.8621C68.0942 34.4425 68.0942 34.4425 68.7835 34.9867C69.1825 35.277 69.6905 35.3858 69.9807 35.277C70.3072 35.1681 70.4886 35.3495 70.4886 35.7849C70.4886 36.5105 73.3184 38.4332 75.4951 39.1951C76.5472 39.5579 76.7649 39.5216 77.2003 38.9412C77.8533 38.0705 77.8896 37.49 77.3091 37.9616C76.7649 38.3244 76.4747 38.3244 75.2775 37.9253C74.5882 37.7077 74.443 37.4537 74.6244 36.6919L74.8421 35.7123L74.2979 36.6919C73.79 37.6351 73.0282 38.0705 73.0282 37.4174C73.0644 36.7281 74.044 34.4063 74.3342 34.4063C74.4793 34.4063 74.7333 34.6965 74.8784 35.0593C75.0961 35.6035 75.1686 35.5672 75.2049 34.8053C75.2775 34.2611 75.35 34.116 75.4589 34.4788C75.5677 34.8779 75.8942 35.023 76.4747 34.8779C77.4905 34.6965 77.6719 35.3858 76.9826 36.6919C76.7649 37.0909 76.6561 37.49 76.7649 37.5625C76.8375 37.6714 77.2003 37.1272 77.5631 36.4016C78.0347 35.4221 78.2524 35.2044 78.5063 35.5672C78.7603 35.9663 78.978 35.93 79.631 35.2407C80.4291 34.4425 80.4654 34.4063 79.8487 33.3179C79.4859 32.7011 79.1956 31.9393 79.1956 31.6128C79.1956 30.9234 80.8282 29.0006 81.3724 29.0006C81.5901 29.0006 81.7352 28.6741 81.7352 28.2751C81.7352 27.8397 81.4812 27.5495 81.1184 27.5495C80.538 27.5495 80.538 27.622 81.0096 27.9486C81.4449 28.2388 81.3361 28.3113 80.538 28.1662C79.8124 28.0574 79.5584 28.13 79.7035 28.4565C79.8849 28.9281 79.0505 29.0006 78.6152 28.529C77.9984 27.9123 77.7082 28.3476 78.2886 29.0006C78.978 29.7262 78.6152 30.0165 77.817 29.3634C77.6538 29.2365 77.5721 29.173 77.5631 29.182C77.554 29.1911 77.6175 29.2727 77.7445 29.436C78.2161 29.9802 78.2161 30.4518 77.7445 30.4518C77.5631 30.4518 77.164 29.9439 76.8375 29.3634C76.4384 28.6016 76.0031 28.2751 75.35 28.2751C74.8421 28.2751 73.7537 27.9485 72.883 27.5495C70.9965 26.7151 66.7156 25.9895 65.2281 26.2434C64.6476 26.3885 63.3416 26.8602 62.3621 27.3681C61.3825 27.876 60.3667 28.2751 60.149 28.2751C59.6774 28.2751 56.7025 30.7421 56.7025 31.1411C56.7025 31.2862 57.2104 31.6853 57.7909 32.0118C59.0244 32.7374 59.1695 32.5197 58.2625 31.3951C57.7909 30.8509 57.8997 30.8872 58.6253 31.5039C59.5323 32.3383 60.0402 33.6807 59.2783 33.1728C59.0606 33.0639 58.7341 33.2816 58.5527 33.6807C58.3351 34.0797 57.8997 34.6602 57.5369 34.9867C57.1741 35.3858 56.8476 36.5105 56.7025 38.0342L56.4485 40.4286L56.2309 36.8007L55.9769 38.4333C55.8318 39.3402 55.6867 39.7756 55.6867 39.4128C55.6504 39.05 55.469 38.8323 55.2876 38.9774C55.1062 39.0863 54.8523 38.796 54.7797 38.3607C54.7071 37.8891 54.5983 38.143 54.562 38.9774C54.5257 39.9933 54.2718 40.6463 53.7639 41.1179C53.1834 41.5896 53.1108 41.8435 53.4011 42.0612C53.7276 42.2426 53.6913 42.3877 53.2197 42.5691C52.6755 42.7868 52.6755 42.8956 53.4736 43.7663C54.3081 44.6733 54.3081 44.6734 53.5462 44.2743C52.5304 43.7664 52.2401 43.7664 52.5667 44.3106C52.7118 44.5645 52.5304 44.5282 52.2039 44.2017C51.8774 43.8752 51.5508 43.2584 51.5146 42.7868C51.4783 42.2789 51.0067 41.6984 50.3536 41.2993C49.7732 40.9003 49.5192 40.61 49.8094 40.61C50.6076 40.6463 52.095 41.9886 51.8048 42.424C51.696 42.6054 51.7685 42.7868 51.9499 42.7868C52.8206 42.7868 52.2764 41.6621 50.8978 40.5737C49.882 39.7393 49.5555 39.2677 49.8094 38.9774C49.9908 38.7235 50.0997 38.4695 50.0271 38.397C49.6643 38.0705 51.8411 38.1793 52.2764 38.5058C52.4941 38.7235 52.7118 38.7235 52.7118 38.5421C52.7118 38.3607 52.4941 37.9979 52.2764 37.7439C51.9136 37.3449 51.9136 37.2723 52.2764 37.49C52.5667 37.6714 52.7118 37.4174 52.7118 36.6556C52.7118 35.277 53.0746 34.4063 53.4736 34.6602C54.1267 35.023 53.3648 32.8462 52.4578 31.649C51.6234 30.4881 51.5508 30.4881 50.7164 31.0323C50.2085 31.3588 49.8094 31.4676 49.8094 31.25C49.8094 31.0323 50.1359 30.742 50.535 30.6332C50.9341 30.4881 51.188 30.2341 51.0792 30.0527C50.8978 29.7988 49.3378 30.5244 48.7211 31.1774C48.6122 31.2862 48.2494 31.3951 47.8866 31.4314C47.2699 31.4676 47.3062 31.3951 48.0318 30.5969C48.4671 30.1253 49.229 29.7262 49.7006 29.7262C50.3173 29.7262 50.4987 29.5811 50.3173 29.2546C50.1722 29.0369 50.5713 29.2909 51.1518 29.8351C52.2039 30.8146 52.3127 30.8509 52.6755 30.1979C52.9657 29.69 53.0746 29.6537 53.1108 30.089C53.1471 30.3793 53.1471 30.8509 53.1108 31.1411C52.9657 31.9755 53.4011 32.6286 53.9453 32.4109C54.3081 32.2658 54.4532 31.7579 54.3806 30.7783C54.2718 29.4723 53.8002 28.2751 53.8002 29.3272C53.8002 29.5811 53.655 29.6537 53.4374 29.5448C53.256 29.436 53.0746 29.1458 53.0746 28.9644C53.0746 28.7467 53.256 28.7104 53.4374 28.8193C54.0904 29.2183 53.8364 28.5653 52.8206 27.223L51.8774 25.9169L52.8569 26.8239C53.4011 27.3318 54.1267 28.3476 54.4169 29.0732C54.9974 30.5244 55.6141 30.8872 55.6141 29.7988C55.6504 29.4723 55.8681 28.783 56.122 28.3113C56.5937 27.4769 56.6299 27.4769 56.9927 28.1299C57.3555 28.7467 57.3918 28.7104 57.4281 27.7309C57.4281 26.1709 55.9043 23.1597 54.562 21.9988C53.909 21.4546 53.5462 21.0192 53.7276 21.0192C54.3081 21.0192 56.4123 23.2685 56.8839 24.3932C57.1016 24.9737 57.4644 25.3727 57.6095 25.3002C57.7909 25.2276 58.0811 25.7355 58.2262 26.4248C58.7341 28.2751 58.9518 27.5132 58.5165 25.5178C58.2988 24.5383 57.7909 23.2685 57.3918 22.7243C56.9564 22.1439 56.7388 21.5997 56.8476 21.4908C57.0653 21.2369 58.5165 23.5588 58.5165 24.2118C58.5165 24.4657 58.6979 24.5746 58.8792 24.4657C59.0969 24.3569 59.242 24.5746 59.242 24.9736C59.242 25.3727 59.3872 25.8081 59.6048 25.9169C60.1127 26.2434 59.6411 23.9941 58.843 22.3978C58.1537 21.0192 57.8997 20.076 58.4802 20.9467C58.6616 21.2369 59.0969 21.382 59.4597 21.3095C59.9676 21.2369 59.6411 20.9467 58.3713 20.2936C56.7388 19.5318 56.6299 19.4229 57.3192 19.0964C58.5527 18.5522 60.2216 20.2936 60.6932 22.6881C60.9109 23.7764 61.056 24.8648 60.9472 25.1188C60.8746 25.3364 60.6569 24.7923 60.5118 23.849C60.3667 22.8695 60.0402 22.0713 59.7137 21.9625C59.3146 21.7811 59.242 21.8899 59.4234 22.3615C59.4521 22.4572 59.4934 22.5958 59.5434 22.7632C59.6828 23.2308 59.8895 23.9239 60.0765 24.5383C60.5118 26.2434 60.9472 26.5337 61.2011 25.2639C61.31 24.8285 61.4551 24.1392 61.5276 23.7402C61.6365 23.3411 61.7453 23.6676 61.7816 24.4657C61.8179 25.6267 61.8904 25.7718 62.1444 25.1913C62.6886 23.8853 62.5435 22.2527 61.6365 20.5476C61.1286 19.4955 60.9834 18.9876 61.31 19.2778C62.0718 19.8946 62.5435 21.2369 62.87 23.5588L63.1239 25.5541L63.1965 23.2323C63.2328 20.2936 63.5593 20.5113 63.6318 23.4862C63.6681 24.7197 63.8132 25.7355 63.9946 25.7355C64.4663 25.7355 64.7928 23.3411 64.6114 21.3457C64.4663 20.1122 64.5388 19.6769 64.7565 20.0034C65.0104 20.3299 65.0467 20.2574 64.9379 19.6406C64.6477 18.4071 65.3007 19.0601 65.7723 20.5113C66.2439 21.8536 66.0263 23.0146 65.4095 22.6518C65.1918 22.5067 65.2281 22.8332 65.4821 23.3774C65.7723 23.9941 66.0263 24.1755 66.2802 23.9216C66.4616 23.7402 66.9332 23.5588 67.296 23.5588C68.0942 23.5588 68.6384 22.289 68.7109 20.3662C68.7835 19.0964 68.7835 19.0964 68.9649 20.1122C69.11 21.0555 69.1463 21.128 69.4002 20.475C69.6905 19.822 69.7267 19.8583 69.7267 20.6927C69.763 21.2369 69.4365 22.0713 69.0374 22.5792C68.1667 23.7039 68.0942 24.1755 68.9286 23.5225C69.3277 23.1597 69.4365 23.1597 69.2551 23.4499C68.9286 24.0304 69.11 24.0304 70.2709 23.5225C71.7584 22.8332 72.5565 19.0964 71.4319 18.1532C71.1416 17.8992 70.9965 17.4276 71.1054 17.0285C71.323 16.2304 74.5882 13.0378 75.2049 13.0378C75.4589 13.0378 76.0393 13.3643 76.5472 13.7634C78.1073 14.9969 78.3249 14.5615 76.8375 13.2192L75.4589 11.9494L76.2207 11.115C77.2365 10.0266 77.2365 9.6638 76.2207 9.95404C75.5314 10.1717 75.4589 10.1354 75.8579 9.73636C76.2207 9.33729 76.4384 9.3373 77.0189 9.70009C77.4179 9.95405 77.7445 9.99032 77.7445 9.80892C77.7445 9.59125 77.2365 9.1559 76.6198 8.7931C75.5677 8.17636 75.4951 8.06752 75.7491 6.50751ZM48.5759 13.6545C48.6848 13.328 48.3583 12.8564 47.7415 12.421C46.3629 11.4415 44.5489 11.115 44.041 11.7317C43.5331 12.3485 43.9322 14.4889 44.5489 14.4889C44.8029 14.4889 45.202 14.7429 45.4922 15.0694C45.8913 15.5773 45.855 15.6136 45.2383 15.5048C44.2587 15.3596 43.2792 14.1624 43.2792 13.1466C43.2792 12.421 43.1703 12.3485 42.5899 12.675C41.4289 13.2917 37.9098 16.7745 38.9257 16.2666L39.8326 15.8313L39.1071 16.5569C38.708 16.9559 38.2726 17.2462 38.1638 17.1736C37.5833 16.8471 35.5154 20.1122 35.8782 20.729C36.0233 20.9467 35.987 21.0192 35.7331 20.8741C35.5154 20.7653 35.1889 20.9467 34.9712 21.2732C34.7173 21.7448 34.7898 22.1076 35.2252 22.6518C35.8419 23.3774 35.8419 23.3774 35.0075 22.6881C33.8828 21.7448 33.1935 22.3615 33.774 23.8127C33.9917 24.3569 34.2456 25.4816 34.3908 26.2797L34.6447 27.7309L33.8466 26.8965C33.2661 26.2797 33.121 25.8081 33.3024 25.0099C33.4112 24.4295 33.3387 23.6313 33.121 23.196C32.7219 22.4704 32.6856 22.4704 31.8149 23.8127C31.307 24.5746 30.6177 25.409 30.2912 25.663C29.8558 25.9895 29.8196 26.2072 30.1461 26.5337C30.7628 27.1504 30.6903 27.7309 30.0372 27.1867C29.3842 26.6425 28.7312 27.0416 29.0214 27.8034C29.1665 28.2025 29.1303 28.3113 28.84 28.1299C28.4047 27.876 27.2437 29.0369 24.8493 32.1932L23.4344 34.116L24.16 35.5672C24.5591 36.3653 24.7768 37.0909 24.6679 37.1998C24.5591 37.3449 24.1963 36.8007 23.9061 36.0751C23.1442 34.3337 22.6726 34.6965 21.5479 37.8891C20.8949 39.703 20.7498 40.7551 20.8949 42.17C21.0037 43.3672 20.9674 43.8026 20.786 43.331C20.5321 42.7868 20.4595 42.9682 20.4595 44.1291C20.4232 45.0361 20.6046 45.6892 20.8223 45.6892C21.04 45.6892 21.1488 45.4352 21.0037 45.145C20.8949 44.8185 21.0037 44.6008 21.2939 44.6008C21.6205 44.6008 21.7293 44.2742 21.6567 43.5849C21.5116 42.6054 21.5116 42.6054 21.9107 43.6938C22.0921 44.2742 22.3098 45.145 22.3823 45.6166C22.5274 46.5599 22.7814 46.8864 23.507 46.9952C24.0874 47.0678 24.0149 46.451 23.253 43.9478C23.0716 43.2947 22.9628 42.6417 23.0716 42.5328C23.1805 42.424 23.4707 43.0408 23.7247 43.8752C24.1237 45.1812 24.2688 45.3264 24.5954 44.8185C24.8493 44.492 25.1395 44.3468 25.2484 44.492C25.3935 44.6008 25.5023 44.4194 25.5023 44.0566C25.5023 43.2222 26.0465 43.7301 26.373 44.7822C26.4819 45.1813 26.5182 44.891 26.4819 44.1291C26.4093 43.4036 26.5182 42.7868 26.6996 42.7868C26.881 42.7868 26.9535 42.17 26.8447 41.4082C26.6633 40.2835 26.6996 40.1747 27.0261 40.864C27.534 41.8798 28.187 41.9524 27.8605 40.9728C27.7517 40.61 27.5703 39.4854 27.4977 38.5058C27.3889 37.5263 27.1712 36.0388 26.9898 35.2044C26.8084 34.4063 26.8084 33.7169 26.9535 33.7169C27.3526 33.7169 28.0419 36.9095 28.0782 38.9049C28.1144 39.7393 28.2596 40.9003 28.441 41.517C28.6949 42.4603 28.7312 42.3877 28.6224 41.0454C28.5135 40.0658 28.6224 39.5942 28.84 39.7393C29.094 39.8844 29.1665 41.0454 29.0214 42.8231C28.9126 44.3831 28.9126 45.7255 29.0577 45.8343C29.5656 46.3422 30.1824 44.6007 30.1461 42.7868L30.1098 40.7914L29.6019 44.4194L29.5656 42.3152C29.5293 41.1905 29.6382 40.2472 29.8196 40.2472C30.001 40.2472 30.2186 40.0296 30.3275 39.7393C30.4363 39.4491 30.2912 39.2677 29.9284 39.304C29.4205 39.3403 29.2754 38.8686 29.1303 36.4379C28.84 32.1932 29.1303 32.2658 29.7833 36.6193L30.1824 38.9774L30.001 35.8937C29.8558 32.9188 29.8558 32.8462 30.4 34.0435C30.6903 34.6965 30.9442 35.6035 30.9442 36.0388C30.9442 36.6919 31.0168 36.7281 31.3433 36.2565C31.6698 35.8211 31.7061 35.8574 31.561 36.4379C31.4521 36.837 31.2707 37.49 31.1256 37.8891C30.8717 38.6147 30.9079 38.6147 31.4521 37.9253C31.9963 37.236 32.0326 37.3086 32.0326 38.8323C32.0326 39.703 32.3591 41.0816 32.7582 41.8798L33.4838 43.331L33.3024 42.0612C33.2573 41.7756 33.1873 41.3157 33.1053 40.777C32.9894 40.0152 32.8494 39.0956 32.7219 38.2881C32.5405 36.9458 32.4317 35.7486 32.5405 35.6397C32.6131 35.5309 32.7945 36.4379 32.9396 37.5988C33.0484 38.7598 33.3387 40.0296 33.5201 40.4286C33.8103 41.0454 33.8466 40.9728 33.6652 40.1384C33.4475 38.9775 33.8466 38.8686 34.5359 39.9207C34.8987 40.5737 35.0801 40.61 35.334 40.211C35.5154 39.9207 35.6605 39.1588 35.6605 38.5058C35.6605 37.8891 35.8419 37.3449 36.0233 37.3449C36.241 37.3449 36.3861 37.1635 36.3861 36.9821C36.3861 36.4742 35.4066 36.5467 35.1889 37.0546C35.1163 37.3086 35.1163 38.1067 35.1889 38.796L35.334 40.0658L34.7898 38.6147C34.1368 36.9458 34.028 35.5309 34.5721 35.5309C34.7898 35.5309 34.9349 35.2044 34.9349 34.769C34.9349 34.37 35.1163 34.1523 35.2977 34.2611C35.5154 34.37 35.7694 34.2611 35.8419 33.9709C36.0596 33.463 37.0029 33.3904 37.7647 33.8621C38.055 34.0435 38.2001 33.8621 38.2001 33.3904C38.2001 32.9551 38.454 32.6286 38.7443 32.6286C39.4336 32.6286 39.4336 32.1207 38.7805 31.5765C38.3815 31.25 38.2364 31.3225 38.0912 31.9393C37.9098 32.5923 37.7647 32.6648 37.3294 32.3021C36.9303 31.9755 36.7852 31.9755 36.6038 32.3383C36.495 32.5923 36.4224 32.3021 36.4224 31.7216C36.495 29.9802 36.3136 29.7988 36.0596 31.2862C35.7694 33.1365 35.2977 33.1365 34.7535 31.25C34.4996 30.4155 34.0642 29.4723 33.8466 29.182C33.5926 28.8918 33.4838 28.6379 33.6289 28.6379C33.7377 28.6379 34.2094 29.182 34.6084 29.7988L35.3703 30.996L35.1889 29.0006C35.0801 27.9123 34.8987 26.4248 34.7898 25.7355C34.6447 25.0462 34.6447 24.6834 34.7898 24.9374C34.8987 25.1913 35.4791 25.8444 36.0596 26.4248L37.1117 27.4769L36.9303 26.5337C36.7489 25.6267 36.7852 25.663 37.3657 26.7151C38.055 28.0937 39.2885 28.3476 39.2885 27.1504C39.2885 26.7151 39.1071 26.4611 38.8531 26.5699C38.5991 26.6425 38.0912 26.2797 37.7647 25.7718C36.8215 24.3569 36.9666 23.9216 37.9824 25.1913C38.8894 26.316 39.7601 26.2071 39.0345 25.0462C38.6717 24.4657 38.708 24.3932 39.2885 24.5383C39.7601 24.6834 40.014 25.1188 40.1229 26.062L40.268 27.3681L40.3043 26.0258C40.4131 24.2843 39.8326 22.7969 39.1796 23.0508C38.8894 23.1597 38.2001 22.7969 37.6196 22.2527C37.0391 21.7448 36.8577 21.4908 37.2205 21.7448C38.0912 22.3978 40.1592 22.6155 39.7964 22.035C39.6512 21.7811 39.6875 21.7448 39.9778 21.8899C40.1954 22.035 40.7396 22.035 41.1387 21.9262C41.8643 21.6722 41.8643 21.636 40.921 20.6564C40.3768 20.0759 40.014 19.4229 40.1229 19.1327C40.2317 18.8425 40.3406 18.8062 40.3406 19.0964C40.3768 19.3504 40.7759 19.4229 41.4652 19.3504C42.0457 19.2415 42.8075 19.3141 43.1703 19.4955C43.5331 19.6769 44.041 19.7494 44.3313 19.6406C44.6578 19.5318 44.5127 19.3141 43.7871 18.9876L42.735 18.4797L44.9117 18.8425L44.0048 18.2983C43.634 18.0844 43.409 17.9546 43.4244 17.867C43.4482 17.7317 44.0453 17.697 45.5648 17.609C47.4513 17.4638 48.3945 16.1215 46.8345 15.8313L46.0001 15.6862L46.8345 15.6136C47.3062 15.6136 47.5601 15.3959 47.4513 15.2145C47.3425 14.9969 47.4876 14.8517 47.7778 14.8517C48.1043 14.8517 48.3583 14.7066 48.3583 14.5252C48.3583 14.3438 48.4671 13.9448 48.5759 13.6545ZM34.3182 14.1262C34.2094 15.541 34.7535 15.0331 35.9508 12.5661C36.0233 12.421 35.9145 12.3122 35.6605 12.3122C35.4429 12.3122 35.3703 12.4936 35.5154 12.7113C35.6605 13.0015 35.4791 13.0378 34.8987 12.8564C34.2094 12.675 34.1368 12.7113 34.5721 13.0015C34.8624 13.2192 34.9349 13.4006 34.7535 13.4006C34.5359 13.4006 34.3545 13.7271 34.3182 14.1262ZM33.8466 16.0127C33.8466 16.5206 34.4996 16.3392 34.7173 15.7587C34.8261 15.4685 34.7898 15.2145 34.6084 15.2145C34.2456 15.2145 33.8466 15.6136 33.8466 16.0127ZM42.8075 20.6564C43.388 20.6564 43.388 20.6201 42.735 20.1485C41.9006 19.6043 40.6671 19.5318 40.8485 20.0397C40.921 20.2573 41.3564 20.6564 41.828 20.9829C42.3359 21.3457 42.5899 21.382 42.4085 21.0918C42.2271 20.8015 42.3722 20.6564 42.8075 20.6564ZM40.3406 23.196C40.5582 23.196 40.8122 23.0146 40.921 22.8332C41.0299 22.6155 40.8847 22.4704 40.5945 22.4704C40.268 22.4704 40.014 22.6155 40.014 22.8332C40.014 23.0146 40.1592 23.196 40.3406 23.196ZM66.1351 25.1913C66.3528 25.0825 66.4979 24.9011 66.4979 24.7923C66.4979 24.7197 66.3528 24.6471 66.1351 24.6471C65.9537 24.6471 65.7723 24.8285 65.7723 25.0462C65.7723 25.2276 65.9537 25.3002 66.1351 25.1913ZM35.6605 27.9123C35.9508 28.3476 36.0233 28.3476 36.0233 27.7309C36.0233 27.3318 35.8419 26.7513 35.6605 26.4611C35.3703 26.0257 35.2977 26.0257 35.2977 26.6425C35.2977 27.0416 35.4791 27.622 35.6605 27.9123ZM39.6512 29.182C39.8326 29.2909 40.014 29.1458 40.014 28.8555C40.014 28.2025 39.7964 28.0937 39.4698 28.6016C39.361 28.783 39.4336 29.0369 39.6512 29.182ZM56.3397 32.8825C56.0132 33.463 55.9769 33.4267 56.1583 32.7011C56.4123 31.7942 56.1583 31.6128 55.8318 32.4472C55.723 32.7374 55.723 33.209 55.8318 33.463C55.9044 33.7169 55.7592 34.6239 55.469 35.4584C54.7797 37.4174 55.0336 37.4174 55.9044 35.4221C56.2671 34.5877 56.8476 33.6807 57.1741 33.3904C57.5369 33.1365 57.7909 32.7737 57.7909 32.5923C57.7909 32.0118 56.7388 32.2295 56.3397 32.8825ZM56.3397 35.3495C56.3397 35.7486 57.029 35.1681 57.7909 34.0797C58.2262 33.463 58.4076 32.9914 58.1899 32.9914C57.8271 32.9914 56.3397 34.8779 56.3397 35.3495ZM67.1509 34.6239C67.2235 34.2249 67.4774 33.6807 67.6588 33.4267C68.1667 32.8463 67.8765 32.8825 67.0421 33.4993C66.5705 33.8258 66.4616 34.1886 66.6793 34.6602C66.9695 35.3132 66.9695 35.3132 67.1509 34.6239ZM37.1843 35.5309C37.4745 36.4742 38.2001 36.3291 38.2001 35.3858C38.2001 34.8779 38.1275 34.4425 38.0187 34.4425C37.9098 34.4425 37.8373 34.6965 37.8373 35.023C37.8373 35.3495 37.6559 35.4584 37.4382 35.3132C37.1843 35.1681 37.0754 35.277 37.1843 35.5309ZM75.4589 37.236C75.6765 37.0909 75.9305 36.6556 76.0393 36.2565C76.257 35.3495 76.0031 35.277 75.6765 36.1477C75.5677 36.5105 75.3863 36.9458 75.2775 37.1272C75.1686 37.3086 75.2775 37.3449 75.4589 37.236ZM71.9398 39.8844C71.9398 39.1589 70.7788 37.744 69.5816 36.9821C67.9128 35.93 67.8039 36.0751 69.2188 37.5988C70.9965 39.5579 70.8514 40.0658 68.856 39.0137C68.3119 38.7235 67.6225 38.5784 67.3686 38.6872C66.5704 38.9774 66.7881 38.2156 67.6951 37.5625C68.0859 37.2783 68.2853 37.1333 68.2722 37.1104C68.2584 37.0864 68.0137 37.1952 67.5137 37.4174C66.8244 37.6714 66.4979 38.1067 66.4979 38.6147C66.4979 39.0863 66.4253 39.8844 66.3528 40.4649C66.2802 41.0454 66.3165 41.263 66.3891 40.9728C66.4979 40.6826 66.8244 40.1021 67.0784 39.703C67.55 39.05 67.5863 39.0863 67.5863 40.1747C67.5863 40.7914 67.7677 41.3356 67.9491 41.3356C68.1667 41.3356 68.3118 41.0817 68.3118 40.7914C68.3118 40.5012 68.5658 40.2472 68.8923 40.2472C69.2914 40.2472 69.364 40.4649 69.2188 40.9365C69.0737 41.4082 69.2551 41.8072 69.7993 42.17C70.5249 42.6779 70.5612 42.8957 70.2346 44.7459C70.017 45.8706 70.017 46.7776 70.1984 46.7776C70.3435 46.7776 70.4886 46.3059 70.4886 45.6892C70.4886 44.891 70.6337 44.6734 71.0328 44.8185C71.3593 44.9636 71.577 44.8185 71.577 44.4557C71.577 44.1292 71.7584 43.8752 71.9398 43.8752C72.1575 43.8752 72.2663 44.0929 72.23 44.3106C72.1575 44.5645 72.3026 44.7459 72.5202 44.7096C72.7379 44.6734 73.137 45.2901 73.3909 46.052C74.044 48.0473 74.5882 47.8659 74.2616 45.7617C74.1165 44.8185 73.9714 43.8026 73.9351 43.4398C73.8989 43.1133 73.4635 42.2789 72.9193 41.5896C72.3751 40.864 71.9398 40.1021 71.9398 39.8844ZM51.2606 39.4491C51.2606 39.8844 51.9499 40.3924 52.2039 40.1384C52.2764 40.0658 52.1313 39.7756 51.8048 39.5217C51.4783 39.2314 51.2606 39.2314 51.2606 39.4491ZM19.8791 42.7142C19.9516 42.8231 20.133 42.6054 20.2781 42.2789C20.4232 41.9524 20.4232 41.5896 20.3144 41.4807C20.2419 41.3719 20.0605 41.5896 19.9153 41.9161C19.7702 42.2426 19.7702 42.6054 19.8791 42.7142ZM31.6698 42.424C31.6698 43.1133 31.7787 43.1859 32.1052 42.8593C32.4317 42.5328 32.4317 42.3151 32.1052 41.9886C31.7787 41.6621 31.6698 41.7347 31.6698 42.424ZM67.7314 43.5124C67.8039 43.5124 67.9491 43.1859 68.0579 42.7868C68.1667 42.3877 68.0942 42.0612 67.9128 42.0612C67.7314 42.0612 67.5863 42.3877 67.5863 42.7868C67.5863 43.1859 67.6588 43.5124 67.7314 43.5124ZM68.457 44.238C68.3481 44.891 68.3844 45.0361 68.6746 44.7459C68.9286 44.492 69.0374 43.7663 68.9286 43.1133C68.856 42.424 68.7472 42.2063 68.7109 42.6054C68.6892 42.8448 68.6282 43.2019 68.5673 43.5589C68.5266 43.7969 68.486 44.0349 68.457 44.238ZM30.654 44.4194C30.654 44.9999 30.7266 45.2175 30.8354 44.8548C30.9079 44.5282 30.9079 44.0203 30.8354 43.7663C30.7266 43.5487 30.654 43.8027 30.654 44.4194ZM32.6968 45.711C32.7614 45.4066 32.8424 45.0256 32.9396 44.7096C33.0847 44.1292 32.9759 43.8752 32.5768 43.8752C32.2503 43.8752 32.0326 44.2017 32.0326 44.7822C32.0326 45.2538 31.8149 45.798 31.5247 45.9431C30.9442 46.3059 29.7107 48.5915 30.001 48.8455C30.1098 48.9543 29.9647 49.3897 29.6745 49.825C29.0577 50.6957 28.9851 51.1311 29.4568 51.1311C29.7107 51.1311 30.5814 49.2083 30.7628 48.2287C30.9079 47.4669 31.4159 46.3785 31.561 46.5236C31.6335 46.6324 31.561 47.0678 31.307 47.4669C31.0893 47.9022 31.0531 48.2287 31.1982 48.2287C31.561 48.2287 32.5042 46.7776 32.6131 46.0883C32.637 45.9924 32.6649 45.861 32.6968 45.711ZM69.1826 45.9431C69.0012 46.451 69.0374 46.4873 69.3639 46.1971C69.6179 45.9431 69.763 45.4715 69.6542 45.1087C69.5453 44.7096 69.4728 44.6008 69.4365 44.8548C69.4365 45.0724 69.2914 45.5803 69.1826 45.9431ZM64.6477 46.1971C64.43 45.9431 64.3574 45.5441 64.5025 45.3264C64.6114 45.145 64.5751 44.9636 64.3937 44.9636C64.2123 44.9636 64.0309 46.451 63.9946 48.3013C63.9583 50.1515 63.9946 51.5664 64.1035 51.4576C64.5751 51.0222 65.0104 46.6324 64.6477 46.1971ZM28.187 47.1403C28.2596 47.1403 28.4047 46.8864 28.5498 46.5962C28.6586 46.3059 28.5861 46.052 28.4047 46.052C28.187 46.052 28.0419 46.3059 28.0419 46.5962C28.0419 46.8864 28.1144 47.1403 28.187 47.1403ZM25.974 47.2492C26.3005 47.358 26.6633 47.3217 26.8084 47.1041C27.1349 46.5599 26.881 46.451 26.0828 46.7776C25.4661 46.9952 25.4298 47.0315 25.974 47.2492ZM71.9761 47.358C71.9761 47.7571 72.0849 47.8659 72.1937 47.5757C72.3026 47.3217 72.2663 46.9952 72.1574 46.8864C72.0486 46.7413 71.9398 46.959 71.9761 47.358ZM66.5342 48.0836C66.5342 48.4827 66.643 48.5915 66.7518 48.3013C66.8607 48.0473 66.8244 47.7208 66.7156 47.612C66.6067 47.4669 66.4979 47.6845 66.5342 48.0836ZM67.9957 48.0294C67.9746 47.9015 67.9591 47.8072 67.9491 47.7571C67.9491 47.358 67.2235 47.4306 67.2235 47.8297C67.2235 48.0473 67.4049 48.3013 67.5863 48.4101C67.8039 48.519 67.9491 49.4985 67.9853 50.5143C67.9853 51.7841 68.0942 52.1832 68.2756 51.7115C68.4207 51.3125 68.4207 50.3329 68.2756 49.5348C68.1443 48.9307 68.051 48.3647 67.9957 48.0294ZM65.7723 49.8613C66.0263 50.478 66.0988 50.4055 66.0988 49.4259C66.1351 48.8092 65.99 48.1562 65.7723 48.0473C65.337 47.7934 65.337 48.8455 65.7723 49.8613ZM28.9851 49.6799C29.0577 49.6799 29.1303 49.4985 29.1303 49.3171C29.1303 49.0994 28.9489 48.9543 28.7312 48.9543C28.5498 48.9543 28.4772 49.0994 28.5861 49.3171C28.6949 49.4985 28.8763 49.6799 28.9851 49.6799ZM67.0058 51.8566C66.8244 52.546 66.8607 52.6548 67.1872 52.3646C67.4411 52.1106 67.5863 51.3125 67.4774 50.3692C67.4049 49.2808 67.3323 49.1357 67.296 49.8613C67.2598 50.4418 67.1146 51.3487 67.0058 51.8566ZM31.6698 49.6799C32.3954 50.1515 32.867 50.1515 32.5768 49.6799C32.468 49.4622 32.0689 49.3171 31.7424 49.3171C31.1982 49.3171 31.1982 49.3897 31.6698 49.6799ZM63.5593 52.2194C63.8495 52.6185 63.8858 52.4008 63.7044 51.3125C63.4142 49.3897 63.3779 49.3897 63.0876 51.1311C62.9425 51.9655 63.0151 52.8725 63.2328 53.2353C63.523 53.7069 63.5593 53.5981 63.3779 52.7636C63.2328 51.9292 63.269 51.8204 63.5593 52.2194ZM28.0056 51.4939C28.187 51.4939 28.441 51.2399 28.5498 50.9134C28.9126 50.0064 28.5135 49.8613 28.0419 50.732C27.8242 51.1673 27.7879 51.4939 28.0056 51.4939ZM72.0123 56.065C72.3751 56.3915 71.3593 52.0743 70.8877 51.2036C70.67 50.7683 70.3798 50.4055 70.2709 50.4055C70.0533 50.4055 70.1984 50.9134 71.2142 53.9608C71.5407 55.0129 71.9035 55.9562 72.0123 56.065ZM71.577 51.4939C71.7584 51.7841 71.9398 51.8566 71.9398 51.6752C71.9398 51.4576 71.7584 51.0585 71.577 50.7683C71.3956 50.478 71.2142 50.3692 71.2142 50.5869C71.2142 50.7683 71.3956 51.2036 71.577 51.4939ZM70.8514 54.3962C70.67 54.3962 70.4523 53.7432 70.3072 52.945C70.1621 52.1469 69.9081 51.385 69.7267 51.2762C69.5091 51.1673 69.4365 51.4213 69.5816 51.9292C69.6356 52.2533 69.7902 53.1001 69.9554 54.0056C70.0122 54.3165 70.0702 54.6344 70.1258 54.9404C70.3435 56.1376 70.7426 58.0967 71.0328 59.2939L71.577 61.4706L71.4319 59.6567C71.323 58.4232 71.3593 58.0967 71.577 58.5683C71.7584 58.9674 71.9035 59.8744 71.9035 60.5637C71.9398 61.253 72.1212 62.0874 72.3026 62.3776C72.5928 62.7404 72.6291 62.1962 72.4477 60.5637C72.3026 59.2576 72.0849 58.0241 71.9398 57.8427C71.7947 57.625 71.5407 56.7906 71.3956 55.9199C71.2505 55.0855 71.0328 54.3962 70.8514 54.3962ZM65.99 52.4008C65.6635 53.3441 65.736 53.5618 66.1714 52.8362C66.3891 52.4734 66.4979 52.0743 66.3891 52.0018C66.3165 51.8929 66.1351 52.0743 65.99 52.4008ZM69.2551 55.666C69.6905 56.7181 69.7267 56.6818 69.5453 54.759C69.3277 52.6548 68.7472 51.0585 68.6384 52.4008C68.5658 53.5981 68.7109 54.505 69.2551 55.666ZM27.3807 53.6442C27.4103 53.6677 27.5736 53.5226 27.8968 53.2353C28.2596 52.8725 28.441 52.5097 28.3321 52.3646C28.187 52.2557 27.8968 52.546 27.6791 53.0176C27.4592 53.4207 27.3504 53.6202 27.3807 53.6442ZM29.0577 56.319C29.2028 56.4278 29.3117 55.7023 29.3479 54.7227C29.3479 53.7432 29.3117 52.945 29.2754 52.945C28.8038 52.945 28.5861 56.065 29.0577 56.319ZM26.7721 55.412C26.8447 55.5209 27.0261 55.3032 27.1712 54.9767C27.3163 54.6502 27.3163 54.2874 27.2075 54.1785C27.1349 54.0697 26.9535 54.2874 26.8084 54.6139C26.6633 54.9404 26.6633 55.3032 26.7721 55.412ZM72.4114 56.8995C72.8105 56.9357 73.0282 56.6818 72.9919 56.1013C72.9919 55.666 72.8105 54.9767 72.6291 54.5776C72.3751 54.0334 72.3389 54.1785 72.484 55.1943C72.6291 56.065 72.5202 56.5729 72.23 56.6818C71.9398 56.7906 72.0123 56.8995 72.4114 56.8995ZM26.0102 59.7292C26.0828 59.8018 26.2642 59.2213 26.4093 58.3869C26.5544 57.5525 26.5907 56.8269 26.4819 56.7181C26.4093 56.6092 26.2279 57.226 26.0828 58.0604C25.9377 58.8948 25.9014 59.6567 26.0102 59.7292ZM28.0782 58.1692C28.0782 59.2576 28.0782 59.2576 28.441 58.4232C28.84 57.4437 28.7312 56.3553 28.3321 56.7906C28.1507 56.9357 28.0419 57.5525 28.0782 58.1692ZM27.0261 58.2418C27.1349 58.3506 27.3163 58.0967 27.4251 57.6613C27.534 57.2623 27.534 56.9357 27.4614 56.9357C27.2075 56.9357 26.8447 58.0241 27.0261 58.2418ZM27.3163 61.6158C27.3163 62.7767 27.4251 63.1395 27.7154 62.8493C27.8968 62.6679 28.0419 61.7972 27.9693 60.9265C27.8242 58.9674 27.3163 59.4753 27.3163 61.6158ZM28.5135 62.9218C28.5135 64.3004 28.5861 64.8446 28.6586 64.0828C28.7312 63.3572 28.7312 62.1962 28.6586 61.5432C28.5861 60.9265 28.5135 61.5069 28.5135 62.9218ZM26.5907 65.0986C26.8447 65.2437 26.881 64.9897 26.7358 64.3004C26.4093 62.9218 26.2279 62.7767 26.2279 63.9376C26.2279 64.4455 26.4093 64.9897 26.5907 65.0986ZM27.3163 64.7358C27.6065 65.4251 27.6428 65.4251 27.6428 64.6632C27.6791 64.2279 27.534 63.7562 27.3163 63.6474C26.881 63.3935 26.881 63.72 27.3163 64.7358ZM28.7675 67.6381C28.9489 67.747 29.1303 67.6018 29.1303 67.3116C29.1303 66.6586 28.9126 66.5497 28.5861 67.0576C28.4772 67.239 28.5498 67.493 28.7675 67.6381ZM30.8354 69.7423C30.9079 69.5246 30.7266 68.8353 30.4 68.2186C29.9284 67.239 29.4931 66.8037 29.4931 67.239C29.4931 67.7832 30.7266 70.0688 30.8354 69.7423ZM69.4002 71.0846C69.4002 71.7739 69.5091 71.8465 69.8356 71.52C70.1621 71.1935 70.1621 70.9758 69.8356 70.6493C69.5091 70.3228 69.4002 70.3953 69.4002 71.0846ZM34.028 72.7535C34.4996 73.4065 34.5359 73.4065 34.3182 72.6084C34.2094 72.173 33.9917 71.7014 33.8103 71.5926C33.3024 71.3023 33.4112 71.9553 34.028 72.7535ZM68.1667 72.8623C67.8402 73.334 68.1667 73.8781 68.5295 73.5154C68.6384 73.4065 68.6746 73.1163 68.6021 72.8623C68.457 72.4633 68.3844 72.4633 68.1667 72.8623ZM47.5601 93.1424C47.8141 93.215 47.9229 93.0699 47.7778 92.7071C47.669 92.3805 47.3787 92.1266 47.1973 92.1266C46.7257 92.1266 47.0159 92.961 47.5601 93.1424Z" fill="#0C0C0C"></path>
<path d="M39.6617 50.0093C38.3304 51.9558 38.2094 52.5837 38.1489 60.6837C38.1489 66.5233 37.8464 69.6 37.3623 70.2279C36.7572 70.9814 36.8782 71.5465 37.9674 73.0535C38.754 74.1209 39.6617 75 40.0852 75C41.3559 75 43.5343 71.2953 42.8687 70.4163C42.3241 69.7256 41.84 65.8326 42.0821 63.8233C42.0821 63.4465 42.9292 63.0698 43.9579 63.0698C45.7732 63.0698 45.7732 63.1326 45.7732 66.3977C45.7732 68.2186 45.4706 70.0395 45.047 70.4791C44.5025 71.0442 44.7445 71.6721 46.0757 73.1163L47.8305 75L49.6458 73.1791C51.098 71.6721 51.2796 71.107 50.6745 70.3535C49.9483 69.4744 49.5853 50.4488 50.3114 49.2558C50.4929 48.9419 50.3719 48.5651 50.0694 48.3767C49.7668 48.1884 48.6776 49.0047 47.649 50.1977C46.0757 52.0814 45.7732 52.9605 45.7732 55.5349C45.7732 58.3605 45.6521 58.6744 44.2604 59.0512C43.4133 59.3023 42.5661 59.3023 42.3846 59.114C42.1426 58.9256 42.0215 56.3512 41.961 53.4C41.961 50.4488 41.719 48 41.5375 48C41.3559 48 40.5088 48.9419 39.6617 50.0093ZM48.7987 60.5581C48.7987 61.2488 48.5566 61.814 48.2541 61.814C47.9515 61.814 47.8305 61.2488 48.012 60.5581C48.1936 59.8674 48.4356 59.3023 48.5566 59.3023C48.6776 59.3023 48.7987 59.8674 48.7987 60.5581ZM49.4038 72.1744C48.9802 72.6767 48.3751 73.1163 48.012 73.1163C47.649 73.1163 47.891 72.6767 48.5566 72.1744C50.0694 70.9814 50.3719 70.9814 49.4038 72.1744Z" fill="black"></path>
<path d="M55.0277 49.5411C53.8587 50.774 53.7357 51.2055 54.4125 52.0068C55.3969 53.1781 55.3354 68.5274 54.2894 70.3767C53.7972 71.3014 54.0433 71.9178 55.3354 73.274L56.9966 75L58.7193 73.089C60.0113 71.6096 60.319 70.8699 59.8883 70.0685C59.5807 69.5137 59.3346 67.9726 59.3346 66.6164C59.3346 64.5205 59.7652 63.7808 62.9646 60.5753C67.456 56.0753 67.9482 54.3493 65.6717 51.5753C62.78 48.1233 62.5954 48 59.4576 48C57.0581 48 56.1967 48.3082 55.0277 49.5411ZM61.488 52.9315L63.2722 54.7808L61.488 56.6301C60.5035 57.6164 59.6422 58.3562 59.4576 58.2329C58.9039 57.6781 58.6578 51.0822 59.15 51.0822C59.4576 51.0822 60.5035 51.8836 61.488 52.9315Z" fill="black"></path>
</svg>