<svg width="100" height="100" viewBox="0 0 100 100" fill="none" xmlns="http://www.w3.org/2000/svg">
<path d="M37.5892 2.68412C37.5892 2.96029 37.8654 4.16854 38.2106 5.41131C38.5904 6.65408 39.2808 9.58841 39.8331 11.9704C40.3509 14.3524 40.9378 16.4236 41.1104 16.6308C41.5592 17.0796 41.3866 16.2165 39.557 8.69085C38.3142 3.40907 37.5892 1.23422 37.5892 2.68412Z" fill="#0C0C0C"></path>
<path d="M61.2364 3.16741C60.5459 5.13513 60.3043 5.92912 59.1996 9.89909C56.4379 19.7377 54.7809 23.535 52.8131 24.5707C51.018 25.4682 50.8109 25.2956 50.5693 22.7411C50.1205 18.3568 48.9122 10.4169 48.567 9.89909C48.3254 9.48483 48.2908 9.55387 48.4289 10.0717C48.5325 10.4514 48.9467 13.3167 49.3265 16.4582C49.7062 19.5996 50.1205 22.8101 50.224 23.6041C50.3966 24.9159 50.3276 25.054 49.7753 24.8814C49.2229 24.7088 49.2229 24.7433 49.8098 25.2266C50.7764 26.0206 50.155 25.917 48.7741 25.0885C48.0492 24.6052 47.4623 23.8457 47.1171 22.9137C46.4957 21.2221 45.322 14.9392 44.9768 11.4525C44.8732 10.1062 44.6661 8.89796 44.597 8.75988C44.4935 8.58727 44.3554 7.51711 44.2864 6.34338C44.1828 5.20417 44.0792 4.20305 44.0102 4.13401C43.9411 4.06496 43.8031 6.61955 43.6995 9.79552C43.5269 15.0083 43.4233 15.9058 42.4912 18.5294C41.283 22.0851 40.6616 23.3279 39.695 24.191C39.1427 24.7088 39.0736 24.9159 39.3843 25.1576C39.6605 25.3302 39.4188 25.4337 38.7284 25.4337C37.4511 25.4337 35.8286 24.1564 34.3787 22.0851C33.4121 20.6352 30.892 13.9726 30.4778 11.7978C30.2361 10.4169 29.6493 9.65744 29.3041 10.2443C29.2005 10.4169 28.8898 9.72648 28.5791 8.72536L28.0613 6.89572L29.2695 6.93024C30.3742 6.96476 30.5123 6.8612 30.5123 6.10173C30.5123 4.928 28.9243 4.68635 28.1648 5.75651L27.647 6.51599L27.4054 5.75651C27.2673 5.34226 27.0947 5.10061 26.9911 5.16965C26.9221 5.27321 27.2328 6.48146 27.7161 7.8278C28.7517 10.624 28.6827 11.349 27.6125 9.31222C26.5423 7.24094 26.7495 8.51823 28.0958 11.7978C30.1671 16.976 32.8252 27.505 32.0312 27.505C31.8932 27.505 31.7206 27.3669 31.6515 27.1943C31.4444 26.5729 24.3675 17.839 24.0913 17.839C23.9187 17.839 25.6793 20.1865 27.9232 23.0863C30.2707 26.0896 32.0658 28.6442 32.0658 29.0585C32.0658 29.4727 31.8241 30.5774 31.5479 31.475C31.2718 32.4071 31.1337 33.2701 31.2373 33.4082C31.617 34.0296 30.098 36.2389 28.6481 37.171C27.8196 37.7579 26.9911 38.2067 26.8876 38.2067C26.7495 38.2067 25.9555 37.6888 25.127 37.0674C22.6414 35.1688 17.8084 31.9928 17.4287 31.9928C17.2216 31.9928 17.4632 32.2344 17.912 32.5797C23.0212 35.9973 26.1626 38.3793 25.921 38.6209C25.2996 39.2423 20.1214 39.3113 15.3919 38.69C11.7672 38.2412 10.5589 38.1721 10.2482 38.4828C9.93754 38.7935 10.3173 38.8971 11.9053 38.8971C14.0456 38.8971 15.9097 39.553 13.942 39.622C12.354 39.6566 13.2861 39.8637 16.3585 40.1053C19.0857 40.347 19.1548 40.3815 20.8118 42.0385C22.6069 43.8336 22.6414 44.0753 21.5022 46.768C21.0189 47.9417 21.0189 47.9417 19.2238 47.7346C17.981 47.5965 17.6013 47.631 18.0846 47.8381C18.4643 48.0107 19.1202 48.1833 19.569 48.1833C19.9833 48.2179 20.3285 48.2869 20.3285 48.3905C20.3285 48.494 19.9833 49.0809 19.569 49.6332C18.706 50.807 15.6336 52.8092 12.9409 53.9829C11.1803 54.7424 11.1803 55.0876 12.9409 54.4317C13.4587 54.2246 13.942 54.121 14.0111 54.2246C14.0801 54.2936 13.3206 54.6388 12.3195 54.9495C11.3184 55.2948 10.3518 55.6745 10.1792 55.8471C9.97206 56.0197 9.24711 56.1578 8.55668 56.1578C7.83173 56.1578 7.1413 56.2959 7.03774 56.503C6.76157 56.9863 8.00434 56.9173 10.6625 56.3304C13.6313 55.6745 17.3251 55.6745 18.5679 56.3304C19.3274 56.7101 20.3285 58.2981 20.3285 59.0921C20.3285 59.1612 19.5 59.4028 18.5334 59.6099C15.8752 60.2313 11.3184 61.6812 10.2137 62.2681C8.66024 63.0621 9.35067 63.1311 11.1113 62.3716C11.9743 61.9919 14.4253 61.2324 16.4966 60.6801L20.3285 59.679L20.363 60.4039C20.3975 60.8182 20.3975 61.3705 20.363 61.5777C20.3285 61.8193 20.4666 62.0264 20.6737 62.0264C21.226 62.0264 21.088 63.4763 20.363 64.6501C19.4655 66.1345 17.5323 67.9986 15.0812 69.8283C13.079 71.2782 12.6993 71.7615 14.1492 71.002C14.4944 70.7949 14.8051 70.7258 14.8051 70.7949C14.8051 70.8984 14.0801 71.3817 13.1826 71.8305C12.2505 72.3138 11.8017 72.6936 12.1124 72.7281C12.4231 72.7281 13.7349 72.1757 15.0122 71.4853C17.912 69.9318 20.7427 69.4831 22.9521 70.139C24.8853 70.7258 26.8876 72.2103 26.8876 73.0388C26.8876 73.4185 26.4388 74.5577 25.8864 75.6279C25.2996 76.698 24.9198 77.5611 25.0234 77.5611C25.2996 77.5611 24.1604 79.5288 23.1938 80.668C22.6759 81.2894 21.4332 82.325 20.4321 82.9809C19.3964 83.6368 18.6715 84.2928 18.775 84.4654C18.8786 84.638 18.4989 85.0177 17.9465 85.3284C17.3942 85.6046 16.8073 86.0188 16.6692 86.226C16.5311 86.4331 17.7049 85.9498 19.2238 85.1558C20.7773 84.3618 22.2962 83.7749 22.6414 83.844C23.0902 83.9475 22.8831 84.1547 21.8819 84.6034C19.7416 85.5355 12.7338 89.3674 12.7338 89.6091C12.7338 89.7471 15.461 88.4698 18.8095 86.7783C23.9532 84.1892 25.0234 83.7749 25.9555 83.9821L27.0256 84.1892L25.4722 85.6391C24.6437 86.3986 23.1938 87.7449 22.2962 88.5389C19.4309 91.128 20.7427 90.4376 23.9187 87.7104C25.5757 86.2605 27.0256 85.1903 27.1292 85.2939C27.5435 85.7081 26.8185 87.9175 25.8864 89.0912C24.8163 90.403 22.1236 92.0601 21.0189 92.0601C20.6737 92.0601 20.2594 92.2327 20.1559 92.4053C20.0178 92.6469 20.5701 92.6815 21.7784 92.5779C23.1592 92.4053 23.9187 92.5089 24.8163 92.9922C25.8864 93.5445 26.0245 93.7516 25.921 94.7873C25.8174 95.6158 25.921 95.892 26.2662 95.7884C26.5078 95.6848 26.784 95.3396 26.853 94.9599C27.0602 93.7171 27.578 93.4064 28.441 93.9933C29.3386 94.5801 29.6838 94.304 29.2695 93.2683C29.1314 92.8886 28.9934 92.716 28.9934 92.8541C28.9588 92.9922 28.6136 92.8195 28.1994 92.4398C27.8196 92.0601 27.3363 91.8184 27.1983 91.922C26.5423 92.3017 26.5769 91.2661 27.1983 90.4721C28.1303 89.2638 28.1303 88.677 27.1983 89.5055C26.5423 90.0924 26.5423 89.9543 27.4054 88.2627C27.9232 87.2271 28.4065 85.7427 28.4065 84.9487C28.441 84.1201 28.7862 83.0845 29.2695 82.4631C30.2016 81.1168 29.9254 81.0132 28.7862 82.2905C28.0268 83.1881 27.9577 83.2226 27.3363 82.6702C26.853 82.256 26.3697 82.1869 25.1615 82.3941C24.2985 82.5322 23.2973 82.7738 22.9176 82.9119C22.5379 83.05 23.1592 82.2215 24.333 81.0823C27.7161 77.6646 29.235 74.2125 28.441 71.6579C28.2339 71.0365 25.0924 69.2759 24.1258 69.2759C23.8497 69.2759 23.1592 68.8962 22.6414 68.4129C21.7439 67.5499 21.2606 67.6534 22.1236 68.5165C22.4343 68.8272 22.4343 68.9307 22.1236 68.9307C21.8819 68.9307 21.6058 68.6891 21.5022 68.4129C21.3641 68.1367 20.9153 67.8951 20.4321 67.8951C19.7416 67.8951 19.6035 68.0332 19.7416 68.5855C19.8797 69.1033 19.7416 69.2759 19.2928 69.2759C18.9476 69.2759 18.3608 69.3795 18.0156 69.5176C17.6703 69.6557 18.2227 68.8617 19.2238 67.7225C21.226 65.5476 23.4354 61.6122 22.7795 61.405C22.1581 61.1979 22.3307 59.3338 23.0212 59.1266C25.2996 58.5052 25.8519 58.5052 25.8519 59.1957C25.8519 59.5754 25.9555 60.1968 26.0936 60.542C26.3007 61.0253 26.4043 60.8182 26.5423 59.8171C26.6459 59.0576 26.9221 58.4017 27.1637 58.2981C27.4744 58.1946 27.578 58.8159 27.578 60.6111C27.578 62.061 27.7506 63.1311 27.9922 63.2692C28.2684 63.4418 28.3029 63.2692 28.1648 62.6823C28.0268 62.2336 27.9232 60.9563 27.9232 59.8516C27.9232 58.091 27.8542 57.8839 27.1983 57.8839C26.5769 57.8839 26.4733 57.7113 26.6114 56.8482C26.715 56.2614 26.6459 55.8126 26.4733 55.8126C26.3352 55.8126 26.1971 56.1578 26.1971 56.572C26.1971 57.7803 25.8174 58.091 23.8842 58.4707C22.0891 58.8159 22.0891 58.8159 21.7439 57.8493C21.5713 57.3315 21.088 56.6066 20.7082 56.2959C20.3285 55.9507 20.0868 55.5709 20.1904 55.3983C20.4321 55.0531 19.569 53.0509 19.2238 53.0509C18.8095 53.0509 18.9131 53.5342 19.5 54.3627C19.8107 54.8115 19.9833 55.1912 19.9488 55.2257C19.8797 55.2948 18.5334 55.2257 16.9799 55.1221L14.1146 54.9495L16.6347 53.6722C18.0156 52.9473 20.0178 51.5664 21.1225 50.5998L23.0902 48.8738L24.8853 49.4261C25.8864 49.7368 26.8876 50.0475 27.0947 50.1511C27.3363 50.2546 27.578 49.7713 27.6815 49.0119C27.7851 48.2869 27.9922 47.3203 28.0958 46.837L28.3029 45.974L27.7851 46.837C27.5089 47.3203 27.2673 48.0107 27.2328 48.425C27.2328 49.4952 27.0256 49.5642 25.2305 48.9773C23.2628 48.3214 23.1938 48.3214 23.7116 47.8036C24.333 47.1822 24.2294 44.3515 23.539 43.3849C23.2283 42.9016 22.6069 42.1076 22.1236 41.5552L21.226 40.6232H23.0212C23.9878 40.6232 25.4377 40.3815 26.1971 40.0708C27.578 39.5185 27.6125 39.5185 28.9934 40.4505C30.6849 41.5552 31.2027 41.3826 29.5802 40.2434C28.9588 39.8292 28.372 39.4149 28.3375 39.3804C28.2684 39.3459 29.1314 38.3447 30.2707 37.171C31.7896 35.6521 32.5491 34.4783 33.1359 32.9594L33.9299 30.8536L35.0691 32.1999C36.4845 33.8915 36.5881 33.4082 35.1382 31.6131C34.2751 30.5084 34.1716 30.1632 34.4823 29.5763C34.7584 29.093 35.0691 28.9204 35.5179 29.0585C35.8631 29.162 36.2429 29.093 36.3809 28.8859C36.4845 28.7133 36.3464 28.5407 36.0357 28.5407C35.6905 28.5407 35.587 28.368 35.725 28.1264C35.8976 27.8502 35.7941 27.8157 35.4143 27.9538C35.0691 28.0919 34.8275 27.9883 34.8275 27.7467C34.793 27.505 34.5858 27.7121 34.3097 28.1954C33.8264 29.0585 33.8264 29.0585 33.7918 27.6776C33.7918 26.9181 33.1014 24.26 32.2384 21.809C31.3753 19.3234 30.6849 17.2521 30.6849 17.1486C30.7194 17.045 31.5479 18.6675 32.5491 20.7733C35.1037 26.0896 36.7607 27.8502 39.2462 27.8502C40.8687 27.8502 42.3877 25.6754 43.9757 20.9459L44.7351 18.702L44.9768 20.2555C45.4256 23.1208 46.2196 25.054 47.3588 25.9861C48.3254 26.7801 48.6361 26.8836 50.6038 26.7455C51.7775 26.6765 52.8131 26.7455 52.8477 26.8836C52.9167 27.0562 53.2619 26.9527 53.6417 26.642C54.2976 26.0896 54.2976 26.0896 53.4691 26.3313C52.7096 26.5384 52.7786 26.4003 54.0214 24.9849C55.2642 23.5696 56.0582 22.0161 57.7152 17.8735C58.1294 16.8034 58.164 17.2521 58.0259 22.0161C57.9223 26.642 57.9914 27.505 58.5437 28.5407C59.096 29.6453 59.3377 29.7489 60.7876 29.8525C63.2386 30.0251 64.723 29.162 68.9692 24.9849C71.4892 22.5339 71.4892 22.4994 70.6262 24.0529C70.1429 24.9159 69.0382 27.436 68.1752 29.6453C66.9669 32.7177 66.5872 34.1331 66.5872 35.583C66.5872 37.3436 66.6562 37.5507 67.4847 37.8614C69.5906 38.69 72.663 38.034 75.4247 36.1354C77.7721 34.5474 78.3935 34.8236 76.6329 36.6187C75.8044 37.4472 74.9414 38.1031 74.7342 38.0686C74.5271 37.9995 74.4581 38.034 74.5962 38.1031C74.7688 38.2067 73.9057 39.3804 72.6975 40.7612C70.3155 43.4884 69.5215 45.0074 69.8322 46.2156C70.3845 48.425 74.7688 51.9117 77.9793 52.7402C78.9459 52.9818 79.7053 53.2925 79.7053 53.4306C79.7053 53.5687 78.8768 54.0175 77.8412 54.4317C76.8055 54.846 75.6318 55.5364 75.183 56.0197C74.2509 57.0208 73.0427 57.1589 73.3879 56.2268C73.526 55.8471 73.3879 55.9161 72.9391 56.4685C72.4558 57.0208 72.2832 57.6077 72.4213 58.3672C72.5594 59.4028 72.5939 59.4028 72.801 58.5743C72.9046 58.091 73.2843 57.6767 73.595 57.6077C74.1129 57.5041 74.1819 57.8148 74.1819 59.679C74.1819 60.9217 74.4236 62.6823 74.6997 63.6835C75.2521 65.5476 77.1508 67.8951 78.1174 67.8951C79.0149 67.8951 78.7387 68.4819 77.634 68.9998C76.702 69.3795 76.5984 69.5866 76.6329 70.8294L76.702 72.2103L76.9436 70.8294L77.1853 69.4485L77.2543 70.6223C77.2888 71.4163 77.8757 72.7281 79.1185 74.5922C81.535 78.2515 81.535 78.2515 81.0862 78.2515C80.8791 78.2515 80.1886 77.6992 79.4982 77.0433C78.428 75.9731 78.1173 75.835 76.4948 75.8695L74.6997 75.904L76.5984 76.4909L78.4971 77.0778L75.6318 77.3194C73.9057 77.4575 72.3523 77.7682 71.7654 78.1479C70.8678 78.6658 70.7298 78.9419 70.7298 80.2537C70.7298 82.1524 71.3857 83.3607 73.2843 85.0522L74.8723 86.4331L72.801 86.6402C71.6618 86.7783 70.4536 87.0545 70.0739 87.2961C68.1061 88.5044 68.2787 92.1982 70.4536 94.6492C71.6273 95.9955 71.144 95.9955 68.9346 94.5801C67.5883 93.7516 67.1395 93.9588 68.2442 94.8563C69.3144 95.7539 70.5226 96.2026 72.2832 96.3407C73.2498 96.4098 74.5616 96.5824 75.2175 96.7205C76.2532 96.8931 76.0806 96.7895 74.32 95.8574C71.3166 94.304 69.9703 92.8541 70.1084 91.2661L70.2119 90.0578L73.4915 92.4398C81.9147 98.5501 83.9515 100 84.2967 100C84.6074 100 81.6385 97.7561 73.7676 92.0601C71.0059 90.0578 70.4881 89.54 70.6262 88.9186C70.9024 87.952 72.2832 87.5032 74.5271 87.6759C77.5305 87.952 78.359 88.2627 80.7755 90.0233C83.0884 91.7494 83.6408 91.9565 84.0205 91.4042C84.1241 91.2316 83.261 90.5066 82.1218 89.8162C80.3958 88.7805 80.0851 88.4353 80.4303 88.0556C80.741 87.6759 80.6719 87.5723 80.016 87.5723C78.8423 87.5723 76.3913 86.2605 75.3902 85.0867C74.4236 83.9475 74.2164 84.1892 75.114 85.501C75.5282 86.1224 75.3211 86.0533 74.389 85.1558C72.9046 83.7749 71.7654 81.7727 71.7654 80.5644C71.7654 79.1836 73.2843 78.0789 75.183 78.0789C76.1151 78.0789 77.2198 78.2515 77.6686 78.4932C78.1173 78.7003 79.8089 79.3217 81.4314 79.8395C83.0539 80.3573 85.1252 81.1513 86.0228 81.6001C86.9548 82.0489 87.9214 82.3941 88.2321 82.325C88.5083 82.256 87.7143 81.7036 86.4715 81.0477C85.1942 80.4264 83.5372 79.1491 82.6397 78.217C80.9136 76.3873 78.6697 72.0722 78.6697 70.6223C78.6697 69.6557 79.6018 68.5855 80.4303 68.5855C80.7065 68.5855 81.1207 68.4129 81.3278 68.2058C81.535 67.9986 83.0884 67.6879 84.7455 67.5153C87.4727 67.2392 88.3012 66.894 88.3357 66.1C88.3357 65.9619 87.7834 66.1 87.1274 66.3761C85.643 66.9975 81.1207 67.1011 79.084 66.5487C77.2198 66.0309 76.1151 64.4084 75.5282 61.405C75.1485 59.4028 75.183 59.1612 75.8044 58.2981C76.4258 57.4696 76.7365 57.366 79.0494 57.2625C82.2944 57.0899 82.6051 56.8482 79.5327 56.8482C77.2543 56.8482 77.1853 56.8137 77.7721 56.1923C78.0828 55.8471 79.3256 55.0531 80.4648 54.4317C82.5706 53.2925 82.5706 53.2925 86.1263 53.5342C88.5083 53.6722 89.7165 53.6377 89.7165 53.3961C89.7165 53.2235 89.1987 53.0509 88.6119 53.0509C87.9905 53.0509 85.1597 52.6711 82.2944 52.1878C77.3234 51.3248 77.0127 51.2558 74.7688 49.7023C72.1451 47.9417 71.4202 47.0787 71.4202 45.7668C71.4202 44.455 72.1106 42.6944 72.6284 42.6944C72.8701 42.6944 74.1474 41.2445 75.4937 39.4839C76.8401 37.7579 78.6352 35.514 79.4982 34.5819C80.3612 33.6153 81.0862 32.6487 81.0862 32.3725C81.0862 32.0964 81.9147 30.9572 82.9504 29.7834C84.6074 27.8847 87.3691 24.0874 88.1286 22.672C88.4738 22.0161 85.1942 25.3992 81.6385 29.3692C80.1196 31.0607 78.0828 32.9249 77.1507 33.5117C74.6307 35.0997 71.1785 36.5496 70.281 36.4115C69.6251 36.308 69.8322 35.9628 72.2487 33.4427C73.7676 31.8892 74.9069 30.5429 74.8033 30.4393C74.6997 30.3358 73.3879 31.544 71.9035 33.132C70.3845 34.72 68.9692 35.9628 68.762 35.8937C68.5204 35.7902 68.3133 35.2033 68.3133 34.5474C68.3133 33.2356 69.8667 28.4716 71.075 26.1242C71.4892 25.2956 71.869 24.2945 71.938 23.8803C71.9725 23.466 72.4904 22.4304 73.0427 21.6018C73.6296 20.7733 74.1129 19.9448 74.1129 19.8067C74.1129 19.6686 74.6997 18.7366 75.3902 17.8045C76.6674 16.0094 77.5305 14.2488 76.9781 14.4559C76.8401 14.4904 75.8044 15.6296 74.6997 16.976C72.3868 19.7722 68.2787 24.0529 67.899 24.0529C67.7609 24.0529 66.8634 24.9159 65.8622 25.9515C64.8956 26.9872 63.929 27.8502 63.791 27.8502C63.6529 27.8502 64.5159 26.1932 65.7587 24.191C66.9669 22.1542 67.968 20.3246 67.968 20.1174C67.968 19.7032 66.2075 22.3613 63.9636 26.1932C62.8244 28.1954 62.4791 28.5407 61.6506 28.5407C60.8221 28.5407 60.7185 28.4371 60.8912 27.8157C61.2018 26.8491 65.1718 18.2187 66.7598 15.0773C67.4502 13.6964 67.9335 12.4882 67.83 12.3846C67.7264 12.2811 67.5538 12.2811 67.4847 12.3501C67.1741 12.6608 61.9613 23.9493 60.6495 27.1598C60.3043 27.9883 60.2698 27.9883 59.7865 26.4694C58.7508 23.0172 59.4758 11.3145 61.0638 5.82556C61.478 4.4447 61.7197 3.13289 61.6506 2.89124C61.5471 2.64959 61.3745 2.75315 61.2364 3.16741ZM30.3397 6.10173C30.3397 6.27434 29.96 6.44694 29.4767 6.44694C28.9934 6.44694 28.6136 6.27434 28.6136 6.10173C28.6136 5.8946 28.9934 5.75651 29.4767 5.75651C29.96 5.75651 30.3397 5.8946 30.3397 6.10173ZM43.7685 19.1853C43.5614 19.8067 43.3198 20.221 43.2507 20.1519C43.1817 20.0829 43.2852 19.5306 43.4924 18.9092C43.6995 18.2878 43.9411 17.8735 44.0102 17.9426C44.0792 18.0116 43.9757 18.564 43.7685 19.1853ZM42.2151 22.1542C41.4211 23.397 41.2139 22.9827 41.9389 21.5673C42.2496 20.9459 42.5948 20.6007 42.6638 20.8424C42.7329 21.0495 42.5603 21.6364 42.2151 22.1542ZM36.9333 25.848C37.3475 26.1932 37.4856 26.4694 37.313 26.4694C36.8297 26.4694 35.2417 24.8469 34.793 23.8803C34.5858 23.5005 34.8275 23.6386 35.3108 24.2255C35.7941 24.7778 36.519 25.5373 36.9333 25.848ZM41.7318 23.8112C41.7318 23.8803 41.3866 24.2255 40.9723 24.6052L40.1783 25.2611L40.8342 24.4671C41.4556 23.7422 41.7318 23.535 41.7318 23.8112ZM47.9456 25.5028C47.9456 25.9861 47.2897 25.4682 46.8755 24.6397C46.4612 23.8803 46.4612 23.8803 47.2207 24.5362C47.6004 24.9159 47.9456 25.3302 47.9456 25.5028ZM52.2608 25.7789C52.1572 25.9515 51.743 26.1242 51.3632 26.1242C50.9835 26.1242 50.7764 25.9515 50.8799 25.7789C50.9835 25.5718 51.3978 25.4337 51.7775 25.4337C52.1572 25.4337 52.3644 25.5718 52.2608 25.7789ZM40.5235 26.7801C40.42 26.9872 39.9712 27.1598 39.5569 27.1598C38.832 27.1598 38.832 27.1253 39.6605 26.711C40.5926 26.1932 40.9033 26.2277 40.5235 26.7801ZM60.7876 29.093C61.6506 29.5763 61.3745 29.6799 60.1662 29.3692C59.752 29.2656 59.2341 28.7823 59.027 28.3335C58.4056 26.9527 58.5782 26.5384 59.3032 27.6431C59.6829 28.1954 60.3388 28.8513 60.7876 29.093ZM65.5515 27.2979C65.5515 27.3669 65.2754 27.6431 64.9647 27.8847C64.4123 28.3335 64.3778 28.299 64.8266 27.7467C65.2754 27.1943 65.5515 27.0217 65.5515 27.2979ZM68.3133 31.6476C67.9335 32.6832 67.6574 34.3748 67.6228 35.3759C67.6228 36.6532 67.5193 37.1365 67.2431 36.9639C66.6908 36.6532 67.0705 33.995 67.968 31.544C68.9346 29.024 69.1763 29.093 68.3133 31.6476ZM33.0324 31.3369C32.8252 31.8892 32.6181 32.338 32.5836 32.269C32.3765 32.0618 32.8598 30.2667 33.1359 30.2667C33.274 30.2667 33.2395 30.75 33.0324 31.3369ZM76.2532 34.9271C76.2532 34.9962 75.908 35.2378 75.4937 35.4449C74.7342 35.8247 74.7342 35.7902 75.3556 35.3069C76.0806 34.72 76.2532 34.6509 76.2532 34.9271ZM69.1073 36.9984C69.3489 36.9294 70.0739 36.9984 70.7298 37.171C71.869 37.4472 71.869 37.4817 70.2119 37.4127C68.9692 37.3436 68.4859 37.2055 68.4513 36.8258C68.4513 36.5496 68.4859 36.4806 68.5549 36.7222C68.624 36.9639 68.9001 37.0674 69.1073 36.9984ZM24.402 39.8292C24.0568 39.8982 23.4354 39.8982 23.0212 39.8292C22.5724 39.7601 22.8485 39.6911 23.608 39.6911C24.3675 39.6566 24.7127 39.7256 24.402 39.8292ZM70.8333 44.5931C70.7298 44.9038 70.5572 45.0764 70.4881 44.9729C70.3845 44.8693 70.4191 44.6622 70.5572 44.455C70.8678 43.9027 71.075 44.0063 70.8333 44.5931ZM23.6771 46.3882C23.5735 46.7334 23.5045 46.5263 23.5045 45.974C23.5045 45.3871 23.5735 45.1455 23.6771 45.3526C23.7461 45.5942 23.7461 46.0775 23.6771 46.3882ZM22.2617 47.5965C21.6058 48.5286 21.5713 48.1833 22.1581 46.5263C22.5033 45.5597 22.6069 45.4562 22.6759 46.0775C22.745 46.4918 22.5379 47.1822 22.2617 47.5965ZM71.075 46.837C71.075 47.0096 71.0059 47.1822 70.9369 47.1822C70.8333 47.1822 70.6607 47.0096 70.5572 46.837C70.4536 46.6299 70.5226 46.4918 70.6952 46.4918C70.9024 46.4918 71.075 46.6299 71.075 46.837ZM74.0783 49.9439C74.5616 50.3237 74.8378 50.6344 74.6652 50.6344C74.2509 50.5998 72.5594 49.288 72.9046 49.2535C73.0772 49.2535 73.595 49.5642 74.0783 49.9439ZM18.7405 51.7045C17.3942 52.7747 15.0812 54.0865 14.5634 54.0865C14.4253 54.0865 15.3229 53.4651 16.6002 52.7057C17.8775 51.9117 19.0167 51.1522 19.1202 50.9796C19.2238 50.7725 19.5 50.6344 19.7071 50.6344C19.9142 50.6344 19.4655 51.1177 18.7405 51.7045ZM21.0189 68.5855C21.0189 68.7581 20.9499 68.9307 20.8808 68.9307C20.7773 68.9307 20.6047 68.7581 20.5011 68.5855C20.3975 68.3784 20.4666 68.2403 20.6392 68.2403C20.8463 68.2403 21.0189 68.3784 21.0189 68.5855ZM28.0613 72.2103C28.1648 72.4864 28.0958 72.7281 27.9232 72.7281C27.7161 72.7281 27.578 72.4864 27.578 72.2103C27.578 71.9341 27.647 71.6924 27.7161 71.6924C27.7851 71.6924 27.9232 71.9341 28.0613 72.2103ZM27.4744 74.5232C27.3709 74.7994 27.2673 74.6958 27.2673 74.3161C27.2328 73.9363 27.3363 73.7292 27.4399 73.8673C27.5435 73.9708 27.578 74.2815 27.4744 74.5232ZM26.715 76.629C26.4388 77.2849 26.059 77.9753 25.8519 78.0789C25.6448 78.217 25.8519 77.5956 26.2662 76.7326C27.1292 74.9029 27.4744 74.8339 26.715 76.629ZM79.5327 78.0444C81.2588 78.7693 81.0172 79.011 79.1875 78.3551C77.7031 77.8718 77.2543 77.5611 77.9793 77.5611C78.1864 77.5611 78.8768 77.8027 79.5327 78.0444ZM26.3007 82.9809C26.059 83.05 25.5757 83.05 25.2651 82.9809C24.9198 82.8774 25.127 82.8083 25.6793 82.8083C26.2662 82.8083 26.5078 82.8774 26.3007 82.9809ZM70.3155 88.2627C70.0739 88.6425 69.7286 88.9531 69.556 88.9531C69.3834 88.9531 69.5215 88.6425 69.8667 88.2627C70.2119 87.883 70.5572 87.5723 70.6262 87.5723C70.6952 87.5723 70.5572 87.883 70.3155 88.2627ZM69.6941 89.9888C69.6941 90.1614 69.6251 90.334 69.556 90.334C69.4525 90.334 69.2799 90.1614 69.1763 89.9888C69.0727 89.7817 69.1418 89.6436 69.3144 89.6436C69.5215 89.6436 69.6941 89.7817 69.6941 89.9888ZM27.2328 93.51C27.2328 93.6826 26.715 93.3028 26.0936 92.6815C25.4031 91.991 25.0924 91.4387 25.2996 91.3006C25.6103 91.0935 27.2328 92.9231 27.2328 93.51ZM72.2487 95.4777C72.1797 95.5813 71.8344 95.3741 71.4892 95.0289C70.9369 94.4421 70.9369 94.4075 71.6618 94.8563C72.0761 95.098 72.3523 95.3741 72.2487 95.4777Z" fill="#0C0C0C"></path>
<path d="M65.2408 30.1647C64.4468 32.2015 63.8944 33.9276 63.9635 34.0311C64.067 34.1347 64.3087 33.755 64.5158 33.2026C64.7229 32.6503 65.3788 30.9932 65.9657 29.5088C66.5526 28.0244 66.9323 26.7471 66.8633 26.6781C66.7597 26.5745 66.0347 28.1625 65.2408 30.1647Z" fill="#0C0C0C"></path>
<path d="M55.5749 28.128C55.0916 29.785 54.6773 32.6158 54.9535 32.3396C55.2642 32.098 56.2653 27.1269 56.0927 26.9543C55.9892 26.8507 55.782 27.3685 55.5749 28.128Z" fill="#0C0C0C"></path>
<path d="M21.364 31.7872C21.364 32.1669 24.9542 36.5166 25.1268 36.344C25.2649 36.1714 24.1602 34.7215 22.4342 32.7193C21.8818 32.0634 21.3985 31.6491 21.364 31.7872Z" fill="#0C0C0C"></path>
<path d="M74.6998 13.7537C74.5962 13.9264 74.6653 14.168 74.8724 14.3061C75.045 14.4097 75.2176 14.3406 75.2176 14.168C75.2176 13.9609 75.3902 13.7883 75.5974 13.7883C75.8045 13.7883 75.908 14.0644 75.839 14.3751C75.77 14.7549 75.4593 14.962 75.0795 14.893C74.6998 14.8239 74.5617 14.9275 74.6998 15.1346C75.2521 16.0667 76.7366 14.962 76.3568 13.8573C76.1842 13.374 75.0105 13.305 74.6998 13.7537Z" fill="#0C0C0C"></path>
<path d="M36.381 16.1474C36.1048 17.0104 36.5881 17.5973 37.4512 17.4247C37.8654 17.3556 38.1416 16.9759 38.2106 16.3545C38.3142 15.5605 38.2106 15.4224 37.4512 15.4224C36.8988 15.4224 36.5191 15.6641 36.381 16.1474ZM37.9345 16.251C37.9345 16.8723 37.3821 17.2521 36.8988 16.9759C36.45 16.6997 36.8643 15.7677 37.4512 15.7677C37.7273 15.7677 37.9345 15.9748 37.9345 16.251Z" fill="#0C0C0C"></path>
<path d="M87.6798 18.9638C87.6798 19.3436 87.7834 19.4126 87.887 19.1364C87.956 18.9293 88.3703 18.7222 88.75 18.7222C89.2333 18.7222 89.3714 18.8948 89.2333 19.24C89.1297 19.5162 89.1988 19.7578 89.3714 19.7578C89.5785 19.7578 89.7166 19.4471 89.7166 19.0674C89.7166 18.5151 89.475 18.377 88.681 18.377C87.9215 18.377 87.6453 18.5496 87.6798 18.9638Z" fill="#0C0C0C"></path>
<path d="M67.968 17.3212C67.968 18.0461 68.9001 18.3568 69.5215 17.839C70.1774 17.2866 69.8667 16.8033 68.7965 16.8033C68.2787 16.8033 67.968 17.0105 67.968 17.3212ZM69.3489 17.2866C69.3489 17.6664 68.693 17.8045 68.4858 17.4938C68.3823 17.3212 68.5204 17.1486 68.7965 17.1486C69.1072 17.1486 69.3489 17.2176 69.3489 17.2866Z" fill="#0C0C0C"></path>
<path d="M14.1146 18.0807C14.1491 18.4949 22.7795 28.0229 23.9532 28.9549C24.5056 29.3692 22.6069 27.0563 19.6726 23.7767C16.7728 20.5317 14.3218 17.839 14.2527 17.839C14.1837 17.839 14.1146 17.9426 14.1146 18.0807Z" fill="#0C0C0C"></path>
<path d="M76.3913 4.60398C72.8356 9.47151 71.5928 11.3357 71.869 11.3357C72.1106 11.3357 79.6708 1.15184 79.9125 0.495935C80.3613 -0.712315 79.6708 0.15072 76.3913 4.60398Z" fill="#0C0C0C"></path>
<path d="M56.2998 22.7411C55.7129 23.3279 55.782 23.7077 56.4724 23.7077C56.7831 23.7077 56.9212 23.6041 56.8176 23.466C56.6795 23.3625 56.7486 23.0518 56.9557 22.7756C57.439 22.2233 56.8521 22.1887 56.2998 22.7411Z" fill="#0C0C0C"></path>
<path d="M43.6651 23.5351C43.3544 24.3291 43.3889 24.3981 43.9758 24.3981C44.2865 24.3981 44.39 24.191 44.2865 23.8803C44.1484 23.6041 44.2519 23.3625 44.4591 23.3625C44.6662 23.3625 44.8388 23.6041 44.8388 23.8803C44.8388 24.5362 46.4268 27.7122 46.8756 28.0228C47.0827 28.1264 46.703 27.0908 46.047 25.7099C44.9078 23.1898 44.0793 22.4649 43.6651 23.5351Z" fill="#0C0C0C"></path>
<path d="M55.0915 24.2945C54.9534 24.3981 54.8499 24.6742 54.8499 24.8814C54.8499 25.0885 55.0225 25.054 55.2641 24.8123C55.4712 24.6052 55.5748 24.329 55.5058 24.2255C55.4022 24.1219 55.1951 24.1564 55.0915 24.2945Z" fill="#0C0C0C"></path>
<path d="M56.2308 24.7433C56.2308 24.9159 56.4034 25.0885 56.576 25.0885C56.7832 25.0885 56.9213 24.9159 56.9213 24.7433C56.9213 24.5362 56.7832 24.3981 56.576 24.3981C56.4034 24.3981 56.2308 24.5362 56.2308 24.7433Z" fill="#0C0C0C"></path>
<path d="M43.4579 25.4337C43.4579 25.6063 43.6995 25.6754 43.9757 25.5718C44.2519 25.4337 44.4935 25.2956 44.4935 25.2266C44.4935 25.1576 44.2519 25.0885 43.9757 25.0885C43.6995 25.0885 43.4579 25.2266 43.4579 25.4337Z" fill="#0C0C0C"></path>
<path d="M55.1952 25.7789C55.1952 25.9515 55.5749 26.1241 56.0582 26.1241C56.5415 26.1241 56.9213 25.9515 56.9213 25.7789C56.9213 25.5718 56.5415 25.4337 56.0582 25.4337C55.5749 25.4337 55.1952 25.5718 55.1952 25.7789Z" fill="#0C0C0C"></path>
<path d="M46.5647 26.0206C46.5647 26.6765 48.9812 28.5406 49.7752 28.5061C50.5001 28.5061 50.5001 28.4716 49.6716 28.1609C49.1883 27.9538 48.2908 27.3324 47.7039 26.711C47.0825 26.1241 46.5647 25.8134 46.5647 26.0206Z" fill="#0C0C0C"></path>
<path d="M67.6229 27.0217C67.2777 27.4014 67.2777 27.6431 67.5538 27.9192C67.8645 28.2299 67.9681 28.1954 67.9681 27.7811C67.9681 27.4704 68.1407 27.1598 68.3823 27.0907C68.6585 26.9871 68.693 26.8836 68.4169 26.711C68.2097 26.5729 67.8645 26.711 67.6229 27.0217Z" fill="#0C0C0C"></path>
<path d="M12.9064 27.505C12.6303 27.9192 13.5969 28.3335 14.1147 28.0228C14.2873 27.9192 14.4599 27.6776 14.4599 27.4704C14.4599 27.0562 13.1826 27.0562 12.9064 27.505Z" fill="#0C0C0C"></path>
<path d="M51.3977 27.8502C51.3977 28.299 51.7774 28.299 52.4333 27.8502C52.8476 27.574 52.8131 27.505 52.1917 27.505C51.7429 27.505 51.3977 27.6431 51.3977 27.8502Z" fill="#0C0C0C"></path>
<path d="M57.1628 28.7823C57.4735 29.6798 59.027 31.7166 59.2341 31.5095C59.3377 31.4404 58.9924 30.8191 58.5091 30.1631C58.0258 29.5072 57.6116 28.8168 57.6116 28.6097C57.6116 28.368 57.4735 28.1954 57.2664 28.1954C57.0938 28.1954 57.0247 28.4716 57.1628 28.7823Z" fill="#0C0C0C"></path>
<path d="M66.2764 28.5061C65.9312 28.7477 65.8967 28.9548 66.2074 29.5417C66.6907 30.3702 67.1049 30.5083 66.7942 29.7143C66.5181 28.9548 66.9323 28.3334 67.3466 28.9203C67.6227 29.3346 67.6573 29.3 67.5537 28.9203C67.3811 28.2644 66.8978 28.1263 66.2764 28.5061Z" fill="#0C0C0C"></path>
<path d="M41.8007 29.8179C41.1793 30.0941 40.7306 30.4048 40.7996 30.4738C41.0067 30.681 43.1125 29.7834 43.1125 29.5072C43.1125 29.162 43.1471 29.162 41.8007 29.8179Z" fill="#0C0C0C"></path>
<path d="M65.8278 30.5774C66.1385 31.1298 66.4492 31.544 66.5182 31.5095C66.6909 31.3024 65.7933 29.5763 65.5171 29.5763C65.3445 29.5763 65.5171 30.0251 65.8278 30.5774Z" fill="#0C0C0C"></path>
<path d="M22.8485 30.1976C22.3307 30.5428 21.6403 32.338 21.8474 32.8558C22.0545 33.4426 24.7127 33.8224 25.5067 33.3736C26.3697 32.9248 26.9566 31.8547 26.6804 31.1988C26.3006 30.2322 23.8496 29.5762 22.8485 30.1976ZM25.6447 30.819C26.3006 31.0607 26.3697 32.0273 25.7828 32.6141C25.2995 33.0974 23.4699 33.1665 22.7795 32.7177C22.4688 32.5106 22.3997 32.0963 22.5378 31.5094C22.7104 30.75 22.9521 30.6119 23.9187 30.6119C24.5746 30.6119 25.334 30.7155 25.6447 30.819Z" fill="#0C0C0C"></path>
<path d="M41.7318 30.819L40.8688 31.3369L41.7318 31.0952C42.2151 30.9916 42.8365 30.75 43.1127 30.5774C43.5614 30.3357 43.5614 30.3012 43.1127 30.3012C42.8365 30.3012 42.2151 30.5083 41.7318 30.819Z" fill="#0C0C0C"></path>
<path d="M60.1662 30.7845C60.5459 31.0607 61.0637 31.3023 61.3054 31.3023C62.0649 31.3023 61.7887 31.0262 60.6495 30.6464C59.6138 30.3012 59.5793 30.3357 60.1662 30.7845Z" fill="#0C0C0C"></path>
<path d="M62.4447 30.6119C62.4447 30.7846 62.5828 30.9572 62.7554 30.9572C62.9625 30.9572 63.2042 30.7846 63.3077 30.6119C63.4113 30.4048 63.2732 30.2667 62.997 30.2667C62.6864 30.2667 62.4447 30.4048 62.4447 30.6119Z" fill="#0C0C0C"></path>
<path d="M55.4367 31.5095C55.6093 31.9928 55.5403 32.0619 54.988 31.8547C54.4701 31.6476 54.4356 31.7166 54.7463 32.0273C55.2296 32.5106 56.3343 32.1654 56.1617 31.5786C56.0926 31.3714 55.8165 31.0953 55.6093 31.0262C55.3332 30.9572 55.2641 31.1298 55.4367 31.5095Z" fill="#0C0C0C"></path>
<path d="M11.3529 31.9582C11.3529 32.3379 14.9086 34.5473 16.1169 34.9271C17.4632 35.3068 16.9454 34.789 15.0812 33.8569C14.0801 33.3391 12.8373 32.6486 12.3195 32.2689C11.7672 31.8892 11.3529 31.7511 11.3529 31.9582Z" fill="#0C0C0C"></path>
<path d="M42.7673 31.8892C40.9722 32.5451 39.9366 33.0629 40.0746 33.201C40.2127 33.3391 43.803 32.0963 44.1137 31.7857C44.3208 31.5785 43.3887 31.6476 42.7673 31.8892Z" fill="#0C0C0C"></path>
<path d="M52.6405 32.8558C52.9857 33.132 53.469 33.3391 53.6416 33.3391C53.8487 33.3391 53.6761 33.132 53.3309 32.8558C52.9512 32.5796 52.5024 32.338 52.2953 32.338C52.1227 32.338 52.2608 32.5796 52.6405 32.8558Z" fill="#0C0C0C"></path>
<path d="M34.7239 35.1343C34.2061 35.7902 33.7918 36.1009 33.7918 35.8592C33.7918 35.5485 33.5501 35.583 32.9288 36.0318C31.9276 36.7568 31.7896 37.3436 32.7216 36.8603C33.0668 36.6532 33.4466 36.5842 33.5156 36.6877C33.8263 36.9639 35.9321 34.789 35.794 34.3748C35.725 34.1331 35.2417 34.4784 34.7239 35.1343Z" fill="#0C0C0C"></path>
<path d="M45.5291 34.4093C45.5291 34.5819 45.7017 34.7545 45.8743 34.7545C46.0814 34.7545 46.2195 34.5819 46.2195 34.4093C46.2195 34.2022 46.0814 34.0641 45.8743 34.0641C45.7017 34.0641 45.5291 34.2022 45.5291 34.4093Z" fill="#0C0C0C"></path>
<path d="M43.009 34.9271C41.49 35.7211 39.4187 37.9305 39.1771 39.0697L38.9354 40.1053L39.902 39.0697C40.4544 38.4828 40.7305 37.9305 40.5925 37.8269C40.1782 37.5162 43.3887 35.0997 44.1827 35.0997C44.5624 35.0997 44.8386 34.9271 44.8386 34.7545C44.8386 34.2712 44.1482 34.3402 43.009 34.9271Z" fill="#0C0C0C"></path>
<path d="M63.9981 36.4461C64.0672 37.4817 64.3433 38.4828 64.5505 38.69C64.8612 38.9661 64.8957 38.7935 64.6886 38.0341C64.5505 37.4472 64.2743 36.4461 64.1362 35.7902C63.8946 34.8236 63.86 34.9271 63.9981 36.4461Z" fill="#0C0C0C"></path>
<path d="M51.9157 36.1353C52.0192 36.308 52.2954 36.4806 52.468 36.4806C52.6752 36.4806 52.7097 36.308 52.6061 36.1353C52.5025 35.9282 52.2264 35.7901 52.0538 35.7901C51.8466 35.7901 51.8121 35.9282 51.9157 36.1353Z" fill="#0C0C0C"></path>
<path d="M64.8612 36.0663C64.8612 36.7913 66.0004 38.5519 66.4492 38.5519C66.6908 38.5519 66.9325 38.7935 67.0706 39.0697C67.1741 39.3458 67.5194 39.5875 67.8646 39.5875C68.2443 39.5875 68.0717 39.3113 67.2777 38.7245C66.6218 38.2412 65.7933 37.3436 65.4826 36.7222C65.1719 36.1008 64.8957 35.8247 64.8612 36.0663Z" fill="#0C0C0C"></path>
<path d="M48.6361 36.446C48.6361 36.6532 49.1885 36.8258 49.8444 36.8258C50.5003 36.8258 51.0526 36.9639 51.0526 37.171C51.0526 37.6888 53.4001 37.5853 53.5382 37.102C53.6417 36.8258 54.0215 37.0329 54.6083 37.6888C55.1261 38.2757 55.5404 38.5519 55.5404 38.3102C55.5404 38.034 56.0237 38.2066 56.7832 38.7245C57.4736 39.2078 58.164 39.5875 58.3021 39.5875C58.889 39.5875 58.1985 38.2066 57.3355 37.6543C56.507 37.102 56.4725 37.102 56.7141 37.7233C56.9558 38.3102 56.9213 38.3102 56.2308 37.6888C55.7475 37.24 55.5404 37.2055 55.5404 37.5162C55.5404 37.7924 55.0916 37.5853 54.5048 36.9984C53.9524 36.446 53.4691 36.2044 53.4691 36.446C53.4691 36.7913 53.1239 36.8258 52.2609 36.6877C51.605 36.5841 50.5003 36.377 49.8444 36.2734C49.0504 36.1354 48.6361 36.2044 48.6361 36.446Z" fill="#0C0C0C"></path>
<path d="M83.986 19.1375C82.5015 20.3803 79.2911 22.7277 76.8746 24.3157C74.4235 25.9382 72.4558 27.3881 72.4558 27.5607C72.4558 28.1131 82.5706 21.1397 84.8835 18.9994C86.1263 17.8257 87.0239 16.8936 86.9203 16.8591C86.8167 16.8591 85.4704 17.8947 83.986 19.1375Z" fill="#0C0C0C"></path>
<path d="M48.4635 38.0686L47.4279 38.5519L48.4635 38.3447C49.0504 38.2412 49.6372 37.9995 49.8444 37.8269C50.3277 37.3781 49.6717 37.4472 48.4635 38.0686Z" fill="#0C0C0C"></path>
<path d="M45.8053 38.2412C45.4601 38.4138 45.184 38.759 45.184 38.9661C45.184 39.2078 45.3566 39.1733 45.7018 38.8971C46.3922 38.3102 46.3577 38.8626 45.6327 39.6566C45.184 40.1399 45.184 40.2779 45.5637 40.1053C46.2196 39.8637 47.0481 38.5519 46.5303 38.5519C46.3577 38.5519 46.2886 38.3793 46.3922 38.2067C46.6684 37.7924 46.5648 37.7924 45.8053 38.2412Z" fill="#0C0C0C"></path>
<path d="M49.9133 38.4483C49.8098 38.6209 50.3276 38.7245 51.087 38.7245C51.812 38.7245 52.4334 38.6209 52.4334 38.4483C52.4334 38.3102 51.9156 38.2067 51.2597 38.2067C50.6037 38.2067 49.9824 38.3102 49.9133 38.4483Z" fill="#0C0C0C"></path>
<path d="M73.1462 18.9303C72.6974 19.2065 72.7319 19.2755 73.2497 19.2755C73.5604 19.2755 73.8366 19.1029 73.8366 18.9303C73.8366 18.516 73.8021 18.516 73.1462 18.9303Z" fill="#0C0C0C"></path>
<path d="M48.0836 39.0697C47.4622 39.553 47.4622 39.553 48.2217 39.3458C48.636 39.2423 48.9812 39.0352 48.9812 38.8625C48.9812 38.4483 48.8776 38.4828 48.0836 39.0697Z" fill="#0C0C0C"></path>
<path d="M71.075 19.2756C71.075 19.4482 71.4202 19.6208 71.8689 19.6208C72.4903 19.6208 72.5249 19.5517 72.1106 19.2756C71.4547 18.8268 71.075 18.8268 71.075 19.2756Z" fill="#0C0C0C"></path>
<path d="M59.096 39.5184C59.165 39.8982 59.4067 40.4505 59.6138 40.7267C59.959 41.141 59.959 41.279 59.6138 41.3826C59.3722 41.4862 58.9924 41.3136 58.7508 41.0029C58.2675 40.347 58.1639 40.8993 58.6472 41.6588C58.8198 41.9349 59.0615 42.0385 59.1996 41.9004C59.3376 41.7969 59.9936 42.5218 60.6495 43.592C61.3054 44.6276 61.9268 45.4216 61.9958 45.318C62.0994 45.2145 61.6851 44.386 61.0982 43.4539C59.89 41.5552 59.6829 40.8303 60.7185 42.0385C61.0637 42.4873 61.3744 42.6944 61.4089 42.4873C61.4089 42.2802 61.0292 41.7623 60.5459 41.3136C60.0626 40.8648 59.6829 40.2434 59.6829 39.8982C59.6829 39.553 59.5103 39.1732 59.3376 39.0697C59.1305 38.9316 59.027 39.1387 59.096 39.5184Z" fill="#0C0C0C"></path>
<path d="M36.8989 41.21C35.3109 43.3504 34.7586 44.386 34.9312 44.8693C35.0348 45.1109 35.2764 44.8003 35.4835 44.2479C35.7252 43.661 36.4847 42.6599 37.2096 41.9695C37.9346 41.2791 38.5214 40.4506 38.5214 40.1399C38.5214 39.2768 38.2107 39.484 36.8989 41.21Z" fill="#0C0C0C"></path>
<path d="M40.0057 40.4505C39.3498 41.6933 39.7295 41.8314 40.42 40.5886C40.7306 40.0363 40.9033 39.5875 40.7306 39.5875C40.5926 39.5875 40.2473 39.9672 40.0057 40.4505Z" fill="#0C0C0C"></path>
<path d="M44.1483 41.3826C43.7341 42.142 43.7341 42.142 44.3555 41.5897C44.7007 41.2445 44.8733 40.8993 44.7697 40.7612C44.6316 40.6576 44.3555 40.9338 44.1483 41.3826Z" fill="#0C0C0C"></path>
<path d="M25.8864 42.2802C25.4722 42.867 25.1615 43.5229 25.1615 43.7646C25.1615 44.0408 25.5758 43.6265 26.0591 42.9361C27.0947 41.3826 26.9566 40.7957 25.8864 42.2802Z" fill="#0C0C0C"></path>
<path d="M27.7852 43.1087C27.0948 44.1443 26.1282 46.5263 26.3008 46.6989C26.3698 46.768 26.9222 45.8704 27.509 44.6967C28.5792 42.4873 28.7518 41.6243 27.7852 43.1087Z" fill="#0C0C0C"></path>
<path d="M67.0015 43.9372C67.6574 45.4216 67.83 45.5942 67.8991 44.9038C67.9681 44.386 67.6919 43.7301 67.1051 43.1432L66.2075 42.1766L67.0015 43.9372Z" fill="#0C0C0C"></path>
<path d="M87.0583 45.6144C84.7799 46.581 83.7788 47.3059 85.2287 46.8572C86.3334 46.5119 89.3713 44.993 89.3713 44.7859C89.3713 44.5787 89.5784 44.5097 87.0583 45.6144Z" fill="#0C0C0C"></path>
<path d="M15.3919 43.3848C15.1848 44.1788 15.8407 44.6276 16.7383 44.2824C17.4978 44.0062 17.1871 42.9015 16.324 42.7634C15.8062 42.6944 15.53 42.9015 15.3919 43.3848ZM16.5312 43.5574C16.5312 43.8336 16.3931 44.0752 16.1859 44.0752C16.0133 44.0752 15.8407 43.8336 15.8407 43.5574C15.8407 43.2812 16.0133 43.0396 16.1859 43.0396C16.3931 43.0396 16.5312 43.2812 16.5312 43.5574Z" fill="#0C0C0C"></path>
<path d="M36.3809 43.3848C36.0357 43.7645 35.8286 44.1443 35.9321 44.2478C36.0357 44.3514 36.3809 44.1098 36.7261 43.73C37.0714 43.3503 37.2785 42.9706 37.1749 42.867C37.0714 42.7634 36.7261 43.0051 36.3809 43.3848Z" fill="#0C0C0C"></path>
<path d="M62.0994 43.2122C62.341 43.5229 62.6172 43.661 62.6862 43.592C62.9279 43.3503 62.4446 42.6944 62.0303 42.6944C61.8232 42.6944 61.8232 42.9015 62.0994 43.2122Z" fill="#0C0C0C"></path>
<path d="M42.94 44.1098C42.5602 44.6967 42.9745 44.8348 43.4578 44.2479C43.734 43.9372 43.734 43.7301 43.5268 43.7301C43.3197 43.7301 43.0435 43.9027 42.94 44.1098Z" fill="#0C0C0C"></path>
<path d="M55.644 44.1098C55.0571 44.6967 55.5059 45.4562 56.4034 45.4562C57.4391 45.4562 57.8188 44.9038 57.2665 44.2479C56.7487 43.6265 56.1618 43.592 55.644 44.1098ZM56.9213 44.7657C56.9213 44.9383 56.7832 45.1109 56.6106 45.1109C56.4034 45.1109 56.1618 44.9383 56.0582 44.7657C55.9547 44.5586 56.0927 44.4205 56.3689 44.4205C56.6796 44.4205 56.9213 44.5586 56.9213 44.7657Z" fill="#0C0C0C"></path>
<path d="M9.73043 44.3169C10.628 44.3859 12.0434 44.3859 12.8374 44.3169C13.6313 44.2479 12.9064 44.2133 11.1803 44.2133C9.48878 44.2133 8.83287 44.2479 9.73043 44.3169Z" fill="#0C0C0C"></path>
<path d="M29.9946 44.7657C29.6839 45.318 29.7184 45.5252 30.1672 45.6632C30.8921 45.9394 31.5135 45.318 31.2719 44.6276C30.9612 43.8681 30.4434 43.9372 29.9946 44.7657ZM31.0302 44.9038C31.0302 45.0073 30.8921 45.1799 30.685 45.2835C30.5124 45.3871 30.3398 45.318 30.3398 45.1454C30.3398 44.9383 30.5124 44.7657 30.685 44.7657C30.8921 44.7657 31.0302 44.8347 31.0302 44.9038Z" fill="#0C0C0C"></path>
<path d="M62.272 44.5931C62.4446 44.9728 62.7553 46.2847 62.997 47.5274C63.3077 49.1845 63.4112 49.4606 63.4458 48.5631C63.4803 46.9751 62.9625 44.7657 62.4101 44.2824C62.0994 44.0062 62.0649 44.0753 62.272 44.5931Z" fill="#0C0C0C"></path>
<path d="M36.4155 45.0074C36.1393 45.8704 36.4845 47.5275 36.9333 47.5275C37.313 47.5275 37.313 45.905 36.9333 44.9384C36.6571 44.2479 36.6571 44.2479 36.4155 45.0074Z" fill="#0C0C0C"></path>
<path d="M43.3197 44.6621C43.1816 44.8348 42.8709 44.9383 42.6983 44.9383C42.4912 44.9383 42.2496 45.1109 42.1805 45.3181C41.9734 45.9394 43.0781 45.7323 43.6995 45.0419C44.2173 44.455 43.8721 44.1098 43.3197 44.6621Z" fill="#0C0C0C"></path>
<path d="M49.1193 45.8359C48.9467 46.1466 49.1883 46.2156 50.1204 46.043C50.8799 45.9395 51.5012 46.0085 51.7084 46.2501C51.95 46.5608 51.5703 46.6644 50.1549 46.6989C48.4288 46.6989 47.2896 47.1132 48.1527 47.4239C48.3943 47.4929 48.4979 47.8381 48.3943 48.1833C48.1872 48.9773 49.2228 49.8404 49.7407 49.3226C49.9823 49.0809 49.8787 48.8393 49.3954 48.5286C48.3943 47.9072 49.0157 46.837 50.3966 46.837C51.1906 46.837 51.5703 47.0787 52.1226 48.0453C52.9857 49.5297 53.3309 49.6332 52.6059 48.2179C51.881 46.837 51.9845 46.4918 52.7785 47.4929C53.469 48.2869 53.7106 49.9439 53.1583 49.9439C52.9857 49.9439 52.7785 50.4272 52.6405 50.9796C52.5369 51.5664 52.0191 52.464 51.5012 52.9818C50.9834 53.4996 50.5692 54.0175 50.6382 54.1556C50.7763 54.6043 49.7061 54.4662 48.636 53.9139C47.8765 53.5342 47.6003 53.4996 47.6003 53.7758C47.6003 54.0175 47.2206 53.8449 46.7373 53.3961C46.1849 52.8783 45.8743 52.7402 45.8743 53.0509C45.8743 53.3616 45.7016 53.2925 45.3564 52.8437C45.0803 52.4985 44.8386 52.3259 44.8386 52.4985C44.8386 52.6711 45.1148 53.1199 45.46 53.4996C46.0123 54.121 46.0123 54.1556 45.391 54.052C45.0112 53.9829 44.5279 53.3961 44.2863 52.7057C44.0101 51.9462 43.8375 51.7391 43.8375 52.1533C43.803 53.0509 43.2161 52.464 43.009 51.3248C42.9054 50.6344 42.8364 50.6689 42.8018 51.601C42.7673 52.4985 42.9399 52.8092 43.4578 52.9473C43.8375 53.0509 44.1482 53.3616 44.1482 53.6032C44.1482 54.4662 45.8397 54.8115 49.2574 54.6734C52.1917 54.5698 52.6059 54.4662 53.1928 53.7413C53.538 53.327 53.7451 52.8783 53.6416 52.7747C53.538 52.6711 53.2618 52.8783 52.9857 53.2235C52.744 53.5687 52.0881 53.8794 51.5358 53.9484L50.5346 54.052L51.5012 53.5342C52.0191 53.258 52.8476 52.395 53.3309 51.6355C54.332 50.013 54.263 48.9428 52.9511 47.0096C52.4678 46.3537 52.2262 45.8014 52.3988 45.8014C52.8476 45.8014 53.7106 46.9406 54.0904 48.0453L54.4356 49.0809L54.4701 48.1833C54.5391 46.5608 53.5035 45.7323 51.3286 45.5597C50.0513 45.4562 49.2919 45.5597 49.1193 45.8359Z" fill="#0C0C0C"></path>
<path d="M35.1038 46.5263C34.7586 46.8715 34.4134 47.5965 34.3098 48.1143L34.1027 49.0809L34.6205 48.0453C35.1038 47.0096 35.1038 47.0096 35.1728 47.8726C35.2419 48.5286 35.3109 48.425 35.5526 47.3893C35.7252 46.6644 35.8287 46.0085 35.7942 45.974C35.7252 45.9394 35.4145 46.1811 35.1038 46.5263Z" fill="#0C0C0C"></path>
<path d="M68.3133 47.1132C68.7276 48.6322 69.4525 49.8404 69.6251 49.3226C69.6941 49.1155 69.9013 48.9774 70.0739 49.1155C70.5572 49.3916 70.4191 48.8048 69.8322 48.0453C69.2799 47.3549 69.2799 47.3894 69.5215 48.1834C69.6941 48.7012 69.6251 48.9083 69.418 48.7702C69.2109 48.6667 68.9692 48.0798 68.8311 47.5275C68.693 46.9751 68.4859 46.4228 68.3133 46.3192C68.1407 46.2157 68.1407 46.5609 68.3133 47.1132Z" fill="#0C0C0C"></path>
<path d="M61.5815 49.2535C61.5815 50.738 61.6851 51.8772 61.8577 51.7736C61.9958 51.7046 62.0994 50.5653 62.0994 49.2535C62.0994 47.9417 61.9958 46.8025 61.8577 46.7335C61.6851 46.6299 61.5815 47.7691 61.5815 49.2535Z" fill="#0C0C0C"></path>
<path d="M82.5706 56.7906C82.3634 57.3775 83.0539 58.0334 83.6753 57.8608C83.8824 57.7918 84.055 57.412 84.124 56.9978C84.2276 56.4109 84.055 56.2383 83.5027 56.2383C83.1229 56.2383 82.7087 56.48 82.5706 56.7906ZM83.8479 56.9287C83.8479 57.1013 83.7098 57.2739 83.5027 57.2739C83.33 57.2739 83.1574 57.1013 83.1574 56.9287C83.1574 56.7216 83.33 56.5835 83.5027 56.5835C83.7098 56.5835 83.8479 56.7216 83.8479 56.9287Z" fill="#0C0C0C"></path>
<path d="M41.9045 49.3225C41.7664 49.6677 41.7664 50.2201 41.9045 50.5308C42.1806 51.1176 42.1806 51.1176 42.3187 50.5308C42.4223 50.2201 42.4223 49.6677 42.3187 49.3225C42.1806 48.7702 42.1806 48.7702 41.9045 49.3225Z" fill="#0C0C0C"></path>
<path d="M34.8619 51.3939C34.8965 52.6021 34.9655 53.2925 35.0691 52.9128C35.2072 52.395 35.4143 52.5676 36.1047 53.7068C36.588 54.5353 37.0368 55.0876 37.1404 54.9841C37.2439 54.8805 37.0023 54.3627 36.588 53.8104C36.1738 53.2235 35.8631 52.4295 35.8631 52.0498C35.8631 51.6355 35.6905 51.3248 35.4833 51.3248C35.2417 51.3248 35.1726 50.9451 35.3107 50.2892C35.4143 49.7023 35.3452 49.2535 35.1726 49.2535C34.9655 49.2535 34.8619 50.2201 34.8619 51.3939Z" fill="#0C0C0C"></path>
<path d="M28.1649 50.151C28.0268 50.2891 27.9232 51.0486 27.9577 51.8081L27.9923 53.2234L28.303 51.8771C28.6482 50.4272 28.5791 49.7368 28.1649 50.151Z" fill="#0C0C0C"></path>
<path d="M54.2285 50.9795C53.6071 51.9806 53.7107 52.2223 54.5047 51.4973C55.1951 50.876 55.4022 50.2891 54.9189 50.2891C54.7809 50.2891 54.4702 50.5998 54.2285 50.9795Z" fill="#0C0C0C"></path>
<path d="M63.1006 51.532C63.3768 52.1879 63.6875 52.6021 63.7565 52.4295C63.8946 51.9462 63.2042 50.2892 62.8244 50.2892C62.6863 50.2892 62.7899 50.8415 63.1006 51.532Z" fill="#0C0C0C"></path>
<path d="M33.7919 51.7045C33.7919 52.3604 33.9645 53.1199 34.1371 53.396C34.3787 53.7413 34.4133 53.4306 34.2752 52.3604C33.999 50.4272 33.7919 50.151 33.7919 51.7045Z" fill="#0C0C0C"></path>
<path d="M71.6274 31.9104C71.9036 33.1532 72.4214 34.1543 72.4559 33.4984C72.4559 33.2567 72.6285 33.1532 72.8011 33.2567C73.2154 33.4984 73.2499 32.7389 72.8702 32.2211C72.7321 32.0139 72.3523 31.6687 72.0071 31.3926C71.4203 30.9438 71.3857 30.9783 71.6274 31.9104Z" fill="#0C0C0C"></path>
<path d="M68.6584 51.8772C68.8656 52.3605 69.0037 53.5687 69.0382 54.5353C69.0382 56.0197 69.1072 56.1923 69.4179 55.6055C69.7976 54.777 69.1763 50.9796 68.6584 50.9796C68.4513 50.9796 68.4858 51.3593 68.6584 51.8772Z" fill="#0C0C0C"></path>
<path d="M73.2499 32.1866C73.388 32.5318 73.4916 33.0151 73.4916 33.2567C73.4916 33.5329 73.8368 33.7745 74.2856 33.8436C74.6998 33.9126 75.0105 34.1543 74.976 34.3959C74.8379 34.9137 76.8056 34.9828 77.1163 34.465C77.2544 34.2578 77.4961 34.2233 77.7032 34.3269C77.9103 34.465 78.0139 34.3614 77.9103 34.0852C77.8068 33.8091 77.3925 33.6019 76.9437 33.6019C76.4949 33.6019 76.0807 33.3948 75.9771 33.1532C75.9081 32.9115 75.701 32.8079 75.5283 32.946C75.3557 33.0496 74.7344 32.7734 74.113 32.3592C73.1809 31.6687 73.0428 31.6687 73.2499 32.1866Z" fill="#0C0C0C"></path>
<path d="M62.4447 52.9473C62.4447 53.8103 62.6173 54.4317 62.8244 54.4317C63.0316 54.4317 63.1351 54.6734 62.997 54.9495C62.8935 55.2257 62.9625 55.4673 63.1351 55.4673C63.5149 55.4673 63.2387 52.8782 62.7554 52.0152C62.5483 51.67 62.4792 51.9807 62.4447 52.9473Z" fill="#0C0C0C"></path>
<path d="M25.0579 52.9473C24.9198 53.0508 24.8163 53.396 24.8163 53.7067C24.8508 54.1555 24.9198 54.1555 25.196 53.6377C25.5758 52.9818 25.4722 52.4985 25.0579 52.9473Z" fill="#0C0C0C"></path>
<path d="M20.6736 54.0865C20.6736 54.8805 21.364 55.4673 22.3306 55.4673C23.0901 55.4673 23.1246 55.3983 22.7103 54.915C22.2961 54.3972 22.3306 54.3627 23.0901 54.6043C23.8496 54.846 23.8841 54.8114 23.4698 54.2936C22.883 53.6032 22.6068 53.6032 21.9164 54.2591C21.4676 54.7424 21.364 54.7079 21.0533 54.1901C20.7426 53.6722 20.7081 53.6722 20.6736 54.0865Z" fill="#0C0C0C"></path>
<path d="M35.2071 54.6043C35.1726 55.6054 36.4154 58.1254 36.7606 57.7802C36.8642 57.6767 36.6915 57.1934 36.3463 56.7101C36.0356 56.1922 35.6559 55.2947 35.5178 54.6733L35.2416 53.5686L35.2071 54.6043Z" fill="#0C0C0C"></path>
<path d="M34.3785 55.5364C34.6892 56.1578 34.9309 56.8482 34.8963 57.0899C34.8618 57.297 34.9309 57.5732 35.1035 57.6767C35.6213 57.9874 35.2761 56.2959 34.6547 55.3293C33.8262 54.0865 33.6536 54.1901 34.3785 55.5364Z" fill="#0C0C0C"></path>
<path d="M61.6162 55.6399C61.5126 55.9161 61.5816 56.1577 61.7542 56.1577C61.9614 56.1577 62.0995 55.9161 62.0995 55.6399C62.0995 55.3638 62.0304 55.1221 61.9614 55.1221C61.8923 55.1221 61.7542 55.3638 61.6162 55.6399Z" fill="#0C0C0C"></path>
<path d="M63.8256 55.4673C63.8256 55.64 63.9982 55.8126 64.1708 55.8126C64.3779 55.8126 64.516 55.64 64.516 55.4673C64.516 55.2602 64.3779 55.1221 64.1708 55.1221C63.9982 55.1221 63.8256 55.2602 63.8256 55.4673Z" fill="#0C0C0C"></path>
<path d="M36.8297 56.1578C37.0023 56.6066 37.4165 57.1589 37.7617 57.3661C38.1415 57.5387 38.7283 57.9874 39.1081 58.2981C39.4878 58.6434 39.9366 58.9195 40.1092 58.9195C40.3163 58.9195 40.0747 58.6088 39.6259 58.2291C39.1771 57.8494 38.2796 57.0208 37.6582 56.3995C36.588 55.3983 36.5535 55.3638 36.8297 56.1578Z" fill="#0C0C0C"></path>
<path d="M70.1085 56.5721C70.074 57.2625 69.9359 58.1255 69.8323 58.4707C69.6597 58.954 69.6943 58.9886 70.005 58.7124C70.2466 58.4707 70.3847 57.7113 70.2811 56.8137C70.1776 55.3638 70.143 55.3638 70.1085 56.5721Z" fill="#0C0C0C"></path>
<path d="M61.5815 57.5732C61.4089 58.2981 61.2363 58.5053 61.0637 58.2291C60.8565 57.9184 60.7185 58.022 60.5459 58.6088C60.4078 59.0576 59.9935 59.6445 59.6483 59.8861C59.3031 60.1278 58.6817 60.8182 58.2329 61.4396C57.4734 62.5098 57.508 62.5098 58.9924 61.1979C59.8554 60.4385 60.6494 59.679 60.753 59.5064C60.8911 59.2993 61.2363 59.2647 61.547 59.3683C61.8577 59.5064 62.2719 59.2993 62.6171 58.816C63.3766 57.7458 63.2385 57.228 62.4445 58.2291L61.7886 59.0921L61.9958 57.7803C62.2374 56.2269 61.8922 56.0542 61.5815 57.5732Z" fill="#0C0C0C"></path>
<path d="M66.4836 57.4005C66.1729 57.7457 66.5526 58.229 67.1395 58.229C67.4157 58.229 67.6228 57.9874 67.6228 57.7112C67.6228 57.1934 66.8978 56.9863 66.4836 57.4005Z" fill="#0C0C0C"></path>
<path d="M85.2289 60.0788C85.2289 60.4241 89.1988 61.1835 90.7868 61.149C91.5463 61.1145 91.0285 60.9419 89.3715 60.6312C87.9561 60.3895 86.4371 60.0788 86.0229 59.9753C85.5741 59.8717 85.2289 59.9062 85.2289 60.0788Z" fill="#0C0C0C"></path>
<path d="M37.9343 58.4707C37.9343 58.6433 38.3141 59.1611 38.7974 59.6099C39.2807 60.0587 39.6604 60.2658 39.6604 60.0587C39.6604 59.8861 39.2807 59.3682 38.7974 58.9195C38.3141 58.4707 37.9343 58.2636 37.9343 58.4707Z" fill="#0C0C0C"></path>
<path d="M63.1694 59.0577C62.9623 59.61 62.8242 60.1278 62.9278 60.1969C63.1694 60.473 63.8944 58.9196 63.7218 58.4708C63.6182 58.2291 63.3766 58.5053 63.1694 59.0577Z" fill="#0C0C0C"></path>
<path d="M36.0357 59.5754C36.2083 60.7491 36.45 61.267 36.6571 60.9563C36.7262 60.8872 36.5536 60.2658 36.3119 59.6099L35.8286 58.4017L36.0357 59.5754Z" fill="#0C0C0C"></path>
<path d="M49.5681 58.8159C49.43 58.9195 49.3264 59.4719 49.3264 59.9552C49.3264 60.7146 49.5335 60.9563 50.3621 61.0944C51.6048 61.3705 52.3298 61.1289 52.7786 60.2658C53.0547 59.7825 52.9512 59.5409 52.3643 59.1266C51.5703 58.5743 49.9823 58.4017 49.5681 58.8159ZM51.9155 59.3683C52.7786 60.0242 52.2607 60.6456 50.8454 60.6456C49.9478 60.6456 49.6716 60.5075 49.6716 60.0242C49.6716 58.8505 50.7418 58.5398 51.9155 59.3683Z" fill="#0C0C0C"></path>
<path d="M58.9924 58.9195C58.7162 59.0921 58.5782 59.3338 58.6817 59.4373C58.8198 59.5409 59.096 59.4028 59.3376 59.0921C59.8209 58.5052 59.7174 58.4362 58.9924 58.9195Z" fill="#0C0C0C"></path>
<path d="M36.8987 59.8516C36.8987 60.2313 38.245 62.3717 38.4521 62.3717C38.5557 62.3717 38.3141 61.7503 37.9343 60.9908C37.2784 59.679 36.8987 59.2993 36.8987 59.8516Z" fill="#0C0C0C"></path>
<path d="M41.7317 60.7146C41.7317 61.1289 41.5246 61.2324 40.9722 61.0943C40.3163 60.9562 40.2818 60.9908 40.6961 61.3015C40.9722 61.5086 41.4555 61.6812 41.7317 61.6812C42.0079 61.6812 42.4567 61.9919 42.6983 62.3716C43.009 62.8549 43.4923 63.0621 44.4244 63.0621C45.1148 63.0621 45.9088 63.2001 46.1505 63.3382C46.3921 63.5108 47.048 63.5454 47.6694 63.4763L48.7396 63.3037L47.6349 62.8549C47.048 62.6133 46.3231 62.4752 46.0469 62.5788C45.7707 62.7168 45.4255 62.5442 45.3219 62.2335C45.2184 61.9228 44.9767 61.6812 44.7696 61.6812C44.597 61.6812 44.5625 61.8883 44.7006 62.0955C44.8386 62.3371 44.5279 62.1645 44.0446 61.7157C43.5268 61.2324 43.1126 61.0598 43.1126 61.2669C43.1126 61.4741 43.2852 61.7502 43.4578 61.8538C43.6649 61.9574 43.803 62.2335 43.803 62.4061C43.803 62.9585 43.1126 62.3716 42.3876 61.1979C41.9734 60.542 41.7317 60.3349 41.7317 60.7146Z" fill="#0C0C0C"></path>
<path d="M25.2995 62.0955C25.0923 63.0276 25.0578 63.7525 25.1959 63.7525C25.5756 63.7525 25.9208 62.3026 25.7828 61.3015C25.7137 60.7146 25.5756 60.9217 25.2995 62.0955Z" fill="#0C0C0C"></path>
<path d="M55.7129 60.9563C55.5058 61.1634 54.7463 61.6467 53.9868 61.9919C53.2273 62.3717 52.8476 62.6823 53.1238 62.7169C53.3999 62.7169 54.1594 62.4062 54.8153 61.9919C55.4367 61.6122 56.0236 61.3705 56.1271 61.4396C56.2997 61.6467 53.6416 63.9596 52.3643 64.7191C51.812 65.0298 51.3977 65.4095 51.3977 65.5821C51.3977 66.0654 53.9178 64.3049 55.9891 62.4062C57.1628 61.267 57.8532 60.0587 56.783 60.9563C56.4378 61.2324 56.2652 61.267 56.1617 60.9908C56.0926 60.7491 55.92 60.7491 55.7129 60.9563Z" fill="#0C0C0C"></path>
<path d="M38.6249 61.1979C38.6249 61.3705 39.1082 61.9919 39.6605 62.5442C40.2474 63.0966 40.6962 63.4418 40.6962 63.3037C40.6962 63.1656 41.1795 63.2692 41.7318 63.5799C42.3187 63.8906 42.7674 63.9941 42.7674 63.8215C42.7674 63.4763 41.0414 62.5442 40.5926 62.6478C40.4545 62.6823 39.9367 62.3026 39.4879 61.7848C39.0391 61.2324 38.6249 60.9908 38.6249 61.1979Z" fill="#0C0C0C"></path>
<path d="M60.9602 61.6812C60.8567 62.061 60.8912 62.3717 61.0638 62.3717C61.2019 62.3717 61.409 62.061 61.5126 61.6812C61.6161 61.3015 61.5816 60.9908 61.409 60.9908C61.2709 60.9908 61.0638 61.3015 60.9602 61.6812Z" fill="#0C0C0C"></path>
<path d="M73.2152 42.2323C73.2152 42.7846 73.2843 42.9917 73.3878 42.6465C73.4569 42.3358 73.4569 41.8525 73.3878 41.6109C73.2843 41.4037 73.2152 41.6454 73.2152 42.2323Z" fill="#0C0C0C"></path>
<path d="M58.6128 63.0966C56.507 65.5476 56.507 66.0309 58.6128 63.8215C60.1317 62.2336 60.7186 61.336 60.2698 61.336C60.2008 61.336 59.4413 62.13 58.6128 63.0966Z" fill="#0C0C0C"></path>
<path d="M23.4354 62.4751C23.4354 62.8894 23.1247 63.8215 22.7795 64.5464C22.4342 65.2369 22.2616 65.8237 22.4688 65.8237C22.8485 65.8237 24.0913 63.1311 24.1258 62.268C24.1258 61.9573 23.9877 61.6812 23.7806 61.6812C23.608 61.6812 23.4354 62.0264 23.4354 62.4751Z" fill="#0C0C0C"></path>
<path d="M49.9479 63.3036C49.3956 63.3727 48.9813 63.6143 48.9813 63.8215C48.9813 64.0286 48.6706 64.0976 48.2909 63.9941C47.9457 63.8905 47.5659 63.9941 47.4969 64.2357C47.3933 64.5119 47.1517 64.5119 46.6339 64.2012C46.0815 63.856 45.9089 63.856 45.7708 64.2012C45.6673 64.5119 45.4256 64.5119 44.7352 64.2012C44.2174 63.9596 43.8031 63.925 43.8031 64.0976C43.8031 64.719 47.4624 65.2714 47.8076 64.719C47.9111 64.5464 48.2909 64.4429 48.6706 64.4429C49.0158 64.4429 49.3265 64.2702 49.3265 64.0976C49.3265 63.8905 49.8443 63.7524 50.5003 63.7524C51.1562 63.7524 51.8121 63.5798 51.9156 63.4072C52.1228 63.062 51.7085 63.0275 49.9479 63.3036Z" fill="#0C0C0C"></path>
<path d="M73.4915 43.6131C73.526 43.8203 73.7331 44.3381 74.0438 44.8214L74.5616 45.6844L74.32 44.8214C74.0783 43.9238 73.4915 43.0263 73.4915 43.6131Z" fill="#0C0C0C"></path>
<path d="M39.6605 63.6489C39.6605 63.787 40.0748 64.2013 40.5236 64.5465C41.0069 64.8917 41.3866 65.0298 41.3866 64.8917C41.3866 64.7536 40.9723 64.3394 40.5236 63.9941C40.0403 63.6489 39.6605 63.5108 39.6605 63.6489Z" fill="#0C0C0C"></path>
<path d="M55.5404 63.9251C55.1607 64.3738 55.1952 64.4429 55.7475 64.2358C56.2308 64.0977 56.1963 64.2012 55.5404 64.7536C55.0571 65.1333 54.3321 65.4785 53.9179 65.4785C53.5036 65.4785 53.0894 65.6166 52.9513 65.7892C52.8477 65.9963 53.2965 66.0309 54.056 65.9273C55.4368 65.7202 56.9213 64.65 56.9213 63.856C56.9213 63.2346 56.0582 63.2692 55.5404 63.9251Z" fill="#0C0C0C"></path>
<path d="M59.2687 64.9261C58.5437 65.6856 58.0604 66.376 58.1295 66.4796C58.3711 66.7213 60.8221 64.2012 60.6841 63.856C60.615 63.6834 59.9591 64.1667 59.2687 64.9261Z" fill="#0C0C0C"></path>
<path d="M51.3978 64.1667C47.635 65.8582 47.7041 65.7892 48.7052 65.8237C49.1885 65.8237 49.6718 65.7202 49.7408 65.5476C49.8099 65.4095 50.5348 64.9607 51.3978 64.5464C52.9858 63.787 52.9858 63.4763 51.3978 64.1667Z" fill="#0C0C0C"></path>
<path d="M69.0727 64.8917C69.0382 65.4095 68.762 65.9274 68.4858 66.0309C68.2097 66.169 67.968 66.4797 67.968 66.7559C67.968 67.3773 66.9324 69.3795 66.7252 69.1724C66.6217 69.0688 66.7943 68.5165 67.105 67.8951C68.0025 66.1345 67.4502 66.3071 66.4491 68.1022C65.4825 69.8283 65.3099 70.3461 65.9313 69.7247C66.1384 69.5176 66.5181 69.414 66.7252 69.4831C66.9669 69.5866 67.4502 69.0688 67.8299 68.3439C68.1751 67.6189 68.693 66.8594 68.9346 66.6868C69.2108 66.4452 69.3489 65.8583 69.2453 65.1334C69.1417 64.0977 69.1072 64.0632 69.0727 64.8917Z" fill="#0C0C0C"></path>
<path d="M28.0958 65.3059C28.1993 65.8583 29.0624 67.9295 29.9944 69.8282C31.2717 72.4519 32.0657 73.6256 33.1014 74.4541C33.8954 75.0755 34.5858 75.4897 34.6894 75.3862C34.7929 75.3171 34.3441 74.7993 33.7228 74.2815C32.1348 73.0042 31.2027 71.4507 28.3029 65.1333C27.9232 64.2703 27.9232 64.3048 28.0958 65.3059Z" fill="#0C0C0C"></path>
<path d="M42.4913 64.9952C42.8365 65.3405 43.1817 65.5476 43.2508 65.444C43.3543 65.3405 43.0782 65.0643 42.6639 64.8226C41.939 64.3739 41.939 64.4084 42.4913 64.9952Z" fill="#0C0C0C"></path>
<path d="M11.422 67.1011C10.2137 67.757 9.31616 68.3784 9.3852 68.4819C9.55781 68.62 14.1146 66.2035 14.1146 65.9619C14.1146 65.6512 13.5278 65.9273 11.422 67.1011Z" fill="#0C0C0C"></path>
<path d="M42.0769 66.0654C42.0769 66.4106 43.9065 67.5498 44.3898 67.5498C44.5279 67.5498 44.3553 67.2737 43.9756 66.9975C42.9054 66.169 42.0769 65.7547 42.0769 66.0654Z" fill="#0C0C0C"></path>
<path d="M44.4934 66.0309C44.4934 66.3071 46.8064 67.2046 47.4968 67.2046C47.842 67.1701 47.3587 66.8594 46.3921 66.5142C44.4589 65.7547 44.4934 65.7547 44.4934 66.0309Z" fill="#0C0C0C"></path>
<path d="M47.6003 66.3416C48.0836 66.6177 48.774 66.8249 49.1537 66.8594C50.1894 66.8594 49.3263 66.2725 47.9455 66.0654C46.7372 65.8583 46.7372 65.8583 47.6003 66.3416Z" fill="#0C0C0C"></path>
<path d="M50.1894 66.5142C50.5347 67.0665 52.7786 67.3427 53.2273 66.8594C53.5725 66.5142 53.4345 66.4796 52.7095 66.6523C52.1226 66.7903 51.7429 66.7213 51.7429 66.5142C51.7429 66.3416 51.3287 66.169 50.8454 66.169C50.3621 66.169 50.0514 66.307 50.1894 66.5142Z" fill="#0C0C0C"></path>
<path d="M26.1971 67.101C26.1971 67.5498 26.0935 67.5843 25.7829 67.2736C25.196 66.6868 24.6436 66.7558 25.1615 67.3772C25.5067 67.7914 25.5067 67.895 25.0924 67.895C24.8163 67.895 24.4365 67.7224 24.2639 67.5498C24.0568 67.3427 23.6425 67.2736 23.2973 67.4117C22.745 67.6188 22.745 67.6879 23.2973 68.2747C23.8842 68.9307 25.0924 68.8961 25.5067 68.2057C25.6102 68.0676 26.2316 67.895 26.8875 67.826L28.0613 67.7224L27.1292 67.101C26.2662 66.5487 26.1971 66.5487 26.1971 67.101Z" fill="#0C0C0C"></path>
<path d="M71.4203 47.5486C71.006 48.3771 70.9715 48.7223 71.3858 48.4806C71.6965 48.2735 72.1452 46.8927 71.9036 46.8927C71.8345 46.8927 71.6274 47.2034 71.4203 47.5486Z" fill="#0C0C0C"></path>
<path d="M54.6082 67.2737C54.1594 67.4808 53.8142 67.7915 53.8142 67.9296C53.8142 68.2748 55.8165 67.5844 56.0926 67.1701C56.3343 66.7559 55.5403 66.8249 54.6082 67.2737Z" fill="#0C0C0C"></path>
<path d="M65.5861 67.9296C65.3445 68.3439 65.2409 68.7236 65.3099 68.8272C65.4135 68.9307 65.6897 68.6546 65.8968 68.2403C66.4146 67.2737 66.173 67.0321 65.5861 67.9296Z" fill="#0C0C0C"></path>
<path d="M30.6849 67.9296C30.6849 68.7926 33.3776 72.3138 34.2406 72.59C34.6549 72.7281 35.3799 73.1078 35.8286 73.4875C36.2774 73.8328 36.7262 74.0399 36.8297 73.9363C37.0714 73.6947 35.4144 72.4174 34.793 72.3829C34.1371 72.3829 33.136 71.3127 31.7551 69.1378C31.1682 68.1712 30.6849 67.6534 30.6849 67.9296Z" fill="#0C0C0C"></path>
<path d="M50.017 67.8951C49.6027 68.1712 49.7063 68.2403 50.4657 68.2403C50.9836 68.2403 51.3978 68.0677 51.3978 67.8951C51.3978 67.4463 50.7074 67.4463 50.017 67.8951Z" fill="#0C0C0C"></path>
<path d="M32.9287 68.62C34.4132 70.4497 35.3107 71.3472 35.6214 71.3472C35.794 71.3472 35.2762 70.6223 34.4477 69.6902C32.8942 67.9987 31.7205 67.1701 32.9287 68.62Z" fill="#0C0C0C"></path>
<path d="M36.2084 68.1022C36.2084 68.2402 36.5536 68.7235 36.9678 69.1723C37.9344 70.208 37.313 70.1734 35.7251 69.1033C34.2752 68.1367 33.999 68.5509 35.4489 69.5521C36.0358 69.9663 36.9333 70.208 37.9344 70.208C39.2462 70.208 39.3843 70.1389 38.832 69.8282C38.4868 69.6211 37.7273 69.0688 37.2095 68.6545C36.6571 68.2057 36.2084 67.9641 36.2084 68.1022Z" fill="#0C0C0C"></path>
<path d="M45.8744 68.2403C45.8744 68.4129 46.2886 68.5855 46.841 68.551C47.6695 68.551 47.704 68.5165 47.0826 68.2403C46.1506 67.826 45.8744 67.826 45.8744 68.2403Z" fill="#0C0C0C"></path>
<path d="M64.1707 68.8961C64.1707 69.0687 63.6184 69.7937 62.9625 70.5186C61.5471 72.003 61.34 72.5208 62.6518 71.3126C63.8946 70.1734 64.9993 68.5854 64.5505 68.5854C64.3434 68.5854 64.1707 68.7235 64.1707 68.8961Z" fill="#0C0C0C"></path>
<path d="M82.467 80.1962C82.467 80.783 83.2956 81.508 83.6062 81.1973C84.1241 80.6795 83.8134 79.7129 83.1575 79.7129C82.7777 79.7129 82.467 79.92 82.467 80.1962ZM83.5027 80.4033C83.5027 80.5759 83.4336 80.7485 83.3646 80.7485C83.261 80.7485 83.0884 80.5759 82.9849 80.4033C82.8813 80.1962 82.9503 80.0581 83.1229 80.0581C83.3301 80.0581 83.5027 80.1962 83.5027 80.4033Z" fill="#0C0C0C"></path>
<path d="M67.6572 73.3839C66.1728 75.1791 66.0347 75.4207 67.0704 74.4541C68.4167 73.2113 69.8666 71.3817 69.6595 71.2091C69.5904 71.1401 68.6929 72.1412 67.6572 73.3839Z" fill="#0C0C0C"></path>
<path d="M54.3322 71.6924C54.2286 71.865 54.2631 72.0376 54.4703 72.0376C54.6429 72.0376 54.9191 71.865 55.0226 71.6924C55.1262 71.4853 55.0917 71.3472 54.8845 71.3472C54.7119 71.3472 54.4358 71.4853 54.3322 71.6924Z" fill="#0C0C0C"></path>
<path d="M35.863 72.0376C35.863 72.4174 37.1749 73.1423 37.5891 73.0042C37.7617 72.9352 37.451 72.6245 36.8987 72.3138C36.3118 72.0031 35.863 71.865 35.863 72.0376Z" fill="#0C0C0C"></path>
<path d="M37.5892 72.0376C38.2796 72.4864 38.7284 72.4864 38.4522 72.0376C38.3486 71.8305 37.9689 71.6924 37.6582 71.6924C37.1404 71.6924 37.1404 71.7615 37.5892 72.0376Z" fill="#0C0C0C"></path>
<path d="M75.908 52.4162C75.9425 52.9685 76.84 54.3494 77.0817 54.1077C77.1507 54.0387 76.9091 53.4863 76.5639 52.934C76.1841 52.3471 75.908 52.14 75.908 52.4162Z" fill="#0C0C0C"></path>
<path d="M25.0925 72.2102C25.0234 72.3138 23.1593 72.8316 20.9844 73.384C18.8096 73.9363 17.3942 74.4196 17.7739 74.4196C18.8441 74.4541 25.2306 72.7971 25.6448 72.3828C25.8865 72.1412 25.8865 72.0376 25.6448 72.0376C25.4377 72.0376 25.196 72.1067 25.0925 72.2102Z" fill="#0C0C0C"></path>
<path d="M66.4836 73.0042C65.5861 73.9363 65.2409 74.6957 65.8968 74.2815C66.242 74.0743 67.7264 72.0376 67.5538 72.0376C67.4502 72.0376 67.0014 72.4864 66.4836 73.0042Z" fill="#0C0C0C"></path>
<path d="M64.8611 73.3149C64.0671 74.1434 64.0671 74.1779 64.7575 73.8327C65.517 73.4185 66.0693 72.7971 65.8277 72.5554C65.7586 72.4864 65.3444 72.8316 64.8611 73.3149Z" fill="#0C0C0C"></path>
<path d="M52.4335 73.0733L51.5704 73.3495L52.4335 73.384C52.9168 73.384 53.5382 73.2459 53.8143 73.0733C54.2631 72.7626 54.2631 72.7281 53.8143 72.7626C53.5382 72.7971 52.9168 72.9352 52.4335 73.0733Z" fill="#0C0C0C"></path>
<path d="M41.3866 73.6946C41.3866 73.9017 41.6973 73.9708 42.077 73.8672C42.8365 73.6601 43.0436 74.2815 42.3532 74.5922C42.1115 74.6957 42.2151 74.7648 42.5948 74.6957C43.6305 74.5576 43.4234 73.6256 42.3532 73.4875C41.8009 73.4184 41.3866 73.522 41.3866 73.6946Z" fill="#0C0C0C"></path>
<path d="M71.5584 54.3148C71.2132 54.591 71.0751 54.8326 71.2823 54.8326C71.4894 54.8326 71.8691 54.591 72.1108 54.3148C72.6631 53.6589 72.4215 53.6589 71.5584 54.3148Z" fill="#0C0C0C"></path>
<path d="M82.8123 82.8198C82.8123 82.9924 83.0884 83.165 83.4682 83.165C83.8134 83.165 85.9537 84.0971 88.1631 85.2363C90.407 86.3755 92.3056 87.2731 92.3747 87.1695C92.6854 86.8588 83.9169 82.4746 82.9849 82.4746C82.8813 82.4746 82.8123 82.6127 82.8123 82.8198Z" fill="#0C0C0C"></path>
<path d="M51.8465 74.3505C52.1572 74.4196 52.6405 74.4196 52.8821 74.3505C53.0893 74.2469 52.8476 74.1779 52.2608 74.1779C51.7084 74.1779 51.5013 74.2469 51.8465 74.3505Z" fill="#0C0C0C"></path>
<path d="M78.3244 55.0053C78.566 55.316 78.8422 55.4541 78.9112 55.385C79.1529 55.1434 78.6696 54.4875 78.2553 54.4875C78.0482 54.4875 78.0482 54.6946 78.3244 55.0053Z" fill="#0C0C0C"></path>
<path d="M31.3754 75.835C31.3754 76.0076 31.7206 76.3528 32.1694 76.5599C32.9288 76.9742 32.9288 76.9742 32.2729 76.2147C31.548 75.4207 31.3754 75.3172 31.3754 75.835Z" fill="#0C0C0C"></path>
<path d="M48.3254 75.8695C48.7742 76.1457 51.3633 76.3528 51.0181 76.0421C50.949 75.9731 50.1896 75.835 49.3611 75.7314C48.3599 75.5933 47.9802 75.6624 48.3254 75.8695Z" fill="#0C0C0C"></path>
<path d="M16.6692 77.9408C16.5656 78.1479 16.6346 78.4931 16.8418 78.7003C17.1179 78.9764 17.2215 78.9074 17.2215 78.4931C17.2215 78.1824 17.4632 77.9063 17.7393 77.9063C18.3262 77.9063 18.4643 78.8038 17.9119 79.0455C17.7048 79.149 17.7393 79.1836 17.981 79.149C18.2226 79.1145 18.4643 78.7348 18.5333 78.3205C18.6369 77.6991 18.4643 77.5611 17.7738 77.5611C17.2905 77.5611 16.8072 77.7337 16.6692 77.9408Z" fill="#0C0C0C"></path>
<path d="M27.3019 79.1491C26.0937 80.4263 26.1972 80.668 27.5781 79.7014C28.0614 79.3907 28.4756 78.8384 28.5447 78.4931C28.6828 77.7337 28.6483 77.7337 27.3019 79.1491Z" fill="#0C0C0C"></path>
<path d="M63.5148 79.218C63.1005 79.9775 62.8934 82.2904 63.2386 82.6011C63.3767 82.7392 63.4803 82.2904 63.4803 81.6C63.4803 80.9441 63.6184 79.9775 63.8255 79.4942C64.2052 78.4586 63.9981 78.286 63.5148 79.218Z" fill="#0C0C0C"></path>
<path d="M68.7619 79.8049C68.4513 80.668 68.9 83.119 69.5214 83.7404C70.0392 84.2582 70.0392 84.1546 69.5214 82.7393C69.2107 81.8762 69.0381 80.7715 69.1417 80.2192C69.3488 79.2181 69.1072 78.9419 68.7619 79.8049Z" fill="#0C0C0C"></path>
<path d="M65.2064 81.9108C65.2064 82.8429 65.379 83.844 65.5516 84.1201C65.7588 84.4308 65.7933 83.913 65.6552 82.5667C65.4135 79.9776 65.2064 79.6669 65.2064 81.9108Z" fill="#0C0C0C"></path>
<path d="M64.067 80.9096C63.6873 81.2548 63.7908 83.0154 64.1706 83.2571C64.3777 83.3952 64.5158 82.9119 64.5158 82.0834C64.5158 80.6335 64.4467 80.4954 64.067 80.9096Z" fill="#0C0C0C"></path>
<path d="M70.2118 82.5321C70.3499 83.119 70.9022 84.0511 71.4891 84.6034C72.2831 85.4319 72.4557 85.501 72.145 84.9141C71.9378 84.4998 71.5926 84.0511 71.3855 83.913C71.1784 83.8094 70.7641 83.2225 70.5225 82.6012L70.0046 81.531L70.2118 82.5321Z" fill="#0C0C0C"></path>
<path d="M14.2181 83.1881C12.8718 83.7059 12.2159 84.2927 13.4241 83.9475C14.4598 83.6368 16.1513 82.7738 15.668 82.7738C15.4954 82.7738 14.8395 82.9809 14.2181 83.1881Z" fill="#0C0C0C"></path>
<path d="M32.2491 76.4207C30.7939 77.9225 30.6727 78.4096 31.5619 79.1402C32.047 79.5461 32.1682 80.845 32.1682 86V92.3727L34.3105 94.4834C35.4827 95.6605 36.6549 96.5941 36.8974 96.5941C37.1399 96.5941 37.8675 95.9446 38.5142 95.1328L39.7268 93.631L41.3032 95.2952L42.92 97L45.6282 94.2399L48.2959 91.5203L48.1342 85.4317C48.0129 80.3173 48.0938 79.262 48.6192 78.6531C49.1851 78.0037 49.1851 77.8413 48.1746 76.5018C47.5683 75.7306 46.8408 75.0812 46.5174 75.0812C46.2345 75.0812 45.426 75.7712 44.7389 76.583C43.5263 78.0443 43.5263 78.1661 44.2134 78.7343C44.7793 79.262 44.9006 79.952 44.8602 83.1993C44.8197 85.31 44.7793 88.5166 44.7389 90.262L44.6985 93.4686L43.2838 91.8856L41.9095 90.3026L41.8691 84.7417C41.8691 81.4539 42.0308 79.0996 42.2733 78.9373C42.9604 78.5314 42.7179 77.8007 41.4244 76.3395L40.1714 75L38.595 76.5424C37.1803 77.9225 37.0995 78.1255 37.6249 78.7343C38.3525 79.5461 38.7567 85.9594 38.3929 90.2214L38.11 92.9815L36.7761 91.6827L35.4018 90.3432V84.8635C35.4018 80.4797 35.5231 79.262 36.0486 78.6937C36.6144 78.0849 36.574 77.8819 35.4018 76.5424C34.6743 75.7306 33.9871 75.0812 33.8254 75.0812C33.6638 75.0812 32.9766 75.69 32.2491 76.4207ZM33.3808 76.9077C33.0979 77.2731 32.7745 77.4354 32.6937 77.3542C32.4107 77.0701 32.9766 76.2989 33.4617 76.2989C33.7042 76.2989 33.7042 76.5424 33.3808 76.9077ZM36.3719 93.9557C36.1294 94.6052 35.4018 94.8081 35.4018 94.2399C35.4018 93.7934 35.8465 93.3469 36.2507 93.3469C36.4528 93.3469 36.4932 93.631 36.3719 93.9557Z" fill="black"></path>
<path d="M54.4945 76.7486L52.8559 78.4566V85.5323C52.8559 91.2255 52.7416 92.7708 52.2843 93.2994C51.789 93.8688 51.8652 94.1128 53.1227 95.4547L54.4945 97L55.7901 95.658C57.1619 94.2348 57.3143 93.6654 56.5141 92.9335C56.0949 92.5268 55.9806 90.8189 56.0949 83.7431C56.1711 78.9445 56.1711 75 56.133 75C56.133 75.0407 55.3709 75.8133 54.4945 76.7486Z" fill="black"></path>
<path d="M61.4934 76.5028L60 78.0452V84.887V91.6893L61.8472 93.8644C62.869 95.0508 63.9694 96 64.3231 96C64.7162 96 65.8952 94.9718 66.9956 93.6667L69 91.3729L67.8996 90.3051L66.8384 89.2768L65.6987 90.4633C63.4978 92.7571 63.3799 92.3616 63.1441 83.226L62.9476 75L61.4934 76.5028Z" fill="black"></path>
<path d="M76.2533 63.7737C77.1163 64.1534 79.4638 65.2926 81.5005 66.3628C83.5718 67.4329 85.505 68.296 85.8157 68.296C86.1264 68.296 84.0551 67.1222 81.1898 65.7069C78.29 64.2915 75.6664 63.1177 75.3212 63.1523C74.976 63.1523 75.3902 63.4284 76.2533 63.7737Z" fill="#0C0C0C"></path>
<path d="M66.6218 83.4297C66.6218 83.7059 66.829 84.3272 67.1396 84.8105L67.6575 85.6736L67.4158 84.8105C67.3123 84.3272 67.0706 83.7059 66.898 83.4297C66.6563 82.9809 66.6218 82.9809 66.6218 83.4297Z" fill="#0C0C0C"></path>
<path d="M29.6838 88.1246C29.6838 88.5043 29.7873 88.6079 29.8909 88.3317C29.9945 88.0901 29.9599 87.7794 29.8564 87.6758C29.7528 87.5377 29.6493 87.7449 29.6838 88.1246Z" fill="#0C0C0C"></path>
<path d="M30.3742 88.5043C30.3742 88.7114 30.2361 89.1947 30.1325 89.5399C29.9599 90.0232 29.9944 90.0578 30.3051 89.7816C30.5468 89.5399 30.6849 89.0912 30.5813 88.746C30.4777 88.3662 30.4087 88.2627 30.3742 88.5043Z" fill="#0C0C0C"></path>
<path d="M66.6218 89.4709C66.6564 90.8518 66.6564 90.8518 66.967 89.8162C67.1397 89.1948 67.1397 88.6769 66.9325 88.4698C66.6909 88.2282 66.5873 88.6079 66.6218 89.4709Z" fill="#0C0C0C"></path>
<path d="M73.8367 69.9876C73.8367 70.1947 74.0438 70.3673 74.2854 70.3673C74.5271 70.3673 76.046 70.9887 77.634 71.7482C79.222 72.5422 80.2922 72.9219 80.085 72.6457C79.6363 72.1279 76.1496 70.3328 74.6307 69.884C74.1474 69.7114 73.8367 69.7805 73.8367 69.9876Z" fill="#0C0C0C"></path>
<path d="M67.5192 90.1959C67.243 90.4721 67.5882 92.0946 68.0025 92.5434C68.1751 92.716 68.2096 92.2672 68.0715 91.5077C67.8299 89.9542 67.8299 89.9197 67.5192 90.1959Z" fill="#0C0C0C"></path>
<path d="M27.578 90.8173C27.578 90.8863 27.8542 91.1625 28.1994 91.4041C28.7172 91.8529 28.7517 91.8184 28.303 91.2661C27.8542 90.7137 27.578 90.5411 27.578 90.8173Z" fill="#0C0C0C"></path>
</svg>