<svg width="100" height="100" viewBox="0 0 100 100" fill="none" xmlns="http://www.w3.org/2000/svg">
<path d="M47.1221 0.197275C46.8904 0.243629 44.8971 0.707168 42.7185 1.12435C35.8118 2.56132 29.3222 4.92537 24.6405 7.75296C18.4291 11.4613 13.7473 15.3086 13.2374 17.1628C12.9593 18.1362 12.0786 19.156 10.7343 20.1295C8.18485 21.8909 5.82081 26.0628 3.82759 32.4132C1.83437 38.8564 1 44.6043 1 52.0673C1 58.186 1.09271 58.9277 2.57603 63.4703C4.75467 70.2844 8.41662 77.6083 10.827 80.0187C11.9395 81.0848 13.4228 82.7536 14.1645 83.727C18.939 89.9848 32.567 97.3087 42.9503 99.1628C50.1351 100.461 53.1018 100.322 61.5845 98.2358C70.4381 96.0108 74.7491 94.342 77.2522 92.2098C77.7621 91.7462 79.06 90.8655 80.1725 90.1702C81.2386 89.5212 82.6756 88.316 83.4172 87.528C84.1125 86.6936 85.874 84.8858 87.4037 83.4489C90.2313 80.7604 96.9526 72.0922 96.9526 71.1651C96.9526 70.887 96.6281 70.238 96.2573 69.7745C95.1911 68.3839 95.4229 67.3641 96.9062 66.7151C98.3895 66.1125 98.4359 65.9735 99.2703 57.6761C99.7802 52.3918 99.4557 40.0616 98.7604 37.2804C97.4161 31.996 95.3302 26.4336 94.2177 24.9966C93.5224 24.1159 92.3172 22.169 91.6219 20.6857C90.8802 19.2024 89.7214 17.5336 89.0724 16.9774C88.4235 16.4211 87.2646 15.1232 86.4766 14.1034C85.6422 13.0837 84.1125 11.6003 83.0928 10.8587C82.0266 10.0707 80.636 9.05087 79.987 8.49462C76.4178 5.52797 66.9152 1.86602 59.2205 0.475399C56.7637 0.0118597 48.281 -0.173556 47.1221 0.197275ZM59.2669 2.32955C66.1272 3.81288 75.5371 7.79931 78.9209 10.5805C80.2652 11.693 80.5433 12.2493 80.4042 13.1764C80.1261 14.6133 81.5167 15.355 82.3511 14.1962C83.0464 13.2227 83.5563 13.6863 83.2318 15.0305C83 15.9576 83.3245 16.2357 85.4568 17.2555C86.8011 17.9045 88.3771 19.0633 88.9333 19.805C90.6484 22.1227 94.4958 29.7247 95.2375 32.1815C95.6083 33.433 96.2573 35.2408 96.6281 36.1215C97.4625 38.1611 98.575 51.372 98.2041 55.0339C97.8333 58.6495 97.5552 59.2521 96.4427 58.974C95.9791 58.835 95.562 58.9277 95.562 59.1594C95.562 59.4376 95.0521 59.5303 94.4031 59.3912C93.0588 59.1594 93.337 58.3714 94.7739 58.3714C95.7474 58.3251 95.7474 58.3251 94.6349 57.6761C93.476 57.0272 93.6614 56.7954 95.2375 56.9344C95.6547 56.9808 96.0255 56.7954 96.0255 56.5636C96.0255 56.2855 95.6083 56.0537 95.0984 56.0537C94.5885 56.0537 94.1713 55.822 94.1713 55.5902C94.1713 55.3121 94.6349 55.1266 95.2375 55.1266C96.2573 55.0803 96.2573 55.0803 95.0984 54.4313L93.9396 53.7824L95.2375 53.736C95.9791 53.736 96.4427 53.5506 96.2573 53.2725C96.1182 52.9944 95.562 52.809 95.0521 52.809C94.4958 52.809 94.264 52.6235 94.4031 52.2991C94.5885 52.0209 95.0057 51.9282 95.3765 52.0673C95.701 52.2063 96.1182 52.1136 96.2573 51.8819C96.4427 51.6037 96.0255 51.4183 95.3765 51.4183C94.7276 51.4183 94.1713 51.1866 94.1713 50.9548C94.1713 50.6767 94.6812 50.4913 95.3302 50.4913C95.9791 50.4913 96.489 50.2595 96.489 50.0277C96.489 49.7496 95.9791 49.5642 95.3302 49.5642C94.6812 49.5642 94.1713 49.3324 94.1713 49.1006C94.1713 48.8225 94.8203 48.6371 95.562 48.6371C96.35 48.6371 96.9526 48.4053 96.9526 48.1736C96.9526 47.8954 96.3036 47.71 95.5156 47.71C94.7276 47.71 94.2177 47.5246 94.4031 47.2465C94.5422 47.0147 94.9594 46.922 95.2838 47.0611C95.6547 47.2001 96.0718 47.1074 96.2573 46.8293C96.4427 46.5048 96.0718 46.3194 95.3765 46.3194C93.8469 46.3194 93.8005 45.485 95.3302 45.1142C95.9791 44.9751 96.489 44.6507 96.489 44.4189C96.489 44.1871 95.9328 44.1408 95.2838 44.2798C94.4031 44.5116 94.125 44.4652 94.3568 44.0481C94.5422 43.7699 95.0984 43.5382 95.6083 43.5382C96.0718 43.5382 96.489 43.3064 96.489 43.0283C96.489 42.7038 95.9328 42.6574 95.0057 42.8429C93.6151 43.0746 93.5687 43.0283 94.3104 42.472C95.2838 41.684 95.3302 41.1741 94.4495 41.4986C94.0786 41.6377 93.6614 41.4986 93.476 41.2205C93.2906 40.896 93.5687 40.5715 94.125 40.4325C94.6812 40.2934 95.0984 39.9689 95.0984 39.7372C95.0984 39.5054 94.6812 39.459 94.1713 39.5981C93.1052 39.9226 92.8734 38.9955 93.9396 38.6247C95.0057 38.2075 94.7739 37.5585 93.6151 37.8366C92.6417 38.0221 92.5953 37.9757 93.3833 37.3731C94.4495 36.4924 94.4031 36.1679 93.2443 36.446C92.0854 36.7705 92.0391 36.2143 93.1516 35.3335C93.8932 34.7309 93.8469 34.6846 92.9198 34.9627C91.7146 35.2872 91.4365 34.4065 92.549 33.9893C93.6151 33.5721 93.3833 32.7841 92.3172 33.1085C91.1583 33.4794 91.112 32.9695 92.2245 32.0888C92.9198 31.4862 92.8734 31.4398 91.6219 31.6716C90.3703 31.9497 90.324 31.9033 91.0656 31.3471C92.1781 30.42 92.0391 29.9565 90.8339 30.3273C89.9531 30.6054 89.8604 30.5591 90.3703 30.0492C91.1583 29.2148 91.0656 28.6586 90.2313 28.983C89.8604 29.1685 89.5359 29.0294 89.5359 28.7513C89.5359 28.4732 89.7677 28.2414 89.9995 28.2414C90.2776 28.2414 90.463 28.0096 90.463 27.7315C90.463 27.4534 90.0458 27.3607 89.5359 27.5461C88.3771 27.9169 88.3307 27.407 89.4432 26.5263C90.1385 25.9237 90.1385 25.8773 88.9797 26.1555C88.238 26.2945 87.6818 26.2018 87.6818 25.9237C87.6818 25.6919 87.9136 25.4602 88.1453 25.4602C88.4235 25.4602 88.6089 25.2284 88.6089 24.9503C88.6089 24.6721 88.2844 24.5331 87.9136 24.7185C87.0792 25.043 86.9865 24.4867 87.7745 23.6987C88.1917 23.2815 88.1917 23.1425 87.8209 23.1425C87.4964 23.1425 87.1255 23.3742 86.9865 23.606C86.8011 23.8841 86.4766 23.9305 86.1985 23.7914C85.9203 23.606 85.9203 23.3279 86.2448 23.0034C87.0328 22.2154 86.8474 21.5664 86.0594 22.2154C85.1323 23.0034 84.5761 22.4471 85.3641 21.5201C86.0594 20.6393 85.5959 19.944 84.8078 20.7321C83.8808 21.6591 83.3245 21.3347 84.2052 20.3612C84.6688 19.8513 84.8078 19.4341 84.5297 19.4341C84.2516 19.4341 83.8808 19.6659 83.7417 19.8977C83.5563 20.1758 83.2318 20.2222 82.9537 20.0831C82.6756 19.8977 82.6756 19.6196 83 19.2951C83.7881 18.5071 83.6026 17.8581 82.8146 18.5071C81.8876 19.2951 81.3313 18.7388 82.1193 17.8118C82.4902 17.3946 82.4902 17.1164 82.212 17.1164C81.9339 17.1164 81.5631 17.3482 81.424 17.58C81.2386 17.8581 80.9141 17.9045 80.636 17.7654C80.3579 17.58 80.3579 17.3019 80.6824 16.9774C81.5631 16.0967 81.2386 15.5404 80.3579 16.3284C79.1527 17.4409 78.5501 17.3019 79.5699 16.1894C80.4969 15.1232 80.2188 14.9842 78.8746 15.8185C77.623 16.6066 77.1595 15.9112 78.1792 14.7988C79.199 13.6399 78.5964 13.5936 77.3449 14.6597C76.4178 15.4477 76.4178 15.4477 76.7423 14.567C77.5303 12.5274 77.5303 12.2956 76.6496 13.2691C75.4907 14.6133 74.9808 14.6597 75.6298 13.3618C75.9543 12.8519 76.047 12.2956 75.9079 12.1566C75.7688 12.0175 75.5371 12.2493 75.3517 12.6665C74.8881 13.918 74.1001 13.5008 74.4246 12.1102C74.7027 10.9977 74.6563 10.9514 74.1001 11.6467C73.173 12.8519 72.8022 12.6665 73.0803 11.1831C73.3121 10.1634 73.2657 10.0707 72.8485 10.7196C72.1069 11.8785 71.5043 11.7394 71.7824 10.4878C71.9678 9.56076 71.9215 9.51441 71.3189 10.2561C70.3918 11.4613 70.021 11.2759 70.2991 9.79253C70.5772 8.63368 70.5308 8.63368 69.9282 9.32899C69.0475 10.4415 68.723 10.3951 69.0012 9.09722C69.1866 8.17015 69.1402 8.12379 68.5376 8.86545C67.6106 10.0707 67.2397 9.88524 67.5642 8.49462C67.796 7.6139 67.7496 7.33578 67.3324 7.56755C67.0543 7.75296 66.8225 8.17015 66.8225 8.49462C66.8225 8.91181 66.4054 9.05087 65.6637 8.86545C64.5048 8.68004 64.0413 7.24307 64.9684 6.68682C65.6173 6.26964 65.571 5.85245 64.6903 4.78631C63.9949 3.95194 63.9949 3.95194 64.2267 5.01808C64.5048 6.31599 63.7632 8.44827 63.1142 8.07744C62.8825 7.93838 62.7897 7.19671 62.9288 6.50141C63.0679 5.75974 63.0215 5.06443 62.7434 4.87902C62.5116 4.73996 62.3262 5.15714 62.3262 5.8061C62.3262 6.45505 62.0944 7.19671 61.8163 7.47484C61.4455 7.84567 61.3528 7.52119 61.5382 6.36234C61.7236 5.43527 61.5845 4.32277 61.3064 3.85923C60.8429 3.07122 60.7965 3.07122 60.8429 4.13736C60.9819 6.26964 60.7965 7.38213 60.2866 7.38213C59.9622 7.38213 59.8695 6.91859 60.0549 6.22328C60.2403 5.57433 60.1476 5.06443 59.8695 5.06443C59.6377 5.06443 59.4059 5.48162 59.4059 5.99151C59.4059 6.50141 59.0814 6.91859 58.7106 6.91859C58.1544 6.91859 58.0616 6.59411 58.2934 5.71339C58.5252 4.83267 58.4788 4.55454 58.0616 4.78631C57.7835 4.97173 57.5518 5.43527 57.5518 5.8061C57.5518 6.17693 57.3663 6.45505 57.1346 6.45505C56.9028 6.45505 56.8101 6.03787 56.9492 5.52797C57.0882 5.01808 56.9492 4.6009 56.671 4.6009C56.3929 4.6009 56.1611 5.01808 56.1611 5.57433C56.1611 6.82588 55.2341 6.22328 55.1877 4.92537C55.1877 3.95194 55.1414 3.95194 54.6315 5.06443L54.1216 6.22328L53.9362 4.92537C53.7507 3.34934 52.9164 3.25663 52.9164 4.83267C52.9164 6.26964 51.9893 6.36234 51.9429 4.92537V3.90559L51.433 4.97173L50.8768 6.03787L50.3205 4.73996L49.7643 3.44205L49.7179 4.6936C49.6716 6.13057 48.7445 6.50141 48.7445 5.11079C48.7445 4.6009 48.5591 4.04465 48.281 3.90559C48.0029 3.72017 47.8174 4.13736 47.8174 4.78631C47.8174 6.26964 46.8904 6.4087 46.844 4.92537C46.7977 3.9983 46.7513 3.9983 46.5659 4.83267C46.2414 6.26964 45.4997 6.77953 45.4997 5.66704C45.4997 4.13736 44.5727 3.85923 44.5263 5.38891L44.48 6.68682L43.8774 5.2962L43.2284 3.90559L43.182 5.38891C43.182 6.22328 42.9966 6.91859 42.7185 6.91859C42.4867 6.91859 42.255 6.50141 42.255 6.03787C42.255 5.52797 42.0232 4.97173 41.7451 4.78631C41.4206 4.6009 41.2815 4.92537 41.4206 5.8061C41.606 7.52119 40.7253 7.70661 40.03 6.13057L39.4737 4.83267L39.6592 6.08422C39.7519 6.82588 39.6128 7.38213 39.4274 7.38213C39.1956 7.38213 39.0102 7.10401 39.0102 6.73318C39.0102 6.36234 38.7784 5.8988 38.5003 5.71339C38.1295 5.48162 38.0368 5.75974 38.1758 6.64047C38.454 7.93838 37.7586 8.30921 37.3415 7.15036C36.9243 6.13057 36.2753 6.31599 36.5534 7.38213C36.6925 7.89202 36.5534 8.30921 36.2753 8.30921C35.9972 8.30921 35.7654 7.98473 35.7654 7.6139C35.7654 7.24307 35.5337 6.91859 35.2555 6.91859C34.9311 6.91859 34.8383 7.38213 35.0238 8.07744C35.3946 9.46806 34.5602 9.65347 34.143 8.30921C34.004 7.79931 33.6331 7.38213 33.4014 7.38213C32.8451 7.38213 32.8915 7.70661 33.4477 8.8191C34.0503 9.93159 33.5868 9.97795 32.4279 8.91181C31.5472 8.12379 31.5472 8.17015 31.8717 9.46806L32.1962 10.8587L31.13 9.93159L30.0639 9.00452L30.2957 10.0243C30.6201 11.2759 30.342 11.3686 29.1832 10.3024C28.7196 9.88524 28.3488 9.79253 28.3488 10.0707C28.3488 10.3488 28.5806 10.7196 28.8123 10.8587C29.0905 11.0441 29.1368 11.3686 28.9978 11.6467C28.8123 11.9712 28.3488 11.693 27.8389 11.0441C27.2363 10.2561 26.9582 10.117 26.9582 10.6269C26.9582 11.0441 27.19 11.6003 27.5144 11.9248C28.3488 12.7592 27.3754 12.5738 26.4019 11.693C25.4749 10.8587 25.2431 11.5076 26.1238 12.3884C27.0509 13.3154 26.0775 13.5936 25.104 12.7128C24.1306 11.8321 23.7598 12.342 24.7332 13.3154C25.6603 14.2425 24.6868 14.5206 23.7134 13.6399C22.74 12.7592 22.3691 13.2691 23.3426 14.2425C24.2697 15.1696 23.2962 15.4477 22.2301 14.5206C21.5348 13.8717 21.303 13.8253 21.4884 14.3352C21.6275 14.706 21.952 15.4477 22.1374 15.9576C22.4619 16.8847 22.4619 16.8847 21.4884 16.004C20.4223 15.0769 20.0515 15.5868 21.0712 16.6066C21.5348 17.0701 21.3494 17.1164 20.2369 16.8383C18.9853 16.5138 18.8926 16.5602 19.4489 17.2555C20.4223 18.368 19.6343 19.2024 18.5681 18.2289C17.641 17.3946 17.3166 17.9508 18.2437 18.8779C19.0317 19.6659 18.3364 20.1295 17.4556 19.4341C16.8067 18.8779 16.7603 18.9706 17.0384 20.1758C17.3629 21.4274 17.3166 21.4737 16.5286 20.8248C15.7405 20.1758 15.7405 20.2222 16.065 21.2419C16.3431 22.2154 16.2968 22.2617 15.277 21.9836C14.3963 21.7055 14.3036 21.7518 14.8135 22.2617C15.6478 23.1888 15.5088 23.5596 14.3499 23.2352C13.3765 23.0034 13.3301 23.0497 13.9327 23.7914C14.7208 24.7648 14.2572 25.3211 13.2838 24.5331C12.8666 24.1622 12.5885 24.1622 12.5885 24.4404C12.5885 24.7185 12.8202 25.0893 13.052 25.2284C13.3301 25.3674 13.5156 25.7383 13.5156 26.0164C13.5156 26.2945 13.2374 26.2945 12.8202 25.9237C12.2176 25.4138 11.9859 25.4602 11.4296 26.2018C10.8734 26.9435 10.9197 27.2216 11.5687 27.9633C12.3104 28.7976 12.3104 28.844 11.3369 28.6122C10.1781 28.2877 9.99266 28.7049 10.827 29.5393C11.2442 29.9565 11.1515 30.0955 10.2708 30.0955C9.25099 30.1419 9.20464 30.1882 9.9463 30.6054C11.0124 31.2544 10.5489 31.9033 9.20464 31.6252C8.23121 31.4398 8.23121 31.4862 9.3437 32.1351L10.5025 32.8304L9.11193 32.8768L7.72132 32.9231L8.83381 33.5257C9.52912 33.8966 9.76089 34.2674 9.39006 34.4528C9.11193 34.6382 8.64839 34.6382 8.37027 34.4528C7.99944 34.2674 7.95308 34.4528 8.18485 35.1481C8.41662 35.8898 8.32392 36.0752 7.81402 35.8434C7.44319 35.7044 6.97965 35.7971 6.79424 36.0752C6.65518 36.3997 6.9333 36.5851 7.48955 36.5851C8.09215 36.5851 8.41662 36.8169 8.27756 37.1413C8.18485 37.4658 7.76767 37.6976 7.30413 37.6049C6.88695 37.5122 6.56247 37.6976 6.56247 37.9757C6.56247 38.2075 6.88695 38.4392 7.25778 38.4392C7.62861 38.4392 7.95308 38.671 7.95308 38.9491C7.95308 39.2273 7.5359 39.32 7.02601 39.1346C6.51611 38.9491 6.09893 39.0418 6.09893 39.32C6.09893 39.5981 6.42341 39.8299 6.79424 39.8299C7.16507 39.8299 7.48955 40.0616 7.48955 40.3398C7.48955 40.6179 7.16507 40.7569 6.79424 40.6179C6.42341 40.4325 6.00622 40.5252 5.86716 40.7106C5.77445 40.9424 6.09893 41.2205 6.60882 41.3595C7.16507 41.4986 7.44319 41.8231 7.30413 42.1012C7.11871 42.3793 6.70153 42.472 6.3307 42.2866C5.95987 42.1476 5.63539 42.2866 5.63539 42.5184C5.63539 42.7965 6.00622 43.121 6.46976 43.2137C7.07236 43.3991 6.97965 43.4455 6.23799 43.4918C4.94008 43.5382 4.80102 44.4652 6.09893 44.4652C7.39684 44.4652 7.30413 45.8559 6.00622 45.9022C4.98644 45.9022 4.98644 45.9486 6.09893 46.4121L7.25778 46.922L6.09893 47.2465L4.94008 47.6173L6.00622 47.9418C7.25778 48.359 7.39684 49.1006 6.14528 48.7762C5.68174 48.6371 5.1255 48.7762 4.98644 49.0543C4.75467 49.3788 5.07914 49.5642 5.7281 49.5642C6.56247 49.5642 6.65518 49.6569 6.09893 50.0277C5.54268 50.3985 5.58904 50.4913 6.46976 50.4913C7.30413 50.4913 7.48955 50.7694 7.48955 51.8819C7.48955 52.948 7.25778 53.2725 6.60882 53.2725C6.09893 53.2725 5.54268 53.4579 5.40362 53.736C5.26456 54.0142 5.58904 54.1996 6.19164 54.1996C7.21142 54.2459 7.21142 54.2459 6.37705 54.8949C5.49633 55.5902 5.49633 55.5902 6.46976 55.5902C7.81402 55.5902 7.76767 56.3318 6.46976 56.749L5.40362 57.0735L6.56247 57.398C7.67496 57.7225 7.67496 57.7225 6.79424 58.2787C5.91351 58.7886 5.91351 58.7886 6.9333 58.835C7.48955 58.835 7.95308 59.0204 7.95308 59.2985C7.95308 59.5303 7.67496 59.762 7.30413 59.762C6.9333 59.762 6.46976 59.9938 6.28434 60.2719C6.05257 60.6891 6.3307 60.7355 7.21142 60.5037C8.69475 60.1329 8.83381 60.8282 7.39684 61.5235C6.3307 61.987 6.3307 62.0334 7.62861 62.0334C9.06558 62.0797 9.20464 62.4042 8.09215 63.3313C7.30413 63.9339 7.35048 63.9802 8.32392 63.7021C9.52912 63.3313 9.71453 64.1193 8.50933 64.861C7.81402 65.3245 7.86038 65.3709 8.78746 65.1854C9.9463 64.9073 10.2244 65.649 9.11193 66.0662C8.7411 66.2516 8.41662 66.5297 8.41662 66.7615C8.41662 67.0396 8.78746 66.9932 9.29735 66.7151C9.89995 66.3906 10.3171 66.3906 10.5025 66.7151C10.6416 66.9932 10.4562 67.3177 10.0854 67.4568C9.01922 67.874 9.20464 68.662 10.2708 68.3375C11.3369 68.013 11.5687 68.801 10.5025 69.2182C9.39006 69.6354 9.66818 70.3771 10.8734 70.099C11.8932 69.9135 11.8932 69.9135 10.9661 70.7016C10.039 71.4432 10.039 71.4432 11.1051 71.2114C12.1249 70.9797 12.4958 71.5359 11.6614 72.0458C10.827 72.5557 11.1515 73.112 12.1249 72.8802C12.6348 72.7411 13.052 72.8802 13.052 73.1583C13.052 73.4364 12.8666 73.6682 12.5885 73.6682C12.3567 73.6682 12.1249 73.9 12.1249 74.1781C12.1249 74.4562 12.5421 74.5489 13.1911 74.3172C14.1645 74.039 14.1645 74.039 13.4228 74.9198C12.3104 76.1713 12.4031 76.5885 13.6546 75.9395C14.489 75.5224 14.5817 75.5224 14.1182 76.0323C13.1911 76.9593 13.4228 77.4692 14.4426 76.913C15.3697 76.4031 15.8332 77.052 14.9062 77.6083C14.6744 77.7473 14.4426 78.1182 14.4426 78.4427C14.4426 78.8135 14.5817 78.8135 14.9989 78.3963C15.3234 78.0718 15.8332 77.8401 16.1577 77.8401C16.6676 77.8401 16.6676 78.0718 16.2968 78.7671C15.7405 79.7869 16.2504 80.0187 17.1312 79.138C17.8728 78.3963 17.8728 79.3234 17.0848 80.1114C16.6213 80.6213 16.714 80.6676 17.641 80.3895C18.5681 80.1114 18.7072 80.2041 18.4754 80.8067C18.1973 81.4557 18.3364 81.5484 19.078 81.3166C20.0978 80.9921 20.2832 81.5484 19.4489 82.3827C18.7072 83.1244 19.6343 83.1244 20.4223 82.3364C20.9322 81.8728 21.0249 81.9656 20.7931 82.8463C20.5613 83.7734 20.7004 83.8661 21.5348 83.5879C22.4619 83.3098 22.5082 83.3562 21.8593 84.0978C21.2103 84.8395 21.2567 84.8858 22.2764 84.5614C23.2035 84.2832 23.2962 84.376 23.0181 85.2103C22.6936 86.2301 23.4816 86.6009 23.8525 85.5812C23.9452 85.303 24.1769 85.164 24.3624 85.3494C24.5478 85.4884 24.5014 86.0447 24.2233 86.5546C23.9452 87.1108 23.7134 87.9452 23.7134 88.5015C23.7134 89.0577 23.528 89.3358 23.2499 89.1968C23.0181 89.0577 22.7863 88.4087 22.7863 87.7598C22.7863 87.1572 22.5546 86.6473 22.2764 86.6473C21.9983 86.6473 21.9056 87.0645 22.091 87.5744C22.2301 88.0843 22.1837 88.5015 21.952 88.5015C21.6738 88.5015 21.3494 87.9452 21.1639 87.2035C20.9322 86.3228 20.7468 86.1838 20.5613 86.6473C20.3759 87.1108 20.0978 86.6936 19.727 85.4884C19.4025 84.4687 19.1244 84.0051 19.1244 84.4223C19.078 84.8858 18.939 85.2567 18.7999 85.2567C18.3364 85.2567 17.2239 83.9588 17.2239 83.4489C17.2239 83.1708 17.0384 82.939 16.7603 82.939C16.5286 82.939 16.2968 82.6145 16.2968 82.2437C16.2968 81.8728 16.1114 81.5484 15.8332 81.5484C15.6015 81.5484 15.3234 81.1775 15.3234 80.714C15.277 79.9723 15.2306 79.9723 15.0452 80.7604C14.7671 81.8265 13.9791 81.3166 13.9791 80.0187C13.9791 79.1843 13.8864 79.138 13.5156 79.6942C13.1911 80.2505 13.052 80.065 13.052 78.9989C13.052 77.9328 12.913 77.7473 12.5885 78.3036C12.2176 78.9062 12.1249 78.8598 12.1249 78.1645C12.1249 77.7473 11.8932 77.4229 11.5687 77.4692C10.9197 77.6546 7.95308 71.7677 7.67496 69.8672C7.58225 69.0792 7.21142 68.1057 6.84059 67.6886C6.51611 67.2714 6.05257 65.8344 5.86716 64.4901C5.68174 63.1922 5.35727 62.0797 5.17185 62.0797C4.98644 62.0797 4.89373 62.5433 5.03279 63.0995C5.2182 64.0729 5.17185 64.0729 4.70831 63.3313C4.38383 62.8214 4.24477 61.8943 4.38383 61.2454C4.5229 60.4573 4.33748 59.6693 3.9203 59.2058C2.99322 58.186 2.62239 54.6168 3.27134 53.3188C3.73488 52.5308 3.68853 52.3454 3.03957 52.3454C2.34426 52.3454 2.29791 51.8355 2.57603 47.8027C3.45676 35.7507 6.97965 25.5529 11.8005 21.381C14.1645 19.2951 14.9062 18.368 14.9062 17.5336C14.9062 16.6529 20.3296 12.2029 20.7931 12.6665C20.9322 12.8055 21.6738 12.4811 22.3691 11.9712C23.1108 11.4613 23.7134 11.1831 23.7134 11.4149C23.7134 11.6003 24.1306 11.2759 24.6405 10.6269C25.104 9.97795 25.6603 9.46806 25.892 9.4217C26.0775 9.4217 27.0509 9.05087 28.0707 8.63368C29.0441 8.2165 30.0175 7.84567 30.2493 7.84567C30.4347 7.84567 30.7592 7.6139 30.9446 7.33578C31.13 6.96494 30.8983 6.91859 30.1566 7.10401C29.4149 7.28942 29.6004 7.10401 30.6665 6.50141C32.1498 5.71339 42.6258 2.60768 45.4997 2.14414C47.9565 1.72695 57.1809 1.86602 59.2669 2.32955ZM48.1883 8.8191C46.2878 10.2561 46.6122 10.766 48.5591 9.46806C50.3205 8.26285 51.8039 7.93838 51.2476 8.8191C51.0622 9.14358 51.294 9.14358 51.9893 8.77275C55.0486 7.15036 68.6767 10.4878 68.6767 12.8982C68.6767 13.4081 69.372 14.1962 70.2991 14.7524C71.1798 15.2623 71.9215 15.4941 71.9215 15.2623C71.9215 15.0305 71.3189 14.4743 70.5308 14.0107C69.3256 13.3154 68.6767 12.4811 69.372 12.4811C70.2064 12.4811 73.3121 14.9378 73.034 15.355C72.8485 15.6795 72.8949 15.7258 73.2194 15.5404C73.4975 15.355 74.8418 16.0503 76.1397 17.1164C77.4376 18.1362 78.7355 18.9706 79.0136 18.9706C79.7553 18.9706 86.1521 25.6919 86.5229 26.9435C86.7084 27.4997 87.2646 28.4268 87.7281 28.983C88.7016 30.0028 91.0193 36.4924 92.0854 41.1278C92.9198 44.6507 93.0125 54.1069 92.2708 58.0933C90.8802 65.4172 87.311 73.0656 83.7417 76.4494C82.0266 78.0255 81.8412 77.2375 83.4636 75.5687C84.8542 74.1317 85.4104 72.8338 84.3907 73.4828C83.9271 73.7609 81.9803 75.8468 79.7553 78.3499C79.3381 78.8598 78.7818 79.2307 78.5501 79.2307C78.3183 79.2307 77.4376 79.9723 76.5569 80.8531C74.9808 82.4754 75.0272 83.1708 76.6496 81.6874C77.1131 81.2702 77.4839 81.1775 77.4839 81.4557C77.4839 81.7338 77.2522 82.1046 77.0204 82.2437C76.7423 82.4291 76.6959 82.7536 76.835 83.0317C77.0667 83.3562 76.8813 83.4489 76.4178 83.2635C75.9543 83.078 75.6298 83.2171 75.6298 83.5416C75.6298 84.5614 70.021 87.8989 69.1402 87.3426C68.9548 87.2035 68.6303 87.4353 68.4913 87.8525C68.3059 88.2697 68.0741 88.5015 67.8887 88.316C67.7496 88.177 67.147 88.4087 66.6371 88.8259C65.7564 89.5676 65.7564 89.5676 66.3126 88.8723C66.6371 88.4087 66.8225 87.8525 66.7298 87.528C66.6371 87.2499 66.2663 87.6207 65.8955 88.3624C64.8293 90.402 63.0679 91.329 64.0413 89.2895C64.5048 88.3624 64.4585 88.3624 63.4851 89.4749C61.7236 91.4681 57.3663 92.4415 50.5987 92.3952C44.0164 92.3488 40.1227 91.4681 37.8977 89.4749C36.9243 88.5942 36.6461 88.5015 36.8316 89.0577C37.2487 90.2629 36.7389 90.1238 32.2889 88.0379C29.8321 86.8327 28.3488 85.8593 28.3488 85.3957C28.3488 84.9786 28.0707 84.7931 27.6998 84.9322C26.8655 85.2567 25.104 84.0051 25.104 83.078C25.104 82.6609 24.8259 82.4754 24.4087 82.6609C23.9452 82.7999 23.4353 82.3364 22.8327 81.1775C22.1374 79.8796 21.9056 79.6942 21.8593 80.3895C21.8129 81.1312 21.6738 81.0848 21.303 80.0187C21.0712 79.3234 20.7004 78.7671 20.4686 78.7671C20.2369 78.7671 19.9124 78.3499 19.7733 77.8401C19.5879 77.3302 19.2634 77.0057 19.0317 77.1447C18.7999 77.3302 18.6145 76.913 18.6145 76.264C18.6145 75.6151 18.3827 74.9661 18.1046 74.7807C17.7338 74.5953 17.6874 74.9198 17.9192 75.9859C18.1046 76.913 18.0582 77.3765 17.7801 77.1911C17.5483 77.052 17.2239 76.0786 17.0384 75.0588C16.8994 73.9927 16.5749 73.2974 16.2968 73.4364C16.065 73.5755 15.7869 73.112 15.6942 72.4166C15.5551 71.2578 15.5088 71.3042 15.4161 72.7411C15.3234 74.9661 14.489 73.6219 14.3963 71.1187C14.3499 69.4964 14.3036 69.4036 13.9791 70.4234C13.6546 71.4432 13.6083 71.3969 13.5619 69.8208C13.5156 68.8938 13.3301 68.1057 13.0984 68.1057C12.8666 68.1057 12.5421 67.1323 12.3567 65.9271C12.1249 64.3511 11.9395 63.9339 11.5687 64.4438C11.2442 64.9073 11.1979 64.6292 11.3369 63.5167C11.476 62.2188 11.4296 62.0797 10.9661 62.6823C9.85359 64.212 8.97287 59.3449 8.60204 49.7959C8.18485 39.7835 9.76089 33.8039 14.6744 26.619C16.853 23.3742 21.3957 18.8779 21.3957 19.944C21.3957 20.2222 21.8593 19.805 22.4619 18.9706C23.0181 18.0899 23.6207 17.4873 23.7598 17.6263C23.9452 17.719 24.5478 17.3019 25.104 16.6529L26.1238 15.4941L25.3358 16.792C24.9186 17.5336 24.6405 18.2289 24.7796 18.3216C24.9186 18.4607 25.4285 17.8581 25.9848 16.9774C26.4946 16.143 27.3754 15.0305 27.978 14.5206L28.9978 13.6399L28.2097 14.8915C27.0045 16.8383 27.2363 16.792 29.3686 14.6597C30.3884 13.5936 30.9446 13.13 30.5274 13.6863C29.0441 15.4941 29.7394 15.4477 31.7326 13.5472C32.7988 12.5274 34.0967 11.554 34.6066 11.3686C35.3482 11.0904 35.4409 11.1368 34.9774 11.6003C33.8186 12.7592 34.3748 13.0837 35.6264 11.9712C36.2753 11.3686 36.6925 11.1831 36.4607 11.554C36.229 11.9248 36.5998 11.7858 37.2487 11.1831C38.5003 10.0243 39.4274 9.79253 38.5467 10.8587C37.6659 11.9248 38.2685 11.693 40.169 10.1634C42.1159 8.63368 43.3211 8.30921 42.1159 9.60712C40.7253 11.1368 41.2815 11.2295 42.9503 9.74618C44.7117 8.2165 45.5461 7.84567 44.5727 9.00452C43.831 9.93159 44.0164 9.88524 46.1951 8.77275C48.6055 7.52119 49.857 7.56755 48.1883 8.8191ZM81.424 13.4081C81.5631 13.6399 81.4704 13.8717 81.2386 13.8717C80.9605 13.8717 80.7287 13.6399 80.7287 13.4081C80.7287 13.13 80.8214 12.9446 80.9141 12.9446C81.0532 12.9446 81.285 13.13 81.424 13.4081ZM84.6224 15.7722C84.4834 16.004 84.1589 16.0967 83.9271 15.9112C83.6954 15.7722 83.6026 15.4477 83.7881 15.2159C83.9271 14.9842 84.2516 14.8915 84.4834 15.0769C84.7151 15.2159 84.8078 15.5404 84.6224 15.7722ZM12.5885 26.8508C12.5885 27.0825 12.4031 27.3143 12.1249 27.3143C11.8932 27.3143 11.6614 27.0825 11.6614 26.8508C11.6614 26.5726 11.8932 26.3872 12.1249 26.3872C12.4031 26.3872 12.5885 26.5726 12.5885 26.8508ZM95.8401 60.9209C96.0255 61.2917 96.4427 61.6162 96.8135 61.6162C97.277 61.6162 97.4161 61.8943 97.2307 62.3579C97.0916 62.775 96.9526 63.6094 96.9526 64.212C96.9526 64.8146 96.7672 65.3245 96.489 65.3245C96.2573 65.3245 96.0255 64.861 96.0255 64.3047C96.0255 63.5167 95.7937 63.7021 95.0521 65.0927C94.4958 66.2052 94.2177 67.5031 94.3104 68.3375C94.4031 69.0792 94.2177 70.5161 93.8932 71.4896C93.2443 73.251 93.2443 73.3437 93.2443 74.1317C93.2443 74.3635 93.0588 74.5953 92.7807 74.5953C92.549 74.5953 92.6417 73.7146 93.0588 72.6484C93.4297 71.6286 93.6151 70.6552 93.476 70.5161C93.337 70.3771 93.0125 70.9333 92.7344 71.7213C92.4562 72.5557 92.0391 73.112 91.8536 72.9729C91.6219 72.8338 91.2974 73.4828 91.112 74.4562C90.7875 76.3104 90.0458 78.0255 89.7214 77.7473C89.6287 77.6083 89.7214 76.8666 89.9531 76.0786C90.1849 75.2442 90.2313 74.5953 90.0458 74.5953C89.8604 74.5953 89.4432 75.7078 89.1188 77.0057C88.8406 78.3499 88.3771 79.7869 88.099 80.1577C87.6818 80.7604 87.6354 80.7604 87.8209 80.065C87.9599 79.6479 88.238 78.5817 88.3771 77.701C88.6552 76.3567 88.5625 76.0786 87.9136 76.125C87.45 76.1713 86.9865 75.9395 86.8474 75.5687C86.7084 75.1515 86.8938 75.0588 87.6354 75.2906C88.1917 75.476 88.6089 75.3833 88.6089 75.1052C88.6089 74.8271 88.4235 74.5953 88.1453 74.5953C87.9136 74.5953 87.6818 74.3635 87.6818 74.0854C87.6818 73.8073 88.099 73.7146 88.7479 73.9C89.5823 74.1781 89.675 74.1317 89.2115 73.6219C88.2844 72.6948 88.5162 72.1849 89.675 72.5094C90.5094 72.7875 90.6021 72.7411 90.1385 72.2312C89.2578 71.3042 89.3969 70.7943 90.463 71.1187C90.9729 71.3042 91.3901 71.2114 91.3901 70.9333C91.3901 70.6552 91.2047 70.4234 90.9266 70.4234C90.6948 70.4234 90.463 70.1917 90.463 69.9135C90.463 69.6354 90.8802 69.5427 91.3901 69.7281C92.549 70.099 92.5953 69.5891 91.5292 68.7083C90.7411 68.1057 90.7875 68.0594 91.7609 68.3375C92.8734 68.662 93.1979 67.9203 92.0854 67.4568C91.0193 67.086 91.251 66.1589 92.3172 66.4834C93.476 66.8542 93.5224 66.3443 92.4562 65.4636C91.7146 64.9073 91.7609 64.861 92.9198 65.1391C93.7078 65.3245 94.1713 65.2318 94.1713 64.9073C94.1713 64.6292 93.8932 64.3974 93.5224 64.3974C93.1516 64.3974 92.688 64.1657 92.5026 63.8412C92.2708 63.4703 92.5026 63.424 93.1516 63.5631C94.3104 63.8875 94.5422 63.2386 93.476 62.8214C92.3172 62.4042 92.688 61.6162 94.0786 61.6162L95.3302 61.5698L94.1713 60.9209L93.0125 60.2719L94.3104 60.2256C95.0521 60.2256 95.701 60.5501 95.8401 60.9209ZM7.02601 69.3109C7.02601 70.238 6.70153 70.099 6.09893 69.0328C5.68174 68.2912 5.7281 68.1984 6.3307 68.3839C6.70153 68.5693 7.02601 68.9401 7.02601 69.3109ZM86.9401 76.7276C87.3573 76.8666 87.6818 77.4692 87.6354 78.0255C87.6354 78.7208 87.5427 78.7671 87.3573 78.3036C87.1719 77.9328 86.7547 77.3765 86.3375 77.052C85.5495 76.4494 85.7813 76.3104 86.9401 76.7276ZM86.2448 77.9791C86.6157 78.4427 86.5693 79.138 86.0594 80.6676C85.6886 81.7801 85.5032 82.0583 85.6422 81.3166C86.0131 79.2307 85.1323 80.4359 84.2052 83.2635C83.7881 84.6077 83.2782 85.7202 83.0928 85.7202C82.9073 85.7202 83.1391 84.5614 83.6026 83.1244C84.298 81.0848 84.3443 80.3895 83.9271 79.8796C83.1855 78.9525 83.6954 78.5817 84.8542 79.2307C85.8276 79.7406 86.2912 79.0916 85.3641 78.5354C84.8078 78.1645 84.7615 77.3765 85.3177 77.3765C85.5495 77.3765 85.9667 77.6546 86.2448 77.9791ZM80.4969 79.7406C80.3579 80.1114 79.7089 80.7604 79.06 81.2702L77.8548 82.1046L78.5964 80.714C79.4772 78.9989 81.1459 78.1645 80.4969 79.7406ZM83.7417 80.6213C83.8808 80.8531 83.8344 81.0848 83.5563 81.0848C83.3245 81.0848 82.9537 80.8531 82.8146 80.6213C82.6756 80.3432 82.7219 80.1577 83 80.1577C83.2318 80.1577 83.6026 80.3432 83.7417 80.6213ZM83.0464 82.3827C83.0464 82.7536 83 82.9853 82.9073 82.8926C82.861 82.7999 82.4902 82.3364 82.1657 81.8728C81.6094 81.1775 81.6094 81.0848 82.3047 81.363C82.7219 81.502 83.0464 81.9656 83.0464 82.3827ZM81.6558 82.7072C81.9803 83.1244 82.1193 83.5416 81.9803 83.727C81.6094 84.0515 80.2652 83.0317 80.2652 82.4291C80.2652 81.7801 81.0068 81.9192 81.6558 82.7072ZM80.0334 85.9983C79.4772 86.8791 79.06 87.0645 78.2719 86.8327C77.2522 86.5082 76.4178 85.6739 76.7886 85.303C76.9277 85.2103 77.4376 85.4884 77.9475 85.952C79.1527 87.0645 79.7553 86.4619 78.6428 85.2567C78.1792 84.7468 77.9011 84.2369 78.0402 84.0978C78.1792 83.9588 78.5501 84.1442 78.8746 84.5614C79.199 84.9322 79.6626 85.2567 79.9407 85.2567C80.1725 85.2567 80.0798 84.8858 79.6626 84.4223C79.199 83.9588 79.0136 83.4025 79.199 83.2635C79.3381 83.078 79.8016 83.3562 80.1261 83.8661C80.7287 84.7004 80.7287 84.9786 80.0334 85.9983ZM81.7021 86.5082C81.1459 87.4353 81.0532 87.1572 81.4704 85.952C81.6558 85.5348 81.8876 85.303 81.9803 85.4421C82.1193 85.5348 81.9803 86.0447 81.7021 86.5082ZM76.835 86.9718L77.7157 88.2697L75.9543 90.1238C74.9808 91.1436 74.3319 91.6535 74.4709 91.2363C74.8418 90.2629 73.9147 89.6603 73.1267 90.3093C72.6631 90.6801 72.2923 90.5874 71.6897 89.8921C71.2262 89.3822 70.9944 88.8259 71.1798 88.5942C71.3652 88.4087 71.8288 88.6869 72.1996 89.1504C72.5241 89.6603 72.9876 89.9384 73.1267 89.753C73.3121 89.5676 73.173 89.1504 72.8949 88.7796C72.5241 88.316 72.4777 88.0379 72.8485 87.8061C73.0803 87.6671 73.4511 87.8525 73.5902 88.2233C73.7293 88.6405 74.0537 88.965 74.2855 88.965C74.5636 88.965 74.5636 88.5942 74.2855 88.0843C73.5902 86.7864 74.2392 86.5546 75.2589 87.7134C76.186 88.7332 76.186 88.5015 75.3517 86.4155C74.8881 85.2567 75.8615 85.6275 76.835 86.9718ZM26.0311 86.6473C26.0311 86.8791 25.753 87.3426 25.4285 87.6671C25.0577 87.9452 24.8723 88.7332 24.965 89.3822C25.0577 90.2629 24.965 90.1702 24.6405 89.0577C24.2697 87.9452 24.316 87.389 24.7332 86.8791C25.4285 86.091 26.0311 85.9983 26.0311 86.6473ZM27.19 87.8989C26.9118 89.1041 26.9582 89.1041 27.5608 88.3624C28.4415 87.2963 28.9514 87.3426 28.5806 88.5015C28.3952 89.0113 28.4879 89.4285 28.766 89.4285C29.0441 89.4285 29.2759 89.1968 29.2759 88.965C29.2759 88.6869 29.6004 88.5015 29.9712 88.5015C30.5738 88.5015 30.6201 88.6869 30.203 89.4285C29.8321 90.0775 29.8321 90.3556 30.203 90.3556C30.4811 90.3556 30.8056 90.0311 30.9446 89.6603C31.13 89.2895 31.4082 89.1041 31.6399 89.2431C31.8717 89.3822 31.8717 89.8457 31.5936 90.402C31.3154 90.9119 31.2691 91.2827 31.5472 91.2827C31.779 91.2827 32.0571 90.9582 32.2425 90.5874C32.7061 89.3822 33.4941 89.8457 33.216 91.1436C32.9842 92.3952 32.9842 92.3952 33.4941 91.3754C34.0967 90.2629 35.1165 89.9384 34.6529 91.0509C33.8649 92.9514 33.8649 93.3223 34.6529 92.3025C35.0701 91.7462 35.58 91.2827 35.7654 91.2827C35.9972 91.2827 36.0435 91.7462 35.9045 92.3025C35.7191 93.2759 35.7654 93.3223 36.368 92.5342C37.2951 91.4217 38.0368 91.5608 37.7586 92.766C37.5732 93.7394 37.6196 93.7858 38.2222 92.9978C39.1029 91.9316 39.6128 91.978 39.242 93.1368C39.0566 93.6467 39.1493 94.0639 39.4274 94.0639C39.7055 94.0639 39.9373 93.6004 39.9373 93.0441C39.9373 91.8853 40.6326 92.3952 41.0034 93.8321C41.1888 94.6665 41.2352 94.6665 41.2815 93.6931C41.3279 92.3025 42.255 92.3952 42.255 93.8321C42.255 94.4811 42.4867 94.991 42.7185 94.991C42.9966 94.991 43.182 94.5275 43.182 93.9712C43.182 92.6733 43.9701 93.415 44.2482 94.991C44.4336 96.1035 44.4336 96.1035 44.5263 94.8519C44.5727 93.3686 45.4534 93.1368 45.5461 94.6202L45.6388 95.6863L45.8242 94.6202C46.056 93.4613 47.1221 93.4613 47.1221 94.6665C47.1221 95.0374 47.3075 95.5472 47.493 95.7327C47.6784 95.9181 47.8174 95.64 47.8174 95.0837C47.8174 94.5275 48.0492 94.0639 48.281 94.0639C48.5591 94.0639 48.7445 94.4811 48.7445 94.991C48.7445 95.5009 48.9763 95.9181 49.2081 95.9181C49.4862 95.9181 49.6716 95.5009 49.6716 94.991C49.6716 93.6931 50.5987 93.8322 50.645 95.0837L50.7377 96.1498L50.9231 95.0837C51.1549 93.8322 51.9893 93.7394 51.9893 94.991C51.9893 95.5009 52.2211 95.9181 52.4992 95.9181C52.7773 95.9181 52.87 95.5009 52.6846 94.991C52.4528 94.342 52.5919 94.0639 53.1481 94.0639C53.658 94.0639 53.8434 94.3884 53.7507 95.0837C53.658 95.9181 53.1481 96.2889 51.5257 96.7061C50.3669 96.9842 49.3471 97.2623 49.2081 97.3087C49.069 97.355 48.7909 97.355 48.5127 97.3087C48.281 97.2623 47.1221 97.1233 46.056 97.0306C44.9435 96.9379 43.7846 96.7061 43.5065 96.5207C43.2284 96.3353 42.5794 96.1498 42.0696 96.1035C40.4008 95.8717 38.7784 95.5936 38.7784 95.5009C38.7784 95.4545 38.1758 95.3155 37.3878 95.2228C36.6461 95.0837 34.7456 94.3884 33.2623 93.6004C30.1102 92.0243 30.0175 91.978 30.4811 92.766C30.6665 93.0905 30.342 92.9051 29.7858 92.3025C29.2295 91.7462 28.5806 91.2827 28.3488 91.2827C27.8389 91.2827 25.5676 89.1968 25.5676 88.7332C25.5676 88.316 26.9582 86.6473 27.2827 86.6473C27.3754 86.6473 27.329 87.2035 27.19 87.8989ZM80.5896 87.3426C80.5896 87.7134 80.4042 88.0379 80.1725 88.0379C79.7089 88.0379 79.6626 87.389 80.1261 86.9718C80.5433 86.5082 80.5896 86.5546 80.5896 87.3426ZM70.948 90.1702C71.4116 91.19 71.3189 91.5608 70.4381 92.6733C69.8355 93.415 69.1866 94.0176 69.0012 94.0176C68.7694 94.0639 69.1402 93.415 69.8355 92.5806C70.9017 91.329 70.948 91.0509 70.3454 90.7264C69.9282 90.4947 69.6038 89.9848 69.6038 89.6603C69.6038 88.5478 70.3454 88.8723 70.948 90.1702ZM69.372 90.8655C69.5574 91.3754 69.6038 91.8389 69.5111 91.8853C69.4184 91.9316 68.4449 92.8124 67.2861 93.8321C66.1272 94.8519 65.4783 95.3618 65.8028 94.991C66.8689 93.7394 66.359 93.415 65.1074 94.5738L63.8095 95.6863L64.8293 94.5275C65.5246 93.6931 65.8028 92.9978 65.6173 92.2098L65.3392 91.0509L66.359 92.2098L67.3324 93.3686L67.0543 91.7462L66.7762 90.1238L67.7496 91.2827L68.7694 92.4415L68.4913 91.1436C68.1668 89.7067 68.9085 89.4285 69.372 90.8655ZM64.8293 92.4879C64.9684 92.8587 64.8757 93.415 64.5512 93.7394C64.1804 94.1103 64.0413 94.1103 64.0413 93.7394C64.0413 93.4613 63.9022 92.9051 63.7632 92.4879C63.6241 92.0707 63.7168 91.7462 63.9949 91.7462C64.3194 91.7462 64.6439 92.0707 64.8293 92.4879ZM63.1142 93.1832C63.1142 93.6931 62.9288 93.9712 62.6507 93.8321C62.4189 93.6931 62.1871 93.2295 62.1871 92.8587C62.1871 92.4879 62.4189 92.2098 62.6507 92.2098C62.9288 92.2098 63.1142 92.6269 63.1142 93.1832ZM61.6309 93.8785C61.4918 95.1764 59.545 96.9379 59.545 95.8254C59.545 95.5009 59.4059 94.7592 59.2205 94.1566C58.9887 93.554 59.0814 93.1368 59.3596 93.1368C59.8231 93.1368 60.1012 94.1566 59.9158 95.1301C59.8695 95.3618 60.0549 95.3618 60.3793 95.2228C60.6575 95.0374 60.7502 94.3884 60.6111 93.7858C60.3793 92.9514 60.5184 92.6733 61.0283 92.6733C61.5845 92.6733 61.7236 93.0441 61.6309 93.8785ZM57.0882 95.5009C57.0882 95.9181 56.7637 96.428 56.3466 96.567C55.6976 96.7988 55.6512 96.7524 56.1148 96.1962C56.532 95.6863 56.532 95.5009 56.1148 95.3618C55.744 95.2228 55.6512 94.8519 55.883 94.2957C56.1611 93.554 56.3002 93.5077 56.6247 94.0639C56.9028 94.4348 57.0882 95.0837 57.0882 95.5009ZM58.5715 94.7592C58.7106 95.5009 58.5252 96.1498 58.0616 96.4743C57.4127 97.0306 57.4127 96.9842 57.9689 96.2426C58.3861 95.7327 58.4325 95.4545 58.0616 95.4545C57.7835 95.4545 57.5518 95.0374 57.5518 94.5275C57.5518 93.2295 58.3398 93.3686 58.5715 94.7592ZM55.2341 95.0374C55.2341 95.5472 55.0486 95.8254 54.7705 95.6863C54.5388 95.5472 54.307 95.0837 54.307 94.7129C54.307 94.342 54.5388 94.0639 54.7705 94.0639C55.0486 94.0639 55.2341 94.4811 55.2341 95.0374Z" fill="black"></path>
<path d="M65.6173 7.08087C65.3392 7.96159 65.2465 8.6569 65.4319 8.6569C65.9418 8.6569 66.7762 6.52462 66.4053 5.96837C66.2663 5.69025 65.8955 6.15379 65.6173 7.08087Z" fill="black"></path>
<path d="M20.3296 13.6168C20.1442 13.7558 20.0051 14.1267 20.0051 14.4048C20.0051 14.6829 20.2369 14.6366 20.5614 14.3121C20.8395 14.034 20.9786 13.6631 20.8859 13.5241C20.7468 13.385 20.4687 13.4313 20.3296 13.6168Z" fill="#0C0C0C"></path>
<path d="M13.052 22.1458C13.052 22.6557 13.2838 22.9338 13.5155 22.7948C13.7937 22.6557 13.9791 22.1922 13.9791 21.8214C13.9791 21.4505 13.7937 21.1724 13.5155 21.1724C13.2838 21.1724 13.052 21.5896 13.052 22.1458Z" fill="#0C0C0C"></path>
<path d="M9.80713 24.649C9.80713 25.0198 10.0389 25.3443 10.2707 25.3443C10.5488 25.3443 10.7342 25.0198 10.7342 24.649C10.7342 24.2782 10.5488 23.9537 10.2707 23.9537C10.0389 23.9537 9.80713 24.2782 9.80713 24.649Z" fill="#0C0C0C"></path>
<path d="M90.9729 25.5761C90.9729 26.086 91.1583 26.8276 91.3901 27.1985C91.8073 27.8011 91.8536 27.8011 91.8073 27.1985C91.8073 26.8276 91.6219 26.086 91.3901 25.5761L90.9729 24.649V25.5761Z" fill="#0C0C0C"></path>
<path d="M2.90057 50.19C2.90057 50.6999 3.03963 50.8389 3.1787 50.4681C3.31776 50.1436 3.2714 49.7264 3.13234 49.5874C2.99328 49.4019 2.85422 49.6801 2.90057 50.19Z" fill="black"></path>
<path d="M5.17188 52.6931C5.17188 52.9249 5.58906 53.1566 6.14531 53.1566C6.6552 53.1566 6.93332 52.9249 6.79426 52.6931C6.6552 52.415 6.19166 52.2296 5.82083 52.2296C5.45 52.2296 5.17188 52.415 5.17188 52.6931Z" fill="black"></path>
<path d="M45.0362 13.7558C40.03 14.8683 36.368 18.2985 33.9113 24.2318C31.9181 29.0989 31.3155 33.039 32.2425 35.3103C33.1696 37.489 33.1696 37.628 32.2425 36.7473C31.2691 35.7275 30.3884 35.8202 28.6733 37.0254C27.1436 38.0916 24.0379 38.277 22.8791 37.3036C21.1176 35.8202 21.4421 40.2239 23.2499 42.0317C23.7598 42.5416 24.0379 43.2369 23.8988 43.654C23.4353 44.7665 24.965 46.6671 26.3093 46.6671C26.9119 46.6671 28.5342 45.9254 29.8785 45.0447C33.3087 42.727 35.3019 42.9124 32.7524 45.2764C30.6202 47.2697 31.6863 50.8389 34.4675 50.8389C35.4873 50.8389 36.4608 51.3488 37.8977 52.6931C39.1493 53.8519 40.3545 54.5472 41.0961 54.5472C41.7451 54.5472 42.255 54.6863 42.255 54.8717C42.255 55.0571 40.818 57.6993 39.0566 60.805C37.2951 63.8643 35.6727 66.9701 35.4873 67.6654C35.3019 68.4997 35.0701 68.7779 34.8384 68.4534C34.653 68.1753 34.3748 68.9633 34.1894 70.3075C33.9113 72.5325 33.9576 72.7643 35.58 74.7112C37.2488 76.7971 38.0831 77.307 38.0831 76.2408C38.0831 75.9627 38.4076 76.1018 38.7784 76.6117C39.1493 77.0752 39.4738 77.2606 39.4738 76.9361C39.4738 76.2872 41.1889 76.4726 44.7117 77.4924C48.3274 78.5122 53.0554 77.8632 62.8361 74.9893C64.5976 74.4794 66.1272 73.9231 66.2663 73.8304C66.7299 73.3205 65.2929 70.8174 63.5314 69.1023C62.558 68.1289 61.7236 67.0628 61.7236 66.7383C61.7236 66.4138 60.9356 65.6722 59.9622 65.0232C57.0419 63.2154 57.0419 63.169 58.4325 57.792L59.6841 52.9248L62.2335 52.6467C63.6241 52.5076 65.3856 52.0905 66.1272 51.7196C67.2861 51.1634 67.5642 50.6998 67.7496 48.892C67.8887 47.6868 68.3986 46.2962 68.8621 45.7863C69.5111 45.0447 69.6501 44.3957 69.4647 43.0051C69.2793 41.4291 69.372 41.1046 70.1137 40.8728C71.4579 40.4093 72.0605 38.9723 71.4116 37.7207C70.7163 36.4692 69.1866 34.2442 68.1668 32.9927C67.7033 32.4364 67.147 30.3505 66.7762 27.8474C66.2663 24.0463 66.2663 23.5365 66.9616 22.5167C68.2132 20.7552 67.9351 19.1328 66.1272 17.5104C65.2002 16.7224 64.3194 16.0735 64.0877 16.0735C63.8559 16.0735 63.1142 15.6099 62.3726 15.0073C61.6309 14.4511 60.4257 13.9412 59.6377 13.8485C56.0685 13.4777 46.4732 13.4313 45.0362 13.7558ZM48.1883 15.0073C48.0956 15.2391 47.2612 16.9078 46.2878 18.7157C45.3607 20.5698 44.5727 22.3313 44.5727 22.6557C44.5727 23.2583 42.7649 25.8542 42.7185 25.2979C42.6722 24 47.2612 14.6829 47.9565 14.6829C48.1883 14.6829 48.281 14.8219 48.1883 15.0073ZM51.0622 14.8683C51.0622 15.2855 49.6716 15.5172 49.4398 15.1464C49.2544 14.8683 49.5789 14.6829 50.0888 14.6829C50.645 14.6829 51.0622 14.7756 51.0622 14.8683ZM52.6846 15.9344C51.8039 17.4177 49.3935 20.3844 49.9034 19.3183C50.1352 18.9474 50.7841 17.974 51.3404 17.1396C51.943 16.3516 52.4528 15.4709 52.4528 15.1928C52.4528 14.9146 52.6846 14.6829 52.9627 14.6829C53.2409 14.6829 53.1018 15.2391 52.6846 15.9344ZM45.0362 15.3318C45.0362 15.4245 44.4336 16.2125 43.6456 17.0469C42.3013 18.5766 41.7915 19.6427 42.7185 19.0865C42.9503 18.9474 42.7649 19.7818 42.255 20.9406C41.7451 22.1458 41.3279 23.4437 41.3279 23.8609C41.3279 24.4635 41.1889 24.4635 40.7717 24.0463C40.3081 23.5828 40.4008 23.0729 41.2352 21.5896C41.8378 20.5235 42.2086 19.5964 42.1159 19.4573C41.9769 19.3183 41.5133 19.8745 41.0961 20.7089C40.679 21.5432 40.2154 22.0531 40.0764 21.9141C39.8446 21.6823 41.606 18.8084 43.8774 15.7954C44.2946 15.1928 45.0362 14.9146 45.0362 15.3318ZM44.48 19.2719C43.4138 21.4042 42.4868 23.9073 42.4404 24.8344C42.3477 25.7614 42.3013 26.6885 42.255 26.9666C42.255 27.1984 41.9769 26.9203 41.6524 26.2713C41.3279 25.6224 41.1425 25.0198 41.2816 24.8807C41.467 24.7417 42.0696 23.3974 42.6722 21.8677C43.831 18.9474 45.9169 14.961 46.1951 15.2391C46.2878 15.3318 45.4998 17.1396 44.48 19.2719ZM51.1549 16.2125C50.645 16.7688 49.718 18.2521 49.2081 19.4573C48.6518 20.7089 48.0956 21.5896 47.9565 21.4969C47.5393 21.0797 49.6716 16.7688 50.7378 15.9808C52.1747 14.8683 52.3138 14.961 51.1549 16.2125ZM56.1612 15.3318C56.1612 15.4709 55.9757 15.7026 55.6976 15.8417C55.4659 15.9808 55.2341 15.8881 55.2341 15.6563C55.2341 15.3782 55.4659 15.1464 55.6976 15.1464C55.9757 15.1464 56.1612 15.2391 56.1612 15.3318ZM58.9424 16.3052C59.1742 16.1662 59.4986 16.3052 59.6841 16.5834C59.9158 17.0006 59.6377 17.0469 58.757 16.8151C58.108 16.6761 57.1346 16.7224 56.6247 17.0006C55.883 17.3714 55.7903 17.3714 55.9757 16.7688C56.1148 16.398 56.3929 16.1662 56.5783 16.2589C56.7638 16.398 57.1809 16.3052 57.5518 16.0735C57.969 15.7954 58.2934 15.7954 58.3861 16.0735C58.4789 16.3516 58.757 16.4443 58.9424 16.3052ZM41.9769 17.2323C41.5597 17.8813 41.0498 18.3912 40.8644 18.3912C40.4472 18.3912 38.454 22.9339 37.3415 26.5031C36.5998 28.7744 36.4144 29.0526 36.3217 28.0328C36.229 27.2911 36.8779 25.0661 37.805 22.8875C38.7321 20.8016 39.4738 18.8084 39.4738 18.4839C39.4738 18.0203 42.0232 16.0735 42.6258 16.0735C42.6722 16.0735 42.3941 16.5834 41.9769 17.2323ZM64.6439 18.1594C66.359 19.3646 66.7299 20.338 65.9418 21.5896C65.6174 22.0531 65.5246 21.775 65.571 20.6625C65.6637 19.411 65.5246 19.1328 64.8757 19.2255C64.4122 19.3183 64.0413 19.1328 64.0413 18.8547C64.0413 18.5766 63.7168 18.6693 63.2997 19.0865C62.7898 19.5964 62.1408 19.7354 61.3528 19.55C60.4721 19.3183 60.2867 19.411 60.4721 19.9672C60.7038 20.5235 60.4257 20.7089 59.4059 20.7089C58.6179 20.7089 58.0153 20.8943 58.0153 21.1724C58.0153 21.4042 57.5518 21.6823 56.9955 21.6823L55.9294 21.775L56.9955 21.9604C57.5518 22.0531 58.0153 22.3776 58.0153 22.6094C58.0153 22.8411 57.4591 22.8875 56.8101 22.7484C56.1612 22.563 55.1414 22.7021 54.5851 23.0266C53.9825 23.3047 53.1018 23.4901 52.6383 23.3974C51.8502 23.212 57.0882 20.4307 61.909 18.4375C63.0215 17.974 63.1606 17.7886 62.6044 17.4177C62.2799 17.186 62.1872 17.0006 62.4189 17.0006C62.6971 17.0006 63.6705 17.5104 64.6439 18.1594ZM53.5653 17.974C53.7508 17.6959 54.1216 17.4641 54.3997 17.4641C54.6778 17.4641 54.5388 17.8813 54.1216 18.3448C53.4726 19.0865 53.1482 19.1328 52.6846 18.7157C52.3601 18.3912 52.1747 17.974 52.3138 17.7422C52.4528 17.5568 52.731 17.6032 52.9164 17.9276C53.1482 18.3448 53.3336 18.3448 53.5653 17.974ZM57.5518 17.8349C57.5518 18.0203 56.3929 19.0865 55.0023 20.1526C53.6117 21.2651 52.4528 22.0068 52.4528 21.775C52.4528 21.0333 54.5388 18.8547 55.9294 18.1594C57.5518 17.3714 57.5518 17.3714 57.5518 17.8349ZM60.7966 17.6495C60.7966 17.7422 60.4721 17.974 60.0549 18.1131C59.6841 18.2521 59.4986 18.2058 59.6377 17.9276C59.9158 17.4641 60.7966 17.2787 60.7966 17.6495ZM58.4789 18.8084C58.4789 19.0401 58.1544 19.3646 57.7372 19.5037C57.0882 19.7354 57.0419 19.6891 57.5518 19.0865C58.2007 18.2985 58.4789 18.2058 58.4789 18.8084ZM46.4268 20.5235C45.8706 21.9604 45.8242 23.0729 46.3341 22.2385C46.5196 21.9141 46.9367 21.8214 47.3076 22.0531C47.7248 22.3313 47.7711 22.563 47.4003 22.7484C47.1222 22.9339 46.8904 23.5828 46.8904 24.1391C46.8904 24.7417 46.5659 25.4833 46.1951 25.8078C45.3607 26.5031 45.3143 26.1323 46.056 24.8807C46.4732 24.1854 46.4732 23.7682 46.0097 22.9339C45.5925 22.1458 45.5925 21.4969 45.9169 20.5698C46.1951 19.8745 46.5196 19.3183 46.6586 19.3183C46.7513 19.3183 46.6586 19.8745 46.4268 20.5235ZM51.5721 20.1063C50.9232 21.3578 47.8175 24.2318 47.8175 23.5828C47.8175 23.0266 51.1549 19.3183 51.7112 19.3183C51.8966 19.3183 51.8039 19.6891 51.5721 20.1063ZM62.1408 21.3115C61.5382 21.9141 59.2205 22.0531 58.6643 21.4969C58.4789 21.3115 59.0815 21.1724 60.0085 21.1724C60.982 21.1724 61.7236 20.9406 61.7236 20.6625C61.7236 20.4307 61.909 20.338 62.1872 20.4771C62.4653 20.6625 62.4653 20.9406 62.1408 21.3115ZM51.8502 21.8214C51.8502 22.1458 51.2013 22.8411 50.4133 23.2583L48.9763 24.0927L50.3206 22.6094C51.8966 20.9406 51.8502 20.987 51.8502 21.8214ZM59.8695 23.0266C59.8695 23.2583 59.545 23.351 59.1742 23.212C58.8033 23.0266 58.4789 22.8411 58.4789 22.7484C58.4789 22.6557 58.8033 22.563 59.1742 22.563C59.545 22.563 59.8695 22.7484 59.8695 23.0266ZM64.4122 23.1193C64.4122 23.4437 64.783 24.8807 65.1538 26.2713C66.2663 30.1187 66.2663 30.1187 62.7898 31.1385C61.0283 31.6484 60.0085 32.1119 60.4257 32.2046C60.8429 32.2973 62.1408 32.0192 63.346 31.6484C65.8028 30.7677 65.8955 30.7677 65.8955 31.3239C65.8955 31.5557 65.0611 31.8338 63.995 32.0192C62.3262 32.2973 62.1872 32.3901 62.6971 33.039C63.4387 33.9197 65.0611 34.615 65.6174 34.2442C65.8491 34.1515 65.5246 33.7343 64.922 33.4098C63.8559 32.8072 63.8559 32.8072 64.783 32.7609C66.22 32.7609 71.1335 38.3697 70.3455 39.1114C69.8356 39.6213 67.2861 39.714 67.2861 39.2504C67.2861 38.9723 67.1007 38.7869 66.8226 38.7869C65.9418 38.7869 66.359 40.2702 67.2861 40.502C68.584 40.8265 68.4449 42.4025 67.1007 42.9587C65.3392 43.6077 65.2002 44.3494 66.7762 44.3494C67.5642 44.3494 68.2132 44.5348 68.2132 44.7665C68.2132 45.3228 67.2861 45.9254 66.4054 45.9717C65.6174 45.9717 65.1075 47.1306 65.8491 47.1306C66.5908 47.1306 66.4517 48.7993 65.6637 49.4483C65.1075 49.9118 64.6903 49.9118 63.8096 49.541C62.9288 49.1238 62.6507 49.1238 62.6044 49.5873C62.6044 50.0045 62.5116 50.0045 62.3262 49.541C61.909 48.5212 61.1674 48.9384 61.4919 50.0045C61.7236 50.8853 61.5382 50.7925 60.3794 49.4946C59.5913 48.6603 58.9424 47.7795 58.9424 47.5941C58.9424 47.4087 58.6179 47.0842 58.2007 46.9452C57.5981 46.7134 57.5054 46.8988 57.6908 47.9186L57.969 49.2165L57.32 47.8259C56.9492 47.0379 56.6711 46.7134 56.6247 46.9915C56.6247 47.8723 55.9757 47.7332 55.4659 46.7598C54.2607 44.5811 53.1018 43.0051 52.4065 42.5416C51.6648 42.1244 51.5721 42.2634 51.6648 43.654C51.7575 44.4884 52.1747 45.6473 52.6846 46.2035C53.6581 47.2697 54.1679 52.2295 53.3336 52.2295C53.0554 52.2295 52.9164 52.9248 53.0091 53.7128C53.1018 54.6399 53.3799 55.1962 53.7508 55.1035C54.0289 55.0571 54.307 55.2425 54.307 55.5206C54.307 55.7524 54.5388 55.8451 54.8633 55.6597C55.2341 55.4279 55.2804 55.567 55.0023 56.216C54.8169 56.6795 54.3997 58.0238 54.0752 59.1826L53.4726 61.2685L53.1482 59.4607C52.8237 57.931 51.5258 55.9378 50.8305 55.9378C50.1352 55.9378 50.6914 59.1363 51.5258 59.8779C52.0357 60.3415 52.4528 60.9441 52.4528 61.1758C52.4528 61.4539 51.8502 61.0831 51.1086 60.3878C50.3669 59.6925 49.857 58.7654 49.9497 58.3482C50.4596 55.5206 50.506 54.5472 50.1352 54.5472C49.857 54.5472 49.6716 55.4743 49.6716 56.6331C49.6716 57.792 49.5789 58.7191 49.4862 58.7191C49.3935 58.7191 48.4201 58.3946 47.3539 58.0238C45.1289 57.2357 44.5727 57.1894 44.5727 57.6993C44.5727 57.931 45.3607 58.3019 46.3341 58.58L48.0492 59.0435L45.7315 58.9045C43.8774 58.7654 43.2284 58.9508 42.3941 59.7389C40.818 61.2222 41.0961 61.593 42.9503 60.5732C44.619 59.6461 45.7315 59.368 45.3607 59.9706C45.2216 60.2024 46.2414 60.3415 47.632 60.3415C50.0424 60.3415 50.2742 60.4342 51.7575 62.1956L53.2872 64.0498L50.7841 65.1623C47.632 66.5529 47.493 67.2945 50.5987 66.0893C53.6581 64.9305 54.3997 64.9768 55.744 66.4138L56.8565 67.619L55.095 66.6456C52.6383 65.255 52.3138 65.4404 53.9825 67.2018C54.8169 68.0362 55.744 68.6388 56.0685 68.5461C56.3466 68.4534 56.6247 68.6852 56.6247 69.1023C56.6247 69.5195 56.8565 69.844 57.0882 69.844C57.3664 69.844 57.969 70.2612 58.4789 70.7711C59.9622 72.2544 60.4721 71.8372 59.4059 69.9367L58.3861 68.2216L60.2867 70.1685C61.3528 71.2346 62.1872 72.4398 62.1872 72.8107C62.1872 73.1815 61.2601 73.7841 59.8695 74.2476C57.6445 74.9893 57.5518 74.9893 56.5783 74.0622C55.9757 73.506 55.4195 73.2278 55.2804 73.3669C55.1414 73.506 55.4195 73.9231 55.883 74.294C56.3929 74.6648 56.5783 74.9429 56.2539 74.9429C55.9294 74.9429 55.4659 74.5257 55.1414 74.0159C54.8169 73.506 54.3534 73.0888 54.1216 73.0888C53.9362 73.0888 54.0752 73.5987 54.4924 74.2476C54.9096 74.8966 55.095 75.4065 54.8633 75.4065C54.6315 75.4065 54.1679 74.8966 53.8435 74.2476C53.519 73.5987 53.0554 73.0888 52.8237 73.0888C52.5919 73.0888 52.731 73.6914 53.1482 74.4794C53.5653 75.2211 53.6581 75.87 53.4726 75.87C53.2409 75.87 52.6846 75.1747 52.2674 74.3403C51.7112 73.1815 51.5258 73.0888 51.5258 73.7841C51.5258 74.3403 51.7575 74.9893 52.082 75.3138C52.4992 75.7309 52.4992 75.87 52.082 75.87C51.7575 75.87 51.3867 75.2211 51.2476 74.4794C51.0622 73.6914 50.7841 73.0888 50.5523 73.0888C49.9961 73.0888 50.0424 73.6914 50.5987 75.1283C50.9232 76.1018 50.8768 76.3335 50.3669 76.3335C49.857 76.3335 49.6716 75.8237 49.6716 74.4794C49.6716 73.4596 49.5326 72.6716 49.3471 72.6716C48.3274 72.857 47.8175 72.5789 48.0956 72.069C48.3274 71.7445 48.1883 71.6518 47.6784 71.8372C47.2612 71.9763 46.844 71.8836 46.7513 71.5591C46.5196 70.9565 45.0362 74.0622 45.0362 75.1747C45.0362 76.3799 44.0628 75.9164 41.6987 73.5523C40.4472 72.2544 39.2883 71.2346 39.1956 71.2346C39.0566 71.2346 39.2883 71.8372 39.7055 72.6252C40.1227 73.3669 40.6326 74.0159 40.8644 74.0159C41.1425 74.0159 41.3279 74.2476 41.3279 74.5721C41.3279 75.9164 39.0102 72.7643 38.5467 70.7247C38.2222 69.4732 37.805 68.5924 37.5732 68.7315C36.4144 69.4268 37.4805 66.5065 40.4008 61.1295C42.2086 57.8383 43.6456 54.779 43.6456 54.3154C43.6456 53.8519 44.0164 53.203 44.48 52.8785C45.2216 52.2759 45.2216 52.2759 44.4336 52.2295C43.692 52.2295 43.692 52.1368 44.5727 51.1634L45.5461 50.1436L44.2482 49.8655C43.043 49.5873 43.043 49.541 44.0628 49.4946C44.9899 49.4483 48.0956 46.8061 47.6784 46.3889C47.3076 46.0181 45.4998 46.8525 45.4998 47.4087C45.4998 47.7795 45.2216 47.9186 44.8045 47.7332C43.692 47.316 45.0826 45.4619 46.3805 45.6473C47.1222 45.7863 47.5393 45.3691 48.1883 44.0249C48.7909 42.6343 49.2081 42.3098 50.0424 42.4025C51.4331 42.6343 51.3404 41.7535 49.9034 41.3827C48.281 40.9655 48.3737 39.4358 50.0424 39.0187C52.2211 38.4624 53.6581 36.0057 51.7575 36.0057C50.9232 36.0057 48.281 33.7343 48.281 33.0854C48.281 32.7609 48.5128 32.8999 48.7909 33.3635C49.6253 34.7541 51.7575 35.5885 53.2409 35.0322C54.7242 34.476 53.9825 33.688 52.2674 34.0124C51.6648 34.1515 51.0622 34.0588 50.9232 33.827C50.7841 33.5953 51.4794 33.4562 52.4992 33.5025C53.4726 33.5489 54.4461 33.4098 54.5851 33.1781C54.7242 32.9463 54.4924 32.7609 54.0289 32.7609C53.3336 32.7609 53.3336 32.6682 53.9825 31.6484C54.6315 30.675 54.6315 30.4895 53.9825 29.8869C53.3799 29.238 53.4263 29.1916 54.4461 29.377C55.095 29.5161 55.744 29.3307 55.9294 29.0062C56.2075 28.6354 56.1148 28.4963 55.6513 28.6817C55.2804 28.8208 54.2607 28.5427 53.3799 28.0791C51.8502 27.1984 52.1747 27.1984 54.7705 27.9401C55.3268 28.0791 56.0221 27.9401 56.3929 27.662C56.9028 27.2448 57.0882 27.2448 57.0882 27.6156C57.0882 27.8937 57.32 28.1255 57.5518 28.1255C58.3861 28.1255 58.0153 26.8739 56.9955 26.1323C55.9757 25.437 55.9757 25.3906 57.5518 25.8542C59.4986 26.364 59.4059 26.364 59.4059 25.9005C59.4059 25.6687 58.8497 25.2979 58.1544 24.9734L56.8565 24.4172L58.0617 24.649C58.7106 24.788 59.4059 24.7417 59.5913 24.5562C60.2867 23.8609 61.7236 24.1391 61.7236 24.9734C61.7236 25.437 61.9554 25.8078 62.1872 25.8078C62.4653 25.8078 62.6507 25.3443 62.6507 24.7417C62.6507 23.212 64.2731 21.7287 64.4122 23.1193ZM56.6247 23.212C56.6247 23.3047 56.2075 23.4901 55.6976 23.6292C55.1877 23.7682 54.8633 23.6755 55.0487 23.4437C55.2804 23.0266 56.6247 22.8411 56.6247 23.212ZM45.4534 24.5099C45.1289 25.1125 44.48 26.1323 43.9237 26.7812C43.3675 27.4765 42.6722 28.4036 42.3941 28.8672C41.8842 29.6088 41.8842 29.5625 42.255 28.4963C42.8576 26.6885 44.9435 23.4901 45.4998 23.4901C45.8242 23.4901 45.7779 23.8609 45.4534 24.5099ZM53.519 24.2781C53.9362 24.4172 54.307 24.6953 54.307 24.9271C54.307 25.3906 52.9164 25.3906 50.8305 24.9271C49.5326 24.649 49.4862 24.6026 50.3669 24.0463C50.8768 23.7682 51.6185 23.6292 51.9893 23.7682C52.3601 23.9536 53.0554 24.1854 53.519 24.2781ZM56.6247 24.1391C56.6247 24.2781 56.4393 24.5099 56.1612 24.649C55.9294 24.788 55.6976 24.6953 55.6976 24.4635C55.6976 24.1854 55.9294 23.9536 56.1612 23.9536C56.4393 23.9536 56.6247 24.0463 56.6247 24.1391ZM34.6066 27.5692C34.1894 28.9135 33.7722 29.9796 33.6332 29.9796C33.355 29.9796 33.8186 27.4765 34.4675 25.8542C35.2092 23.8609 35.3019 25.1588 34.6066 27.5692ZM38.454 28.1255C38.2222 29.5161 38.1295 31.602 38.2222 32.7609C38.4076 34.1515 38.3613 34.5223 38.0831 33.8734C37.8977 33.3635 37.666 32.3901 37.5732 31.7875C37.4805 30.6286 38.0368 26.3177 38.4076 25.6687C38.8712 24.8344 38.9175 25.6687 38.454 28.1255ZM40.9571 27.5229C40.9107 28.2182 40.4935 29.9796 39.9837 31.3703L39.0566 33.9197L39.0102 30.814C39.0102 27.2448 39.6592 24.8807 40.4935 25.7151C40.7717 25.9932 41.0034 26.8276 40.9571 27.5229ZM49.1617 25.8542C49.3935 25.4833 49.9034 25.3443 50.4133 25.5297C51.8039 26.0396 50.4133 26.8276 47.7248 27.0594L45.268 27.2911L46.6586 26.3177C47.6784 25.6224 48.0956 25.5297 48.3737 25.9469C48.6518 26.364 48.8372 26.364 49.1617 25.8542ZM55.9294 26.3177C56.1148 26.5958 56.1612 26.9203 56.0221 27.0594C55.6049 27.4765 51.9893 26.6885 52.2674 26.225C52.5919 25.6224 55.5586 25.7151 55.9294 26.3177ZM47.9102 29.0526C47.3076 29.5625 45.9169 30.1651 44.8972 30.4432C43.831 30.7213 42.5795 31.1385 42.0696 31.4166C41.2816 31.8802 41.2816 31.8338 41.9305 30.9067C42.9503 29.4698 45.4998 28.1718 47.3539 28.1718H48.9763L47.9102 29.0526ZM51.6648 28.6354C51.294 29.0062 50.9232 29.0062 50.2742 28.6354C49.5326 28.2182 49.6253 28.1718 50.8305 28.1255C51.8039 28.1255 52.0357 28.2646 51.6648 28.6354ZM51.4331 30.4432C53.2409 31.5557 53.4726 32.6218 51.6648 31.6484C50.9232 31.2776 49.9497 30.675 49.4398 30.2578C48.0492 29.1916 49.5789 29.3307 51.4331 30.4432ZM34.653 33.1317C34.1431 33.5953 34.004 32.9927 34.3285 31.3703L34.6066 29.7479L34.7457 31.2776C34.8384 32.1583 34.792 32.9463 34.653 33.1317ZM37.1561 33.5025C37.1561 34.615 36.9243 36.052 36.5998 36.7937L36.0899 38.0916L35.7191 36.2374C35.2556 33.8734 35.2092 30.675 35.6264 30.2578C36.2753 29.6552 37.1561 31.5557 37.1561 33.5025ZM50.1352 31.463C51.1549 32.0656 51.9893 32.7145 51.9893 32.8999C51.9893 33.3171 51.7112 33.1781 49.2544 31.5093C47.2612 30.1651 47.7711 30.1187 50.1352 31.463ZM47.3539 31.3703C47.8638 31.6947 47.4003 31.7875 45.7315 31.7875C43.8774 31.7411 43.6456 31.6484 44.5727 31.3703C46.1951 30.8604 46.5659 30.8604 47.3539 31.3703ZM33.3087 33.5489C33.1696 34.0124 33.0769 33.6416 33.0769 32.7609C33.0769 31.8802 33.1696 31.5093 33.3087 31.9265C33.4014 32.3901 33.4014 33.1317 33.3087 33.5489ZM45.268 32.7609C44.9899 33.2244 42.0232 34.1515 40.7253 34.1515C39.5201 34.1515 39.9837 33.0854 41.3743 32.7145C43.0894 32.2046 45.5925 32.251 45.268 32.7609ZM47.5857 34.5687C47.6784 34.7541 47.3076 34.8468 46.7513 34.8005C46.1951 34.7541 45.2216 34.6614 44.5727 34.6614C43.7847 34.615 43.5993 34.476 44.0164 34.2442C44.6654 33.827 47.2612 34.0588 47.5857 34.5687ZM43.1821 35.6348C43.1821 35.8202 42.3013 36.1911 41.2352 36.4692C40.1227 36.7473 38.8248 37.1181 38.3149 37.2572C37.4805 37.489 37.5269 37.3963 38.5467 36.2838C39.4274 35.3567 40.0764 35.0786 41.467 35.1713C42.3941 35.2176 43.1821 35.4031 43.1821 35.6348ZM47.5857 37.7207C48.93 38.3697 48.0956 38.3234 46.1951 37.628C45.4071 37.3499 45.4071 37.4426 46.3805 38.277C46.9831 38.8332 47.2149 39.2504 46.9367 39.2504C46.6586 39.2504 45.7779 38.6015 44.9435 37.8598L43.4138 36.4692L44.8045 36.7473C45.5925 36.9327 46.844 37.3963 47.5857 37.7207ZM35.3019 37.9062C35.3019 38.1379 35.1165 38.3234 34.8384 38.3234C34.6066 38.3234 34.3748 37.9989 34.3748 37.5817C34.3748 37.2109 34.6066 37.0254 34.8384 37.1645C35.1165 37.3036 35.3019 37.628 35.3019 37.9062ZM33.1233 39.065C34.9311 40.5947 35.0701 40.641 35.2092 39.7603C35.3946 38.6478 35.8118 38.5551 36.5998 39.3431C37.3878 40.1312 37.2951 40.641 36.2753 40.641C35.7654 40.641 35.3019 40.8728 35.2092 41.1509C35.1165 41.4754 34.4212 41.1509 33.5868 40.4556C31.9644 39.1114 29.6931 38.8796 28.766 39.9921C28.3952 40.4093 27.7926 40.5947 27.1436 40.4556C26.3093 40.2239 26.1238 40.3166 26.3093 40.8728C26.6801 41.8462 26.0775 41.7535 25.1504 40.7338C24.7332 40.2239 24.0843 39.714 23.7134 39.5286C23.3426 39.3895 23.9452 39.3431 25.0577 39.4358C26.6801 39.6213 27.4681 39.3895 28.766 38.5088C29.6931 37.9062 30.6202 37.3963 30.8056 37.3963C31.0373 37.3963 32.1035 38.1379 33.1233 39.065ZM42.255 37.628C42.255 38.0916 39.242 39.714 38.454 39.714C37.1097 39.714 37.4805 38.3697 38.9175 38.0452C39.6128 37.9062 40.4008 37.7207 40.6326 37.628C41.3743 37.3499 42.255 37.3963 42.255 37.628ZM43.5529 39.065C43.4602 39.5749 44.1091 40.2239 45.4534 40.9192C46.9831 41.7535 47.2612 42.0317 46.4732 42.0317C45.268 42.0317 43.6456 41.2436 42.8112 40.2239C42.255 39.5749 42.2086 39.5749 42.4404 40.2702C42.5795 40.7338 42.4868 41.1973 42.2086 41.3827C41.5597 41.7535 42.5795 42.9587 44.0164 43.4686C44.6654 43.7004 45.0362 44.0249 44.8972 44.2103C44.7581 44.3494 43.831 44.0249 42.9039 43.4686C41.9769 42.9124 41.1425 42.5416 41.0034 42.6343C40.7253 42.9587 43.2284 44.8129 43.9237 44.8129C44.2946 44.8129 44.5727 45.0447 44.5727 45.3228C44.5727 45.6009 43.831 45.3691 42.9039 44.8593C40.6326 43.515 40.3545 43.9785 42.5795 45.4619C43.5065 46.1108 44.0628 46.6671 43.7847 46.6671C43.5065 46.6671 42.6258 46.1572 41.8842 45.5082C41.0034 44.8129 40.3545 44.5348 40.1691 44.8129C39.7055 45.5546 39.1493 45.3691 38.8712 44.3957C38.7321 43.7468 38.8712 43.6077 39.5201 43.7468C40.03 43.8858 40.4008 43.7468 40.4008 43.4686C40.4008 43.1442 40.2154 43.0514 39.9373 43.1905C39.7055 43.3296 39.4738 43.1442 39.4738 42.7733C39.4738 42.3561 39.8446 42.0317 40.3081 42.0317C40.7717 42.0317 41.1425 41.6608 41.1889 41.1509C41.2816 40.2239 40.4008 40.2702 39.1029 41.2436C38.7784 41.4754 38.454 41.6145 38.3149 41.5218C38.0368 41.2436 42.3477 38.3697 43.0894 38.3234C43.4138 38.3234 43.6456 38.6478 43.5529 39.065ZM32.0571 41.0119C32.0571 41.6145 31.5009 42.0317 31.0373 41.7535C30.5738 41.4754 30.991 40.641 31.6399 40.641C31.8717 40.641 32.0571 40.8265 32.0571 41.0119ZM28.5806 43.8858C28.7197 44.1176 28.6269 44.3494 28.3952 44.3494C28.1171 44.3494 27.8853 44.1176 27.8853 43.8858C27.8853 43.6077 27.978 43.4223 28.0707 43.4223C28.2098 43.4223 28.4415 43.6077 28.5806 43.8858ZM27.19 44.3957C27.6999 45.1837 27.1436 45.3691 26.4947 44.5811C26.1238 44.1639 26.1238 43.8858 26.402 43.8858C26.6801 43.8858 27.0509 44.1176 27.19 44.3957ZM46.6586 44.3494C46.7977 44.5811 46.705 44.8129 46.4732 44.8129C46.1951 44.8129 45.9633 44.5811 45.9633 44.3494C45.9633 44.0712 46.056 43.8858 46.1487 43.8858C46.2878 43.8858 46.5196 44.0712 46.6586 44.3494ZM37.3415 47.5478C37.017 47.8723 34.8384 46.1572 34.8384 45.5546C34.8384 45.1374 35.3483 45.3691 36.1826 46.1572C36.9243 46.8061 37.4342 47.4551 37.3415 47.5478ZM34.3748 48.2894C34.6993 48.7066 34.7457 48.9847 34.4675 48.9847C34.2358 48.9847 33.9113 48.6603 33.7259 48.2894C33.5868 47.9186 33.5405 47.5941 33.6332 47.5941C33.7259 47.5941 34.0504 47.9186 34.3748 48.2894ZM41.7915 48.5212C42.4404 49.0311 42.7649 49.4483 42.4868 49.4483C42.255 49.4483 41.5133 49.0311 40.8644 48.5212C40.2154 48.0113 39.9373 47.5941 40.1691 47.5941C40.4472 47.5941 41.1425 48.0113 41.7915 48.5212ZM55.6049 58.0238C55.3268 58.9045 54.9096 59.5071 54.7242 59.4144C54.3997 59.1826 55.5122 56.4014 55.9294 56.4014C56.0221 56.4014 55.8367 57.143 55.6049 58.0238ZM46.4732 74.7575C46.1487 76.1945 46.056 76.3335 46.0097 75.3138C45.9633 74.0622 46.4268 72.4398 46.705 72.7643C46.844 72.857 46.705 73.7841 46.4732 74.7575ZM47.6784 75.9627C47.5857 76.5653 47.493 76.1018 47.493 74.9429C47.493 73.7841 47.5857 73.3205 47.6784 73.8768C47.7711 74.4794 47.7711 75.4065 47.6784 75.9627ZM48.8372 74.9429C48.9763 75.6846 48.8836 76.3335 48.6518 76.3335C48.4664 76.3335 48.281 75.6846 48.281 74.9429C48.281 74.1549 48.3737 73.5523 48.4664 73.5523C48.5591 73.5523 48.7445 74.1549 48.8372 74.9429Z" fill="black"></path>
<path d="M59.9158 38.6479C59.9158 39.2041 59.545 39.8531 59.1742 40.0849C58.5716 40.4093 58.6179 40.6411 59.6377 41.5682C60.2867 42.1708 60.7965 42.588 60.8429 42.4489C61.2137 40.4557 61.2137 39.6677 60.8429 39.8994C60.6111 40.0849 60.2867 39.6213 60.1939 38.926C60.0549 37.9062 60.0085 37.8599 59.9158 38.6479Z" fill="black"></path>
<path d="M57.5519 39.2504C57.5519 40.2702 57.5982 40.3166 58.6644 39.8994C59.267 39.6676 59.3133 39.4822 58.8961 38.9723C58.1545 38.0452 57.5519 38.1843 57.5519 39.2504Z" fill="black"></path>
<path d="M57.4591 41.1973C57.0883 42.078 57.7372 43.1905 58.3862 42.7733C58.6643 42.6343 58.9888 42.7733 59.0815 43.0515C59.2669 43.4223 59.3596 43.4686 59.3596 43.1442C59.406 42.8197 59.0352 42.1244 58.5716 41.5681C57.8763 40.6874 57.6445 40.6411 57.4591 41.1973Z" fill="black"></path>
<path d="M50.5986 66.9701C50.5986 67.1556 51.3403 67.5264 52.221 67.8045C54.0752 68.4071 54.3997 67.9436 52.6846 67.1556C51.2939 66.5066 50.5986 66.4602 50.5986 66.9701Z" fill="black"></path>
<path d="M48.8836 67.9898C47.2149 68.6851 47.6321 69.2877 49.3935 68.7315C50.2742 68.4534 50.8768 68.0825 50.7841 67.8971C50.506 67.4336 50.1815 67.4799 48.8836 67.9898Z" fill="black"></path>
<path d="M57.4127 72.9961C56.1611 73.2279 56.9955 74.0159 58.5252 74.0159C59.3132 74.0159 59.8231 73.8305 59.6377 73.5987C59.4986 73.3669 59.7767 73.0425 60.1939 72.9498C61.121 72.718 58.6642 72.7643 57.4127 72.9961Z" fill="black"></path>
<path d="M28.9978 18.0204C28.8124 18.2985 28.9051 18.6693 29.1832 18.762C29.4614 18.8548 29.5541 19.2719 29.415 19.6891C29.276 20.1063 29.276 20.3381 29.5077 20.1527C29.6931 19.9672 30.1567 20.1527 30.5275 20.6162C31.0838 21.3115 31.1301 21.2652 31.0374 20.0136C30.852 17.835 29.7858 16.7688 28.9978 18.0204Z" fill="#0C0C0C"></path>
<path d="M23.5279 18.623C23.1108 19.8282 23.2035 20.1063 23.7597 19.1792C24.0378 18.7157 24.1769 18.2058 24.0378 18.1131C23.9451 17.974 23.7134 18.2058 23.5279 18.623Z" fill="#0C0C0C"></path>
<path d="M69.6038 18.7621C69.6038 18.9938 69.9282 19.3647 70.3454 19.5037C70.809 19.6891 70.9944 19.5501 70.9017 19.2256C70.6699 18.5303 69.6038 18.1595 69.6038 18.7621Z" fill="#0C0C0C"></path>
<path d="M71.9678 19.8282C70.7162 21.1725 71.1797 21.636 72.4777 20.3381C73.0339 19.7818 73.3584 19.2256 73.2193 19.0865C73.0803 18.9011 72.524 19.2719 71.9678 19.8282Z" fill="#0C0C0C"></path>
<path d="M26.402 20.0599C26.2166 20.2453 26.1703 20.9407 26.3093 21.5896C26.5411 22.7485 26.5411 22.7485 25.8458 21.9141C25.4286 21.4042 25.0114 21.1261 24.8723 21.2651C24.7333 21.4042 25.0114 22.0068 25.5213 22.6094C26.0312 23.212 26.4484 23.4438 26.4947 23.1193C26.4947 22.8412 26.9119 22.563 27.3755 22.563C27.839 22.563 28.3952 22.2386 28.5343 21.8214C28.9515 20.7552 28.8588 20.2453 28.3489 20.2453C28.1171 20.2453 27.8853 20.5698 27.8853 20.9407C27.8853 22.0068 27.051 21.775 26.8656 20.6625C26.7729 20.1526 26.5874 19.8282 26.402 20.0599Z" fill="#0C0C0C"></path>
<path d="M73.312 21.4042C72.7094 22.0532 72.4313 22.5631 72.7094 22.5631C72.9876 22.5631 73.3584 22.2386 73.4974 21.8214C73.6829 21.4042 74.1 21.1725 74.4709 21.3579C74.8417 21.4969 75.1662 21.4042 75.1662 21.1725C75.1662 20.2454 74.3318 20.3381 73.312 21.4042Z" fill="#0C0C0C"></path>
<path d="M73.9611 23.1193C73.7293 23.4438 73.8684 23.5365 74.3782 23.3511C74.8881 23.1657 75.2126 23.3974 75.398 24C75.6298 24.7417 75.8616 24.8344 76.3715 24.3709C77.2522 23.6756 77.2058 22.9803 76.3251 23.3047C75.9543 23.4901 75.6298 23.3511 75.6298 23.073C75.6298 22.3777 74.3782 22.424 73.9611 23.1193Z" fill="#0C0C0C"></path>
<path d="M23.25 23.3047C23.25 24.0927 24.2698 24.8344 24.9187 24.5562C25.2896 24.4172 25.5677 24.0927 25.5677 23.8609C25.5677 23.5828 25.2896 23.4901 24.9187 23.6292C24.5943 23.7682 24.038 23.6292 23.7599 23.351C23.4818 23.0729 23.25 23.0266 23.25 23.3047Z" fill="#0C0C0C"></path>
<path d="M28.9977 23.5365C28.5342 24.3245 29.6003 25.2053 30.2493 24.5563C30.8055 24.0001 30.4347 23.0266 29.7394 23.0266C29.5076 23.0266 29.1832 23.2584 28.9977 23.5365Z" fill="#0C0C0C"></path>
<path d="M22.1837 25.1125C21.5811 25.5297 21.4884 25.8078 21.8593 26.0396C22.5082 26.4104 23.4353 25.6224 23.2035 24.9734C23.0645 24.649 22.6936 24.6953 22.1837 25.1125Z" fill="#0C0C0C"></path>
<path d="M76.8349 24.8344C76.6495 25.1588 76.6032 25.5297 76.7422 25.6687C77.1594 26.0859 77.623 25.4833 77.3912 24.8344C77.2058 24.3245 77.1131 24.3245 76.8349 24.8344Z" fill="#0C0C0C"></path>
<path d="M78.1792 25.3443C78.3183 25.5761 78.5501 25.8078 78.6891 25.8078C78.7818 25.8078 78.8745 25.5761 78.8745 25.3443C78.8745 25.0662 78.6428 24.8808 78.3646 24.8808C78.1329 24.8808 78.0402 25.0662 78.1792 25.3443Z" fill="#0C0C0C"></path>
<path d="M18.4754 25.6688C18.2899 25.8079 18.1509 26.2714 18.1509 26.6886C18.1972 27.2912 18.2899 27.2912 18.6608 26.5959C19.1707 25.7151 19.0316 25.0662 18.4754 25.6688Z" fill="#0C0C0C"></path>
<path d="M26.2629 25.8078C25.7994 26.5958 26.8191 27.5229 27.4217 26.9203C27.7926 26.5495 27.6999 26.225 27.2363 25.8542C26.7728 25.437 26.4947 25.437 26.2629 25.8078Z" fill="#0C0C0C"></path>
<path d="M19.3098 27.2448C19.1244 27.8011 18.7536 28.0792 18.3364 27.9401C17.4093 27.5693 17.5484 28.311 18.6145 29.2844C19.1244 29.7479 19.6807 29.9797 19.9124 29.7479C20.0979 29.5625 19.9588 29.2844 19.6807 29.1917C19.2171 29.0526 19.2171 28.7282 19.588 28.0328C19.9588 27.3375 20.2369 27.2448 20.6078 27.6157C21.5348 28.5427 22.0447 28.1719 21.164 27.1985C20.0979 26.0396 19.6807 26.0396 19.3098 27.2448Z" fill="#0C0C0C"></path>
<path d="M77.9475 26.7349C77.5767 26.9667 77.3912 27.2448 77.5303 27.3839C77.623 27.5229 78.0402 27.4302 78.411 27.1984C78.7819 26.9667 78.9673 26.6885 78.8282 26.5495C78.7355 26.4104 78.3183 26.5031 77.9475 26.7349Z" fill="#0C0C0C"></path>
<path d="M79.3381 26.6886C79.3381 26.9203 79.6162 27.1984 79.9407 27.3375C80.2652 27.4766 80.0334 27.7547 79.3844 27.9865C78.5964 28.3109 78.411 28.5427 78.8282 28.7745C79.1063 28.9599 79.6626 28.8672 80.0334 28.5891C80.9141 27.8474 80.9141 26.2714 80.0334 26.2714C79.6626 26.2714 79.3381 26.4568 79.3381 26.6886Z" fill="#0C0C0C"></path>
<path d="M29.0905 27.1057C28.7197 27.7083 29.6004 28.7281 30.1566 28.4037C30.4348 28.2182 30.6665 27.8938 30.6665 27.662C30.6665 27.1521 29.3686 26.6886 29.0905 27.1057Z" fill="#0C0C0C"></path>
<path d="M23.5279 28.0792C23.3425 28.3109 23.5279 28.6354 23.806 28.7281C24.2696 28.9135 24.2696 29.0062 23.806 29.0062C23.4816 29.0526 23.3425 29.2844 23.4816 29.5161C23.9451 30.2578 25.1039 29.1453 24.7795 28.3109C24.5013 27.5693 23.8987 27.4766 23.5279 28.0792Z" fill="#0C0C0C"></path>
<path d="M71.7361 28.8208C71.597 29.238 71.458 30.2578 71.5043 31.0458C71.5507 32.3437 71.597 32.251 71.9679 30.4895C72.3851 28.3573 72.246 27.4765 71.7361 28.8208Z" fill="#0C0C0C"></path>
<path d="M26.68 29.1916C26.541 29.6088 26.541 30.1187 26.68 30.3968C26.8191 30.6286 26.68 30.9531 26.4019 31.0458C26.0774 31.1848 26.0311 31.3239 26.3092 31.3239C26.541 31.3703 27.1899 31.0921 27.6998 30.7213C28.5342 30.0724 28.5342 29.9796 27.7925 29.238C27.0509 28.4963 26.9582 28.4963 26.68 29.1916Z" fill="#0C0C0C"></path>
<path d="M81.8412 29.5161C81.8412 30.026 82.073 30.3968 82.3511 30.3041C82.5828 30.2114 82.8146 29.8406 82.8146 29.5161C82.8146 29.1916 82.5828 28.8208 82.3511 28.7281C82.073 28.6354 81.8412 29.0062 81.8412 29.5161Z" fill="#0C0C0C"></path>
<path d="M80.0333 29.9797C79.8943 30.2114 79.9406 30.4432 80.2187 30.4432C80.4505 30.4432 80.8213 30.2114 80.9604 29.9797C81.0995 29.7015 81.0531 29.5161 80.775 29.5161C80.5432 29.5161 80.1724 29.7015 80.0333 29.9797Z" fill="#0C0C0C"></path>
<path d="M17.3165 30.536C16.992 30.8604 16.7603 31.2776 16.7603 31.463C16.7603 32.1584 17.4556 31.8339 18.0582 30.9068C18.6608 29.887 18.1972 29.6552 17.3165 30.536Z" fill="#0C0C0C"></path>
<path d="M29.2759 30.675C29.2759 31.0922 29.5076 31.3704 29.7858 31.2776C30.0639 31.1849 30.2957 30.9068 30.2957 30.675C30.2957 30.4433 30.0639 30.1652 29.7858 30.0724C29.5076 29.9797 29.2759 30.2579 29.2759 30.675Z" fill="#0C0C0C"></path>
<path d="M72.6632 31.1385C72.3387 32.3901 72.6168 33.2245 73.3585 33.2245C73.8684 33.2245 73.9147 31.3703 73.3585 30.5359C73.0804 30.0724 72.895 30.2115 72.6632 31.1385Z" fill="#0C0C0C"></path>
<path d="M20.7468 30.8605C20.6077 31.0922 20.7468 31.4167 21.0249 31.5094C21.4884 31.6948 21.4884 31.7875 21.0249 31.7875C20.7004 31.8339 20.5614 32.0193 20.7004 32.2974C21.1176 32.9464 21.7202 32.8537 21.9983 32.112C22.3228 31.324 21.164 30.1651 20.7468 30.8605Z" fill="#0C0C0C"></path>
<path d="M24.6405 31.8338C25.1503 32.1583 25.1503 32.2974 24.7332 32.2974C24.4087 32.2974 24.2696 32.5291 24.455 32.8072C24.6405 33.1317 24.9186 33.1317 25.1967 32.8536C25.7529 32.2974 25.2894 31.3703 24.5014 31.3703C24.1769 31.3703 24.2233 31.5557 24.6405 31.8338Z" fill="#0C0C0C"></path>
<path d="M27.7462 32.0193C27.4681 32.7146 27.7926 33.2245 28.4415 33.2245C28.9514 33.2245 28.9051 31.9729 28.3952 31.6484C28.1634 31.5094 27.8853 31.6484 27.7462 32.0193Z" fill="#0C0C0C"></path>
<path d="M81.1923 31.8338C81.1923 32.0656 81.424 32.2974 81.6558 32.2974C81.9339 32.2974 82.1193 32.0656 82.1193 31.8338C82.1193 31.5557 81.9339 31.3703 81.6558 31.3703C81.424 31.3703 81.1923 31.5557 81.1923 31.8338Z" fill="#0C0C0C"></path>
<path d="M85.1787 33.178C84.9933 33.5025 84.9469 33.8733 85.086 34.0124C85.5032 34.4296 85.9667 33.827 85.7349 33.178C85.5495 32.6681 85.4568 32.6681 85.1787 33.178Z" fill="#0C0C0C"></path>
<path d="M14.4426 34.337C14.4426 34.4297 14.7671 34.7541 15.1379 35.0786C15.5551 35.4031 15.8332 35.4495 15.8332 35.1713C15.8332 34.9396 15.5088 34.6151 15.1379 34.4297C14.7671 34.2906 14.4426 34.2443 14.4426 34.337Z" fill="#0C0C0C"></path>
<path d="M17.2702 34.8005C16.8993 35.264 16.853 35.5421 17.2238 35.7739C17.4556 35.913 17.6873 35.8203 17.6873 35.5421C17.6873 35.264 18.1509 34.8468 18.7535 34.6151C19.7733 34.1979 19.7733 34.1979 18.7998 34.1979C18.2436 34.1515 17.5483 34.4296 17.2702 34.8005Z" fill="#0C0C0C"></path>
<path d="M86.5692 34.8469C86.7547 35.2177 86.9401 35.5422 87.0328 35.5422C87.1255 35.5422 87.2182 35.2177 87.2182 34.8469C87.2182 34.476 87.0328 34.1515 86.7547 34.1515C86.5229 34.1515 86.4302 34.476 86.5692 34.8469Z" fill="#0C0C0C"></path>
<path d="M19.0781 35.5421C19.0781 35.7739 19.3099 36.0057 19.588 36.0057C19.8198 36.0057 19.9125 35.7739 19.7734 35.5421C19.6344 35.264 19.4026 35.0786 19.2635 35.0786C19.1708 35.0786 19.0781 35.264 19.0781 35.5421Z" fill="#0C0C0C"></path>
<path d="M76.047 38.0453C75.4907 39.2505 74.6563 40.5484 74.2392 41.0119C73.4048 41.8927 73.3121 44.164 74.0074 45.3228C74.3782 45.8791 74.2855 45.8791 73.6366 45.3692C72.9876 44.813 72.8485 44.9057 72.5704 45.9718C72.4314 46.6208 72.385 47.3161 72.5704 47.4551C72.7095 47.6405 72.8485 47.2234 72.8949 46.6208C72.8949 45.6473 72.9412 45.6473 73.2657 46.389C73.5902 47.177 73.6366 47.177 74.3319 46.4817C74.749 46.0645 75.3053 45.74 75.5834 45.74C75.9079 45.74 75.7225 44.952 75.1662 43.8395C74.2855 42.1708 74.2392 41.8463 74.8418 41.1974C75.7688 40.1312 77.5766 36.4229 77.3449 36.1448C77.2058 36.0521 76.6496 36.8864 76.047 38.0453Z" fill="#0C0C0C"></path>
<path d="M86.0595 37.3963C85.9204 37.6281 86.0131 37.8598 86.2449 37.8598C86.523 37.8598 86.7548 37.6281 86.7548 37.3963C86.7548 37.1182 86.6621 36.9328 86.5694 36.9328C86.4303 36.9328 86.1985 37.1182 86.0595 37.3963Z" fill="#0C0C0C"></path>
<path d="M19.1245 37.8135C18.7537 38.0453 18.7073 38.3234 18.9854 38.5088C19.2172 38.6479 19.6807 38.4625 20.0052 38.0916C20.6542 37.35 20.1443 37.1646 19.1245 37.8135Z" fill="#0C0C0C"></path>
<path d="M12.8666 39.8067C12.6812 40.9192 12.7276 41.8927 13.052 42.2171C13.3765 42.5416 13.5156 41.939 13.5156 40.2703C13.5156 38.926 13.4229 37.8599 13.3302 37.8599C13.2375 37.8599 13.052 38.7406 12.8666 39.8067Z" fill="#0C0C0C"></path>
<path d="M76.4643 40.2239C74.7492 43.2832 74.8419 43.7468 76.6033 40.9655C77.345 39.714 77.9476 38.5088 77.8549 38.3234C77.7622 38.0916 77.1596 38.926 76.4643 40.2239Z" fill="#0C0C0C"></path>
<path d="M89.1188 38.6479C89.0724 39.2041 89.3042 39.8067 89.5359 39.9458C90.0922 40.2703 90.0922 39.8531 89.5359 38.5552C89.1651 37.6744 89.1188 37.6744 89.1188 38.6479Z" fill="#0C0C0C"></path>
<path d="M85.5496 39.0187C85.4105 39.3895 85.5032 40.2702 85.735 40.9656C86.0595 41.7999 86.2449 41.9853 86.2449 41.4291C86.2913 40.7801 86.4767 40.6874 87.1256 41.0119C88.0063 41.5218 89.2115 41.2437 88.8407 40.6411C88.7017 40.4093 88.2845 40.3166 87.9136 40.502C86.9866 40.8265 85.8277 39.8067 86.1522 38.9723C86.2913 38.6015 86.2449 38.3234 86.1058 38.3234C85.9204 38.3234 85.6887 38.6479 85.5496 39.0187Z" fill="#0C0C0C"></path>
<path d="M77.3912 40.8265C77.113 41.3827 76.6031 42.2634 76.2323 42.7733C75.6297 43.7004 75.6761 43.7468 76.7422 43.7468C77.5766 43.7468 78.0401 43.4223 78.3182 42.5416C78.5964 41.8926 78.9208 41.0119 79.0599 40.5947C79.5234 39.4822 77.9938 39.6676 77.3912 40.8265Z" fill="#0C0C0C"></path>
<path d="M84.1126 46.6671C84.298 48.7066 84.2053 49.8191 83.9272 49.6801C82.9074 49.0311 83.0464 52.7858 84.2053 56.6332C84.3443 57.1431 84.0662 56.7259 83.5563 55.7061C82.8147 54.13 82.6292 53.991 82.3511 54.6863C82.1657 55.1962 82.1193 57.1431 82.2584 59.1363C82.6292 63.5862 82.0266 64.7914 81.2386 61.2686C80.636 58.58 79.848 58.1165 79.2918 60.1561C78.7819 62.0102 78.8282 66.0894 79.4308 67.0164C79.848 67.7117 79.7553 68.1289 78.9673 69.1487L77.9475 70.4466V68.3143C77.9475 67.1555 77.7157 65.6258 77.4376 64.8842L76.9277 63.5862L76.5105 64.6987C76.2788 65.3013 75.7689 67.8045 75.3517 70.2612C74.8418 73.4133 74.3782 74.9893 73.7293 75.6383C72.8022 76.5653 72.8022 76.5653 73.7293 74.4794C74.2392 73.3206 74.7027 71.9763 74.7027 71.4201C74.7027 70.1221 73.7756 67.5263 73.3121 67.5263C72.9876 67.5263 70.9944 73.4133 70.2528 76.5653C69.6038 79.4393 70.8554 76.9362 71.9678 73.2279C73.1267 69.2878 73.7756 68.3607 73.7756 70.7247C73.7756 72.6716 71.6434 77.0289 69.9746 78.4195C69.1866 79.0685 68.4449 79.532 68.3522 79.3929C68.2595 79.3002 68.584 78.3731 69.0939 77.307C70.1137 75.3138 70.3455 73.3206 69.6038 72.857C69.3257 72.6716 69.1403 73.1815 69.1403 74.1086C69.1403 75.4528 66.7299 80.5054 66.0809 80.5054C65.9418 80.5054 66.4981 79.3466 67.2861 77.9096C68.1205 76.519 68.6767 75.2211 68.5377 75.082C68.2595 74.8502 65.3856 79.1148 64.4585 81.1544C64.134 81.8033 63.6241 82.4059 63.2997 82.545C62.4653 82.8695 62.5116 82.4523 63.346 80.969C64.134 79.6247 64.1804 79.1148 63.6241 79.1148C63.3924 79.1148 62.9752 79.7174 62.6507 80.5054C62.3262 81.2471 61.8163 81.896 61.4919 81.896C61.121 81.896 60.7966 82.1742 60.6575 82.4523C60.5648 82.7768 60.2867 82.8695 60.0549 82.6841C59.8231 82.4523 60.1012 81.896 60.7038 81.4325C61.2601 80.969 61.7236 80.4127 61.7236 80.1809C61.7236 79.9955 62.3726 79.2539 63.207 78.5586C64.2731 77.6778 64.5049 77.2606 63.9486 77.2606C63.5314 77.2606 62.2799 78.2804 61.121 79.5783C59.2669 81.6179 59.0351 81.757 58.8033 80.9226C58.5252 79.9492 58.5252 79.9492 57.0419 80.8299C56.2539 81.2934 54.956 82.4523 54.1679 83.3794C53.3799 84.3528 52.4992 85.1408 52.1284 85.1408C51.3867 85.1408 51.3404 85.6971 52.082 86.4387C52.4992 86.8559 52.4529 86.995 51.8503 86.995C51.4331 86.995 51.0622 87.1804 51.0622 87.4585C51.0622 87.6903 51.5721 87.922 52.1747 87.922C52.8237 87.922 53.4263 88.1075 53.6117 88.3392C54.0289 89.0345 52.1284 89.4054 51.1086 88.8491C50.2279 88.4319 50.2279 88.2465 50.8305 86.5778C51.1549 85.558 51.3404 84.6773 51.2477 84.5382C51.1549 84.4455 50.0888 84.5846 48.9763 84.8163C46.9367 85.2799 46.7977 85.2335 45.268 83.7502C44.0628 82.5913 43.5066 82.3132 43.1357 82.6841C42.7185 83.1012 42.1623 82.7304 41.0034 81.2934C37.9904 77.6778 35.7654 77.2143 36.6462 80.4127C36.9243 81.3398 36.9243 81.896 36.6462 81.896C35.8582 81.896 34.004 79.6247 33.7259 78.2804C33.1696 75.9164 32.428 74.4794 31.7327 74.4794C31.1764 74.4794 31.0837 74.9893 31.2228 76.7508C31.3155 78.4195 31.2228 78.9294 30.8056 78.7903C30.4348 78.6513 30.203 77.6778 30.203 76.3799C30.203 73.9232 28.627 70.1221 27.7926 70.4466C27.3754 70.5857 27.19 71.5128 27.2363 73.2742C27.2827 75.2674 27.19 75.7773 26.7264 75.4065C26.402 75.1284 26.0775 73.2279 25.8921 70.9565C25.6603 67.2482 25.1041 65.5331 24.3624 66.2748C24.177 66.4602 24.0843 67.9899 24.1306 69.6586C24.177 71.6982 24.0843 72.6253 23.7598 72.3935C23.4817 72.2544 23.2499 70.7247 23.2499 69.0097C23.2499 65.6258 22.4619 63.5399 21.2567 63.6326C20.6077 63.7253 20.4687 63.3081 20.4687 61.454C20.4687 59.229 19.7734 58.0701 19.078 59.229C18.7999 59.5998 18.6145 58.9972 18.5218 57.5602C18.3827 55.1035 17.7801 54.6863 16.9458 56.355C16.4822 57.2821 16.3895 57.1431 16.1578 55.1962C16.065 54.0373 15.6942 52.8785 15.3697 52.6931C14.9526 52.415 14.9526 52.0905 15.3234 51.3952C15.926 50.2363 16.0187 47.1306 15.4161 47.1306C14.5354 47.1306 13.8864 48.5676 13.8401 50.6535C13.8401 52.5077 13.7473 52.6931 13.2375 51.9978C12.913 51.5806 12.7739 50.9316 12.8666 50.6072C13.1447 49.8655 11.8468 47.1306 11.1979 47.1306C10.9198 47.1306 10.7343 47.5478 10.7343 48.0113C10.7343 49.1702 12.3567 52.9712 13.0057 53.342C13.2838 53.5274 13.5156 53.8983 13.5156 54.13C13.5156 54.4082 12.913 54.1764 12.1713 53.6665C10.5489 52.4613 10.1781 52.4613 10.3172 53.4811C10.3635 53.9446 10.2708 54.6863 10.039 55.1498C9.66821 56.0306 10.6416 57.8384 12.5421 59.5998C13.3302 60.3415 13.5156 60.805 13.1447 60.9441C12.8666 61.0368 12.5885 61.4076 12.5885 61.7321C12.5885 62.381 15.6015 65.2086 16.2968 65.2086C16.8067 65.2086 18.151 66.5529 18.151 67.1091C18.151 67.3409 17.4093 67.2019 16.4822 66.831C14.3963 65.9503 13.5156 65.9503 13.5156 66.7847C13.5156 67.48 16.4822 70.3076 17.2239 70.3076C17.502 70.3076 17.6874 70.7247 17.6874 71.2346C17.6874 72.3008 19.4489 73.2742 22.3228 73.8305L24.4087 74.2013L22.8327 74.4331C20.9786 74.7575 19.8661 76.1018 20.9322 76.7971C21.303 77.0289 22.3692 77.2606 23.2963 77.2606C24.5942 77.2606 25.0577 77.4924 25.2431 78.1414C25.3358 78.6513 25.2431 79.2539 25.0113 79.4856C24.2697 80.2273 25.4285 80.6445 29.4613 80.9226L33.216 81.2007L30.6665 82.1742C29.2759 82.7304 28.0707 83.4257 27.978 83.7038C27.6999 84.4919 32.6597 84.3528 34.8384 83.4721C37.4805 82.4059 38.3149 83.2867 35.7654 84.4455C34.7457 84.909 33.6332 85.6044 33.3087 85.9752C32.8452 86.5778 33.0769 86.6705 35.441 86.3924C36.9243 86.2533 38.8712 85.6971 39.7519 85.1872C41.7915 83.982 41.7915 84.5382 39.7055 86.5314C37.805 88.3856 37.7123 88.7564 39.1956 89.1272C40.4008 89.4054 44.1092 88.0148 45.3144 86.7632C45.9633 86.1142 45.9633 85.9752 44.9435 85.0945L43.8774 84.1674L45.1753 84.9554C46.6586 85.8825 46.844 87.4122 45.4998 88.6174C44.5263 89.4981 44.619 89.9616 45.9633 90.7033C46.6123 91.0741 47.1222 90.8887 48.1883 90.008L49.5789 88.8491L51.4794 89.9153L53.4263 90.9351L54.2607 89.8689C55.0023 88.8491 55.2341 88.8028 56.9028 89.2663C58.9424 89.8226 61.3064 89.359 61.6309 88.3856C61.8163 87.922 61.6309 87.8757 60.982 88.2002C59.7304 88.7564 56.4856 88.6174 55.4195 87.9684C54.7242 87.5049 55.095 87.4585 57.5518 87.6903C59.6377 87.8757 60.333 87.8293 59.8695 87.4585C59.4986 87.2267 58.8033 86.995 58.3862 86.995C57.9226 86.995 57.5518 86.8096 57.5518 86.5778C57.5518 85.9288 59.4523 85.4189 59.8231 85.9752C60.2403 86.6705 64.5976 87.134 65.4319 86.5778C66.0345 86.1606 65.9882 86.0215 65.2002 85.4189C64.6903 85.0018 63.6705 84.6773 62.9288 84.6773C62.1872 84.6773 61.7236 84.5382 61.8627 84.3528C62.0481 84.2137 64.2731 84.0747 66.7762 84.0283C69.7892 83.982 71.597 83.7965 71.9678 83.4257C72.8949 82.4986 72.0606 82.1278 69.1403 82.1278C66.1273 82.1278 66.0345 81.8497 68.7694 80.4591C69.7892 79.9492 70.4845 79.7638 70.2528 80.0882C69.8356 80.8299 74.3319 80.4127 76.2324 79.532C79.06 78.2341 76.6032 77.0289 73.4975 78.2341C72.246 78.6976 72.1996 78.6513 72.9876 77.8169C73.5439 77.2143 74.7491 76.7971 76.6959 76.6117C79.7089 76.2409 81.6558 75.3601 81.6558 74.294C81.6558 73.5987 80.7287 73.0888 79.1991 73.0424C78.6428 73.0424 79.1991 72.718 80.4506 72.3935C83.0464 71.6518 85.1324 70.3076 85.1324 69.3341C85.1324 68.4998 82.4902 68.2216 81.1923 68.9169C80.6824 69.1951 80.2652 69.2414 80.2652 69.0097C80.2652 68.4071 81.4704 67.48 81.7485 67.8045C82.2121 68.268 84.7152 66.692 86.0131 65.2086C88.2381 62.5201 87.2646 61.5003 84.437 63.5862C82.4438 65.0232 82.3975 65.0232 83.2782 63.4008C83.649 62.6592 84.3907 61.8712 84.9006 61.7321C86.1521 61.3613 89.536 57.0503 89.536 55.8915C89.536 54.7327 89.1188 54.779 87.2183 56.1696C85.0396 57.792 84.9933 57.3285 87.2183 55.1498C89.1651 53.1566 89.675 51.3025 88.2381 51.3025C87.7745 51.3025 87.1256 51.5806 86.8011 51.8587C86.4766 52.1832 86.7547 51.3952 87.4037 50.0973C88.748 47.4087 89.0724 43.8858 87.9599 43.8858C87.5891 43.8858 87.1256 44.1176 86.9402 44.3957C86.7547 44.7666 86.523 44.7202 86.2448 44.303C85.9204 43.7931 85.8277 43.8858 85.7813 44.5811C85.7813 45.4619 85.735 45.4155 85.2714 44.4421C84.298 42.4489 83.8344 43.3296 84.1126 46.6671ZM88.099 45.6009C88.099 46.0645 87.7745 47.177 87.45 48.0577L86.8474 49.6801L86.8011 47.965C86.7547 46.0645 87.1256 44.8129 87.7282 44.8129C87.9599 44.8129 88.1454 45.1837 88.099 45.6009ZM15.1843 49.7264C14.9989 50.3754 14.7671 50.8389 14.6281 50.6999C14.489 50.6072 14.5354 49.9118 14.7208 49.2629C14.8598 48.5676 15.138 48.104 15.2307 48.2431C15.3697 48.3822 15.3234 49.0311 15.1843 49.7264ZM85.3178 52.3686C85.3178 53.342 85.2714 53.342 84.9006 52.4613C84.3443 51.1634 84.3443 50.7462 84.9006 51.0707C85.1787 51.2098 85.3641 51.8124 85.3178 52.3686ZM87.1719 54.13C86.5693 55.0108 86.0131 55.3816 85.9204 55.0571C85.735 54.4545 87.6818 52.0441 88.0526 52.415C88.1454 52.554 87.7745 53.2957 87.1719 54.13ZM15.2307 55.1035C15.0916 55.4743 14.9526 55.3353 14.9526 54.8254C14.9062 54.3155 15.0453 54.0373 15.1843 54.2228C15.3234 54.3618 15.3697 54.779 15.2307 55.1035ZM13.3302 55.3816C13.6083 55.567 13.9328 56.1696 14.1182 56.7722C14.3499 57.6993 14.2572 57.7457 13.701 57.2821C12.1713 56.0306 11.8932 54.4082 13.3302 55.3816ZM13.6083 58.6727C14.7208 59.7852 14.8598 60.0633 14.1645 59.6925C12.9593 59.0899 10.7343 56.5405 10.7343 55.7988C10.7343 55.4743 11.0588 55.6597 11.4297 56.1696C11.8005 56.6795 12.7739 57.792 13.6083 58.6727ZM17.4557 61.454C17.2239 62.3347 17.0848 62.4738 16.7604 61.9639C16.4822 61.5467 16.5286 61.0831 16.7604 60.8514C17.0385 60.5732 17.2702 59.5535 17.3166 58.4873L17.363 56.6332L17.5484 58.441C17.6874 59.4607 17.6411 60.805 17.4557 61.454ZM83.4636 59.4144V60.3415L83.0464 59.4144C82.8147 58.9045 82.6292 58.0701 82.6292 57.5602V56.6332L83.0464 57.5602C83.2782 58.0701 83.4636 58.9045 83.4636 59.4144ZM86.7547 58.7191C85.4105 60.4342 84.437 61.0368 84.437 60.2488C84.437 59.7852 87.311 56.8649 87.8209 56.8649C88.0526 56.8649 87.5428 57.6993 86.7547 58.7191ZM16.1578 59.7389C16.0187 60.0633 15.926 59.8316 15.926 59.1826C15.926 58.5337 16.0187 58.3019 16.1578 58.58C16.2505 58.9045 16.2505 59.4607 16.1578 59.7389ZM19.4025 64.1425C19.3098 64.8842 19.2171 64.2816 19.2171 62.8909C19.2171 61.5003 19.3098 60.8977 19.4025 61.593C19.4952 62.3347 19.4952 63.4472 19.4025 64.1425ZM80.7287 63.9107C80.7287 65.1623 80.5433 66.1357 80.2652 66.1357C79.9871 66.1357 79.8017 64.8842 79.8017 63.2154C79.8017 61.1758 79.9407 60.5269 80.2652 61.0368C80.497 61.4076 80.7287 62.7055 80.7287 63.9107ZM15.8796 62.9373C16.3895 63.4472 16.714 64.0034 16.5749 64.1425C16.3432 64.3743 13.5156 62.5665 13.5156 62.1493C13.5156 61.593 15.0453 62.1029 15.8796 62.9373ZM84.6688 65.2086C83.9272 65.9503 83.1391 66.5993 82.861 66.5993C82.6292 66.5993 83.0001 65.9503 83.7417 65.2086C84.4834 64.4206 85.2714 63.818 85.5495 63.818C85.7813 63.818 85.4105 64.4206 84.6688 65.2086ZM22.2765 67.7581C22.2765 69.4732 22.1374 69.844 21.8593 69.1487C21.303 67.8045 21.303 63.8644 21.8593 64.7451C22.0911 65.1159 22.2765 66.4602 22.2765 67.7581ZM20.5614 67.0628C20.7004 68.5925 20.6077 68.8242 20.0978 68.268C19.727 67.8972 19.5879 67.2019 19.8197 66.4602C20.1905 64.7914 20.3296 64.8842 20.5614 67.0628ZM17.363 68.1753C18.5682 68.6388 19.5416 69.2414 19.5416 69.4732C19.5416 69.8904 17.5484 69.5195 16.2505 68.8706C15.4161 68.4534 13.9791 66.831 14.6744 67.1091C14.9526 67.2019 16.1114 67.6654 17.363 68.1753ZM76.7887 70.632C76.3251 73.1815 76.0006 72.069 76.4178 69.3341C76.6032 67.8045 76.835 67.2482 76.9277 67.9435C77.0204 68.5461 76.9741 69.7513 76.7887 70.632ZM83.2782 70.1221C82.3048 70.8638 78.9209 71.8836 78.5965 71.5591C78.2256 71.2346 82.2584 69.3805 83.2782 69.3805C84.2053 69.4268 84.2053 69.4268 83.2782 70.1221ZM21.7666 71.8372C22.0447 72.069 22.3228 72.3935 22.3228 72.6253C22.3228 73.0888 19.5879 72.3935 18.939 71.7445C18.4291 71.2346 20.9322 71.3273 21.7666 71.8372ZM29.2759 75.731C29.2759 76.5653 29.0905 77.2606 28.8587 77.2606C28.4879 77.2606 27.8389 73.7841 27.9316 72.2081C27.978 70.8638 29.2296 74.2013 29.2759 75.731ZM80.497 74.4331C80.636 74.7112 79.9871 75.0357 79.0136 75.1747C78.0402 75.3601 76.8814 75.5919 76.4642 75.731C75.4907 75.9627 75.398 75.3601 76.186 74.5721C76.835 73.9232 80.0798 73.8305 80.497 74.4331ZM24.6405 75.87C24.6405 76.1018 23.8989 76.3336 22.9718 76.3336C21.9983 76.3336 21.4421 76.1482 21.6275 75.87C21.7666 75.5919 22.5082 75.4065 23.2963 75.4065C24.0379 75.4065 24.6405 75.5919 24.6405 75.87ZM26.4947 76.7971C26.4947 77.0289 26.402 77.2606 26.3093 77.2606C26.1702 77.2606 25.9384 77.0289 25.7994 76.7971C25.6603 76.519 25.753 76.3336 25.9848 76.3336C26.2629 76.3336 26.4947 76.519 26.4947 76.7971ZM33.1696 79.532C32.8452 79.8565 32.6134 79.3929 32.3353 77.956L32.0571 76.5653L32.7061 77.956C33.0769 78.6976 33.2623 79.4393 33.1696 79.532ZM28.5806 78.1877C28.7197 78.4659 28.5342 78.5122 28.1634 78.3731C27.329 78.0487 27.19 77.7242 27.8389 77.7242C28.1171 77.7242 28.4415 77.9096 28.5806 78.1877ZM74.9345 79.1148C74.4246 79.3466 73.6829 79.532 73.3121 79.532C72.8949 79.532 72.9413 79.3466 73.5439 79.1148C74.0538 78.883 74.7954 78.6976 75.1663 78.6976C75.5834 78.6976 75.5371 78.883 74.9345 79.1148ZM41.1425 83.1939C40.818 83.4721 38.0831 81.896 38.0831 81.4789C38.0831 81.2471 37.9441 80.6445 37.805 80.1809C37.6196 79.6711 38.2686 80.0882 39.3811 81.1544C40.4472 82.1742 41.2352 83.0549 41.1425 83.1939ZM34.5139 82.4059C34.2821 82.6377 33.4014 82.9158 32.5207 83.1012L30.8983 83.3794L32.5207 82.4523C34.0504 81.5716 35.3946 81.5252 34.5139 82.4059ZM57.7372 82.0815C57.4127 82.9158 54.3534 85.3262 54.0289 85.0018C53.8435 84.8163 57.3664 81.4325 57.7836 81.4325C57.8763 81.4325 57.8763 81.757 57.7372 82.0815ZM69.6038 83.2867C67.9351 83.8429 66.7299 83.8429 67.0543 83.2867C67.1934 83.0085 68.1205 82.8231 69.0475 82.8695C70.5772 82.9158 70.6236 82.9622 69.6038 83.2867ZM38.9639 84.4919C37.3878 85.3726 37.017 85.2799 37.9904 84.3064C38.4076 83.8429 39.0566 83.5648 39.4274 83.6575C39.8446 83.8429 39.7055 84.0747 38.9639 84.4919ZM60.6111 83.7038C60.4721 83.9356 59.9622 84.2137 59.4523 84.3528C58.8033 84.4919 58.6179 84.3992 58.8033 83.9356C58.9424 83.5648 59.4523 83.2867 59.9622 83.2867C60.4257 83.2867 60.7502 83.4721 60.6111 83.7038ZM57.0882 85.1408C56.8101 85.6507 56.3466 86.0679 56.0685 86.0679C55.7903 86.0679 55.9294 85.6507 56.3929 85.1408C56.8565 84.6309 57.32 84.2137 57.4127 84.2137C57.5054 84.2137 57.3664 84.6309 57.0882 85.1408ZM43.9701 85.9752C44.3873 86.207 43.8774 86.6705 42.4868 87.3658C39.6128 88.7564 39.0566 88.6637 40.6326 86.995C41.9769 85.6044 42.904 85.3262 43.9701 85.9752ZM63.4851 85.9288C63.0215 86.0215 62.2799 86.0215 61.8627 85.9288C61.3992 85.7898 61.77 85.6971 62.6507 85.6971C63.5314 85.6971 63.9023 85.7898 63.4851 85.9288ZM49.6716 86.8559C49.6716 87.1804 49.2081 87.4585 48.6518 87.5049C47.632 87.5049 47.632 87.5512 48.5128 87.922C49.3935 88.2929 49.3935 88.3392 48.4201 88.3392C47.6784 88.3856 47.3539 88.1075 47.3539 87.5512C47.3539 86.4387 47.5393 86.2533 48.7445 86.2533C49.2544 86.2533 49.6716 86.5314 49.6716 86.8559Z" fill="#0C0C0C"></path>
<path d="M13.0983 45.0911C13.0983 45.601 13.2374 45.74 13.3764 45.3692C13.5155 45.0447 13.4692 44.6275 13.3301 44.4885C13.191 44.3031 13.052 44.5812 13.0983 45.0911Z" fill="black"></path>
<path d="M73.3585 50.3291C72.7096 51.4879 72.7096 51.766 73.3585 51.766C73.5903 51.766 73.7294 51.5806 73.5903 51.3488C73.4512 51.1171 73.6367 50.6535 74.0539 50.3291C74.6565 49.8655 74.8419 49.8655 75.2127 50.4218C75.8617 51.4879 75.6762 51.9514 74.8419 51.2561C74.1466 50.6999 74.1002 50.6999 74.332 51.3488C74.5174 51.766 74.3783 52.3686 74.1002 52.6467C73.7757 52.9712 73.7757 53.1566 74.0539 53.1566C74.8882 53.1566 76.1861 51.3952 76.0007 50.5145C75.7689 49.3093 73.9611 49.1702 73.3585 50.3291Z" fill="#0C0C0C"></path>
<path d="M28.7197 53.3421C29.554 54.0837 30.8519 55.5671 31.6399 56.7259C33.3087 59.1363 33.8186 59.09 32.7524 56.5868C32.3353 55.5671 32.2425 55.0108 32.4743 55.2426C32.7524 55.5207 33.2623 56.5405 33.6795 57.5603L34.3748 59.4144L34.1431 57.792C33.8649 55.8915 32.5207 53.8983 31.3618 53.7129C30.8519 53.5738 30.6665 53.7129 30.8519 54.0374C31.3618 54.8254 30.8519 54.64 30.1566 53.7593C29.6931 53.2494 29.6931 53.1103 30.1103 53.3421C30.3884 53.5275 30.6665 53.4811 30.6665 53.203C30.6665 52.9712 30.2957 52.7858 29.8785 52.7858C29.415 52.7858 28.6269 52.6468 28.1171 52.4614C27.5608 52.2296 27.7926 52.6004 28.7197 53.3421Z" fill="#0C0C0C"></path>
<path d="M26.2628 55.4743C26.2628 56.9576 26.4019 58.0701 26.6336 57.9311C26.8191 57.8384 26.9581 56.7259 26.9581 55.4743C26.9581 54.2228 26.8191 53.1103 26.6336 53.0176C26.4019 52.8785 26.2628 53.991 26.2628 55.4743Z" fill="#0C0C0C"></path>
<path d="M25.0113 54.9644C25.104 55.7061 24.9649 56.4478 24.6868 56.5868C24.3623 56.8186 24.1769 56.4941 24.1769 55.7525C24.1769 55.1035 23.9451 54.4546 23.7134 54.3155C23.3889 54.1301 23.2962 54.4546 23.4816 55.3353C23.9915 57.5603 24.1305 57.8384 24.6404 57.5603C24.8722 57.4212 25.104 57.5603 25.104 57.8847C25.104 58.2556 25.2894 58.1629 25.6139 57.6993C26.0774 56.8186 25.7066 53.6202 25.1503 53.6202C24.9649 53.6202 24.8722 54.2228 25.0113 54.9644Z" fill="#0C0C0C"></path>
<path d="M34.143 55.2426C34.3284 55.7524 34.6529 56.7722 34.8383 57.5602L35.2091 58.9509L35.2555 57.5139C35.3018 56.7722 34.9774 55.7061 34.5602 55.1962C33.8649 54.3155 33.8185 54.3155 34.143 55.2426Z" fill="#0C0C0C"></path>
<path d="M29.4612 56.077C30.1565 56.6796 31.0373 57.7457 31.3617 58.5337C31.8716 59.6926 31.9643 59.7389 32.0107 58.9045C32.057 57.7921 29.7393 55.0108 28.7196 55.0108C28.3951 55.0108 28.7196 55.4744 29.4612 56.077Z" fill="#0C0C0C"></path>
<path d="M35.858 56.865C35.858 57.7457 35.9507 58.1165 36.0898 57.653C36.1825 57.2358 36.1825 56.4941 36.0898 56.0306C35.9507 55.6134 35.858 55.9842 35.858 56.865Z" fill="#0C0C0C"></path>
<path d="M22.8327 56.6796C22.8327 57.1894 22.9718 57.3285 23.1108 56.9577C23.2499 56.6332 23.2035 56.216 23.0645 56.077C22.9254 55.8915 22.7863 56.1697 22.8327 56.6796Z" fill="#0C0C0C"></path>
<path d="M66.5908 57.792C66.7762 58.9508 66.9617 59.9243 67.008 59.9243C67.008 59.9706 67.5179 60.156 68.1205 60.2951C69.0012 60.5732 69.1403 60.4805 69.1403 59.4144C69.1403 58.7191 68.8158 57.8847 68.445 57.5139C67.8424 56.8649 67.7497 56.9576 67.7033 58.3482L67.657 59.8779L67.2398 58.0701C66.6372 55.4743 66.1736 55.2889 66.5908 57.792Z" fill="#0C0C0C"></path>
<path d="M28.3951 57.6066C28.7196 58.0238 28.9977 58.9045 29.044 59.5535C29.044 60.8514 30.2029 61.5931 30.2029 60.3415C30.2029 59.3681 28.7659 56.865 28.2097 56.865C27.9779 56.865 28.0706 57.1894 28.3951 57.6066Z" fill="#0C0C0C"></path>
<path d="M37.2025 57.6066C37.2025 58.1165 37.3415 58.2556 37.4806 57.8847C37.6196 57.5602 37.5733 57.1431 37.4342 57.004C37.2952 56.8186 37.1561 57.0967 37.2025 57.6066Z" fill="#0C0C0C"></path>
<path d="M60.4721 60.8051C60.4721 61.8248 60.5648 62.1957 60.6576 61.5931C60.7503 61.0368 60.7503 60.2025 60.6576 59.7389C60.5185 59.3217 60.4258 59.7853 60.4721 60.8051Z" fill="#0C0C0C"></path>
<path d="M61.2601 61.0368C61.2601 62.0566 61.3992 62.8909 61.631 62.8909C61.8164 62.8909 61.9091 62.0566 61.8164 61.0368C61.7237 60.017 61.5383 59.1826 61.4455 59.1826C61.3528 59.1826 61.2601 60.017 61.2601 61.0368Z" fill="#0C0C0C"></path>
<path d="M26.0311 60.4342C26.0311 61.1295 27.4681 62.5665 27.7926 62.1956C27.9316 62.0566 27.6072 61.5003 27.0509 60.8977C26.4947 60.3415 26.0311 60.1561 26.0311 60.4342Z" fill="#0C0C0C"></path>
<path d="M62.1871 60.8977C62.1871 61.454 62.4189 62.0566 62.6507 62.1956C63.2533 62.5665 63.2533 61.5003 62.6507 60.5733C62.2798 60.017 62.1871 60.0634 62.1871 60.8977Z" fill="#0C0C0C"></path>
<path d="M64.5048 60.4806C64.5048 60.7124 64.8292 61.1759 65.2001 61.5004C65.5709 61.8248 65.8954 61.8712 65.8954 61.5931C65.8954 61.3613 65.5709 60.8978 65.2001 60.5733C64.8292 60.2488 64.5048 60.2025 64.5048 60.4806Z" fill="#0C0C0C"></path>
<path d="M63.5778 61.1295C63.5778 61.5467 63.8095 62.0565 64.0413 62.1956C64.6439 62.5664 64.6439 61.9638 64.0413 61.0368C63.6705 60.4342 63.5778 60.4342 63.5778 61.1295Z" fill="#0C0C0C"></path>
<path d="M30.203 61.8248C30.2494 63.3545 32.428 63.818 32.8915 62.4274C33.0769 61.8248 33.0306 61.8248 32.3816 62.3347C31.5936 62.9836 30.4811 62.6592 30.8983 61.9175C31.0837 61.6857 30.9447 61.5003 30.7129 61.5003C30.4348 61.5003 30.203 61.6394 30.203 61.8248Z" fill="#0C0C0C"></path>
<path d="M30.481 66.2285C30.7591 66.692 32.8451 66.7384 33.1232 66.2285C33.2622 66.0431 32.6596 65.904 31.8253 65.8576C30.9446 65.8576 30.342 65.9967 30.481 66.2285Z" fill="#0C0C0C"></path>
<path d="M40.4008 77.307C40.4008 77.5388 40.8179 77.7242 41.3278 77.7242C41.8377 77.7242 42.2549 77.6315 42.2549 77.5388C42.2549 77.4461 41.8377 77.2606 41.3278 77.1216C40.8179 76.9825 40.4008 77.0752 40.4008 77.307Z" fill="black"></path>
<path d="M50.7841 80.1346C49.8107 82.0352 49.9497 82.0815 52.6383 80.5982C54.0289 79.8102 55.2804 79.3003 55.4195 79.4393C55.5586 79.6247 55.6976 79.4857 55.6976 79.2076C55.6976 78.8831 54.9096 78.6977 53.5653 78.7904C51.7575 78.8831 51.3404 79.0685 50.7841 80.1346Z" fill="#0C0C0C"></path>
<path d="M48.6518 80.4127C47.6784 81.108 46.8904 81.8497 46.8904 82.0815C46.8904 82.3132 47.2149 82.2205 47.5857 81.896C47.9565 81.6179 48.4664 81.4789 48.6982 81.6179C48.9763 81.8033 49.4862 81.2934 49.9034 80.5054C50.2742 79.7638 50.5523 79.1148 50.506 79.1148C50.4133 79.1612 49.5789 79.7174 48.6518 80.4127Z" fill="#0C0C0C"></path>
<path d="M26.0311 83.9356C26.0311 84.0284 26.402 84.3992 26.8655 84.7237C27.5608 85.3263 27.6072 85.2799 27.0046 84.5382C26.402 83.7966 26.0311 83.5648 26.0311 83.9356Z" fill="black"></path>
<path d="M35.0702 88.8491C35.2093 89.0809 35.4411 89.3127 35.5801 89.3127C35.6728 89.3127 35.7655 89.0809 35.7655 88.8491C35.7655 88.571 35.5338 88.3856 35.2556 88.3856C35.0239 88.3856 34.9312 88.571 35.0702 88.8491Z" fill="black"></path>
<path d="M75.0272 89.6372C74.8418 89.7762 74.7028 90.147 74.7028 90.4252C74.7028 90.7033 74.9345 90.6569 75.259 90.3325C75.5371 90.0543 75.6762 89.6835 75.5835 89.5444C75.4444 89.4054 75.1663 89.4517 75.0272 89.6372Z" fill="black"></path>
</svg>