<svg width="100" height="100" viewBox="0 0 100 100" fill="none" xmlns="http://www.w3.org/2000/svg">
<path d="M46.2272 2.61642C43.2593 5.70147 37.8702 11.9887 35.1366 15.6205C34.0822 17.0263 31.622 19.9942 29.7085 22.2592C27.795 24.5242 25.3738 27.6873 24.3585 29.2884C20.0238 36.0834 18.696 38.075 17.9541 38.8169C16.6263 40.1837 12.3697 46.0414 12.0964 46.9006C11.9402 47.3692 11.9792 47.8768 12.1745 48.033C12.3307 48.2283 15.4548 48.5017 19.0475 48.6579C24.4756 48.8922 25.7643 49.0484 26.4672 49.6341C27.3264 50.298 27.3264 50.6104 27.5997 63.1459C27.7559 70.1751 27.9121 81.1876 27.9512 87.5529C27.9512 93.9573 28.1074 99.2683 28.2636 99.3464C28.8494 99.6979 32.0516 99.9322 32.5202 99.6198C33.1841 99.2292 32.6764 97.9796 31.8563 98.0968C31.3096 98.2139 31.1924 97.6281 30.9972 94.3088C30.88 92.161 30.88 89.4274 31.0362 88.2558C31.1924 87.0843 31.1924 85.9128 31.0362 85.7175C30.1771 84.6631 28.9665 52.7192 29.7866 52.7192C30.5676 52.7192 30.9972 55.609 30.3724 56.4291C29.9038 57.0148 30.2162 71.9324 30.6848 71.6591C30.88 71.5028 31.0362 67.832 31.0362 63.0287C31.0362 55.609 31.2706 53.4221 31.9344 55.1404C32.2078 55.8823 32.9888 53.6564 32.9888 52.0944C32.9888 51.3133 33.1841 50.7666 33.4965 50.7666C33.8089 50.7666 33.926 51.3914 33.887 52.7973C33.8089 54.828 33.8479 54.828 34.1603 52.3677C34.5118 49.8294 34.3556 48.6969 33.7308 49.6341C33.4965 50.0247 33.3793 49.9466 33.3793 49.3217C33.3793 48.8531 33.2231 48.3454 32.9888 48.2283C32.7936 48.1111 32.5983 48.1892 32.5983 48.4236C32.5983 48.736 32.364 48.736 31.7782 48.4236C31.3487 48.1502 30.88 48.0721 30.7629 48.1892C30.6457 48.3064 29.9428 48.1502 29.2008 47.8378C28.4198 47.5254 27.4826 47.252 27.053 47.252C26.6235 47.252 26.4282 47.0958 26.5844 46.8224C26.7016 46.5881 27.2483 46.51 27.7559 46.6272C28.3027 46.7834 28.6932 46.7053 28.6932 46.471C28.6932 46.2757 28.537 46.0805 28.3027 46.0805C28.1074 46.0805 27.9121 45.9243 27.9121 45.729C27.9121 45.5338 28.1465 45.3776 28.4198 45.4166C30.2943 45.4557 31.8173 45.2213 31.8173 44.8699C31.8173 44.6356 31.5439 44.5575 31.1924 44.6746C30.5286 44.948 28.0683 43.6202 27.795 42.8392C27.7169 42.5659 27.4826 42.4878 27.3264 42.683C27.1311 42.8392 27.4045 43.3859 27.9121 43.9327C29.0837 45.1432 28.1465 45.2995 26.6235 44.1279C25.1395 42.9564 24.9052 43.1907 26.1939 44.5575C26.9749 45.4166 27.0921 45.69 26.5453 45.3776C25.6472 44.9089 24.3194 43.5031 23.6946 42.3706C23.265 41.5896 23.265 41.5896 23.226 42.3706C23.226 42.8002 23.6946 43.8546 24.2804 44.7137C24.9052 45.6509 25.0614 46.0414 24.6318 45.729C24.2413 45.4166 23.4994 44.3622 22.9917 43.3859C22.0545 41.6677 22.0154 41.6677 22.2107 42.8392C22.484 44.5965 21.8201 44.4403 21.3515 42.644L20.961 41.1991L20.8829 42.5659L20.8048 43.9327L20.2971 42.7611L19.7504 41.5896L19.7114 42.683C19.7114 43.3078 19.5552 43.6593 19.3209 43.5421C19.1256 43.425 19.0475 42.8002 19.2037 42.1363C19.399 41.1991 19.3209 41.0429 18.7742 41.2381C17.6026 41.7067 17.4855 41.8629 26.1939 29.2494C27.4435 27.414 29.1618 25.149 29.9819 24.1727C31.4658 22.4545 31.4658 22.4935 29.6694 25.3052C28.6541 26.8673 27.9121 28.2731 28.0293 28.3512C28.1074 28.4684 28.7713 27.6483 29.4742 26.5548C30.1381 25.5005 30.88 24.6804 31.0362 24.7975C31.2315 24.9147 32.8717 22.8059 34.7071 20.1504C37.7531 15.7767 38.8465 14.3708 38.8465 14.9957C38.8465 15.1128 37.9483 16.4406 36.8549 17.9636C35.7224 19.4866 34.9023 20.8143 35.0195 20.8924C35.1366 21.0096 36.3863 19.5647 37.7921 17.6902C39.198 15.7767 40.9943 13.4336 41.7753 12.3792C43.767 9.80185 42.9469 10.1143 40.8381 12.7307C39.9009 13.9022 39.0418 14.7614 38.9246 14.6833C38.8074 14.5661 38.9636 14.1365 39.2761 13.7851C39.5494 13.3946 38.8465 13.9413 37.675 15.0347L35.6052 16.9873L37.9874 14.0584C41.8144 9.37229 43.5326 7.53688 43.2983 8.39601C43.1812 8.90367 43.4545 8.70842 44.1965 7.81024C44.7823 7.06826 45.7976 5.93578 46.3834 5.2719C47.3597 4.25657 47.3206 4.37373 46.11 6.24819C44.6651 8.43506 44.4699 8.98177 45.0556 8.98177C45.2509 8.98177 45.6024 8.51316 45.8367 7.88834C46.071 7.30257 46.7348 6.28724 47.2816 5.66242C48.1016 4.68614 48.0626 4.80329 47.0473 6.40439C45.8757 8.35695 45.7586 9.37229 46.8911 7.96644C47.2035 7.57593 47.3987 7.41972 47.2816 7.69308C47.0863 8.00549 47.3987 8.00549 48.4141 7.69308C49.156 7.45878 49.7808 7.18542 49.7808 7.06826C49.7808 6.95111 50.2495 6.28724 50.7962 5.66242C51.7334 4.52993 51.7334 4.52993 51.1086 5.54526C50.4447 6.7168 50.7571 7.06826 51.5382 6.01388C52.202 5.07665 52.6706 5.46716 56.771 10.0362C60.0123 13.6679 61.2229 15.269 59.7389 14.0584C59.3484 13.746 59.1531 13.707 59.1531 13.9803C59.1531 14.2146 58.8798 14.3318 58.5674 14.2146C57.2396 13.6679 63.7612 24.5242 68.9941 31.5144C71.962 35.4976 73.485 36.552 70.7904 32.803C68.7207 29.9133 66.4167 26.3596 65.5966 24.7975C64.8546 23.3917 65.0889 23.665 69.1112 28.8589C71.1028 31.4753 72.2744 32.6859 72.3525 32.2563C72.4306 31.9049 72.743 31.6315 73.0163 31.6315C73.6412 31.6315 74.5003 32.9593 74.1098 33.3498C73.9926 33.4669 74.1879 33.9746 74.6174 34.4041C75.0861 34.9509 75.2032 35.3023 74.9299 35.4195C74.6174 35.5366 74.5784 36.0052 74.7736 36.9425C75.3594 39.4418 75.7109 38.8169 75.6718 35.4195C75.6718 35.068 75.7109 34.7556 75.789 34.7556C76.0623 34.7556 78.054 37.7235 78.093 38.2312C78.1321 38.5826 78.3664 39.2856 78.6397 39.7932C79.2645 40.9257 79.7332 46.1976 79.1474 45.3776C78.9521 45.0651 78.7569 43.8546 78.7178 42.644C78.7178 41.4334 78.5226 40.3009 78.3664 40.1447C78.1711 39.9494 78.1321 40.8867 78.2102 42.1753C78.3273 43.7374 78.2492 44.5184 77.9368 44.5184C77.6634 44.5184 77.5072 43.7374 77.5072 42.5268C77.5072 40.7695 77.4291 40.5742 76.9215 41.0038C76.6091 41.2772 76.3357 41.902 76.3357 42.4097C76.3357 43.464 75.5547 44.1279 75.5547 43.0735C75.5156 42.5268 75.3985 42.5659 74.9689 43.3469C74.6565 43.8936 74.3831 44.1279 74.3831 43.9327C74.3831 43.6983 74.1879 43.8155 73.9926 44.1279C73.6802 44.5965 73.6021 44.5184 73.6021 43.8155C73.6021 43.1516 73.4069 42.9173 72.9382 43.0345C72.4306 43.1126 72.1963 43.5812 72.1182 44.5184C71.9229 47.1739 71.6105 48.4236 71.1028 48.4236C69.6189 48.4236 69.5017 49.2827 69.5017 62.5601C69.5017 69.5893 69.6189 75.3689 69.8141 75.3689C69.9703 75.3689 70.1265 74.0021 70.1265 72.3229C70.1656 70.6828 70.3218 67.012 70.478 64.2393L70.7514 59.1626L70.9076 67.1682C70.9466 71.581 71.0638 80.016 71.0638 85.9128C71.1809 101.299 71.0247 99.9712 72.4306 99.9712H73.6021L73.4069 92.6296C73.2897 88.6073 73.1335 77.4777 73.0163 67.8711C72.8601 52.7973 72.8992 50.3371 73.4069 49.8294C73.8755 49.3608 75.1642 49.2827 80.6313 49.3998C84.3022 49.4779 87.3481 49.3608 87.4653 49.2046C87.6606 48.8922 85.2394 45.1042 83.0525 42.2925C80.7094 39.2075 73.2897 28.976 71.6495 26.5548C70.7123 25.149 69.2284 23.1183 68.3692 21.9858C67.4711 20.8534 65.7919 18.6665 64.6203 17.1435C60.0123 11.0905 49.9761 -1.65198e-05 49.156 -1.65198e-05C48.9608 -1.65198e-05 47.633 1.17152 46.2272 2.61642ZM50.4057 3.39744C51.0305 4.21752 51.1086 4.84234 50.5619 4.49088C50.0542 4.17847 49.2732 2.73357 49.6246 2.73357C49.7808 2.73357 50.1323 3.04598 50.4057 3.39744ZM63.4488 19.799C65.6747 22.7669 67.9006 25.7738 68.4473 26.4377C68.955 27.1406 69.3065 27.7264 69.1893 27.7264C68.955 27.7264 59.1531 14.9957 59.1531 14.6833C59.1531 14.1365 59.6608 14.7614 63.4488 19.799ZM62.9411 17.2216C65.2451 19.6428 71.6886 28.8979 71.1028 28.8979C71.0247 28.8979 69.697 27.1797 68.174 25.0709C66.69 23.0012 64.347 19.9161 63.0583 18.2369C61.7305 16.5968 60.7542 15.23 60.8714 15.23C60.9886 15.23 61.9258 16.1282 62.9411 17.2216ZM72.743 30.46C73.0163 30.8895 73.1725 31.241 73.0944 31.241C73.0163 31.241 72.6258 30.8895 72.2353 30.46C71.8448 30.0304 71.6886 29.6789 71.8839 29.6789C72.0791 29.6789 72.4696 30.0304 72.743 30.46ZM80.0456 39.8323C80.4361 40.2618 80.5532 40.6133 80.3189 40.6133C80.0846 40.6133 79.6941 40.2618 79.4598 39.8323C79.2255 39.4027 79.1083 39.0512 79.1864 39.0512C79.2645 39.0512 79.6551 39.4027 80.0456 39.8323ZM18.4227 42.644C18.3055 42.9564 18.1884 42.8392 18.1884 42.4097C18.1493 41.9801 18.2665 41.7458 18.3836 41.902C18.5008 42.0191 18.5398 42.3706 18.4227 42.644ZM83.404 44.7527C83.8726 45.729 84.1459 46.6272 83.9897 46.7443C83.8726 46.8615 83.6383 46.6272 83.4821 46.2367C83.3649 45.8462 83.1306 45.4166 83.0135 45.2995C82.8963 45.1823 82.4667 44.4013 82.0762 43.5812C81.4905 42.3316 81.4905 42.1363 81.9591 42.5268C82.2715 42.8002 82.9354 43.8155 83.404 44.7527ZM17.3683 42.9564C17.3683 43.1516 17.173 43.3469 16.9387 43.3469C16.7435 43.3469 16.6654 43.1516 16.7825 42.9564C16.8997 42.7221 17.0949 42.5659 17.2121 42.5659C17.2902 42.5659 17.3683 42.7221 17.3683 42.9564ZM81.6857 45.5728C81.5686 45.9633 81.4905 45.729 81.4905 45.1042C81.4905 44.4403 81.5686 44.167 81.6857 44.4013C81.7638 44.6746 81.7638 45.2213 81.6857 45.5728ZM16.0406 45.5728C15.65 45.9633 15.2986 45.3776 15.65 44.8699C15.8844 44.4403 15.9625 44.4403 16.1187 44.8699C16.1968 45.1432 16.1577 45.4557 16.0406 45.5728ZM18.7351 46.0805C19.0085 47.0177 19.0085 47.0177 18.3836 46.2757C18.0712 45.8462 17.7588 45.2213 17.7588 44.9089C17.7588 44.1279 18.3836 44.8699 18.7351 46.0805ZM74.5003 47.6816C74.305 47.8768 74.266 47.252 74.3831 46.3538C74.5393 44.7527 74.5784 44.7527 74.6955 46.0414C74.7736 46.7443 74.6955 47.4863 74.5003 47.6816ZM19.8676 45.9243C19.9847 46.2367 19.9457 46.3929 19.7114 46.2757C19.4771 46.1586 19.3209 45.8852 19.3209 45.6509C19.3209 45.1042 19.5942 45.2213 19.8676 45.9243ZM72.7039 47.1349C72.5868 47.5254 72.5087 47.213 72.5087 46.471C72.5087 45.729 72.5868 45.4166 72.7039 45.7681C72.782 46.1586 72.782 46.7834 72.7039 47.1349ZM17.6807 46.6662C17.5636 46.7834 17.3293 46.5881 17.2121 46.1976C16.9778 45.6509 17.0168 45.6119 17.4074 45.9633C17.6807 46.2367 17.7979 46.5491 17.6807 46.6662ZM32.9888 50.0247C32.9888 50.259 32.8326 50.298 32.5983 50.1809C32.403 50.0637 32.2078 49.7513 32.2078 49.556C32.2078 49.3217 32.403 49.2827 32.5983 49.3998C32.8326 49.517 32.9888 49.8294 32.9888 50.0247ZM71.1419 55.5309C71.0247 55.8433 70.9076 55.7261 70.9076 55.2966C70.8685 54.867 70.9857 54.6327 71.1028 54.7889C71.22 54.9061 71.259 55.2575 71.1419 55.5309Z" fill="#0C0C0C"></path>
<path d="M50.5618 9.84096C50.5618 9.99716 51.1085 10.1534 51.7333 10.1534C52.3972 10.1534 52.9048 9.99716 52.9048 9.8019C52.9048 9.60665 52.3972 9.45044 51.7333 9.45044C51.1085 9.48949 50.5618 9.6457 50.5618 9.84096Z" fill="#0C0C0C"></path>
<path d="M41.8926 13.1603C38.9247 16.714 37.0502 19.4476 37.3626 19.76C37.4798 19.8381 38.2217 18.9399 39.0028 17.8074C39.8228 16.6359 40.7601 15.4253 41.1115 15.1519C41.6583 14.7224 41.6583 14.7614 41.0725 15.6205C39.8228 17.4169 40.4086 17.2997 41.7754 15.4643C43.4546 13.2775 43.8061 13.1603 42.6736 15.1129C41.6192 17.0264 42.205 16.4406 44.6652 13.2775C46.6568 10.7001 46.9692 9.84095 45.4072 11.1687C44.6652 11.7935 44.5871 11.7935 45.0557 11.2077C45.4462 10.7391 45.4853 10.3877 45.2119 10.1143C44.8995 9.8019 43.9232 10.7391 41.8926 13.1603Z" fill="#0C0C0C"></path>
<path d="M45.5632 13.3556C44.8603 14.2538 44.3136 15.152 44.3136 15.3472C44.3136 15.7768 47.3986 12.4574 47.4377 11.9888C47.4768 11.3249 46.7348 11.8326 45.5632 13.3556Z" fill="#0C0C0C"></path>
<path d="M52.7491 14.0585C52.1633 14.2537 52.1243 14.41 52.4757 14.6052C52.7491 14.8005 53.1787 14.7224 53.413 14.4881C53.9597 13.9413 53.6473 13.707 52.7491 14.0585Z" fill="#0C0C0C"></path>
<path d="M47.5549 19.9943C43.6107 24.8757 42.6344 26.2034 42.8687 26.3987C42.9469 26.5159 44.6651 24.5633 46.6567 22.064C48.6483 19.5647 50.1713 17.456 50.0542 17.3388C49.9761 17.2217 48.8436 18.4322 47.5549 19.9943Z" fill="#0C0C0C"></path>
<path d="M48.2579 20.9315C46.6959 22.9622 45.4853 24.7195 45.6024 24.8366C45.6805 24.9538 47.0083 23.4698 48.4922 21.5954C51.5382 17.7684 51.9287 17.1826 51.4601 17.1826C51.3039 17.2216 49.859 18.8618 48.2579 20.9315Z" fill="#0C0C0C"></path>
<path d="M49.8591 20.3848C48.4923 22.1031 47.477 23.587 47.6332 23.7432C47.7503 23.8994 48.0627 23.7042 48.258 23.3137C48.4923 22.9622 48.8438 22.7279 49.039 22.8841C49.2733 23.0013 49.9763 22.5326 50.6401 21.8297C51.304 21.0877 51.6164 20.8144 51.3431 21.2049C51.0697 21.5564 50.9525 21.9859 51.0697 22.1031C51.1868 22.2202 51.9288 21.4392 52.7098 20.3458C53.4909 19.2523 54.2328 18.3542 54.35 18.3542C54.4281 18.3542 54.1547 18.8618 53.6861 19.5257C53.2175 20.1505 53.0223 20.6972 53.2566 20.6972C54.35 20.6972 55.1701 17.6512 54.1157 17.5341C53.9985 17.5341 53.5299 17.456 53.1004 17.3779C52.5146 17.2998 51.6945 18.0417 49.8591 20.3848ZM51.3431 19.799C50.8354 20.6972 48.8047 23.0013 49.2343 22.2593C49.5857 21.5954 51.4993 19.1352 51.6555 19.1352C51.6945 19.1352 51.5774 19.4476 51.3431 19.799Z" fill="#0C0C0C"></path>
<path d="M57.9817 17.6121C57.9817 17.8074 61.2229 23.1183 66.7682 31.983C67.7445 33.545 68.6427 34.7556 68.7598 34.6385C68.877 34.5213 66.8854 31.0067 64.2689 26.8282C59.8952 19.799 58.0207 17.0263 57.9817 17.6121Z" fill="#0C0C0C"></path>
<path d="M45.4071 20.2286C44.6651 21.2439 43.4545 22.9231 42.7516 24.0166C42.0487 25.0709 41.1114 26.3987 40.6428 26.9063C40.0961 27.5312 40.018 27.7655 40.4085 27.6483C40.8771 27.4921 42.9859 24.7585 46.5395 19.6038C47.7501 17.8855 46.7739 18.3932 45.4071 20.2286Z" fill="#0C0C0C"></path>
<path d="M42.2051 19.7209C41.8537 20.2676 41.385 20.6191 41.2288 20.5019C40.6821 20.1895 33.3795 29.6009 33.3795 30.6162C33.3795 30.8505 34.1215 29.9914 35.0197 28.7418C35.9179 27.4531 36.7379 26.633 36.816 26.9064C37.0113 27.4531 38.0657 26.7501 38.0657 26.0863C38.0657 25.852 37.7923 25.891 37.4799 26.1644C37.1675 26.4377 36.8941 26.4768 36.8941 26.2425C36.8941 26.0472 37.1675 25.6567 37.4799 25.3834C37.9485 24.9928 38.0657 24.9928 38.0657 25.4224C38.1047 25.7348 38.6515 25.3443 39.3153 24.6023C40.7993 22.8841 40.4869 23.4698 37.3628 28.0779C35.996 30.0695 34.7854 31.5925 34.6682 31.5144C34.5511 31.3972 35.0197 30.4991 35.7226 29.4837C36.4255 28.4684 36.8941 27.6093 36.816 27.4921C36.7379 27.414 35.5664 28.937 34.2387 30.8505C32.8719 32.8031 31.9346 34.3651 32.0908 34.3651C32.247 34.3651 32.8328 33.7403 33.3405 32.9593C33.9653 32.0611 34.3949 31.7487 34.5901 32.0611C34.7463 32.3735 35.1759 32.0611 35.7617 31.1629C36.2303 30.421 37.1285 29.6009 37.7142 29.3275C38.3781 29.0542 40.0963 27.0235 42.127 24.1728C45.4854 19.5257 46.0321 18.5884 44.8997 19.5257C44.392 19.9552 44.3139 19.9162 44.5091 19.2914C44.7044 18.7056 44.6263 18.7056 44.0796 19.4085C43.2985 20.5019 42.5956 20.58 42.9471 19.5257C43.2985 18.4713 42.9861 18.5494 42.2051 19.7209ZM40.8774 21.5563C40.1354 22.2983 40.3307 22.806 41.1117 22.2202C41.6974 21.7125 41.7365 21.7516 41.2288 22.3374C40.9555 22.7279 40.565 22.9622 40.4088 22.845C40.2135 22.7279 39.7058 23.1965 39.2372 23.8213C38.7686 24.4852 38.3 24.9538 38.1828 24.8366C37.9485 24.6414 40.7602 21.0877 41.1117 21.0877C41.2288 21.0877 41.1507 21.283 40.8774 21.5563Z" fill="#0C0C0C"></path>
<path d="M59.1533 21.4001C59.1533 21.6735 59.4267 22.4154 59.7391 23.0402C60.0906 23.7432 60.1687 24.2118 59.9343 24.2118C59.4657 24.2118 61.5745 28.5855 64.3471 33.1936C66.6512 37.0596 66.534 36.9034 66.7683 36.6301C66.8855 36.5129 65.9482 34.6775 64.6986 32.5688C62.1212 28.195 60.9887 26.1643 61.2621 26.1643C61.3402 26.1643 61.8869 26.9844 62.4727 27.9998C65.011 32.3735 67.9008 36.7863 68.057 36.3958C68.1351 36.1615 67.3541 34.6775 66.3388 33.1155C65.3234 31.5534 63.2928 28.156 61.8088 25.5786C60.3639 23.0012 59.1533 21.1267 59.1533 21.4001Z" fill="#0C0C0C"></path>
<path d="M34.1604 26.5158C30.9973 29.7571 26.7407 35.1852 25.4911 37.6064C24.3976 39.7932 24.9053 39.7932 26.1549 37.6064C28.1856 34.1699 33.2623 27.6092 33.7309 27.9217C34.0433 28.0779 37.4798 23.8603 37.2064 23.626C37.1283 23.587 35.7615 24.8757 34.1604 26.5158Z" fill="#0C0C0C"></path>
<path d="M32.4421 29.718C31.8563 30.5772 31.4267 31.3972 31.5439 31.4753C31.622 31.5534 32.1687 30.9286 32.7545 30.0304C33.3402 29.1713 33.7698 28.3512 33.6526 28.2731C33.5745 28.195 33.0278 28.8199 32.4421 29.718Z" fill="#0C0C0C"></path>
<path d="M43.0641 30.7333C42.3221 30.9286 42.0878 31.6315 42.7126 31.6315C43.3765 31.6315 44.3137 31.1629 44.3137 30.8114C44.3137 30.46 44.1575 30.4209 43.0641 30.7333Z" fill="#0C0C0C"></path>
<path d="M61.1057 31.7096C61.1057 32.1783 65.128 38.2702 65.4404 38.2702C65.6357 38.2702 65.128 37.2549 64.3079 36.0053C62.4725 33.1545 61.1448 31.3582 61.1057 31.7096Z" fill="#0C0C0C"></path>
<path d="M49.9762 35.5366C49.859 35.7319 49.9371 35.9272 50.1324 35.9272C50.3667 35.9272 50.562 35.7319 50.562 35.5366C50.562 35.3023 50.4839 35.1461 50.4058 35.1461C50.2886 35.1461 50.0933 35.3023 49.9762 35.5366Z" fill="#0C0C0C"></path>
<path d="M68.7598 41.121C67.5101 42.7221 67.5101 42.9564 68.6426 42.9564C69.3065 42.9564 69.3846 42.8783 68.916 42.5659C68.4474 42.2535 68.4474 42.1363 68.955 41.5115C69.7361 40.6133 70.2047 39.8323 69.9313 39.8323C69.8142 39.8323 69.3065 40.4181 68.7598 41.121Z" fill="#0C0C0C"></path>
<path d="M47.633 40.6133C47.4768 40.8476 47.2035 40.9257 47.0082 40.8086C46.8129 40.6524 46.6567 40.7695 46.6567 40.9648C46.6567 41.1991 47.0082 41.3944 47.4378 41.3944C47.8673 41.3944 48.2188 41.121 48.2188 40.8086C48.2188 40.1447 47.9845 40.0666 47.633 40.6133Z" fill="#0C0C0C"></path>
<path d="M55.0528 40.6133C54.8966 40.8476 55.1309 41.0038 55.5605 41.0038C55.951 41.0038 56.4977 41.3944 56.732 41.863L57.2006 42.7612L57.0835 41.8239C57.0054 40.8476 55.4433 39.9495 55.0528 40.6133Z" fill="#0C0C0C"></path>
<path d="M31.6219 41.0429C31.8952 41.4725 34.1602 41.5115 34.1602 41.0819C34.1602 40.9257 33.5354 40.7695 32.7934 40.7305C32.0124 40.6914 31.5047 40.8476 31.6219 41.0429Z" fill="#0C0C0C"></path>
<path d="M30.021 42.3316C30.8801 43.0345 32.0516 43.1517 32.4031 42.5659C32.5202 42.3316 32.2078 42.1754 31.6611 42.1754C31.1534 42.1754 30.3724 42.0583 29.9819 41.9411C29.3571 41.7458 29.3571 41.7849 30.021 42.3316Z" fill="#0C0C0C"></path>
<path d="M64.6984 44.0108C64.8546 45.4166 68.1349 47.7597 68.1349 46.471C68.1349 46.2367 67.9006 46.0805 67.5882 46.0805C66.7291 46.0805 65.0108 44.2451 65.2451 43.5812C65.3623 43.2298 65.2842 42.9564 65.0108 42.9564C64.7765 42.9564 64.6203 43.386 64.6984 44.0108Z" fill="#0C0C0C"></path>
<path d="M66.8854 44.0889C68.1741 45.2995 68.9161 45.6119 68.9161 44.909C68.9161 44.6747 68.6818 44.5185 68.3694 44.5185C68.096 44.5185 67.3541 44.167 66.7292 43.6984C65.7139 42.9564 65.753 42.9955 66.8854 44.0889Z" fill="#0C0C0C"></path>
<path d="M44.3136 44.4404C44.3136 45.2214 45.7975 45.7681 46.6567 45.2995C47.7501 44.7138 47.633 44.4404 46.4614 44.7528C45.8756 44.909 45.2118 44.7919 44.8994 44.5185C44.5089 44.2061 44.3136 44.167 44.3136 44.4404Z" fill="#0C0C0C"></path>
<path d="M63.0583 44.6356C63.0583 45.3385 65.5576 48.033 66.2215 48.033C66.4949 48.033 66.0653 47.3692 65.2843 46.5491C64.5032 45.729 63.8394 44.8699 63.8394 44.5965C63.8394 44.3232 63.6832 44.1279 63.4489 44.1279C63.2536 44.1279 63.0583 44.3622 63.0583 44.6356Z" fill="#0C0C0C"></path>
<path d="M34.9804 49.9075C34.9414 50.7276 35.7224 51.9382 36.2691 51.9382C36.7377 51.9382 36.5034 50.8057 35.9567 50.4933C35.6833 50.3371 35.3319 49.9075 35.2147 49.5951C35.0976 49.2046 34.9804 49.3218 34.9804 49.9075Z" fill="#0C0C0C"></path>
<path d="M65.4796 63.3411C65.4796 69.9408 65.6358 73.3382 65.831 72.2448C66.2606 69.6283 66.2606 53.1878 65.792 52.9144C65.5577 52.7582 65.4405 56.4681 65.4796 63.3411Z" fill="#0C0C0C"></path>
<path d="M53.4128 55.1013C53.7643 55.2966 54.0767 55.7652 54.0767 56.0386C54.0767 56.351 54.2719 56.6243 54.4672 56.6243C54.9749 56.6243 54.9749 56.39 54.4672 55.4137C54.2329 55.0232 53.7643 54.6718 53.3738 54.6718C52.7489 54.7108 52.7489 54.7108 53.4128 55.1013Z" fill="#0C0C0C"></path>
<path d="M66.8854 63.6926C66.612 72.7134 66.7292 74.7832 67.393 74.3536C67.7835 74.1193 67.7835 65.489 67.393 58.7721C67.1587 54.828 67.1197 55.2185 66.8854 63.6926Z" fill="#0C0C0C"></path>
<path d="M68.213 59.9438C68.213 64.0441 68.2911 65.2157 68.6035 64.5518C68.8769 63.966 68.9159 62.2868 68.6426 59.0846L68.2521 54.4766L68.213 59.9438Z" fill="#0C0C0C"></path>
<path d="M33.3796 60.0609C33.3796 62.4039 33.5358 63.6536 33.8092 63.6536C34.0826 63.6536 34.1607 62.5992 33.9654 60.2171C33.8092 58.3426 33.6139 56.7415 33.5358 56.6634C33.4577 56.5853 33.3796 58.1083 33.3796 60.0609Z" fill="#0C0C0C"></path>
<path d="M31.8955 64.1613C31.8174 70.7219 31.8955 71.4639 32.4032 70.9172C32.8718 70.4485 32.9889 69.1989 32.9889 64.6299C32.9889 61.1934 32.8327 59.0065 32.6375 59.1627C32.4422 59.2799 32.1689 58.8113 32.0908 58.1084C32.0127 57.4054 31.8955 60.139 31.8955 64.1613Z" fill="#0C0C0C"></path>
<path d="M57.3178 58.655C58.958 62.3648 59.5437 64.0831 59.5437 65.2156C59.5828 65.9576 59.739 66.9338 59.9342 67.3634C60.481 68.6912 60.4029 65.6842 59.778 63.4583C59.2704 61.4276 57.7474 58.1864 57.3569 58.1864C57.2397 58.1864 57.2007 58.4207 57.3178 58.655Z" fill="#0C0C0C"></path>
<path d="M43.2203 59.2017C42.7517 59.5141 42.3612 60.178 42.3612 60.6466C42.3612 61.4667 42.4003 61.4667 42.8689 60.5295C43.2594 59.7484 43.6889 59.5141 45.0557 59.436C46.4616 59.3189 46.7349 59.436 46.9302 60.0999C47.0474 60.5685 47.2817 60.92 47.4769 60.92C48.0627 60.92 47.8674 60.178 47.0474 59.3579C46.1101 58.4207 44.4309 58.3426 43.2203 59.2017Z" fill="#0C0C0C"></path>
<path d="M60.3249 63.3411C60.7544 66.7386 60.9497 67.3634 61.0278 66.0357C61.184 64.1612 60.403 58.9674 60.0125 58.9674C59.8562 58.9674 60.0125 60.959 60.3249 63.3411Z" fill="#0C0C0C"></path>
<path d="M61.4183 64.4346C61.4964 66.5824 61.6916 68.3397 61.8869 68.3397C62.0822 68.3397 62.1603 68.6521 62.0431 69.0036C61.8478 69.5894 61.9259 69.5894 62.4336 68.9645C62.9022 68.3788 63.0584 67.3634 62.9803 64.6689L62.9022 61.1152L62.6679 64.0441C62.4336 66.5824 62.3946 66.7386 62.3555 64.9813C62.2774 62.5992 61.8869 60.5295 61.5354 60.5295C61.4183 60.5295 61.3402 62.2868 61.4183 64.4346Z" fill="#0C0C0C"></path>
<path d="M54.9355 66.5825C54.8964 68.0664 55.0526 69.5894 55.2479 69.9018C55.5603 70.3704 55.6384 70.2142 55.6774 69.3161C55.7555 68.1445 55.7555 68.1445 56.0289 69.5113C56.2632 70.6438 56.3413 70.4095 56.3804 68.2226C56.3804 66.6996 56.2632 65.6062 56.0289 65.6062C55.8336 65.6062 55.5993 66.0748 55.5603 66.6606C55.5603 67.2854 55.4041 66.8949 55.2479 65.8014C54.9745 63.8489 54.9745 63.8879 54.9355 66.5825Z" fill="#0C0C0C"></path>
<path d="M56.8494 68.2226C56.8103 69.6285 56.9665 70.6828 57.2008 70.6828C57.6694 70.6828 57.6694 67.6759 57.2008 66.5825C56.9665 66.0357 56.8494 66.5044 56.8494 68.2226Z" fill="#0C0C0C"></path>
<path d="M68.6818 70.4876C68.6818 73.065 68.7208 74.0803 68.7989 72.7135C68.877 71.3858 68.877 69.277 68.7989 68.0273C68.7208 66.8168 68.6818 67.9102 68.6818 70.4876Z" fill="#0C0C0C"></path>
<path d="M57.9817 68.8084C57.9817 69.8628 58.1769 70.6828 58.3722 70.6828C58.8799 70.6828 58.8799 68.3398 58.3722 67.5587C58.0988 67.1292 57.9817 67.4806 57.9817 68.8084Z" fill="#0C0C0C"></path>
<path d="M31.5438 74.3926C31.5438 75.447 31.6219 75.8766 31.7 75.2518C31.7781 74.666 31.7781 73.8069 31.7 73.2992C31.6219 72.8306 31.5438 73.2992 31.5438 74.3926Z" fill="#0C0C0C"></path>
<path d="M40.7992 73.8069C40.7992 74.7051 41.9707 76.2281 42.5565 75.9938C42.8299 75.9157 43.2594 76.0328 43.4937 76.2671C43.728 76.5014 44.0014 76.5795 44.1186 76.4624C44.2357 76.3452 43.8061 75.6814 43.1032 75.0175C42.0879 74.0022 41.8926 73.924 42.0879 74.5489C42.3612 75.6814 42.0879 75.5642 41.424 74.2755C41.0726 73.6897 40.8382 73.4945 40.7992 73.8069Z" fill="#0C0C0C"></path>
<path d="M43.9232 74.3536C43.9232 74.705 44.0404 75.0174 44.2356 75.0174C46.1491 75.2908 47.0473 75.2908 47.0473 74.9784C47.0473 74.7441 46.6959 74.5488 46.2663 74.5488C45.1729 74.4707 44.9776 74.4317 44.4309 74.0802C44.0794 73.8849 43.9232 73.963 43.9232 74.3536Z" fill="#0C0C0C"></path>
<path d="M34.5899 79.5865C33.4965 80.9923 33.4574 81.1486 34.0823 81.7734C34.629 82.3201 34.7852 83.4526 34.8633 88.9979C35.0195 95.5194 34.9804 95.5975 34.1213 96.2223L33.1841 96.8472L34.668 98.3311C35.9567 99.6198 36.3472 99.776 38.0655 99.776C39.9009 99.776 40.1352 99.6588 41.9316 97.8234L43.8451 95.8709L44.0794 89.2322L44.3527 82.5934L42.283 80.3285C40.2133 78.1416 40.1743 78.1026 37.9874 78.1026C35.9177 78.1026 35.7224 78.1807 34.5899 79.5865ZM40.7991 89.0369V93.9574L39.4713 95.2461L38.1826 96.4957L37.9093 94.6603C37.7921 93.645 37.675 90.1694 37.675 86.9672V81.0704L39.237 82.5934L40.7991 84.1164V89.0369ZM35.8786 97.8234C36.2301 98.3702 36.4644 98.7997 36.3863 98.7997C36.3082 98.7997 35.8396 98.3702 35.3319 97.8234C34.8242 97.2767 34.5899 96.8472 34.8242 96.8472C35.0585 96.8472 35.5272 97.2767 35.8786 97.8234ZM40.7991 97.7844C40.7991 97.8625 40.4867 98.1749 40.1352 98.4483C39.5104 98.9559 39.4713 98.9169 39.979 98.2921C40.4867 97.6672 40.7991 97.472 40.7991 97.7844Z" fill="black"></path>
<path d="M48.9219 80.5628L46.735 82.5935L46.5788 88.9198L46.3835 95.2461L48.6876 97.511L50.9525 99.737L53.1004 97.511C54.2719 96.3005 55.2482 95.0508 55.2482 94.7775C55.2482 94.5041 54.8186 93.8402 54.2719 93.3326L53.2956 92.3953L51.9679 93.684C51.2259 94.3869 50.4449 94.8556 50.2106 94.7384C49.9763 94.5822 49.781 93.6059 49.781 92.5125C49.781 90.7552 49.8591 90.599 50.6792 90.599C51.4993 90.599 54.0766 88.4121 54.0766 87.7482C54.0766 87.592 53.1004 87.4749 51.9288 87.4749H49.781V84.8584V82.281L50.8744 83.2183C51.4602 83.7259 52.2412 84.507 52.5927 84.9365C53.2566 85.7176 53.2566 85.7176 54.4281 84.5851C55.092 83.9212 55.6387 83.2964 55.6387 83.1402C55.6387 82.7497 51.7336 78.4931 51.3821 78.4931C51.265 78.5321 50.1325 79.4303 48.9219 80.5628Z" fill="black"></path>
<path d="M59.1924 79.6255C57.8256 81.1095 57.7475 81.4609 58.6066 82.4763C59.2314 83.1011 59.2314 83.1792 58.6066 83.4135C57.7084 83.765 57.8256 84.4679 58.7238 84.1555C59.5438 83.9212 60.2858 84.9365 61.3011 87.8263C61.7307 89.115 61.6917 89.4274 60.5201 91.7705C59.8172 93.1763 58.88 94.6603 58.4113 95.0508C57.2789 96.0661 57.396 96.8862 58.7238 98.1749C60.0515 99.4636 60.8716 99.3074 62.1993 97.6282C62.9413 96.6909 63.0194 96.3785 62.6289 95.7537C62.2384 95.1289 62.2384 94.7384 62.6679 93.7621C63.2928 92.2391 63.5271 92.2391 64.3471 93.8792C64.8939 95.0508 64.8939 95.2851 64.3862 95.6756C64.1128 95.9489 63.8395 96.3395 63.8395 96.5347C63.8395 96.9643 66.1044 99.1902 66.534 99.1902C66.6902 99.1902 67.3931 98.5654 68.0961 97.7844L69.3457 96.3395L68.3694 95.3241C67.8618 94.7774 66.8464 93.0982 66.1435 91.6533L64.8939 88.9978L66.2216 86.1861C66.9245 84.6241 67.9399 82.9058 68.4475 82.3201L69.3848 81.3047L67.9789 79.7817L66.6121 78.2978L65.1672 79.7427C63.7614 81.1485 63.7223 81.2266 64.3862 81.9295C65.011 82.6715 65.011 82.7496 64.3862 84.1164C63.9957 84.8974 63.6052 85.5223 63.488 85.5223C63.3709 85.5223 62.9803 84.8193 62.6289 83.9993C62.0431 82.5934 62.0431 82.4372 62.5898 81.8514C63.1756 81.2657 63.0975 81.1095 61.8088 79.7817L60.3639 78.3759L59.1924 79.6255ZM67.3541 80.0551C67.7446 80.7971 67.7446 80.8361 67.0026 80.3675C66.5731 80.1332 66.3388 79.7427 66.4169 79.5865C66.7293 79.1179 66.8855 79.196 67.3541 80.0551ZM67.1588 98.0187C67.0417 98.2139 66.7293 98.4092 66.534 98.4092C66.2997 98.4092 66.2607 98.2139 66.3778 98.0187C66.495 97.7844 66.8074 97.6282 67.0026 97.6282C67.2369 97.6282 67.276 97.7844 67.1588 98.0187Z" fill="black"></path>
<path d="M69.9315 87.6701C70.0877 89.154 70.2439 90.4818 70.322 90.5599C70.6344 90.9113 70.4001 86.4595 70.0486 85.7175C69.8143 85.2098 69.7753 85.8737 69.9315 87.6701Z" fill="#0C0C0C"></path>
<path d="M68.7599 87.7482C68.6427 88.373 68.6818 89.3493 68.877 90.0132C69.1894 91.0285 69.2285 90.9113 69.2675 88.9197C69.3066 86.4986 69.1113 86.069 68.7599 87.7482Z" fill="#0C0C0C"></path>
</svg>