<svg width="100" height="100" viewBox="0 0 100 100" fill="none" xmlns="http://www.w3.org/2000/svg">
<path d="M42.2561 0.778431C41.7079 1.16999 40.964 2.34468 40.5724 3.36273C39.9459 5.04645 39.8284 5.16391 39.5543 4.34164C39.0062 2.97117 36.6959 2.22721 33.5243 2.42299C30.5484 2.61877 28.9039 3.28442 27.1027 5.04645C25.4973 6.61269 25.184 9.47109 26.0846 14.1307C26.437 16.0102 26.6328 17.7722 26.4762 18.0071C26.3587 18.2029 24.8316 18.3987 23.1088 18.3987C20.1329 18.3987 19.898 18.477 18.8016 19.5342C18.1751 20.1607 17.6661 21.0221 17.6269 21.4137C17.6269 21.8053 17.5486 26.0733 17.4703 30.9286C17.3528 39.4255 17.3137 39.8954 16.139 43.8501C14.6902 48.7838 14.6511 49.3712 15.8649 51.8771C17.7052 55.8319 25.5756 67.0697 28.4732 69.889C30.0002 71.3769 31.3707 72.9823 31.4882 73.413C31.8014 74.4311 32.4671 83.3586 32.7412 89.5453C33.0153 96.2019 33.3677 99.8434 33.7592 99.8434C33.955 99.8434 34.1116 98.238 34.1116 96.3193C34.1116 94.3615 34.2683 92.7953 34.464 92.7953C34.699 92.7953 34.8164 93.1868 34.8164 93.6567C34.699 95.6145 34.8948 97.8856 35.208 97.8856C35.5213 97.8856 35.4429 92.5995 35.1297 91.7381C35.0122 91.464 35.1689 90.3284 35.4821 89.1929C35.7562 88.0574 35.8737 86.961 35.6779 86.7652C35.4821 86.5695 35.4429 86.1779 35.5604 85.9038C35.6779 85.5905 35.5996 85.3556 35.3646 85.3556C34.9731 85.3556 34.5032 88.0965 34.5032 90.4851C34.5032 91.3073 34.3074 92.0905 34.0725 92.2471C33.7984 92.4037 33.7201 91.6597 33.7984 89.8194C33.9942 86.5303 35.952 80.7743 36.97 80.4611C37.3224 80.3045 37.6357 79.8346 37.6748 79.3647C37.714 78.5816 37.7532 78.5816 38.0272 79.4822C38.3405 80.4219 38.3405 80.4219 38.3797 79.2864C38.4188 78.6208 38.1447 77.681 37.7923 77.2111C37.0875 76.1931 37.1267 76.1931 38.9278 76.937C40.8465 77.7202 42.4519 77.681 44.2922 76.7413C45.1537 76.3106 46.0542 75.9581 46.2892 75.9581C46.5633 75.9581 47.1115 75.6841 47.503 75.2925C47.8946 74.9401 48.2078 74.8618 48.2078 75.0967C48.2078 75.2925 48.5602 75.41 48.991 75.2925C49.4608 75.175 49.7741 75.2925 49.7741 75.6057C49.7741 75.8798 49.8915 75.9581 50.0873 75.8015C50.4789 75.3708 50.4789 73.4522 50.0482 73.1781C49.8132 73.0214 49.8524 72.4341 50.1265 71.651C50.7138 69.9281 50.6747 69.4191 50.009 69.4191C49.6566 69.4191 49.0693 70.398 48.5602 71.9251C47.5422 74.7835 46.994 75.3708 45.0753 75.7232C44.3314 75.8407 43.9398 75.8407 44.2139 75.7232C44.4488 75.6057 44.6055 75.3316 44.4488 75.1359C44.3314 74.9401 44.6838 74.7835 45.232 74.7835C45.9759 74.7835 46.4458 74.3919 47.2289 73.0998C48.4428 71.0245 48.5211 70.0847 47.4639 70.3588C46.485 70.5938 46.0542 71.6901 46.7199 72.1208C47.1115 72.3166 47.0332 72.4341 46.5241 72.4341C46.1326 72.4341 45.9368 72.5907 46.0542 72.8257C46.1717 73.0214 46.0151 73.2172 45.6627 73.2172C45.232 73.2172 45.0753 73.413 45.232 73.8046C45.3494 74.1178 45.2711 74.3919 45.0753 74.3919C44.8404 74.3919 44.6838 74.1178 44.6838 73.8046C44.6838 73.4913 44.4488 73.2172 44.1748 73.2172C43.9007 73.2172 42.6085 72.3166 41.238 71.2594C39.9067 70.163 38.8104 69.4191 38.8104 69.5757C38.8104 69.7715 39.7893 70.7112 40.964 71.651C42.0995 72.6299 43.0784 73.5696 43.1175 73.7654C43.1175 74.1961 41.982 73.2172 38.7321 70.1239C37.4791 68.9492 36.3827 68.0878 36.2652 68.2052C35.8737 68.5968 42.3736 74.3919 43.235 74.4311C43.8615 74.4702 43.9398 74.5094 43.4308 74.666C43.0784 74.7443 42.4127 74.6268 41.982 74.3919C41.5121 74.157 41.1597 74.1178 41.1597 74.3527C41.1597 74.5485 41.6688 74.9401 42.2953 75.2142C42.9218 75.4883 43.3525 75.8798 43.2742 76.0365C42.7651 76.8196 38.1447 75.6841 38.3405 74.8226C38.3797 74.5877 38.1447 74.3919 37.8315 74.3919C37.2441 74.3919 35.6387 72.2383 33.2502 68.1661C32.4279 66.7565 31.7623 65.8559 31.7623 66.2083C31.7623 66.5607 32.6629 68.2836 33.7201 70.0847C34.8164 71.8859 35.6387 73.413 35.5604 73.4913C35.2863 73.7262 33.0153 70.2805 31.1358 66.7565C30.1177 64.7987 28.943 62.88 28.5515 62.4884C27.8467 61.7445 27.8467 61.7445 27.8467 62.6842C27.8467 63.1933 28.434 65.0728 29.178 66.8348C29.8828 68.5968 30.3135 69.9673 30.1569 69.8498C29.3738 69.3799 27.8467 66.13 26.672 62.5276C25.2624 58.2596 24.4792 57.5156 24.8708 60.8439C24.9883 62.0186 25.2232 63.3107 25.3407 63.7023C25.5365 64.3679 25.5365 64.3679 25.1057 63.6631C24.8316 63.2716 24.4792 61.7053 24.3226 60.1391C24.1268 58.3379 24.0094 57.9072 23.9702 58.9252C23.8919 61.1963 23.2262 60.1391 23.0305 57.359C22.913 56.0668 22.5606 54.0699 22.169 52.9344C21.3859 50.3892 22.0124 49.4495 22.8738 51.8771C22.9521 52.1121 23.2654 52.0729 23.6178 51.7597C24.0485 51.4073 24.3226 51.3681 24.5184 51.6814C24.6359 51.8771 24.9491 52.0729 25.184 52.0729C25.419 52.0729 25.2232 51.6422 24.7533 51.1332C24.2835 50.6241 23.7353 49.7236 23.5395 49.0971C23.2654 48.079 23.2262 48.079 23.1871 48.8621C23.1479 49.3712 23.3437 50.1151 23.5395 50.5458C23.7744 50.9766 23.8136 51.2898 23.5786 51.2898C23.1088 51.2898 22.3648 49.0971 22.3648 47.6874C22.3648 46.9826 22.2082 46.6302 21.9732 46.7869C21.7383 46.9435 21.66 47.6874 21.7383 48.4706L21.9341 49.9193L21.4251 48.3531C21.1118 47.4917 20.8377 46.1604 20.7986 45.4164C20.7594 44.2809 20.6811 44.1634 20.407 44.829L20.0546 45.6122L19.9763 44.829C19.9371 44.3983 19.8197 44.6724 19.663 45.4164C19.3106 47.3742 19.5847 49.0187 20.2504 48.7838C20.5636 48.6663 20.7986 48.6272 20.7986 48.6663C20.7986 49.1754 21.6208 53.5217 21.8166 54.109C21.9732 54.6572 21.8949 54.853 21.5425 54.7355C21.2293 54.6181 20.7203 53.6 20.3678 52.4253C19.663 50.1934 19.3498 50.9374 20.0154 53.2085C20.2504 54.109 20.2504 54.4223 20.0154 54.1874C19.7805 53.9524 19.5064 52.856 19.3498 51.7597C19.1149 49.8019 18.7233 49.2145 18.3317 50.1934C18.2143 50.4675 18.0968 50.2717 18.0576 49.7236C17.9793 48.7838 17.9402 48.823 17.6661 49.9193C17.392 50.9374 17.3528 50.8199 17.3528 49.1362C17.3528 48.0398 17.2354 46.8652 17.0787 46.4736C16.9221 46.0429 17.1179 44.5941 17.6269 42.9496C18.1359 41.2658 18.4492 39.0339 18.4492 37.3894C18.4492 35.8623 18.6058 34.8051 18.7624 35.04C19.1149 35.549 20.0154 35.7057 20.0154 35.275C20.0154 35.0792 19.8588 34.8442 19.663 34.7659C19.4673 34.6876 19.1149 33.4738 18.9582 32.0642C18.645 29.8323 18.6841 29.4799 19.154 29.6756C19.663 29.8323 19.7022 29.5973 19.4673 28.1485L19.2323 26.4257L19.9763 27.4046C20.407 27.9528 20.8377 28.266 20.9552 28.1485C21.1118 28.0311 20.8377 27.4437 20.3678 26.8956C19.9371 26.3082 19.7805 25.8383 20.0154 25.8383C20.2895 25.8383 20.0154 25.2902 19.4673 24.6245C18.9191 23.9588 18.5275 23.254 18.6841 23.0583C18.8016 22.8625 19.2323 23.0974 19.6239 23.5673C20.6419 24.7811 20.6028 24.1155 19.6239 22.7842C19.1149 22.1185 18.9191 21.4137 19.0757 21.0221C19.4673 19.9649 20.1329 20.3956 21.151 22.5101C21.6992 23.5673 22.2082 24.1938 22.2865 23.9588C22.3648 23.6848 21.9732 22.6667 21.4251 21.6878C20.2112 19.5342 20.2112 19.5734 21.151 19.5734C21.6208 19.5734 22.1299 20.1607 22.6781 21.4137C23.1871 22.5101 23.5003 22.9799 23.5395 22.5101C23.5395 22.0794 23.2654 21.2571 22.9913 20.6306C22.5214 19.8083 22.5214 19.5734 22.913 19.5734C23.1871 19.5734 23.657 20.3173 23.9311 21.2179C24.3618 22.5492 24.5184 22.7058 24.6359 22.0402C24.7142 21.5703 24.5575 20.7872 24.3226 20.3173C23.9311 19.6517 23.9702 19.5342 24.4009 19.6517C24.675 19.7691 24.9883 20.1607 25.0274 20.5914C25.2624 21.7269 25.8889 22.236 25.8889 21.2571C25.8889 20.7872 25.7322 20.2782 25.4973 20.1607C24.5184 19.5342 25.419 19.2601 29.0213 18.986C32.5062 18.7511 33.0544 18.7902 33.7201 19.3776C34.4249 20.0041 34.5032 20.0432 34.5032 19.4559C34.5032 18.5161 37.0483 18.5945 40.4158 19.6125C42.0212 20.1215 43.8224 20.3956 44.8796 20.2782C45.8585 20.1999 46.6416 20.2782 46.6416 20.4348C46.6416 21.1004 46.1326 21.8836 45.8193 21.6878C45.6235 21.5703 45.4669 21.8053 45.4669 22.1577C45.4669 22.5492 45.3494 22.7058 45.1928 22.5492C45.0362 22.3926 44.6838 22.9408 44.4488 23.7631C44.0181 25.0944 43.979 25.1335 43.9398 24.1938L43.9007 23.1366L42.5694 24.4679C41.8254 25.1727 41.0423 26.4257 40.7682 27.1696C40.5332 27.9528 40.22 28.5793 40.1417 28.5793C39.9459 28.5793 40.1808 27.6395 40.6507 26.3082C40.7682 26.0733 40.6507 25.8383 40.4158 25.8383C40.1808 25.8383 39.9851 26.0733 39.9851 26.3865C39.9851 26.6606 39.711 27.522 39.3977 28.2269L38.8104 29.5582L39.0062 27.9919C39.1628 26.504 39.1628 26.4648 38.7321 27.4829C38.1839 28.7359 37.4399 28.9708 37.8315 27.7961C38.1839 26.6606 37.7532 26.8172 37.0483 28.0702L36.461 29.1666L36.6959 27.9919C36.9309 26.8564 36.8917 26.8564 35.8737 28.3835C34.9339 29.8323 34.7773 29.519 35.4821 27.6004C35.6779 27.0913 35.3255 27.3263 34.5424 28.1877C33.4068 29.4407 33.3677 29.4407 33.9942 28.4226C34.5032 27.5612 34.5424 27.2088 34.19 27.0913C33.955 27.013 33.7201 26.6606 33.7201 26.3082C33.7201 25.9166 33.3677 26.3865 32.937 27.2871C32.0755 29.2058 31.684 29.3624 30.8225 28.1094C30.1177 27.0913 30.0394 26.6215 30.5876 26.6215C30.8225 26.6215 30.9792 26.8956 30.9792 27.2088C30.9792 27.522 31.1749 27.7961 31.4099 27.7961C31.6448 27.7961 31.7231 27.522 31.6056 27.1696C31.4882 26.8172 31.3707 26.3865 31.3707 26.1907C31.3707 25.9558 31.1749 25.9166 30.9792 26.0341C30.7442 26.1516 30.4701 25.995 30.3527 25.6817C30.2352 25.3293 29.9611 25.0552 29.7653 25.0552C29.5304 25.0552 29.5695 25.4076 29.8045 25.8383C30.3918 26.8956 29.6478 26.8172 28.9039 25.7209C28.5515 25.251 28.2774 25.0552 28.2774 25.3293C28.2382 25.5642 28.4732 26.0341 28.7473 26.3082C29.4912 27.1305 30.6267 29.4407 30.431 29.6756C30.3135 29.7931 29.3346 28.9317 28.2382 27.757C25.928 25.2902 25.7322 25.5251 27.69 28.3443C28.4732 29.4407 28.9039 30.1064 28.5906 29.8323C28.3165 29.5973 27.8075 29.3624 27.4943 29.3624C26.4762 29.4015 28.2382 30.5371 29.2563 30.5371C29.7653 30.5371 30.2743 30.7328 30.431 31.0069C30.5876 31.281 30.5484 31.3202 30.2743 31.1636C30.0002 31.0069 29.8045 31.0461 29.8045 31.281C29.8045 31.4768 29.9611 31.7509 30.1569 31.8684C31.0575 32.4166 32.1538 35.7057 32.1147 37.6635L32.0364 39.7388L31.684 37.5069C31.2532 35.0009 30.2352 34.0611 30.1569 36.1364C30.1177 37.3111 30.0786 37.2719 29.7262 35.7057C29.5304 34.8051 29.2171 34.0611 29.0213 34.0611C28.7864 34.0611 28.8256 34.4918 29.0605 35.1183C29.2563 35.7057 29.5695 37.546 29.687 39.1906C29.8828 41.8532 30.0002 42.2447 30.7051 42.3622C31.6056 42.4797 32.1147 43.4586 31.2924 43.4586C31.0183 43.4586 30.431 43.9285 30.0394 44.5158C29.6087 45.064 29.5304 45.4164 29.8045 45.2206C30.196 44.9857 30.2743 45.064 30.0786 45.6122C29.8045 46.2778 29.8436 46.2778 30.8225 45.6122C31.8406 44.9465 31.8406 44.9857 31.5665 45.8863L31.2924 46.7869L32.3888 45.8079C33.0153 45.2598 33.2894 45.1031 33.0544 45.4164C32.2321 46.3561 32.4671 46.6302 33.5243 45.9646C34.1508 45.5339 34.5032 45.4947 34.5032 45.7688C34.5032 46.082 34.7773 46.0429 35.3646 45.6513C36.5002 44.8682 39.2802 44.8682 40.8073 45.6122C41.4338 45.9646 42.1386 46.1212 42.3736 45.9646C42.6085 45.8079 42.9218 45.8863 43.0784 46.1604C43.235 46.3953 44.1748 47.1393 45.1537 47.8441C47.4247 49.4495 52.0451 55.0096 50.1656 53.8349C49.6175 53.4825 49.6958 53.9133 50.3614 54.9705C50.7138 55.4795 50.9488 56.0668 50.9096 56.2235C50.8313 56.4193 51.1054 57.2807 51.4969 58.1421C52.2801 59.9825 52.9457 66.8348 52.4367 67.8528C51.8102 69.0667 52.3975 69.0667 53.1023 67.8528C53.5331 67.0697 53.6505 66.9914 53.4939 67.6179C53.2198 68.5968 53.6897 68.5968 55.4909 67.6179C56.9788 66.8739 57.3704 66.0125 56.783 64.9161C56.1565 63.7414 56.1174 57.868 56.7439 57.6722C56.9788 57.5548 57.2137 57.8289 57.2529 58.2204C57.2529 58.612 57.7619 57.3982 58.3493 55.5187C58.9758 53.6783 59.8372 51.4856 60.3071 50.7025C61.4034 48.8621 61.3643 48.7447 59.9547 49.8019C59.2499 50.3109 58.5059 51.4073 58.1143 52.5036C57.7619 53.5217 57.1354 54.5398 56.7439 54.7747C56.1174 55.1663 56.0782 55.0879 56.3132 53.9133C56.7439 51.6422 58.036 48.5489 58.5842 48.5489C59.4848 48.5489 59.9547 45.0248 59.1715 43.8501C58.8975 43.4194 58.78 43.8893 58.78 45.4947C58.78 46.7085 58.6234 47.8049 58.4667 47.9224C58.271 48.0398 58.2318 47.1001 58.3101 45.8471C58.4667 43.7327 58.4276 43.5369 57.5661 43.2628C56.7047 43.0279 56.783 42.9496 58.1926 42.6755C61.051 42.049 60.9727 42.0098 60.9727 44.7899C60.9336 46.1604 61.051 47.2176 61.2468 47.1001C61.4034 47.0218 61.5209 45.9646 61.5209 44.7899C61.5209 43.3803 61.6775 42.6755 62.0299 42.6755C62.2649 42.6755 63.5179 42.049 64.7709 41.305C67.1202 39.8954 67.9034 39.5821 67.0811 40.4044C66.807 40.6785 66.6112 41.0701 66.6112 41.305C66.6504 41.5008 67.0811 41.1484 67.5901 40.5219C68.1383 39.8562 68.569 39.543 68.569 39.8171C68.569 40.052 68.0991 40.8351 67.5118 41.5008C66.6895 42.4797 66.6112 42.8321 67.0028 43.067C67.316 43.2628 67.7076 43.302 67.8642 43.2236C68.3341 42.9104 68.2166 43.6544 67.7076 44.1634C67.4335 44.4375 67.3943 44.6333 67.5901 44.6333C67.7859 44.6333 68.3732 44.1634 68.8823 43.5369L69.822 42.4797L68.9997 44.0068C68.5299 44.829 68.2166 45.573 68.3341 45.6905C68.6865 46.0429 70.2527 43.3411 70.331 42.1664C70.4877 40.1303 70.566 40.0912 71.1533 41.305C71.7015 42.4405 71.7407 42.4014 71.5449 40.1303C71.3883 37.9376 71.4274 37.8593 71.8973 38.9556C72.1714 39.5821 72.6021 40.7568 72.7979 41.5008L73.1894 42.8712L73.2286 41.6574C73.2677 40.9917 73.0328 39.6604 72.7196 38.6424C72.2888 37.2328 72.2888 36.9195 72.6804 37.037C73.1894 37.2328 73.8551 39.3472 74.2466 42.1664C74.4033 43.1062 74.7165 43.9676 74.9123 44.0851C75.3822 44.3983 75.1472 39.5038 74.6382 38.2508C74.4033 37.7418 74.5599 37.5852 75.343 37.5852C76.4394 37.5852 76.7918 38.4466 76.7526 40.7177C76.7135 42.049 76.7135 42.049 76.3611 40.3653C76.1653 39.3863 75.8129 38.4466 75.578 38.2117C75.2256 37.8984 75.1864 37.9767 75.4213 38.5641C75.578 38.9948 75.8129 40.6393 75.9304 42.1664C76.0087 43.7327 76.2828 45.0248 76.4394 45.0248C76.6352 45.0248 76.7918 44.7507 76.7918 44.4375C76.7918 44.1242 76.9876 43.8501 77.2225 43.8501C77.4574 43.8501 77.5749 44.1242 77.4183 44.4375C77.1442 45.1815 77.34 45.1815 78.7888 44.4375L79.9634 43.811L79.3369 45.2989C78.9845 46.1212 78.4364 47.1784 78.1231 47.6483C77.4966 48.6272 77.8882 48.8621 78.7104 48.0398C79.102 47.6483 79.1412 47.7266 78.9062 48.2748C78.6713 48.8621 78.7888 48.9796 79.5719 48.8621C80.5508 48.7447 80.5899 48.8621 80.1592 50.5067C79.8851 51.4464 79.8851 51.4464 80.4725 50.7025C82.6261 47.9224 83.2526 47.6874 82.0387 50.076C81.6863 50.7808 81.4905 51.7205 81.608 52.1904C81.7255 52.6603 81.6472 53.4042 81.4905 53.8349C81.1773 54.5398 81.1381 54.5006 81.1381 53.5217C81.099 52.9344 80.9032 52.4645 80.6682 52.4645C80.4333 52.4645 80.355 52.7777 80.4333 53.1301C81.2164 55.9494 80.9032 59.9041 79.9243 59.9041C79.6893 59.9041 79.5327 60.1391 79.5327 60.4132C79.5327 61.0788 77.7707 62.0577 77.2225 61.7053C76.9876 61.5487 76.7918 61.5879 76.7918 61.8228C76.7918 62.0186 77.2617 62.2535 77.8882 62.3318L78.9454 62.4493L77.8882 63.1541C77.2225 63.624 76.5177 63.7806 76.0478 63.624C75.2647 63.389 75.2647 63.3499 76.2828 61.3529C77.2225 59.5126 77.34 58.9644 77.2617 55.597C77.1834 53.5609 76.9876 51.7205 76.7918 51.5247C76.596 51.329 76.5569 51.838 76.6743 52.7777C76.7918 53.6392 76.6743 54.6572 76.4394 55.0488C76.1261 55.6361 76.0087 55.2446 75.9695 53.0518L75.8912 50.3109L75.578 53.7175C75.3039 56.9283 74.7165 59.5517 74.0509 60.4915C73.9334 60.6873 73.3069 61.7445 72.6804 62.8409C71.1925 65.5426 72.6021 64.133 74.325 61.2355C75.0689 59.9433 75.5388 59.2776 75.3822 59.7084C75.2256 60.1391 75.0689 60.9614 75.0298 61.5487C74.9515 62.1752 74.9123 62.8017 74.8731 63.0366C74.8731 63.2324 73.9334 64.3288 72.8762 65.4252C71.7798 66.5607 70.9575 67.5004 71.0358 67.5787C71.3099 67.8528 74.7948 67.7745 76.2436 67.4221C78.4364 66.9522 79.7677 65.8559 80.2767 64.133C80.7466 62.6059 81.5688 61.7053 81.2947 62.9975C80.9423 64.7987 78.4755 68.2444 77.7707 67.9703C77.4966 67.892 77.105 67.9703 76.9093 68.1661C76.2828 68.7926 71.3491 68.636 69.5479 67.9703C68.8431 67.6962 68.8431 67.7745 69.6654 68.4402C70.1744 68.91 70.3702 69.3408 70.1353 69.4974C69.4696 69.889 68.2949 69.3408 67.6293 68.3227C67.0028 67.383 67.0419 67.3046 68.3732 66.0908C70.4485 64.2896 74.8731 58.3379 74.1292 58.3379C73.9726 58.3379 72.8762 59.6692 71.7015 61.3138C69.3521 64.6029 66.9636 66.9522 65.9064 66.9522C65.3191 66.9914 65.3191 67.0306 65.8672 67.3438C66.2196 67.5396 66.807 68.1661 67.1202 68.6751L67.7859 69.654L66.7287 69.1058C66.1805 68.7926 65.2799 68.0878 64.7709 67.4613L63.8311 66.3649L64.6534 68.0095C65.554 69.8498 65.6323 70.2414 65.045 69.889C64.6534 69.654 63.4787 67.148 63.4787 66.5607C63.4787 66.2866 67.2377 63.8198 67.6684 63.8198C67.825 63.8198 67.5901 64.2113 67.1594 64.7203C66.7678 65.2294 67.4335 64.5637 68.6865 63.2716C69.9395 61.9403 71.3099 60.1782 71.7407 59.3168C72.328 58.1421 72.328 57.9855 71.819 58.7295C69.9786 61.4312 63.792 66.1691 62.1083 66.1691C61.795 66.1691 61.1685 65.6209 60.6986 64.9161C60.1896 64.2505 59.7197 63.8981 59.6414 64.133C59.4456 64.7987 58.78 64.7203 58.78 64.0547C58.78 63.1933 57.9969 61.3138 57.7619 61.5879C57.4487 61.9011 58.78 65.7776 59.2107 65.7776C59.4065 65.7776 59.5631 65.5818 59.5631 65.386C59.5631 65.1511 59.7197 64.9944 59.9155 64.9944C60.3071 64.9944 60.9336 66.7565 61.3251 68.9884C61.4426 69.8106 61.7167 70.4763 61.8733 70.4763C62.0691 70.4763 62.0691 69.8106 61.8733 68.9884C61.286 66.4824 61.5601 66.2866 62.3823 68.5968C62.8131 69.8498 63.3221 70.8679 63.5179 70.8679C63.9877 70.8679 63.9486 70.4371 63.2829 69.3016C62.9697 68.7534 62.7348 67.892 62.7348 67.3438C62.7348 66.7956 62.8522 66.639 62.9305 66.9522C63.6745 69.145 64.5359 70.5938 65.3191 70.907C66.5721 71.3769 66.4546 71.9251 65.1233 71.7293C64.4185 71.651 63.8311 71.8076 63.5179 72.1992C62.6956 73.1781 64.5751 75.4491 66.063 75.3316C68.9214 75.175 68.8431 75.2142 67.6293 74.5877C66.2588 73.8829 66.1022 73.8437 66.4546 74.4702C66.6112 74.7443 66.2588 74.5485 65.7106 74.0395C64.7317 73.1781 64.2227 73.2955 64.9667 74.2353C65.1233 74.4311 64.9275 74.2353 64.4968 73.8046C63.8311 73.0606 63.8311 73.0214 64.4968 72.8648C65.4365 72.7082 69.5479 73.9612 70.4485 74.7443C72.328 76.428 74.4424 77.916 74.4424 77.5635C74.4424 77.3678 73.8942 76.7804 73.2286 76.2322C72.1322 75.41 72.1322 75.2925 72.8762 75.3708C73.9726 75.4491 74.7165 76.7804 75.852 80.6569C76.3611 82.2623 76.7526 83.3586 76.7526 83.0846C76.7918 82.8496 76.9876 82.6147 77.1834 82.6147C77.4183 82.6147 77.5749 83.7111 77.5749 85.0424C77.5749 88.8013 78.3189 95.5362 78.9062 97.2199C80.2375 101.096 80.7074 96.9067 80.0026 87.5092C79.4936 80.5786 79.611 77.5635 80.5116 74.5485C80.9815 72.9431 80.9815 72.8257 80.4333 73.2955C80.0809 73.5696 80.9815 71.4944 82.4303 68.7143C84.9754 63.7806 85.0929 63.5065 85.4061 59.7084C85.9152 54.2265 85.876 49.5669 85.367 48.2748C85.0537 47.6091 84.8971 44.1242 84.858 39.1514C84.8188 34.7268 84.5839 29.519 84.3098 27.6004C84.0748 25.6426 83.6441 22.236 83.4092 19.9649C83.1742 17.6939 82.861 15.5011 82.6652 15.0704C82.5086 14.6397 82.0779 13.3084 81.7255 12.0945C80.9815 9.5494 80.3942 8.88374 77.9273 8.06147C75.9304 7.39581 72.6412 7.70906 70.4485 8.80543C69.078 9.47109 68.9214 9.51024 69.0389 9.07952C69.078 8.9229 68.9997 8.13978 68.8431 7.3175C68.569 6.10366 68.1775 5.59463 66.4937 4.49826C65.3582 3.7543 63.2829 2.8537 61.8342 2.46214C59.289 1.79649 59.1715 1.79649 57.3312 2.57961C55.9607 3.1278 55.2559 3.71514 54.7861 4.69404L54.1204 6.06451L54.0813 4.41995C54.0813 3.1278 53.8463 2.61877 53.0632 1.99227C52.4759 1.5224 51.5753 1.16999 50.9879 1.16999C50.4397 1.13084 49.5391 0.8959 48.991 0.582651C47.4639 -0.278783 43.4308 -0.161315 42.2561 0.778431ZM48.8735 1.60071C49.9307 2.03143 49.8915 2.07058 47.4639 2.57961C44.9579 3.08864 43.1175 3.98923 43.1175 4.69404C43.1175 4.88982 43.744 4.69404 44.488 4.22417C45.2711 3.79345 46.0151 3.51936 46.1326 3.67598C46.25 3.79345 46.0542 3.98923 45.7018 4.14586C45.3494 4.26332 45.0753 4.53742 45.0753 4.69404C45.0753 4.88982 45.5452 4.77235 46.1717 4.49826C46.7591 4.22417 48.0904 3.83261 49.1084 3.71514C50.5964 3.4802 50.9879 3.51936 50.9096 3.95008C50.8705 4.26332 51.0271 4.96813 51.3403 5.55548C51.7319 6.41691 51.771 6.73016 51.3403 7.23919C51.0662 7.55244 50.6747 7.82653 50.4397 7.82653C50.244 7.82653 50.3223 7.51328 50.6747 7.12172C51.4578 6.26029 51.5753 5.59463 50.8313 6.22113C50.518 6.45607 50.1656 6.53438 50.0482 6.41691C49.9307 6.26029 49.5391 6.45607 49.2259 6.76931C48.8735 7.08256 48.4036 7.43497 48.1295 7.55244C47.8554 7.63075 47.738 7.82653 47.8946 7.98315C48.0121 8.13978 48.5211 8.10062 48.9518 7.82653C49.6175 7.47412 49.7741 7.51328 49.7741 8.02231C49.7741 8.37472 50.1265 8.60965 50.753 8.60965C51.3012 8.60965 51.6927 8.41387 51.6536 8.13978C51.5753 7.90484 51.8494 7.59159 52.2409 7.51328C52.7891 7.39581 52.9066 7.66991 52.9066 8.96206C52.9066 9.86265 52.7499 10.5675 52.515 10.5675C52.2801 10.5675 52.2801 10.9199 52.515 11.5855C52.7499 12.1337 52.9066 13.0343 52.9066 13.5825C52.9066 14.4048 52.8283 14.5222 52.3192 14.0915C52.006 13.8174 51.7319 13.7783 51.7319 14.0132C51.7319 14.209 52.006 14.6005 52.3192 14.8746C52.9849 15.4228 53.1023 17.8113 52.515 18.2029C52.3192 18.3204 52.1234 18.2421 52.1234 17.968C52.1234 17.733 51.6144 16.9107 50.9488 16.1668C50.3223 15.462 49.7741 14.4831 49.7741 14.0132C49.7741 13.3475 49.6958 13.3084 49.1867 13.6999C48.6777 14.0915 48.5994 14.0523 48.5994 13.3475C48.5994 12.6036 48.5211 12.5644 47.8163 12.9951C46.9157 13.5825 46.4458 14.5222 47.1506 14.4439C48.1687 14.3264 48.6386 14.4831 48.3645 14.9529C48.2078 15.1879 48.247 15.2662 48.4819 15.1487C48.7169 14.9921 49.8132 15.971 50.9096 17.3023C52.4367 19.1818 52.7891 19.8475 52.4367 20.239C52.1234 20.6306 52.1234 20.9047 52.4367 21.2179C53.024 21.8053 53.0632 22.4709 52.515 22.1185C52.0843 21.8444 51.9668 22.4318 52.3975 22.8233C52.7891 23.2149 52.9066 25.0944 52.515 24.8594C52.006 24.5462 49.7741 25.0944 50.009 25.4859C50.1265 25.6817 49.6566 25.8383 48.9518 25.8383C48.0512 25.8383 47.7771 25.9558 48.0904 26.2691C48.3645 26.5431 49.0301 26.5431 50.2831 26.1907C52.1626 25.7209 53.2981 25.8775 53.2981 26.6215C53.2981 26.8956 53.024 26.8956 52.4759 26.5823C51.8102 26.2691 51.3403 26.2691 50.2048 26.7389C49.4217 27.0913 48.5211 27.4437 48.2078 27.5612C47.8946 27.6395 48.1687 27.757 48.8343 27.757C49.4608 27.7961 50.3614 27.522 50.7921 27.2088C51.1837 26.8956 51.7319 26.6606 51.9277 26.6606C52.1626 26.6215 51.8885 26.9739 51.3403 27.4046C50.7921 27.8353 49.7349 28.1877 48.991 28.1877C48.247 28.1877 46.994 28.3443 46.25 28.5401C44.9187 28.9317 44.9187 28.8925 45.7802 28.3052C46.25 27.9919 46.6416 27.4046 46.6416 27.0522C46.6416 26.6998 46.7982 26.2299 46.994 25.995C47.6205 25.3685 48.991 20.8264 48.991 19.4559C48.991 17.5372 48.1687 16.9891 45.5061 17.1457L43.3133 17.2632L42.4127 15.3053C41.7471 13.8174 41.5905 12.9168 41.7471 11.8596C41.9429 10.7632 41.9037 10.5283 41.5905 10.959C41.0031 11.7813 41.0423 11.0373 41.7079 8.88374C42.2953 6.92594 41.982 6.29944 41.3164 8.10062C40.964 9.07952 40.8856 9.00121 40.8465 7.12172C40.8073 5.59463 41.0423 4.53742 41.7471 3.08864L42.726 1.16999H45.2711C46.6416 1.16999 48.247 1.36577 48.8735 1.60071ZM52.9066 3.1278C53.259 3.79345 53.2198 3.91092 52.5542 3.91092C52.006 3.91092 51.8102 3.67598 51.8494 3.1278C51.8885 2.69708 52.0451 2.34468 52.2018 2.34468C52.3584 2.34468 52.6716 2.69708 52.9066 3.1278ZM65.4757 5.16391C66.3763 5.79041 66.3763 5.79041 64.8883 5.3597C63.6745 5.00729 63.3221 5.00729 63.1655 5.39885C63.0872 5.67294 62.304 5.86872 61.4034 5.86872C60.5029 5.86872 59.5631 6.02535 59.289 6.18197C59.0541 6.3386 60.4637 6.41691 62.4215 6.37775C65.4757 6.3386 66.1805 6.45607 67.1202 7.12172C68.2558 7.944 68.2949 8.02231 68.06 10.6458C67.9425 12.1729 67.6293 13.6216 67.3552 13.9349C67.1202 14.209 67.0028 14.7572 67.1594 15.0704C67.2769 15.4228 67.2377 15.5794 67.0028 15.462C66.4937 15.1487 66.4937 15.5011 67.0811 16.5583C67.5118 17.3806 67.4726 17.3806 66.807 16.8324C66.1413 16.2842 66.1022 16.3234 66.3371 16.9107C66.4937 17.3023 66.7287 17.9288 66.8461 18.2812C67.0419 18.9469 67.0419 18.9469 66.4937 18.2812C65.6715 17.3023 65.2799 17.4589 65.9847 18.477C66.3371 18.9469 66.6112 19.6908 66.6112 20.1215C66.6112 20.7872 66.4154 20.7089 65.3974 19.5734L64.2227 18.2029L65.2799 20.0824C65.8281 21.1004 66.2196 22.0794 66.063 22.1968C65.9456 22.3143 66.0239 22.6667 66.2588 22.9799C66.5329 23.254 66.807 24.7028 66.9245 26.1516L67.0811 28.8142L63.2046 28.775C60.4637 28.775 59.0932 28.9317 58.6625 29.3232C58.0752 29.7931 57.9969 29.7539 57.9969 29.2058C57.9969 28.3052 60.3071 27.4046 62.6956 27.4046C63.7528 27.4046 64.6534 27.2088 64.6534 27.013C64.6534 26.504 59.9155 26.504 58.5842 27.013C58.036 27.2088 57.6836 27.5612 57.8011 27.7961C57.9186 27.9919 57.7619 28.1877 57.4487 28.1877C56.9005 28.1877 56.6264 27.4437 56.783 26.4648C56.9396 25.76 56.3523 23.8805 56.0391 24.0763C55.8824 24.1546 55.6475 23.7239 55.4909 23.0583C55.3342 22.1968 55.53 21.492 56.1565 20.4348C57.8402 17.733 57.8402 17.733 57.018 18.3987C56.3523 18.9469 56.3132 18.9077 56.5872 18.2029C57.2921 16.4409 57.1746 15.971 56.3915 17.5372C55.2951 19.8866 55.021 19.3776 56.0391 16.7933C56.9396 14.3264 56.9788 14.0132 56.274 14.9921C55.8433 15.5403 55.6475 15.5794 55.4126 15.1879C55.0993 14.718 54.8644 8.60965 55.1385 8.60965C55.1776 8.60965 55.4909 9.07952 55.8041 9.66687C56.6656 11.2331 56.5481 10.3325 55.6475 7.90484C54.6294 5.28138 54.9818 4.61573 57.6836 3.59767C59.7197 2.8537 59.7197 2.8537 62.1083 3.67598C63.4396 4.1067 64.9667 4.81151 65.4757 5.16391ZM38.2622 4.49826C38.9278 5.39885 38.6537 5.75126 37.7923 5.04645C36.8134 4.26332 35.952 4.22417 36.3044 5.00729C36.4218 5.3597 36.6568 6.06451 36.7351 6.53438C36.8526 7.04341 37.1267 7.43497 37.3224 7.43497C37.5182 7.43497 37.5965 7.04341 37.4791 6.53438C37.3224 6.02535 37.4791 6.14282 37.7923 6.84763C38.4188 8.17893 38.1056 8.60965 36.3827 8.60965C35.7562 8.60965 35.2863 8.76628 35.2863 9.00121C35.2863 9.19699 35.8345 9.39277 36.461 9.39277C37.5965 9.39277 37.6357 9.47109 37.6357 11.1548C37.6357 12.1337 37.7532 12.8777 37.9489 12.8777C38.8104 12.721 39.1628 12.9951 38.9278 13.5825C38.7712 14.0132 38.8104 14.1307 39.1236 13.9349C39.3977 13.7783 39.5935 13.8957 39.5935 14.2481C39.5935 14.5614 39.0845 14.9138 38.458 15.0704C37.8706 15.1879 36.7743 15.8535 36.0694 16.5583C34.9731 17.6156 34.8164 17.6939 35.0514 16.9499C35.3646 15.9318 34.5424 15.9318 33.4068 16.9499C32.3496 17.9288 31.5665 17.7722 32.5062 16.7933C33.4851 15.7361 33.2894 15.2662 31.3316 14.1698C29.4912 13.1126 29.6478 13.7391 31.5273 14.9529L32.7412 15.7361L31.5665 15.5011C30.4701 15.2662 30.431 15.3053 31.1358 15.8535C31.5665 16.1668 31.7623 16.4409 31.5273 16.4409C31.3316 16.4409 30.4701 15.8927 29.6478 15.2662C28.8256 14.6397 28.0033 14.209 27.8467 14.2873C27.69 14.4048 27.3376 14.209 27.0635 13.8957C26.5545 13.3084 26.3587 9.19699 26.7894 8.76628C26.9461 8.60965 27.4943 8.84459 27.9641 9.35362C28.4732 9.82349 29.4912 10.3717 30.2352 10.5675C31.8014 11.0373 34.3857 11.0765 34.6207 10.6458C34.7381 10.4891 33.8375 10.3717 32.6237 10.3717C30.7051 10.3717 30.1177 10.1759 28.5515 9.04037C26.3979 7.47412 26.3979 7.00425 28.5123 8.02231C29.4912 8.49218 30.0002 8.5705 30.1177 8.2964C30.196 7.98315 31.2532 7.90484 33.3677 8.06147C35.4429 8.21809 36.461 8.13978 36.461 7.86569C36.461 7.35666 36.6959 7.39581 32.8195 7.3175C31.1749 7.27834 29.7653 7.39581 29.687 7.59159C29.6087 7.78737 29.0213 7.63075 28.3165 7.23919C26.8678 6.37775 27.0244 5.79041 28.5515 6.22113C29.4129 6.49522 29.8828 6.37775 30.7442 5.63379L31.8014 4.69404H30.9008C30.3918 4.69404 29.7262 4.92898 29.4521 5.16391C29.0605 5.59463 29.0213 5.55548 29.2171 5.00729C29.6478 3.95008 31.3316 3.51936 34.6598 3.67598C37.1267 3.7543 37.8706 3.95008 38.2622 4.49826ZM39.476 7.90484C39.3586 8.21809 39.2411 8.10062 39.2411 7.66991C39.2019 7.23919 39.3194 7.00425 39.4369 7.16088C39.5543 7.27834 39.5935 7.63075 39.476 7.90484ZM75.4213 9.07952C73.0328 9.94096 72.4063 11.1156 74.7165 10.4891C75.4996 10.2934 76.7135 10.1759 77.4574 10.2542C78.1623 10.3325 78.7496 10.2934 78.7496 10.1367C78.7496 9.98012 78.0839 9.74518 77.3008 9.66687L75.8129 9.51024L77.4966 9.47109C78.9454 9.39277 79.2195 9.51024 79.5327 10.4108C80.0809 11.7813 80.0418 11.8205 79.102 11.3114C78.1231 10.8024 75.343 11.0765 74.6774 11.7421C74.3641 12.1337 74.6774 12.1729 76.1653 12.0162C77.2617 11.8988 78.5538 11.9771 79.102 12.1729C79.7285 12.4469 80.1592 12.4078 80.3158 12.1337C80.4725 11.8988 80.7857 12.6036 81.0207 13.7391C81.6472 16.3234 81.608 16.5583 80.864 16.2842C80.3942 16.0885 80.2767 16.2059 80.4725 16.6758C80.5899 17.0282 80.8249 17.7722 80.9423 18.3204C81.099 19.2601 81.099 19.2601 80.5508 18.1637C80.0809 17.0674 79.1412 16.0493 79.1412 16.5975C79.1412 17.0282 80.5116 19.7691 80.864 20.0041C81.3339 20.3565 80.7857 22.9408 79.8851 24.742C79.4544 25.5642 79.2978 26.2299 79.4936 26.2299C79.6893 26.2299 79.9243 26.0341 80.0026 25.76C80.0809 25.5251 80.4725 25.2902 80.8249 25.2118C81.3339 25.1335 81.4905 25.4076 81.4905 26.2691C81.4905 26.8956 81.3339 27.4046 81.1381 27.4046C80.9423 27.4046 80.5899 27.8745 80.355 28.4618C79.5719 30.3021 77.6532 32.1816 76.7918 31.9075C76.2045 31.7118 76.1261 31.8292 76.2828 32.4949C76.596 33.5912 76.1261 33.4738 75.4213 32.1816C74.8731 31.281 74.7948 31.2419 74.9515 31.9858C75.0689 32.4949 74.9906 32.8864 74.7948 32.8864C74.5991 32.8864 74.4424 32.6123 74.4424 32.2991C74.4424 31.9858 74.2466 31.7118 74.0509 31.7118C73.8159 31.7118 73.7376 32.1816 73.8942 32.769C74.0509 33.6304 74.0117 33.7479 73.6985 33.278C73.4635 32.9647 73.2677 32.3774 73.2677 31.9858C73.2677 30.8895 72.5629 31.2027 72.3672 32.3774C72.2105 33.3955 72.2105 33.3955 72.1322 32.1816C72.0931 30.8112 71.3099 30.4196 71.3099 31.7901C71.3099 33.3172 70.8792 32.2208 70.7618 30.3804C70.566 27.8745 70.1353 27.6395 70.0961 29.9889C70.0178 31.9075 70.0178 31.9075 69.7045 29.3624C69.0389 24.2329 68.9997 23.5281 69.5871 23.7631C69.9003 23.8805 70.1353 24.3504 70.1353 24.8203C70.1744 25.3685 70.6051 25.8383 71.5449 26.3082C72.837 26.8956 72.9153 26.8956 72.6412 26.3082C72.4846 25.9166 72.1714 24.7811 71.9364 23.7631C71.7015 22.745 71.3099 22.0402 71.1533 22.1968C70.9575 22.3534 70.9184 22.1185 71.0358 21.6095C71.3883 20.1215 70.6443 20.6697 70.1744 22.1968C69.7829 23.6456 69.7829 23.6456 69.9786 21.7269C70.0961 20.6306 70.2527 18.986 70.331 18.0071L70.4877 16.2451L69.7045 17.6156C69.1172 18.6336 68.9997 18.7511 69.1955 18.0071C69.3521 17.4589 69.7045 16.5583 69.9786 15.971C70.7226 14.5614 70.6834 14.1698 69.9395 15.1096C69.3521 15.7752 69.3521 15.7361 69.9003 14.6397L70.4877 13.3867L72.328 14.3264C73.4244 14.8746 74.7557 15.227 75.578 15.1879L76.9876 15.1487L75.7346 14.9921C75.0298 14.9138 74.4424 14.6788 74.4424 14.4439C74.4424 14.2481 74.0117 14.0915 73.4635 14.0915C72.9153 14.0915 72.0147 13.6608 71.5057 13.1518C70.5268 12.1729 70.5268 12.1729 70.0961 12.956C69.8612 13.4259 69.5871 13.6999 69.5088 13.5825C69.3521 13.4259 69.7829 12.4078 71.1533 9.47109C71.2316 9.27531 74.5991 8.68796 75.6171 8.68796C76.5177 8.68796 76.5177 8.68796 75.4213 9.07952ZM38.3013 10.2542C38.1839 10.5675 38.0664 10.45 38.0664 10.0193C38.0272 9.58855 38.1447 9.35362 38.2622 9.51024C38.3797 9.62771 38.4188 9.98012 38.3013 10.2542ZM29.0213 15.8535C29.5304 16.4017 29.8436 16.8324 29.7262 16.8324C29.6478 16.8324 29.1388 16.4017 28.6298 15.8535C28.1208 15.3053 27.8075 14.8746 27.925 14.8746C28.0033 14.8746 28.5123 15.3053 29.0213 15.8535ZM37.6357 16.8324C37.205 17.6547 36.0694 17.9288 36.0694 17.1848C36.0694 16.9891 36.2261 16.8716 36.4218 16.9891C36.6176 17.1065 36.97 16.9499 37.2441 16.6367C37.9489 15.8144 38.1447 15.8927 37.6357 16.8324ZM47.8163 18.5945C47.8163 19.495 43.2742 19.9258 41.5513 19.221C40.8073 18.9077 41.0814 18.8686 42.8434 19.0643C44.3705 19.221 45.0753 19.1426 45.0753 18.8294C45.0753 18.5945 45.7018 18.3987 46.4458 18.3987C47.1898 18.3987 47.8163 18.477 47.8163 18.5945ZM69.7829 19.4559C69.313 20.239 69.2347 20.0041 69.5871 18.986C69.7437 18.6336 69.9395 18.4378 70.0178 18.5553C70.1353 18.6336 70.0178 19.0643 69.7829 19.4559ZM70.8009 24.3504C70.6834 24.6245 70.6051 24.4287 70.6051 23.8805C70.6051 23.3323 70.6834 23.1366 70.8009 23.3715C70.8792 23.6456 70.8792 24.1155 70.8009 24.3504ZM42.726 26.4257C42.1386 27.9528 41.8254 27.4046 42.4127 25.7992C42.6477 25.0944 42.9218 24.6637 43.0001 24.8986C43.0784 25.1335 42.9609 25.8383 42.726 26.4257ZM55.53 27.6787C55.4517 28.3052 55.3734 27.8745 55.3734 26.8172C55.3734 25.7209 55.4517 25.251 55.53 25.7209C55.6083 26.2299 55.6083 27.0913 55.53 27.6787ZM49.1867 29.7539C49.6958 29.9889 49.7741 30.1064 49.3825 30.1064C49.0693 30.1064 48.5211 29.9497 48.2078 29.7539C47.503 29.2841 48.1295 29.2841 49.1867 29.7539ZM52.1234 29.7539C52.1234 29.9497 52.0451 30.1455 51.9668 30.1455C51.8494 30.1455 51.6536 29.9497 51.5361 29.7539C51.4186 29.519 51.4969 29.3624 51.6927 29.3624C51.9277 29.3624 52.1234 29.519 52.1234 29.7539ZM64.0269 29.9497C63.8703 30.263 63.6353 30.4196 63.4396 30.3021C63.2438 30.1847 63.0872 30.4979 63.0872 31.0069L63.048 31.9075L62.4998 30.9286C62.1866 30.3804 61.9516 30.1847 61.9125 30.4588C61.9125 30.8503 61.7167 30.8503 61.1294 30.5371C59.798 29.8323 60.2679 29.3624 62.304 29.3624C63.8703 29.3624 64.1835 29.4799 64.0269 29.9497ZM60.2679 30.8112C60.5029 31.4377 60.7769 32.2599 60.8944 32.6907C61.1294 33.4738 61.1294 33.4738 60.542 32.7298C60.2288 32.2991 59.9547 31.6726 59.9155 31.3593C59.9155 30.8895 59.798 30.9678 59.5631 31.516C59.289 32.1425 59.2107 32.1816 59.2107 31.6334C59.1715 31.281 59.0541 30.7328 58.9366 30.3804C58.78 29.9889 58.8975 29.7539 59.289 29.7539C59.6023 29.7539 60.033 30.2238 60.2679 30.8112ZM78.9454 32.4949C78.8279 32.6907 78.3189 32.8864 77.849 32.8473C77.0659 32.8081 77.0659 32.769 77.9665 32.4949C78.5147 32.3382 78.9845 32.1816 79.0628 32.1425C79.1412 32.1033 79.0628 32.2599 78.9454 32.4949ZM82.1562 34.9226C82.0387 35.2358 81.9212 35.1183 81.9212 34.6876C81.8821 34.2569 81.9996 34.022 82.117 34.1786C82.2345 34.2961 82.2736 34.6485 82.1562 34.9226ZM42.5302 40.2478C42.1386 42.0098 41.7079 43.5761 41.5513 43.6544C41.3555 43.7718 41.473 42.9104 41.7862 41.814C42.0603 40.6785 42.4519 38.6032 42.6085 37.1936C42.8043 35.5099 42.9609 35.04 43.0392 35.8231C43.1175 36.4496 42.8826 38.4466 42.5302 40.2478ZM80.9423 39.0339C80.9032 40.1695 80.9423 41.1092 81.0598 41.1092C81.1381 41.1092 81.4514 40.796 81.7646 40.4044C82.2736 39.7779 82.2736 39.8171 81.9212 40.5219C81.7255 40.9526 81.2947 41.6574 80.9423 42.0881C80.3942 42.7929 80.355 42.5971 80.355 39.1514C80.355 36.9195 80.5116 35.7448 80.6682 36.2147C80.864 36.6454 80.9815 37.9376 80.9423 39.0339ZM59.5631 37.7809C59.5631 38.1725 57.9969 37.4285 57.8402 36.9587C57.6836 36.528 57.8402 36.528 58.5842 37.037C59.1324 37.3894 59.5631 37.7418 59.5631 37.7809ZM67.1985 37.9767C65.6323 39.6213 65.2407 39.4647 66.7287 37.7809C67.3943 37.037 68.0208 36.4888 68.1383 36.6063C68.2166 36.7237 67.825 37.3502 67.1985 37.9767ZM63.2046 37.2719C62.9697 37.7026 61.2077 37.6635 60.9336 37.2328C60.8161 37.037 61.3251 36.8804 62.0691 36.9195C62.8131 36.9587 63.3221 37.1153 63.2046 37.2719ZM57.2529 38.2508L58.1926 39.308L57.1354 38.6424C55.7258 37.7809 55.7258 38.055 57.0963 39.3472C57.6836 39.8954 58.036 40.3261 57.8402 40.3261C57.6053 40.3261 57.018 39.9345 56.5089 39.4255C55.5692 38.6424 55.53 38.6032 55.8041 39.3472C55.9999 39.9345 55.9607 40.0128 55.6475 39.6996C55.3342 39.3863 55.3342 38.9948 55.6867 38.2508C55.9607 37.6635 56.1957 37.1936 56.2348 37.1936C56.274 37.1936 56.7047 37.6635 57.2529 38.2508ZM78.3189 40.6393C78.2797 44.2025 78.0839 43.9676 77.849 40.052C77.7707 38.4858 77.849 37.3111 78.0056 37.4285C78.2014 37.546 78.358 38.9948 78.3189 40.6393ZM79.0237 38.6424C78.9062 39.0339 78.8279 38.799 78.8279 38.1725C78.8279 37.5069 78.9062 37.2328 79.0237 37.4677C79.102 37.7418 79.102 38.29 79.0237 38.6424ZM51.8885 42.9104C52.3192 46.317 52.4367 48.3923 52.2018 48.6272C51.9668 48.8621 51.6536 47.0609 51.3403 43.6935C51.0662 40.7568 50.6747 38.3683 50.4789 38.3683C50.2831 38.3683 50.244 38.1725 50.3614 37.9767C50.9488 37.037 51.1837 37.8984 51.8885 42.9104ZM69.3521 37.9767C69.3521 38.1725 69.1564 38.3683 68.9214 38.3683C68.7256 38.3683 68.6473 38.1725 68.7648 37.9767C68.8823 37.7418 69.078 37.5852 69.1955 37.5852C69.2738 37.5852 69.3521 37.7418 69.3521 37.9767ZM46.4067 38.9556C46.25 39.2689 46.0934 39.543 46.0151 39.543C45.9368 39.543 45.8585 39.2689 45.8585 38.9556C45.8585 38.6424 46.0151 38.3683 46.25 38.3683C46.4458 38.3683 46.5241 38.6424 46.4067 38.9556ZM49.0693 43.9285C48.9518 47.4133 48.756 49.2145 48.4819 49.0579C48.247 48.9013 48.2078 47.1784 48.3645 44.2025C48.5994 40.0912 48.8735 38.0942 49.1867 38.4466C49.2259 38.5249 49.1867 40.9917 49.0693 43.9285ZM55.2559 44.9465C55.2559 45.0248 55.4517 44.9465 55.6475 44.829C55.9216 44.6724 55.9216 44.3592 55.6475 43.8501C55.0993 42.7929 55.1776 42.5188 55.8433 43.067C56.5481 43.6544 56.5481 44.4375 55.9216 45.8863C55.6083 46.5911 55.2951 46.8652 54.9818 46.6694C54.5903 46.3953 52.8674 39.6604 52.9457 38.5641C52.9457 38.2508 55.2168 44.5158 55.2559 44.9465ZM70.4093 39.9737C69.822 40.9134 69.6262 40.6785 69.9786 39.3472C70.1353 38.6424 70.331 38.4466 70.5268 38.799C70.7226 39.0731 70.6443 39.5821 70.4093 39.9737ZM63.1263 39.4647C61.9516 39.543 60.8553 39.4647 60.6986 39.2689C60.542 39.1123 61.4818 39.0339 62.8131 39.1514L65.2407 39.3472L63.1263 39.4647ZM53.5331 45.2989C53.6505 46.4736 53.6114 47.3742 53.4156 47.3742C53.1023 47.3742 52.0451 40.9526 52.1626 39.543C52.2018 38.6815 53.2198 42.9104 53.5331 45.2989ZM82.861 40.9917C82.1953 42.5971 81.4905 43.4977 81.4905 42.7929C81.4905 42.2839 83.0176 39.543 83.2917 39.543C83.37 39.543 83.1742 40.2086 82.861 40.9917ZM57.4095 41.1484C57.2921 41.305 57.527 41.6182 57.8794 41.8532C58.545 42.2447 58.545 42.2447 57.8402 42.2839C57.4487 42.2839 56.8613 41.9707 56.5872 41.5791C55.8433 40.6393 55.9216 40.3653 56.8222 40.6002C57.2529 40.7177 57.4878 40.9526 57.4095 41.1484ZM50.2048 45.9254C50.2048 48.6663 50.3614 50.8982 50.4789 50.8982C50.6355 50.8982 51.4969 50.1543 52.4759 49.2145C54.3553 47.4133 54.277 47.8441 52.2409 50.3892C50.8705 52.0729 50.8705 52.6211 52.2018 51.4073C52.9849 50.7025 53.1807 51.2506 52.4367 51.9946C52.2018 52.2295 52.0843 52.5428 52.2018 52.6994C52.7891 53.2476 56.8222 46.082 56.8222 44.4375C56.8222 43.9285 56.9396 43.811 57.2529 44.1242C57.527 44.3983 57.4878 44.9465 57.0571 46.0037C56.274 47.8441 56.274 48.1965 57.0571 47.1784C57.6053 46.4344 57.6445 46.4736 57.4487 47.8441C57.2529 49.4103 56.7047 50.6633 56.3132 50.4284C56.0782 50.3109 53.2981 54.6572 53.2981 55.0879C53.2981 55.2054 53.5722 55.0488 53.9638 54.7747C54.5511 54.2657 54.5511 54.3048 54.1204 55.0879C53.8855 55.597 53.8072 55.9885 54.0029 55.9885C54.1987 55.9885 54.5903 55.5578 54.8644 55.0096C55.1385 54.4614 55.4517 54.109 55.5692 54.2265C55.6867 54.3048 55.4517 54.853 55.0993 55.362C54.3553 56.5367 54.2379 57.7114 54.9818 56.6933C55.4126 56.1452 55.4909 56.4976 55.4909 58.6511C55.53 60.0999 55.6475 62.0969 55.8041 63.1149C55.9607 64.2505 55.9216 64.9944 55.7258 64.9944C55.53 64.9944 55.2559 63.8198 55.1776 62.3318C55.0602 60.7264 54.6294 58.7295 53.9638 57.2024L52.9457 54.6964L54.512 52.1512C55.3342 50.7416 56.0391 49.2928 56.0391 48.9796C56.0391 48.6272 55.2951 49.6452 54.3945 51.1723C53.4939 52.7386 52.6325 54.0307 52.4367 54.0307C52.2801 54.0307 51.5361 53.091 50.753 51.9946C49.4608 50.0368 49.3825 49.7627 49.3825 46.5519C49.3825 43.4586 49.6958 40.5219 50.009 40.8351C50.0873 40.8743 50.1656 43.1845 50.2048 45.9254ZM62.8914 41.1092C61.8342 41.5791 59.8764 41.5791 59.1715 41.1092C58.78 40.8351 59.3673 40.7177 61.1294 40.7568C62.8914 40.7568 63.4396 40.8743 62.8914 41.1092ZM83.5658 41.6966C83.4483 42.049 83.2526 42.2447 83.1742 42.1273C83.0568 42.0098 83.0959 41.7749 83.2526 41.5399C83.605 40.9134 83.8399 41.0309 83.5658 41.6966ZM40.7682 43.067C40.7682 43.2628 40.5724 43.4586 40.3375 43.4586C40.1417 43.4586 40.0634 43.2628 40.1808 43.067C40.2983 42.8321 40.4941 42.6755 40.6116 42.6755C40.6899 42.6755 40.7682 42.8321 40.7682 43.067ZM81.4122 45.8471C80.9815 47.1393 80.5508 48.1573 80.5116 48.079C80.2767 47.8441 81.608 43.4586 81.9212 43.4586C82.0779 43.4586 81.8429 44.5158 81.4122 45.8471ZM39.7893 44.2417C39.9067 44.4375 39.8284 44.6333 39.6326 44.6333C39.3977 44.6333 39.2019 44.4375 39.2019 44.2417C39.2019 44.0068 39.2802 43.8501 39.3586 43.8501C39.476 43.8501 39.6718 44.0068 39.7893 44.2417ZM47.6988 45.2989C47.5813 45.6905 47.503 45.4555 47.503 44.829C47.503 44.1634 47.5813 43.8893 47.6988 44.1242C47.7771 44.3983 47.7771 44.9465 47.6988 45.2989ZM35.952 44.4766C35.8345 44.5941 35.4821 44.6333 35.208 44.5158C34.8948 44.3983 35.0122 44.2809 35.4429 44.2809C35.8737 44.2417 36.1086 44.3592 35.952 44.4766ZM46.1326 46.2778C46.0151 46.5519 45.9368 46.3561 45.9368 45.8079C45.9368 45.2598 46.0151 45.064 46.1326 45.2989C46.2109 45.573 46.2109 46.0429 46.1326 46.2778ZM20.2895 47.2567C20.1721 47.6483 20.0938 47.4133 20.0938 46.7869C20.0938 46.1212 20.1721 45.8471 20.2895 46.082C20.3678 46.3561 20.3678 46.9043 20.2895 47.2567ZM82.0387 47.9224C81.9212 48.2748 81.6472 48.5489 81.4514 48.5489C81.2556 48.5489 81.2947 48.1965 81.5688 47.7658C82.117 46.9043 82.3911 46.9826 82.0387 47.9224ZM84.3881 49.2145C84.5055 50.0368 84.5839 51.4073 84.5839 52.2687C84.5447 53.7566 84.5055 53.7175 83.9965 51.4856C83.37 48.7055 83.3309 47.7658 83.8007 47.7658C83.9574 47.7658 84.2315 48.4314 84.3881 49.2145ZM54.512 48.823C53.9246 49.9193 52.9457 51.1332 52.9066 50.7808C52.9066 50.4675 54.512 48.1573 54.7469 48.1573C54.8252 48.1573 54.7077 48.4706 54.512 48.823ZM82.9393 51.6814C82.1953 52.7386 81.8429 52.2687 82.352 50.8199C82.7044 49.841 82.8218 49.7236 83.1351 50.2717C83.37 50.7025 83.2917 51.1723 82.9393 51.6814ZM18.9582 53.0518C19.154 54.1482 19.1149 54.3831 18.8408 53.8349C18.5275 53.091 18.2926 50.9766 18.6058 51.329C18.6841 51.4073 18.8408 52.1904 18.9582 53.0518ZM83.879 55.5578C83.9182 56.8891 83.8399 58.0638 83.7224 58.1813C83.4092 58.4945 82.6652 53.6783 82.9393 53.0127C83.37 51.838 83.8399 53.1301 83.879 55.5578ZM76.5569 59.2776C76.2045 60.2957 75.852 61.0397 75.7737 60.9614C75.6954 60.883 75.8912 59.9825 76.2436 58.9644C76.596 57.9463 76.9484 57.2024 77.0267 57.2807C77.105 57.359 76.9093 58.2596 76.5569 59.2776ZM80.9032 60.7656C80.1201 63.3107 79.0237 65.3468 78.2797 65.5035C77.849 65.6209 77.6141 65.895 77.7315 66.0908C77.849 66.3257 77.6924 66.5607 77.3791 66.7173C76.5569 67.0306 76.6352 66.7565 78.0839 64.877C78.7496 63.9764 79.6893 62.4884 80.0809 61.5487C80.9032 59.7867 81.3339 59.356 80.9032 60.7656ZM82.4694 61.8619C82.3128 62.3318 82.117 62.6059 81.9996 62.5276C81.8821 62.4101 81.9212 61.9403 82.0779 61.4704C82.2345 61.0005 82.4303 60.7264 82.5477 60.8047C82.6652 60.9222 82.6261 61.3921 82.4694 61.8619ZM26.7894 64.7203C27.1419 65.7384 27.2593 66.4824 27.0635 66.3649C26.7111 66.1691 25.8889 63.6631 25.8889 62.88C25.8889 62.2535 26.1629 62.7625 26.7894 64.7203ZM82.3128 64.2505C81.9604 65.1119 81.9212 65.1119 81.9212 64.3679C81.8821 63.9372 81.9996 63.4282 82.1562 63.3107C82.6261 62.8409 82.7044 63.3107 82.3128 64.2505ZM76.6743 64.2113C77.105 64.2113 77.0267 64.4854 76.3219 65.3468C75.343 66.5998 74.9515 66.7565 74.09 66.2083C73.6593 65.9342 73.6985 65.6992 74.2466 64.8378C74.6774 64.2113 75.1864 63.8589 75.4996 63.9764C75.8129 64.133 76.3219 64.2113 76.6743 64.2113ZM54.3162 65.6601C53.9246 66.0517 53.5722 65.4643 53.9246 64.9553C54.1596 64.5246 54.2379 64.5246 54.3945 64.9553C54.4728 65.2294 54.4337 65.5426 54.3162 65.6601ZM54.512 67.6179C54.0421 68.401 53.9638 68.1661 54.3162 67.148C54.4728 66.7956 54.6686 66.5998 54.7469 66.7173C54.8644 66.7956 54.7469 67.2263 54.512 67.6179ZM73.6593 66.9522C73.6593 67.148 73.3069 67.3438 72.837 67.3438C72.4063 67.3438 72.1714 67.148 72.2888 66.9522C72.4063 66.7173 72.7979 66.5607 73.1111 66.5607C73.4244 66.5607 73.6593 66.7173 73.6593 66.9522ZM33.446 71.9251C33.6418 72.2383 33.5635 72.3558 33.211 72.2383C32.7412 72.0425 30.5876 68.1269 30.5876 67.4613C30.5876 67.3046 31.1749 68.1661 31.8797 69.3408C32.5846 70.5154 33.2894 71.6901 33.446 71.9251ZM75.1864 69.6149C76.0087 69.7323 76.3219 69.889 76.0087 70.0847C75.4213 70.4371 73.3069 69.889 72.7196 69.2625C72.4063 68.91 72.4846 68.8709 73.072 69.1058C73.5027 69.2625 74.4424 69.4974 75.1864 69.6149ZM74.0117 70.7112C74.09 70.7895 73.8942 70.8679 73.581 70.8679C73.2286 70.8679 72.5629 70.5154 72.0539 70.0847L71.1142 69.2625L72.4846 69.9281C73.2286 70.2805 73.9334 70.6329 74.0117 70.7112ZM77.5358 70.7112C76.831 71.4944 75.6954 72.3558 75.0298 72.669L73.8551 73.2564L75.0298 72.3558C75.6563 71.8468 76.7135 70.9853 77.3791 70.398C79.0628 68.8709 79.1412 69.0667 77.5358 70.7112ZM71.0358 73.2172C70.8009 73.4913 68.1775 70.5938 68.1775 70.0456C68.1775 69.8106 68.8823 70.3588 69.7045 71.2986C70.5268 72.2383 71.1533 73.0998 71.0358 73.2172ZM72.8762 71.4944C72.8762 71.5727 72.3672 71.5727 71.7407 71.5335C71.1142 71.4944 70.6051 71.2594 70.6443 71.0636C70.6834 70.8287 70.4877 70.7112 70.1744 70.7895C69.7045 70.907 69.7045 70.7895 70.0961 70.3197C70.5268 69.8106 70.7226 69.8106 71.7407 70.5546C72.3672 71.0245 72.8762 71.4552 72.8762 71.4944ZM67.1594 72.0034C66.9245 72.2383 66.2196 71.2594 66.2196 70.6721C66.2588 70.4371 66.4937 70.6329 66.807 71.0245C67.1202 71.4552 67.2769 71.8859 67.1594 72.0034ZM75.0298 71.651C74.9123 71.8468 74.4816 72.0425 74.1292 72.0034C73.581 72.0034 73.6202 71.9251 74.2466 71.651C75.3039 71.2203 75.3039 71.2203 75.0298 71.651ZM72.8762 72.904C72.8762 73.413 71.9756 73.0998 71.7798 72.5124C71.7015 72.2383 71.8581 72.1208 72.2497 72.2775C72.6021 72.3949 72.8762 72.7082 72.8762 72.904ZM77.1834 72.1992C77.1834 72.2775 76.8701 72.5907 76.5177 72.8648C75.8912 73.3738 75.852 73.3347 76.3611 72.7082C76.8701 72.0817 77.1834 71.8859 77.1834 72.1992ZM48.9518 74.0395C48.4428 75.0576 48.0512 74.7443 48.4036 73.6479C48.5211 73.1781 48.8343 72.904 49.0301 73.0214C49.2259 73.1781 49.2259 73.5696 48.9518 74.0395ZM77.1834 74.7835C77.1834 74.9792 77.105 75.175 77.0267 75.175C76.9093 75.175 76.7135 74.9792 76.596 74.7835C76.4785 74.5485 76.5569 74.3919 76.7526 74.3919C76.9876 74.3919 77.1834 74.5485 77.1834 74.7835ZM35.6387 76.2714C35.5996 76.8587 35.4429 77.7593 35.2863 78.3075C35.0514 79.0515 34.9731 78.7382 34.9339 77.0154C34.8948 75.6057 35.0514 74.8226 35.2863 74.9792C35.5213 75.0967 35.6779 75.6841 35.6387 76.2714ZM76.7918 76.5063C76.7918 76.9762 76.596 76.7804 76.0478 75.5666C75.6171 74.6268 75.6171 74.6268 76.1653 75.3316C76.5177 75.7624 76.7918 76.2714 76.7918 76.5063ZM76.1653 78.6991C76.2828 79.2473 75.9695 78.7382 75.4213 77.5635C74.8731 76.428 74.4424 75.3708 74.4424 75.2142C74.4816 74.7835 75.8912 77.681 76.1653 78.6991ZM36.3435 77.4069C36.2261 77.7985 36.1478 77.4852 36.1478 76.7413C36.1478 75.9973 36.2261 75.6841 36.3435 76.0365C36.4218 76.428 36.4218 77.0545 36.3435 77.4069ZM34.9731 80.931C34.8556 81.5575 34.699 81.7924 34.5815 81.5183C34.4249 81.0093 34.7381 79.8738 35.0122 79.8738C35.0905 79.8738 35.0905 80.3436 34.9731 80.931ZM34.2683 85.1598C34.1116 85.4731 33.955 85.7472 33.8767 85.7472C33.7984 85.7472 33.7201 85.4731 33.7201 85.1598C33.7201 84.8466 33.8767 84.5725 34.1116 84.5725C34.3074 84.5725 34.3857 84.8466 34.2683 85.1598Z" fill="#0C0C0C"></path>
<path d="M47.5421 30.069C46.5632 30.4214 47.033 30.7738 48.6384 30.8521C50.0089 30.9305 50.1655 30.8913 49.774 30.3823C49.3041 29.7949 48.4427 29.6775 47.5421 30.069Z" fill="#0C0C0C"></path>
<path d="M41.9821 5.67303C41.9821 5.86881 42.217 6.417 42.5302 6.80856C42.8435 7.23927 43.1176 7.3959 43.1176 7.20012C43.1176 6.96518 42.8435 6.45615 42.5302 6.02544C42.217 5.63387 41.9821 5.43809 41.9821 5.67303Z" fill="#0C0C0C"></path>
<path d="M44.4881 7.23918C45.1537 7.78737 45.8194 8.21809 46.0151 8.21809C46.6416 8.21809 45.0362 6.73015 44.1748 6.53437C43.4308 6.33859 43.5092 6.45606 44.4881 7.23918Z" fill="#0C0C0C"></path>
<path d="M45.9759 10.8415C46.3675 11.468 49.774 11.8987 50.2831 11.3897C50.5963 11.0765 50.4397 10.959 49.774 10.959C49.2259 10.959 48.0903 10.8415 47.2681 10.6849C46.25 10.5283 45.8193 10.5674 45.9759 10.8415Z" fill="#0C0C0C"></path>
<path d="M56.9396 30.7738C56.2348 31.087 55.6475 31.5177 55.6475 31.7527C55.6475 32.0268 55.9999 31.9485 56.5089 31.5961C56.9788 31.2436 58.1926 30.9696 59.1715 30.9304C60.1504 30.8912 61.3643 30.7346 61.9124 30.578C62.6564 30.3431 62.304 30.2647 60.542 30.2256C59.2498 30.2256 57.6053 30.4605 56.9396 30.7738Z" fill="#0C0C0C"></path>
<path d="M56.0389 7.43498C56.0389 8.13979 56.9395 9.78435 57.3702 9.8235C60.4244 10.1368 60.5419 10.0976 59.7588 9.51025C58.9756 8.88375 58.9756 8.88375 59.7588 9.197C60.1895 9.35363 60.9726 9.54941 61.5208 9.62772C62.1864 9.74519 62.0298 9.58856 60.9335 9.07954C59.4064 8.33557 59.3672 8.33557 58.9365 9.07954C58.5449 9.8235 58.4666 9.8235 57.6835 8.80544C57.2136 8.2181 56.8221 7.55245 56.8221 7.39582C56.8221 7.20004 56.6654 7.04342 56.4305 7.04342C56.2347 7.04342 56.0389 7.20004 56.0389 7.43498Z" fill="#0C0C0C"></path>
<path d="M63.9486 8.02227C65.8281 8.72708 67.0811 9.90176 66.807 10.6457C66.6504 10.9981 66.7287 11.3897 66.9245 11.5072C67.3943 11.7813 67.7859 10.4499 67.5118 9.43189C67.316 8.60961 64.81 7.43493 63.3613 7.47408C62.7348 7.47408 62.8914 7.63071 63.9486 8.02227Z" fill="#0C0C0C"></path>
<path d="M57.8402 8.41389C57.9969 8.72714 58.271 9.00123 58.4667 9.00123C58.7017 9.00123 58.6625 8.76629 58.3884 8.41389C58.1143 8.10064 57.8402 7.82655 57.7619 7.82655C57.6836 7.82655 57.7228 8.10064 57.8402 8.41389Z" fill="#0C0C0C"></path>
<path d="M62.4606 8.80549C62.8913 9.11873 63.3221 9.27536 63.4395 9.15789C63.6745 8.92295 62.6956 8.21814 62.1082 8.21814C61.9124 8.2573 62.0691 8.49224 62.4606 8.80549Z" fill="#0C0C0C"></path>
<path d="M72.9154 12.8777C72.563 13.1126 72.8371 13.2692 73.816 13.3867C74.5991 13.465 75.2256 13.3867 75.2256 13.2301C75.2256 13.0735 75.069 12.9168 74.8732 12.9168C74.6774 12.9168 74.2859 12.8385 73.9726 12.7211C73.6985 12.6036 73.2287 12.6819 72.9154 12.8777Z" fill="#0C0C0C"></path>
<path d="M76.8309 13.1126C77.2617 13.5433 79.9243 13.7391 79.9243 13.3475C79.9243 13.1126 79.1803 12.9168 78.2797 12.9168C77.3791 12.9168 76.7526 12.9951 76.8309 13.1126Z" fill="#0C0C0C"></path>
<path d="M77.7706 14.4831C77.888 14.6788 78.4754 14.8746 79.0627 14.8746C79.885 14.8746 80.0025 14.7963 79.5326 14.4831C78.7495 13.974 77.4573 13.974 77.7706 14.4831Z" fill="#0C0C0C"></path>
<path d="M78.9454 18.477C79.7677 20.5131 79.6894 20.7872 78.7105 19.221C78.2798 18.5162 77.849 18.0071 77.7316 18.1246C77.575 18.2421 78.3972 20.0824 79.0629 21.1396C79.2587 21.4529 79.9243 20.1999 79.9243 19.5342C79.9243 19.1818 79.5719 18.477 79.1412 17.968L78.3581 17.0282L78.9454 18.477Z" fill="#0C0C0C"></path>
<path d="M77.1832 19.6516C77.1832 20.004 77.379 20.4348 77.5748 20.5522C78.0838 20.8655 78.0838 20.3565 77.5748 19.5733C77.2615 19.0643 77.1832 19.0643 77.1832 19.6516Z" fill="#0C0C0C"></path>
<path d="M60.033 45.2206C59.9938 47.1392 60.0721 47.4133 60.4245 46.7085C60.6986 46.1212 60.6986 45.4164 60.4245 44.3592C60.033 42.8712 60.033 42.9104 60.033 45.2206Z" fill="#0C0C0C"></path>
<path d="M61.2077 51.9554C60.1113 53.5608 58.3101 57.2023 58.5451 57.4372C58.6234 57.5547 59.1716 56.7716 59.6806 55.7144C60.2288 54.6963 61.1294 53.1692 61.6775 52.3469C62.2257 51.5638 62.4998 50.8982 62.304 50.8982C62.1083 50.8982 61.6384 51.368 61.2077 51.9554Z" fill="#0C0C0C"></path>
<path d="M44.9186 52.0729C44.8011 52.6211 44.8403 53.6783 45.0361 54.4223C45.3493 55.597 45.3885 55.6753 45.4668 54.8139C45.5451 53.9916 45.6234 54.0699 45.8584 55.2054L46.1325 56.5759L46.1716 55.0097C46.2108 54.1482 45.9758 52.8952 45.7017 52.2687L45.1927 51.094L44.9186 52.0729ZM45.3493 53.3259C45.2319 53.6392 45.1144 53.5217 45.1144 53.091C45.0752 52.6603 45.1927 52.4254 45.3102 52.582C45.4276 52.6994 45.4668 53.0518 45.3493 53.3259Z" fill="#0C0C0C"></path>
<path d="M46.4848 54.1091C46.7589 56.6934 46.9156 57.1632 47.4246 57.1632C48.0902 57.1632 47.8945 53.4043 47.1897 52.6994C46.8764 52.347 46.524 52.0729 46.4457 52.0729C46.3674 52.0729 46.3674 53.0127 46.4848 54.1091Z" fill="#0C0C0C"></path>
<path d="M48.4818 55.2446C48.7559 57.3199 48.9909 57.6723 49.03 56.1452L49.0692 55.0097L49.3824 56.1844L49.6957 57.359L49.7348 56.2627C49.7348 55.6753 49.4216 54.8139 49.03 54.3832C48.2861 53.5609 48.2861 53.5609 48.4818 55.2446Z" fill="#0C0C0C"></path>
<path d="M69.1173 58.8078C68.2951 59.9433 66.8463 61.3921 65.9457 62.0577C65.0451 62.6842 64.3011 63.389 64.3011 63.5848C64.262 63.8198 64.4578 63.7806 64.7318 63.5065C65.3192 62.9192 65.9457 62.88 65.5933 63.5065C65.4367 63.7806 65.4758 63.8198 65.7891 63.6631C66.024 63.5065 66.1023 63.1933 65.9848 62.9583C65.8282 62.6842 65.9065 62.6451 66.1806 62.8017C66.6897 63.115 67.3162 62.4101 69.6264 59.0819C71.4275 56.4193 71.036 56.2235 69.1173 58.8078Z" fill="#0C0C0C"></path>
<path d="M56.6656 61.9402C56.9788 64.2505 57.527 66.0125 57.8403 65.6601C57.9577 65.5426 57.8794 64.7986 57.6445 63.9372C57.4095 63.1149 57.2138 61.8619 57.2138 61.1571C57.2138 60.4915 57.018 59.9041 56.8222 59.9041C56.5481 59.9041 56.509 60.6481 56.6656 61.9402Z" fill="#0C0C0C"></path>
<path d="M50.5964 62.3709C50.5573 63.4673 50.2832 65.2685 49.9699 66.3257C49.6567 67.3829 49.3826 68.3227 49.3826 68.401C49.3826 68.4793 49.735 68.3227 50.1657 68.0486C50.7922 67.657 50.9488 67.0697 51.0271 65.3859L51.1054 63.2324L51.2229 65.2685C51.4187 67.6962 52.1235 68.0877 52.1235 65.7384C52.1235 64.0155 51.4187 60.7655 50.9488 60.4914C50.7922 60.4131 50.6356 61.2354 50.5964 62.3709Z" fill="#0C0C0C"></path>
<path d="M41.3555 64.6028C41.7471 65.0335 42.2561 65.3859 42.4519 65.3859C42.6868 65.3859 42.5302 65.0335 42.1386 64.6028C41.7471 64.1721 41.238 63.8197 41.0423 63.8197C40.8073 63.8197 40.964 64.1721 41.3555 64.6028Z" fill="#0C0C0C"></path>
<path d="M43.0392 64.4854C43.3133 64.6029 43.6657 64.5637 43.7831 64.4462C43.9398 64.3288 43.7048 64.2113 43.2741 64.2504C42.8434 64.2504 42.7259 64.3679 43.0392 64.4854Z" fill="#0C0C0C"></path>
<path d="M59.3672 67.6961C59.4847 68.6359 59.7588 69.7322 59.9937 70.163C60.7377 71.5726 60.6985 70.672 59.9546 68.3226C59.2106 66.0516 59.1715 66.0516 59.3672 67.6961Z" fill="#0C0C0C"></path>
<path d="M33.7201 67.9311C33.7201 68.1269 34.7382 69.654 35.9911 71.2594C38.1839 74.1178 40.964 76.2322 42.0603 75.8407C42.3344 75.7624 42.0603 75.4491 41.473 75.175C40.8465 74.9009 40.3766 74.3919 40.3766 74.1178C40.3766 73.8046 40.22 73.6479 40.0242 73.8046C39.7893 73.922 39.1628 73.3738 38.5363 72.5907C37.949 71.8076 37.1267 70.7895 36.7351 70.3588C36.0303 69.5365 36.0303 69.5365 36.2261 70.2805C36.4219 70.907 36.3044 70.907 35.7562 70.1239C34.5815 68.401 33.7592 67.5396 33.7201 67.9311Z" fill="#0C0C0C"></path>
<path d="M41.5513 70.398C41.5513 70.9462 44.0181 72.4341 44.9187 72.4341C45.3886 72.3949 45.1145 72.1208 44.1356 71.651C43.3133 71.2203 42.4127 70.7112 42.0995 70.4371C41.7471 70.163 41.5513 70.1239 41.5513 70.398Z" fill="#0C0C0C"></path>
<path d="M52.2408 73.1781C52.3191 75.0184 52.4366 75.3316 53.1414 75.41C53.9245 75.5274 53.9637 75.4883 53.4938 74.2744C52.28 71.0636 52.1233 70.907 52.2408 73.1781Z" fill="#0C0C0C"></path>
<path d="M59.1715 71.5335C59.1715 72.3166 60.0329 74.3919 60.3462 74.3919C60.542 74.3919 60.4245 73.7263 60.0721 72.904C59.4064 71.2986 59.1715 70.9462 59.1715 71.5335Z" fill="#0C0C0C"></path>
<path d="M60.8162 72.7473C61.0511 73.6871 61.6776 74.6268 62.5391 75.3316C63.283 75.919 63.8704 76.1931 63.8704 75.9973C63.8704 75.8015 63.6746 75.4883 63.4397 75.3316C63.2047 75.2142 62.774 74.4702 62.4608 73.7654C62.1475 73.0214 61.7168 72.4341 61.521 72.4341C61.2861 72.4341 61.1294 72.16 61.1294 71.8467C61.1294 71.5335 60.9728 71.2594 60.777 71.2594C60.5813 71.2594 60.5813 71.8859 60.8162 72.7473Z" fill="#0C0C0C"></path>
<path d="M53.8855 73.178C54.0813 74.5093 54.8252 75.7623 55.1776 75.3707C55.2951 75.2924 55.1776 74.9792 54.9818 74.7051C54.7469 74.431 54.3945 73.6479 54.1204 73.0214L53.6897 71.8467L53.8855 73.178Z" fill="#0C0C0C"></path>
<path d="M55.256 73.5305C55.2168 74.8226 56.0391 75.4883 57.6445 75.4883C58.5451 75.5274 59.4848 75.7232 59.6806 75.919C59.9156 76.1539 60.3071 76.3497 60.542 76.3497C60.7378 76.3497 60.5029 75.9973 59.9547 75.6058C59.4457 75.175 58.8583 74.9401 58.6626 75.0576C58.5059 75.175 57.9577 74.9401 57.527 74.5094C56.7439 73.8829 56.7048 73.8437 56.9397 74.4702C57.3312 75.5666 56.509 75.2925 55.8825 74.0787C55.5692 73.4913 55.2951 73.2564 55.256 73.5305Z" fill="#0C0C0C"></path>
<path d="M41.6297 80.7352C39.2411 83.1237 39.1628 83.2412 39.3194 84.9249C39.4761 86.452 39.8676 86.961 42.8826 90.0152L46.2892 93.4218L45.2712 94.3615L44.214 95.3404L42.8826 93.8916L41.5513 92.4429L40.5724 93.4218C40.0243 93.97 39.5935 94.5181 39.5935 94.6748C39.6327 94.8314 40.6507 96.0452 41.8646 97.3765L44.1356 99.8434L46.3675 97.8073C48.5603 95.8494 48.5994 95.7711 48.5994 93.6567V91.5031L45.5061 88.6056C42.4519 85.7863 42.4128 85.708 42.2561 83.5936C42.217 82.4189 42.217 81.44 42.2561 81.44C42.3345 81.44 43.3525 82.2623 44.5272 83.2412C46.6025 85.0032 46.6416 85.0424 47.6205 84.4159C48.1687 84.0635 48.5994 83.5936 48.5994 83.3586C48.5994 83.1237 47.5814 81.8707 46.3284 80.5786L44.0573 78.2292L41.6297 80.7352Z" fill="black"></path>
<path d="M51.3402 80.0304L49.6173 81.8316H51.5751H53.5721L53.807 88.3315C54.0811 94.4398 54.0419 94.8705 53.298 95.8103C52.4365 96.9067 52.5932 97.494 54.2377 99.0602L55.2949 100L56.7437 98.5512C58.1142 97.1808 58.1533 97.0633 57.6052 96.0452C57.1353 95.1838 57.0178 93.6567 57.057 89.467C57.1744 81.2834 57.0961 81.8316 58.1142 81.8316C59.1322 81.8316 61.7949 78.8949 61.0117 78.6208C60.7768 78.5033 58.8582 78.3858 56.822 78.3467L53.1022 78.2684L51.3402 80.0304ZM55.8431 98.6687C55.7257 98.8645 55.4124 99.0602 55.2166 99.0602C54.9817 99.0602 54.9425 98.8645 55.06 98.6687C55.1775 98.4337 55.4907 98.2771 55.6865 98.2771C55.9214 98.2771 55.9606 98.4337 55.8431 98.6687Z" fill="black"></path>
<path d="M62.8913 79.678L61.3251 81.0093L62.2257 81.949C63.0479 82.8105 63.0871 83.202 63.0871 89.1538C63.0871 94.2832 62.9696 95.5362 62.4998 95.9278C61.5992 96.6717 61.7558 97.2199 63.2829 98.6687L64.6533 100L66.1021 98.5904C67.4726 97.1808 67.5117 97.1416 66.8852 96.1627C66.4154 95.4579 66.2196 94.3224 66.2196 92.2079V89.2321L67.7858 90.5242C69.2738 91.7772 69.3521 91.8947 69.1171 93.5784C68.9997 94.5573 68.7256 95.732 68.4906 96.2019C68.1382 96.9067 68.2557 97.2199 69.3129 98.238C69.9786 98.9036 70.8009 99.4518 71.1141 99.4518C71.4273 99.4518 72.1322 98.8253 72.7195 98.0813C73.6984 96.7892 73.7376 96.6326 73.1111 95.9669C72.6803 95.497 72.4846 94.5573 72.4846 92.7953C72.4846 90.5242 72.3671 90.1718 71.3099 89.0754L70.096 87.8224L71.3099 86.5303C73.1894 84.4942 72.9936 83.0062 70.4093 80.3828C68.4123 78.425 68.1774 78.3075 66.3762 78.3075C64.7708 78.3467 64.1835 78.5424 62.8913 79.678ZM68.1382 82.9671L69.3129 84.455L67.7858 85.943L66.2196 87.47V84.2201C66.2196 82.3406 66.3762 81.0876 66.572 81.2442C66.7678 81.3617 67.4726 82.1057 68.1382 82.9671Z" fill="black"></path>
</svg>